<?xml version="1.0" encoding="UTF-8"?>
<svg id="_图层_2" data-name="图层 2" xmlns="http://www.w3.org/2000/svg" viewBox="0 0 115.61 309.95">
  <defs>
    <style>
      .cls-1 {
        fill: #838282;
      }

      .cls-2 {
        fill: #989a99;
      }

      .cls-3 {
        fill: #4e5352;
      }

      .cls-4 {
        fill: #1e1d21;
      }

      .cls-5 {
        fill: #2f3030;
      }

      .cls-6 {
        fill: #292a29;
      }

      .cls-7 {
        fill: #1a3e77;
      }

      .cls-8 {
        fill: #457fc3;
      }

      .cls-9 {
        fill: #373838;
      }

      .cls-10 {
        fill: #c32f2b;
      }

      .cls-11 {
        fill: #d84542;
      }

      .cls-12 {
        fill: #d7d8d8;
      }

      .cls-13 {
        fill: #981d1a;
      }

      .cls-14 {
        fill: #2b66b4;
      }

      .cls-15 {
        fill: #2059a7;
      }
    </style>
  </defs>
  <g id="_图层_1-2" data-name="图层 1">
    <path class="cls-8" d="M23.33,5.83c6.87,2.73,15.42-.64,22.51-.99,15.39-.77,32.9.16,47.48,5,.2,1.89-2.09.8-3.2.7-15.92-1.43-32.76-6.66-44.21,7.37-2.7,3.31-7.92,15.21-9,15.99-2.45,1.76-5.65-.22-6.58,1.92h49l-7,13c-16.98.08-34.02-.06-51,0l-10.01.5,10.01.5c17.32.1,34.68-.13,52,0,1.67.01,3.33-.02,5,0-5.95,9.58-14.56,17.16-21.4,26.1-6.13,8.02-13,17.95-16.64,27.36-10.6,27.36-19.64,56.14-22.99,85.01-1.05,9.08,1.56,19.51-.97,28.52,3.5.11,7.04-.13,10.54,0,1.92.08,4.01-1.03,3.45,2-10.8.46-16.64-4.01-21.18,8.32-1.41,3.83-3.19,9.89-.82,13.68-2.29,10.93-.21,12.06,2,21,.07.29-.03.66,0,1,0,.07-1.11,0-1,1,.27,2.53,2.49,11.52,0,13-.34.2-1.75-.3-2,.03-.42.55,1.09,2.11.78,2.8-.07.16-1.6.09-1.78.82-.41,1.72-.16,6.26,0,8.34-.99-.07-2.01.05-3,0,.02-.66-.06-1.34,0-2,.24-2.81,2.08-7.22,2.09-10.5s-1.51-6.66-1.19-10.05c.19-1.97,2.21-1.01,2.19-2.89-.03-2.55-1.84-5.17-2.1-8.05-.52-5.73.24-12.18,0-18.05-.08-1.93,1.03-4.01-2-3.45v-4c.64-.08,1.4.12,2,0,3.05-.6,5.56-7.95,6-11,4.96-2.85,4.24-6.52,2.68-11.24-.54-1.63-.18-3.26-2.68-2.76.19-7.31-.14-14.69,0-22v-3c-.05-23.98.07-48.02,0-72,3.02.56,1.94-1.53,2-3.45.35-10.52-1.32-24.27-.08-34.11.24-1.91,1.9-.95,2.15-2.86,1.01-7.63-1.99-7.5-4.08-12.57-.31-.76.27-2.97-.55-4.92-.65-1.54-2.47-2.93-2.53-5.02l-1.92-.06c.02-2.28,1.02-4.5,1-6-.04-2.43-1.95-2.83-2-3-.57-2.18-.84-4.73-1-7,.63.11,1.48-.16,2,0,.11.47.54.85,1,1,.58.79,1.32,4.29,2.21,4.78,6.17,3.44,3.69-6.79,3.79-9.78.08-2.18-.05-3.95,0-6,.06-2.4,1.94-2.08,0-7-.25-.64-1.27-1.66-1-1.98l3-2.02c3.01-.66,7.59-.01,8.47-2.95l.53.95ZM28.83,35.83v1c.65-.33.65-.67,0-1Z"/>
    <path class="cls-7" d="M99.33,6.83c5.02.99,11.32,3.04,13.21,8.28,1.52,4.2,2.49,14.02,2.79,18.72-1.84,2.64-.98,7.54-1,11-.34,72.96,2.09,146.21,1,219l-.98.5.98.5c-.24,14.27-.6,21.99-3,36-.05.26-.87,1-1,2-1.64.42-2.14,2.19-3,3-.54.51-1.87.95-3,2-2.52.4-4.86.92-7.46,1.05-23.5,1.12-56.89,1.71-80.08,0-1.86-.14-4.72-.52-6.46-1.04-.29-.09-1.43-.73-2-1-.21-.1-2.87-1.87-3-2-.31-.31-.78-.7-1-1-1.34-1.82-3.3-7.42-3.77-9.73-1.42-7.06-1.09-20.78-1.28-28.72-1.32-54.48,2.47-109.05,1.05-163.55.27,42.33.99,85.36,1,128v4c0,15.82-.21,31.69-.02,47.51.02,1.69-.64,4.45,1.02,5.49-.06.66.02,1.34,0,2-.09,3.43,1.67,9.53,4.28,11.71,2.15,1.81,14.66,5.61,15.6,1.71l-1.87-9.42,1.54,3.06c23.78.14,47.26.96,70.99-.43.96-.35,2.21-3.61,2.47-4.64-.3,1.01.37,2.93-.14,4.36-.63,1.77-2.68,1.44-2.86,1.64-3.15.18-6.39-.27-9.54-.04-1.29.1-2.62,1.04-2.96,1.04H31.83c-1.57,0-5.81-2.09-8.5-.99-.31.27.76,3.09,1,3.99.21.8-.19,2.06,0,2.99,14.55-.02,28.96,1.21,43.54,1.05,2.36-.03,4.55-1,6.92-1.08,7.18-.24,23.83,1.71,28.83-1.95.87-.64.62-1.93.71-2.01,1.03-.94,3.48-.4,4.59-3.98.86-2.79-.66-4.6-.59-5.02.01-.07.92-.33,1-1s-.05-1.34,0-2c.17-2.35,1.34-3.78.91-7.42-.57-4.79-2.74-3.36-2.91-3.58-.51-.68.38-8.19,0-10l-4.87.13c-.96.61-3.81,17.92-4.59,20.96-.35,1.36-1.36,2.31-1.54,2.91,1.63-6.56,1.9-15.18,3-22-27.15,3.58-55.08,4.76-81.99-1l2.49,18.99c-3.22-5.09-2.49-12.5-4-18.03-1.02-3.75-3.69-3.77-4.51-6.97,20.77,3.77,43.37,5.07,64.55,4.05,5.82-.28,26.31-2.02,30.4-4.6,6.3-3.98,2-24.2-1.19-30.21-7.68-2.97-15.81-.16-23.21-.19s-14.29-1-21.55-1.05c-.67,0-1.33,0-2,0-14.41-.05-28.87-.15-43.29.21-4.16.93-5.94,7.11-6.71,10.79-2.37-3.79-.6-9.86.82-13.68,4.55-12.33,10.39-7.86,21.18-8.32,22.56-.96,45.4-1.54,68,0,11.54.79,9.26,10.51,12,12,.98.53,2.5.21,2.01-1.48l-.02-184.52c-2.83,1.33-4.19,4.44-4.04,7.45,3.25,54.45-4.18,113.67.05,167.55l-7.07-4.65c.64-3.81,1.91-7.97,2.11-11.81,1.04-20.21-.35-41.68-.08-62.08.3-22.82,1.95-46.01,1.04-69-.08-1.93,1.03-4.01-2-3.45.29-6.36,1.3-11.71,1.92-17.92-8.43-1.85-17.3-.98-25.92-1.08-1.67-.02-3.33.01-5,0v-1c10.65-.05,21.35.04,32.01,0-.24-4.63.32-9.39,0-14.01,8.18-1.64,6.5-23.33-1-23-1.11.05-1.97.74-2.99,1.01l-.52-3.02-2.99,2.01-.5-5c.62.12,1.39-.12,2,0ZM76.83,220.83h-36.5v3s36.41.96,36.41.96l.09-3.96Z"/>
    <path class="cls-14" d="M97.33,6.83l.5,5,2.99-2.01.52,3.02c1.02-.26,1.88-.96,2.99-1.01-.11.62.17,1.5,0,2-.25.76-.95.76-1,3-.14,5.88,1.65,13.1,2,18,.33,4.61-.24,9.38,0,14.01-10.65.03-21.35-.06-32.01,0-.33,0-.67,0-1,0l7-13H30.33c.93-2.15,4.13-.16,6.58-1.92,1.09-.78,6.31-12.69,9-15.99,11.45-14.03,28.29-8.8,44.21-7.37,1.1.1,3.4,1.19,3.2-.7-14.58-4.84-32.09-5.77-47.48-5-7.08.35-15.64,3.72-22.51.99,2.94.74,6.75-1.89,9-2,.33-.02.67.02,1,0,7.38-.53,16.54.27,24.55,0,1.93-.06,4.01,1.02,3.45-2,6.3.06,15.72-1.03,21.27,1.23,6.62,2.69,7.74,2.45,14.73,3.77Z"/>
    <path class="cls-15" d="M2.33,43.83c.09.55,1.41,1.78,1.01,2.99l1.99-1.99c-.02,3.32-.01,6.68,0,10,.15,40.97.25,82.03,0,123-.1,17.4.13,34.71-1,52-.6.12-1.36-.08-2,0,0-42.64-.73-85.67-1-128-.1-15.31-.15-30.69,0-46,1.65-1.26,1.65-5.74,0-7,.02-1.67-.03-3.33,0-5h1Z"/>
    <path class="cls-7" d="M14.33,7.83l-3,2.02c-.27.32.75,1.34,1,1.98-4.24-.54-5.2,3.46-5,7-1.14.16-1.38.7-2,1-.42.2-1.81-.6-2.04.63.17,2.77-.15,5.62.04,8.37.16,2.27.43,4.82,1,7-1.58,1.5-1.96,3.94-2,6-.01.64-.09,1.4,0,2h-1c.16-9.33-2.23-28.75,7.04-34.45,2.79-1.72,3.56-1.02,5.96-1.55Z"/>
    <path class="cls-3" d="M99.33,6.83c-.61-.12-1.38.12-2,0-6.99-1.33-8.11-1.08-14.73-3.77-5.55-2.26-14.97-1.16-21.27-1.23-6.63-.07-14.54-.54-21,0l-4,1c-1.06.12-2.55-.36-3,1-.33.02-.67-.02-1,0,.97-2.26,2.09-2.76,4.45-3.05,7.98-1,35.24-1.07,43.09,0,3.68.51,4.68,3.05,7.21,3.79,3.51,1.03,8.9.08,12.25,2.25Z"/>
    <path class="cls-2" d="M114.33,44.83c.02-3.46-.84-8.36,1-11,.21,3.24.67,8.52-1,11Z"/>
    <path class="cls-7" d="M1.33,55.83c.02-2.33-.03-4.67,0-7,1.65,1.26,1.65,5.74,0,7Z"/>
    <path class="cls-1" d="M115.33,264.83l-.98-.5.98-.5c0,.33,0,.67,0,1Z"/>
    <path class="cls-14" d="M78.33,49.83c8.62.1,17.48-.77,25.92,1.08-.62,6.21-1.63,11.57-1.92,17.92-1.17,25.75-.41,56.17-6.24,81.26-1.97,8.5-13.75,21.59-19.2,28.8-7.6,10.06-13.14,13.86-21.56,22.44-4.88,4.97-7.34,11.96-16.01,13.51l1.48,1.99c17.98.52,36.1-.71,54.06,0,1.93.08,4.01-1.03,3.45,2-22.6-1.54-45.44-.96-68,0,.56-3.03-1.53-1.92-3.45-2-3.5-.14-7.05.11-10.54,0,2.53-9.02-.09-19.45.97-28.52,3.35-28.87,12.39-57.65,22.99-85.01,3.65-9.41,10.51-19.33,16.64-27.36,6.84-8.94,15.45-16.52,21.4-26.1Z"/>
    <path class="cls-6" d="M58.33,229.83v35c1.83-.38,1.87-1.97,2.04-3.46,1.1-9.79-.89-21.52-.04-31.54,7.26.05,14.29,1.01,21.55,1.05s15.53-2.78,23.21.19c3.18,6.01,7.49,26.24,1.19,30.21-4.09,2.58-24.58,4.32-30.4,4.6-21.18,1.03-43.78-.28-64.55-4.05h-1c-2.21-8.94-4.29-10.07-2-21,.77-3.67,2.56-9.86,6.71-10.79,14.42-.36,28.87-.26,43.29-.21Z"/>
    <path class="cls-15" d="M11.33,261.83c.82,3.2,3.49,3.21,4.51,6.97,1.51,5.53.77,12.94,4,18.03l-2.49-18.99c26.91,5.76,54.84,4.58,81.99,1-1.1,6.82-1.37,15.43-3,22-.26,1.03-1.51,4.29-2.47,4.64-23.72,1.39-47.2.57-70.99.43l-1.54-3.06,1.87,9.42c-.94,3.9-13.45.1-15.6-1.71-2.6-2.18-4.37-8.28-4.28-11.71.99.05,2.01-.07,3,0,.24,3.33.66,10.5,4.71,10.83,5.47.44,3.66-7.89.29-9.83-1.45-4.24,3.93-12.46-2-13,2.49-1.48.27-10.47,0-13l1-1c-.03-.34.07-.71,0-1h1Z"/>
    <path class="cls-6" d="M10.33,73.83c.22,11.3-.03,22.69,0,34,.07,23.98-.05,48.02,0,72v3c-.14,7.31.19,14.69,0,22-.11,4.33.58,9.99,0,14-.44,3.05-2.95,10.4-6,11,1.13-17.29.9-34.6,1-52,3.5.12,2.76.62,3-2.45,1.3-16.53,1.91-52.12.08-68.11-.23-2-3.11-1.25-2.08-4.43h3.01c-1.57-7.84-1.33-17.37-1.01-25.55.08-1.93-1.03-4.01,2-3.45Z"/>
    <path class="cls-14" d="M10.33,54.83c2.08,5.08,5.08,4.94,4.08,12.57-.25,1.91-1.91.95-2.15,2.86-1.24,9.85.43,23.6.08,34.11-.06,1.92,1.02,4.01-2,3.45-.03-11.31.22-22.7,0-34-.12-6.39-.2-12.66-1-19h1Z"/>
    <path class="cls-15" d="M2.33,233.83c3.03-.56,1.92,1.53,2,3.45.23,5.88-.52,12.32,0,18.05.26,2.89,2.07,5.51,2.1,8.05.02,1.88-2,.92-2.19,2.89-.32,3.39,1.19,6.62,1.19,10.05s-1.85,7.69-2.09,10.5c-1.66-1.04-1-3.79-1.02-5.49-.2-15.83.02-31.7.02-47.51Z"/>
    <path class="cls-11" d="M7.33,18.83c.83-.12,3.64.64,5,0-.05,2.05.08,3.82,0,6l-3.99,2.01,2.99,2.98-5.99-1.99c-.15-2.65.11-5.35,0-8,.62-.3.86-.84,2-1Z"/>
    <path class="cls-13" d="M9.33,276.83c5.93.54.55,8.76,2,13-.98-.56-3.72-.9-5-1-.15-2.08-.4-6.63,0-8.34.17-.73,1.71-.67,1.78-.82.3-.69-1.2-2.25-.78-2.8.25-.33,1.66.17,2-.03Z"/>
    <path class="cls-15" d="M72.33,48.83c.33,0,.67,0,1,0v1c-17.32-.13-34.68.1-52,0v-1c16.98-.06,34.02.08,51,0Z"/>
    <path class="cls-14" d="M10.33,204.83c2.5-.5,2.14,1.13,2.68,2.76,1.56,4.72,2.27,8.39-2.68,11.24.58-4.01-.11-9.67,0-14Z"/>
    <path class="cls-6" d="M5.33,44.83l1.92.06c.06,2.09,1.88,3.48,2.53,5.02.82,1.95.24,4.16.55,4.92h-5c-.01-3.32-.02-6.68,0-10Z"/>
    <path class="cls-10" d="M12.33,11.83c1.94,4.92.06,4.6,0,7-1.36.64-4.17-.12-5,0-.2-3.54.76-7.54,5-7Z"/>
    <path class="cls-13" d="M12.33,24.83c-.11,2.99,2.37,13.21-3.79,9.78-.89-.49-1.63-3.99-2.21-4.78-.3-.41-.35-.8-1-1-.06-.29.02-.66,0-1l5.99,1.99-2.99-2.98,3.99-2.01Z"/>
    <path class="cls-15" d="M5.33,19.83c.11,2.65-.15,5.35,0,8,.02.34-.06.71,0,1-.52-.16-1.37.11-2,0-.2-2.75.12-5.6-.04-8.37.23-1.22,1.62-.42,2.04-.63Z"/>
    <path class="cls-14" d="M6.33,38.83c.02,1.5-.98,3.72-1,6l-1.99,1.99c.4-1.22-.93-2.44-1.01-2.99-.09-.6-.01-1.36,0-2l1.89-.14.22-2.72,1.89-.14Z"/>
    <path class="cls-15" d="M6.33,38.83l-1.89.14-.22,2.72-1.89.14c.04-2.06.42-4.5,2-6,.05.17,1.96.57,2,3Z"/>
    <polygon class="cls-14" points="21.33 48.83 21.33 49.83 11.32 49.33 21.33 48.83"/>
    <path class="cls-14" d="M6.33,29.83c-.46-.15-.89-.53-1-1,.65.2.7.59,1,1Z"/>
    <path class="cls-7" d="M9.33,263.83c-.11-.99,1.01-.93,1-1l-1,1Z"/>
    <path class="cls-14" d="M28.83,35.83c.65.33.65.67,0,1v-1Z"/>
    <path class="cls-15" d="M102.33,68.83c3.03-.56,1.92,1.53,2,3.45.91,22.99-.74,46.18-1.04,69-.27,20.4,1.12,41.87.08,62.08-.2,3.84-1.47,8-2.11,11.81l7.07,4.65c.29,3.75,2.11,7.18,2,11-2.74-1.49-.46-11.21-12-12,.56-3.03-1.53-1.92-3.45-2-17.97-.71-36.08.53-54.06,0l-1.48-1.99c8.66-1.55,11.13-8.53,16.01-13.51,8.42-8.58,13.96-12.39,21.56-22.44,5.45-7.22,17.22-20.3,19.2-28.8,5.83-25.09,5.07-55.51,6.24-81.26Z"/>
    <path class="cls-4" d="M108.33,219.83c-4.23-53.88,3.2-113.1-.05-167.55-.15-3.01,1.2-6.13,4.04-7.45l.02,184.52c.49,1.69-1.03,2.01-2.01,1.48.11-3.82-1.71-7.25-2-11Z"/>
    <path class="cls-14" d="M96.33,290.83c.18-.6,1.19-1.56,1.54-2.91.78-3.03,3.63-20.35,4.59-20.96l4.87-.13c.37,1.81-.51,9.32,0,10-5.52.74-2.12,9.75-3,14-2.14,2.83-3.7,7.06,0,9-.09.08.16,1.38-.71,2.01-5.01,3.65-21.66,1.71-28.83,1.95-2.37.08-4.56,1.06-6.92,1.08-14.58.16-28.99-1.07-43.54-1.05-.19-.93.21-2.19,0-2.99h69l1.01-.53-1.01-1.47c0-.56-.11-1.88,0-2,.19-.21,2.24.13,2.86-1.64.51-1.43-.16-3.35.14-4.36Z"/>
    <path class="cls-15" d="M93.33,296.83c-.11.12,0,1.44,0,2v2H24.33c-.24-.9-1.3-3.72-1-3.99,2.68-1.1,6.92.99,8.5.99h49c.34,0,1.67-.94,2.96-1.04,3.15-.23,6.39.22,9.54.04Z"/>
    <path class="cls-10" d="M105.33,34.83c-.35-4.9-2.14-12.12-2-18l1-3c.17-.5-.11-1.38,0-2,7.5-.33,9.18,21.36,1,23Z"/>
    <polygon class="cls-5" points="76.83 220.83 76.74 224.78 40.33 223.82 40.33 220.83 76.83 220.83"/>
    <path class="cls-9" d="M60.33,229.83c-.85,10.01,1.14,21.75.04,31.54-.17,1.5-.21,3.09-2.03,3.46v-35c.66,0,1.32,0,1.99,0Z"/>
    <path class="cls-13" d="M107.33,276.83c.16.22,2.34-1.21,2.91,3.58.43,3.65-.74,5.07-.91,7.42-4.32-.92-2.37,1.72-3.22,2.75-.5.6-1.7.15-1.78.25.88-4.25-2.52-13.26,3-14Z"/>
    <path class="cls-11" d="M109.33,287.83c-.05.66.08,1.35,0,2l-1,1c-.07.42,1.46,2.24.59,5.02-1.11,3.58-3.56,3.04-4.59,3.98-3.7-1.94-2.14-6.17,0-9,.08-.1,1.29.35,1.78-.25.85-1.03-1.1-3.67,3.22-2.75Z"/>
    <path class="cls-12" d="M9.33,306.83v1h-3v-3c.13.13,2.79,1.9,3,2Z"/>
    <path class="cls-13" d="M108.33,290.83l1-1c-.08.67-.99.93-1,1Z"/>
    <path class="cls-8" d="M61.33,1.83c.56,3.02-1.53,1.94-3.45,2-8,.27-17.17-.53-24.55,0,.45-1.36,1.94-.88,3-1,1.75-.19,3.57-.96,4-1,6.46-.54,14.37-.07,21,0Z"/>
    <path class="cls-7" d="M103.33,16.83c.05-2.24.75-2.24,1-3l-1,3Z"/>
    <path class="cls-4" d="M9.33,54.83c.8,6.34.88,12.61,1,19-3.03-.56-1.92,1.53-2,3.45-.32,8.18-.56,17.71,1.01,25.54h-3.01c-1.03,3.19,1.85,2.44,2.08,4.44,1.83,15.99,1.22,51.59-.08,68.11-.24,3.07.49,2.57-3,2.45.25-40.97.15-82.03,0-123h4Z"/>
    <path class="cls-14" d="M40.33,1.83c-.43.04-2.25.81-4,1l4-1Z"/>
    <path class="cls-11" d="M11.33,289.83c3.37,1.94,5.19,10.27-.29,9.83-4.06-.33-4.47-7.5-4.71-10.83,1.28.1,4.02.44,5,1Z"/>
    <polygon class="cls-7" points="93.33 300.83 93.33 298.83 94.34 300.3 93.33 300.83"/>
  </g>
</svg>