<?xml version="1.0" encoding="UTF-8"?>
<svg id="_图层_2" data-name="图层 2" xmlns="http://www.w3.org/2000/svg" viewBox="0 0 144.17 179.25">
  <defs>
    <style>
      .cls-1 {
        fill: #1b1d1b;
      }

      .cls-2 {
        fill: #cd423e;
      }

      .cls-3 {
        fill: #1b1915;
      }

      .cls-4 {
        fill: #d6514d;
      }

      .cls-5 {
        fill: #456aa1;
      }

      .cls-6 {
        fill: #5c6d76;
      }

      .cls-7 {
        fill: #b63532;
      }

      .cls-8 {
        fill: #2a2b2d;
      }

      .cls-9 {
        fill: #939696;
      }

      .cls-10 {
        fill: #d63b2b;
      }

      .cls-11 {
        fill: #141514;
      }

      .cls-12 {
        fill: #3a598e;
      }

      .cls-13 {
        fill: #3d3e42;
      }

      .cls-14 {
        fill: #5f6f78;
      }

      .cls-15 {
        fill: #333334;
      }
    </style>
  </defs>
  <g id="_图层_1-2" data-name="图层 1">
    <path class="cls-11" d="M17.75,99.24c.29,12.69,1.6,26.36,3,39,.37,3.32.8,6.66,1.01,10,2.66-.59,1.11-4.21.99-5v-1c1.67,0,3.33,0,5,0,2.52,0,10.68-.53,12.06.44l.79,8.93c-1.06,3.24-13.58.98-16.86,1.64,0-1.33.01-2.67-.01-3.99h-.98s.99,5.99.99,5.99c5.8,1.42,16.84,3.63,22,1,.66-.34,1.33-.68,2-1,.14,2.51-.83,6.14,2.99,5.99-.71-3.84,1.61-20.44-1.51-21.99-2.09-1.03-1.44,2.21-1.48,2.99h-2c.07-1.99-.08-4.01,0-6,2.16.69,4.48-.85,6-1,2.83-.28,6.07.07,9,0v2c-3.32.03-6.68-.03-10,.01l2.15,4.83,1.29.23c10.97-1.56,26.72,1.85,37.06-.08,1.13-.21,2.01-.41,2.46-1.61l-.95-3.39v-1c2.48.32,8-1.32,8,2.5v18.5h14.5c.34,0,6.29-1.27,6.57-1.45,1.23-.77.71-2.47.93-3.55.16-.81,1.45-1.42.51-1.98l-1.51,1.98-15.36.86-1.5-1.5v-7.72s1.5-1.5,1.5-1.5c4.87.11,10.62-.68,15.36-.14.3.03,1.25,1.08,2,1v2l-.98.5.98.5c1.78,2.16.95.06,1-1.48.19-5.26.67-10.31,1-15.52l1,1c-.3,3.95.33,8.06,0,12-.4,4.72-1.66,9.28-1.99,14,3.3-1.77,3.36-6.72,3.99-10,.86-4.5,1.9-11.49,2-16l2-1c1.13,12.21,2.01,30.16-.45,42.05-1.61,7.77-6.34,7.03-12.55,7.95-2.73-2.31-6.75-.06-9.98-1.52-3.56-1.61-4.04-8.52-4.53-8.5-21.96,2.85-44.27,1.49-66.49,1.01.9,8.17-5.48,8.91-12,9-11.28.16-13.79-2.55-14.87-13.63-.67-6.85-1.11-38,.79-42.95.72-1.88,2.67-2.89,3.06-4.94.85-4.36.13-14.44.02-19.48l2,1ZM16.74,122.24c-1.6-1.5-1.7.36-2.1,1.39-1.6,4.13,1.46,21.3,2.79,26.43.6,2.32.88,6.12,3.31,7.18-1.1-4.83-2.03-33.14-4-35ZM94.75,139.24v22c3.87.1,3.85-10.86,4.05-14.45.14-2.5-.18-5.06-.05-7.56h-4ZM38.75,144.24h-14c-1.36,10.7,6.72,6.18,14.01,7.01v-7.01ZM54.25,156.24h38.5v-12.01s-40.01,1-40.01,1c.31,2.42-1.06,10.21,1.51,11.01ZM120.75,144.24h-14l.94,6.56c6.45.72,15.67,2.76,13.06-6.56ZM24.75,166.24c-.51-.33-3.3.32-3.9-1.59l-7.09-17.41c.23,6.1-.63,22.54,2.92,27.31,1.9,2.55,17.37,2.51,19.16.28,5.49-6.83-6.74-5.14-9.74-6.42-1.95-.83-1.25-2.11-1.35-2.18,4.17,1.55,3.5-.78,4-2,1.69.97,4.36,1.18,6,0-.14.41.35,1.27-.12,1.84l-3.87,1.15,20,1.01-.05-4.96c-3.86,1.26-4.57-2.68-5.69-3.04-.99-.32-10.84-1.37-11.27-1,.33,3.23,2.08,1.87,1,4.99l-2.51-3.06c-3.37-.34-2.74,1.24-3.49,3.06-2.8-1.61,2.05-3.56,2-4.99h-9.99c-.92.8,3.56,6.83,4,6.99ZM129.77,150.25c-2.35,14.47-5.19,19.85-21.04,19.46-6.81,4.51,13.12,10.65,19.05,4.05,2.69-2.99,3.16-15.61,2.97-20.04-.05-1.21.76-3.72-.98-3.48ZM92.75,158.24h-39v2h39v-2ZM124.75,159.25c-10.08-2.22-20.73-.37-29.84,4.14l-.16,4.86,17-1.01c-2.98-6.47,1.84-10.17,6.95-5.36l-.95,4.36c4.51.78,7.08-2.75,7-6.98ZM91.25,162.24h-37.5v6s9.49,1.01,9.49,1.01l1.03-6.03h18.49s-.01,5.02-.01,5.02h10.01s-1.5-6.01-1.5-6.01ZM80.75,165.24h-15v3h15v-3Z"/>
    <path class="cls-1" d="M124.75,7.24c-.51-.51-9.48-3.46-9.99-2.99.52,4.69,5.74,3.04,6.99,6.99-7.61-2.49-10.87-3.14-19-4v-1c3.47.38,7.45-.27,11,0-1.01-2.33-5.27-2.72-7.51-2.98-18.69-2.13-54.68-2.65-72.74,1.28-1.77.39-3.3.32-2.74,2.7,10.97-1.77,21.97-2.31,32.99-2.99.73-.05.93-1,1-1,.99-.05,2,.03,3,0v2c-10.59.24-27.1,1.42-37.44,3.06-.76.12-7.25,2.68-7.56,2.94.88-.46,8.28-5.75,6.99-7-4.13,1.08-11.45,2.69-10.99,7.99.25.27,3.35-.66,3.99-1-1.76,1.52-4.75,9.28-4,12l-3.07.54.08,17.45c1.44.24,1.4-1.76,1.68-2.79,1.19-4.29,1.56-10.13,3.31-14.2,3.28-7.66,8.53-10.2,16.22-12.28,16.66-4.5,58.68-4.99,74.75.81,9.31,3.36,7.64,6.63,12.03,13.47l.5.98.5-.98c.32-1.63-2.27-12.72-3-15,1.08.35,2.68-.06,3.99,1,.28-.38-.72-4.73-.99-5,.22.24,2.02-.25,2.81,1.65.65,1.56,2.85,11.87,3.08,13.95.39,3.48,1.13,15.84.82,18.77-.18,1.66-2.35,3.42-1.71,5.62,10.26-.34,16.13,2.14,13.97,13.48-.86,4.48-6.1,4.19-9.32,2.35-1.93-1.11-1.3-2.39-1.64-2.82,2.19.64,7.07,2.11,8.58.03l-1.05-8.05-3.52-.97v1.99c-.38-.7-1.82-.79-2-1-.15-.18.54-1.68-.69-2.02-1.03-.29-3.03,0-4.31.02-.09-.78.42-2.01-.5-2.01l-.5,2.01h-1c-.05-.61-.85-1.86-1-3-.72-5.46-3.78-22.45-8.03-25.58-.7-.52-.86.55-.97.58-.56.14-1.36-.09-2,0-.2-1.42.5-3.58-.21-4.78-7.58-4.45-17.57-5.68-26.3-6.21-19.06-1.15-42.92-1.63-60.33,6.15l1.84,58.84v7c-2.57,2.77-3.26,11.96-4,16-.57,3.11-.12,13.44-5.09,10.42l-2.92-18.41c-1.85.97-1.03,6.07-.99,7.99l-2-1c-.03-1.48-1-3.41-1.04-5.45-.2-10.17.23-20.38.03-30.55-4.51.61-8.22,3.46-13.06,1.56-4.77-12.63.89-16.25,13.07-16.57.22-2.84-1.81-4.64-2.06-7.49-.5-5.58,1.97-24.67,4.09-29.97s7.63-6.51,12.58-7.42C45.25-.56,65.17-.1,81.21.28c8.11.19,36.45-.06,41.97,4.07,1.54,1.15,1.28,2.58,1.57,2.89ZM125.74,13.24c-1.72-.04-2.15-.55-1.93,1.42.27,2.42,1.54,7.26,2.25,9.78.29,1.03.25,3.02,1.68,2.79.52-5.04-.34-9.32-2-13.99ZM18.75,60.74c.54-4.71,0-11.04,0-16s7.72-17.6,8.02-22.99c.03-.51-.02-1.01-.03-1.51-.27-.37-1.08.57-1.51.98-3.24,3.06-7.52,19.85-8.24,24.76-.87,5.92,1.64,11.99-.23,18.26,1.06.37,1.94-3.09,1.99-3.5ZM128.75,28.24h-3.99s3,13,3,13c1.74.24.94-2.28.99-3.48.12-3.16-.08-6.36,0-9.51ZM26.75,45.74c.04-5.5-.03-11.01,0-16.5-1.41.56-2.21,4.28-2.71,5.8-4.23,12.86-3.93,25.48-6.31,38.69l9.84-25.27c.58-1.1-.83-2.32-.83-2.72ZM12.75,50.25c-5.35.45-10.8.9-10.07,7.51.78,7.1,12.42,2.84,11.11-2.91l-2.08-1.17,1.04-3.44ZM23.74,105.24c-.76-7.83,3.36-16.02,4-23.5.67-7.89-2.06-16.38-1-24.49l-7.07,23.5c1.18,6.83,1.07,13.89,2.38,20.7.21,1.11.2,3.97,1.69,3.79Z"/>
    <path class="cls-11" d="M117.75,22.24c2.01,7.84,7.2,17.04,8,25s.75,20.27,1,29c.04,1.57-.44,2.61-1,3.99h1.49c.99-.17.45-2.86.51-3.99.4-7.63.63-18.5,0-26h1c.33,0,.67,0,1,0,.07.65-.08,1.34,0,2h5.01c.18.21,1.63.3,2,1h-7c-.4,2.49.95,4.04,2,6-.13,1.7-1.7,2.91-1.95,4.54-1.01,6.59-2.17,55.11-.05,57.46-1-.1-1.67-.13-2,1-.29.99.18,2.79,0,4h-2c.28-5.01.22-9.82.37-14.67.23-7.38,1.38-14.93.61-22.32l-2.99,21-2.93-.06-3.07-8.95v14.5l-5.48,2.52-80.99-.05c-6.79-1.26-4.18-11.78-3.53-16.97.01-.09.74.2.96-1.5l2.04-16.5c1.11-1.2,2.81-1.85,4.45-2.05,7.59-.91,18.05.21,26.09.09,10.23-.15,20.71-.15,30.92,0,4.47.07,16.72-.96,19.88.11,2.54.87,1.53,4.41,3.65,4.83.12-2.63,0-5.54-.99-8l2-46c.48,5.15.36,12.68,1.23,17.27,1.04,5.49,5.43,12.67,5.78,18.73,1.77-.69,1.12-5.93,1.04-7.54-.5-9.43-1.86-18.94-5.31-27.74-.61-1.57-.27-3.23-2.74-2.71-.27-2.67-.63-5.34-1-8,.64-.09,1.44.14,2,0ZM117.75,57.24c1.03,7.72-.68,17.43.02,25.48.17,1.98,3.43,20.56,4.48,20.53l2.54-23.46c-1.41-7.7-4.23-14.96-6.04-22.55-.16-.65.05-3.89-2-1.99-.64.6.98,1.88,1,1.99ZM31.25,116.24h82c.28,0,2.33-1.03,2.53-1.69.05-4.51-1.73-29.62-4.2-31.14l-77.62.49c-1.57.53-1.4,2.03-1.73,3.26-1.43,5.27-3.34,18.2-3.53,23.63-.06,1.86.66,4.91,2.55,5.44ZM117.74,100.24l-.11-5.37-1.87-7.62.11,5.37,1.87,7.62ZM127.25,87.24v1c.65-.33.65-.67,0-1Z"/>
    <path class="cls-15" d="M132.75,60.24c-.3-.37-.84-.71-1-1-1.05-1.96-2.39-3.51-2-5.99h7s0-2,0-2l3.52.97,1.05,8.05c-1.51,2.08-6.39.61-8.58-.03Z"/>
    <path class="cls-1" d="M129.75,121.24c.21.23,2.31-.12,2.86,1.61.59,1.83-.05,4.4.14,6.39l-2,1c.06-2.62.54-8.55-3-8,.33-1.13,1-1.1,2-1Z"/>
    <path class="cls-12" d="M125.75,126.24c-.06.99.06,2.01,0,3-.33,5.21-.81,10.26-1,15.52-.05,1.54.78,3.64-1,1.48v-3l-2.01-30.99-2.65,10.49c4.62,5.41,2.04,12.97,2.66,19.5-4.74-.54-10.49.25-15.36.14l-1.5,1.5v7.72s1.5,1.5,1.5,1.5l15.36-.86h1c-.22,1.09.3,2.78-.93,3.55-.29.18-6.23,1.45-6.57,1.45h-14.5v-18.5c0-3.82-5.52-2.18-8-2.5-1.88-.24-3.21-.88-6-1l-.03-1.33c-2.36-1.04-2.26-2.16-1.97-4.67,7.98-.15,16.02.12,24,0-.38-1.82-1.97-1.86-3.46-2.03-18.23-2.05-44.28.3-63.08,1.04-1.93.08-4.01-1.03-3.46,2-.96-.23-2.53-1.93-3.97-2.53-1.51-.63-3.69-.16-5.03-.97-1.43-.86-1.34-3.17-2.19-4.34-.36-.5-1.67-.03-1.81-.16-2-1.94.5-7.76-2.99-9,.46,8.48-1.55,16.48-1.01,25h-1c-1.4-12.64-2.71-26.31-3-39-.04-1.92-.86-7.03.99-7.99l2.92,18.41c4.97,3.03,4.52-7.3,5.09-10.42l1,2c-.65,5.2-3.26,15.71,3.53,16.97l80.99.05,5.48-2.52v-14.5l3.07,8.95,2.93.06,2.99-21c.76,7.39-.39,14.94-.61,22.32-.15,4.85-.09,9.66-.37,14.67ZM97.75,122.24h-15.5c-1.58,0-4.56-2.06-7.5.02v1.98s23,0,23,0v-2Z"/>
    <path class="cls-13" d="M54.25,156.24c-2.56-.79-1.2-8.58-1.51-11.01l40.01-1v12.01h-38.51Z"/>
    <path class="cls-12" d="M44.75,130.24c1.99-.07,4.01.09,6,0l1,5c-1.51.15-3.83,1.7-6,1-.09,1.99.07,4,0,6-.17,4.64.12,9.35,0,14-5.16,2.63-16.2.42-22-1,0-.67,0-1.33,0-2,3.28-.65,15.8,1.6,16.86-1.64l-.79-8.93c-1.38-.96-9.54-.44-12.06-.44l-2.86-8.85c6-4.8,10.26-1.92,16.45-2.05,1.77-.04,3.23-1.09,3.41-1.1Z"/>
    <path class="cls-8" d="M24.75,166.24c.11.07-.6,1.35,1.35,2.18,3,1.28,15.23-.42,9.74,6.42-1.79,2.23-17.26,2.27-19.16-.28-3.55-4.77-2.7-21.21-2.92-27.31l7.09,17.41c.59,1.9,3.39,1.25,3.9,1.59Z"/>
    <path class="cls-8" d="M129.77,150.25c1.74-.24.93,2.27.98,3.48.18,4.42-.29,17.05-2.97,20.04-5.93,6.59-25.86.46-19.05-4.05,15.85.39,18.69-5,21.04-19.46Z"/>
    <path class="cls-12" d="M60.75,137.24c10.65-.1,21.35.07,32,0l.95,3.39c-.45,1.2-1.33,1.4-2.46,1.61-10.33,1.92-26.09-1.48-37.06.08l-1.29-.23-2.15-4.83c3.32-.04,6.68.02,10-.01Z"/>
    <path class="cls-5" d="M84.75,129.24c-.29,2.51-.39,3.63,1.97,4.67l.03,1.33c-8.34-.36-17.62-.21-26,0-2.93.07-6.17-.28-9,0l-1-5c11.31-.52,22.67-.79,34-1Z"/>
    <path class="cls-13" d="M124.75,159.25c.08,4.24-2.49,7.76-7,6.98l.95-4.36c-5.11-4.81-9.93-1.11-6.95,5.36l-17,1.01.16-4.86c9.12-4.51,19.77-6.36,29.84-4.14Z"/>
    <polygon class="cls-13" points="91.25 162.24 92.76 168.24 82.75 168.25 82.76 163.23 64.27 163.22 63.24 169.26 53.75 168.25 53.75 162.24 91.25 162.24"/>
    <path class="cls-13" d="M34.75,164.24c1.08-3.12-.66-1.76-1-4.99.42-.37,10.28.68,11.27,1,1.12.36,1.83,4.3,5.69,3.04l.05,4.96-20-1.01,3.87-1.15c.47-.57-.02-1.43.12-1.84Z"/>
    <path class="cls-5" d="M25.75,122.24c.14.14,1.45-.34,1.81.16.85,1.17.76,3.48,2.19,4.34,1.35.81,3.52.34,5.03.97s3,2.3,3.97,2.53c1.61.39,4.2-.27,6,0-.18,0-1.64,1.06-3.41,1.1-6.19.13-10.45-2.75-16.45,2.05l2.86,8.85c-1.67,0-3.33,0-5,0-.17-5.66.3-11.41,1-17,.37-.3.68-.65,1-1,.55-.61,1.25-.78,1-2Z"/>
    <path class="cls-12" d="M16.74,122.24c1.98,1.85,2.91,30.16,4,35-2.43-1.06-2.71-4.85-3.31-7.18-1.33-5.12-4.39-22.3-2.79-26.43.4-1.03.5-2.89,2.1-1.39Z"/>
    <path class="cls-10" d="M120.75,144.24c2.61,9.32-6.61,7.28-13.06,6.56l-.94-6.56h14Z"/>
    <path class="cls-2" d="M38.75,144.24v7.01c-7.28-.83-15.36,3.69-14-7.01h14Z"/>
    <rect class="cls-15" x="53.75" y="158.24" width="39" height="2"/>
    <path class="cls-13" d="M94.75,139.24h4c-.12,2.49.19,5.05.05,7.55-.2,3.59-.18,14.55-4.05,14.45v-22Z"/>
    <path class="cls-5" d="M127.75,122.24c3.54-.55,3.06,5.38,3,8-.1,4.51-1.14,11.5-2,16l-2-4c.33-3.94-.3-8.05,0-12,.02-.27.79-2.56,1-4,.18-1.21-.29-3.01,0-4Z"/>
    <path class="cls-13" d="M47.75,142.24c.04-.78-.6-4.03,1.48-2.99,3.12,1.54.8,18.14,1.51,21.99-3.83.15-2.86-3.48-2.99-5.99-.22-4.05-.22-8.95,0-13Z"/>
    <path class="cls-8" d="M86.75,135.24c2.79.12,4.12.76,6,1v1c-10.65.07-21.35-.1-32,0v-2c8.38-.21,17.66-.36,26,0Z"/>
    <path class="cls-8" d="M123.75,143.24c-.75.08-1.7-.97-2-1-.62-6.54,1.96-14.09-2.66-19.5l2.65-10.49,2.01,30.99Z"/>
    <path class="cls-1" d="M25.75,122.24c.25,1.22-.45,1.39-1,2-.49.09-.94.53-1,1-.7,5.59-1.17,11.34-1,17v1c-.22-1.45-.84-2.49-1-5-.54-8.51,1.47-16.52,1.01-25,3.49,1.24.99,7.06,2.99,9Z"/>
    <path class="cls-13" d="M24.75,166.24c-.43-.16-4.91-6.19-4-6.99h9.99c.05,1.43-4.8,3.38-2,4.99-.5,1.22.17,3.55-4,2Z"/>
    <rect class="cls-9" x="65.75" y="165.24" width="15" height="3"/>
    <path class="cls-1" d="M47.75,142.24c-.22,4.05-.22,8.95,0,13-.67.32-1.34.66-2,1,.12-4.65-.17-9.36,0-14h2Z"/>
    <path class="cls-12" d="M128.75,146.24c-.63,3.28-.69,8.23-3.99,10,.32-4.72,1.59-9.28,1.99-14l2,4Z"/>
    <path class="cls-3" d="M34.75,164.24c-1.64,1.18-4.31.97-6,0,.75-1.82.12-3.4,3.49-3.06l2.51,3.06Z"/>
    <path class="cls-1" d="M127.75,126.24c-.21,1.44-.98,3.73-1,4l-1-1c.06-.99-.06-2.01,0-3h2Z"/>
    <path class="cls-15" d="M22.75,143.24c.12.78,1.67,4.4-.99,5-.21-3.33-.64-6.68-1.01-10h1c.16,2.51.78,3.55,1,5Z"/>
    <path class="cls-15" d="M23.75,153.24c0,.67,0,1.33,0,2l-.99-6h.98c.02,1.33.01,2.66.01,4Z"/>
    <polygon class="cls-8" points="123.75 146.24 122.77 145.74 123.75 145.24 123.75 146.24"/>
    <path class="cls-8" d="M122.75,152.24h-1l1.51-1.98c.94.56-.35,1.17-.51,1.98Z"/>
    <path class="cls-5" d="M30.75,76.24l-1.84-58.84c17.41-7.78,41.27-7.3,60.33-6.15,8.73.53,18.72,1.76,26.3,6.21.71,1.2.02,3.36.21,4.78.37,2.66.73,5.33,1,8,.07.65-.06,1.34,0,2l-2,46c-.58-1.44-1.19-1.32-2-2-5.22-4.4-11.93-2.51-17.33-4.19-1.26-.39-1.77-2.02-2.67-2.81-.26-3.36-1.29-4.44-4.56-4.91-10.86-1.54-22.75,1.91-33.74.89l-3.87,6.85c-6.44.52-12.95,1.42-18.84,4.17h-1ZM53.74,58.24l-.49-45.01c-3.32-.08-.63,25.76-.51,28.52.19,4.32-.17,8.68.01,13,.05,1.22-.76,3.72.99,3.48ZM93.75,58.24V15.74c0-.47-1.24-1.55-1.01-2.49h-.99s0,44.99,0,44.99h2Z"/>
    <path class="cls-12" d="M112.75,76.24c.81.68,1.42.56,2,2,1,2.46,1.11,5.37.99,8-2.12-.42-1.11-3.97-3.65-4.83-3.16-1.08-15.41-.05-19.88-.11-10.21-.15-20.69-.15-30.92,0-8.04.12-18.5-1-26.09-.09-1.64.2-3.34.85-4.45,2.05v-7h1c3.8,2.19,9.23-1.08,13.79-1.71,21.53-2.95,45.85-1.94,67.21,1.71Z"/>
    <path class="cls-5" d="M67.75,5.24c11.26-.25,23.76.81,35,2,8.13.86,11.39,1.51,19,4,.73,2.28,3.32,13.37,3,15h-1c-4.39-6.85-2.72-10.12-12.03-13.47-16.07-5.79-58.09-5.3-74.75-.81-7.69,2.07-12.94,4.62-16.22,12.28l-2-1c-.75-2.72,2.24-10.48,4-12,.31-.27,6.8-2.82,7.56-2.94,10.35-1.64,26.85-2.82,37.44-3.06Z"/>
    <path class="cls-14" d="M23.74,105.24c-1.49.18-1.48-2.68-1.69-3.79-1.31-6.81-1.2-13.86-2.38-20.7l7.07-23.5c-1.06,8.11,1.67,16.6,1,24.49-.64,7.48-4.76,15.67-4,23.5Z"/>
    <path class="cls-12" d="M63.75,4.24c-11.02.69-22.03,1.23-32.99,2.99-.56-2.38.97-2.32,2.74-2.7,18.06-3.93,54.06-3.41,72.74-1.28,2.24.26,6.5.65,7.51,2.98-3.55-.26-7.53.39-11,0-12.17-1.34-22.18-3.36-35-3-1,.03-2.01-.05-3,0l-1,1Z"/>
    <path class="cls-14" d="M26.75,45.74c0,.4,1.41,1.62.83,2.72l-9.84,25.27c2.38-13.21,2.08-25.83,6.31-38.69.5-1.51,1.3-5.23,2.71-5.8-.03,5.49.04,11,0,16.5Z"/>
    <path class="cls-15" d="M12.75,50.25l-1.04,3.44,2.08,1.17c1.31,5.75-10.33,10.01-11.11,2.91-.73-6.61,4.73-7.06,10.07-7.51Z"/>
    <path class="cls-12" d="M18.75,60.74c-.05.4-.93,3.87-1.99,3.5,1.87-6.27-.64-12.34.23-18.26.72-4.9,5-21.69,8.24-24.76.43-.41,1.24-1.35,1.51-.98,0,.5.06,1,.03,1.51-.3,5.39-8.02,17.97-8.02,22.99s.54,11.29,0,16Z"/>
    <path class="cls-8" d="M102.75,6.24v1c-11.24-1.19-23.74-2.25-35-2v-2c12.82-.36,22.83,1.66,35,3Z"/>
    <path class="cls-12" d="M18.75,23.24l2,1c-1.74,4.08-2.12,9.91-3.31,14.2-.29,1.03-.24,3.03-1.68,2.79l-.08-17.45,3.07-.54Z"/>
    <path class="cls-13" d="M127.75,50.24c.63,7.5.4,18.37,0,26h-1c-.25-8.73-.16-20.67-1-29h1c.15,1.14.95,2.39,1,3Z"/>
    <path class="cls-12" d="M126.75,47.24h-1c-.8-7.96-5.99-17.16-8-25,.11-.03.27-1.09.97-.58,4.26,3.12,7.31,20.11,8.03,25.58Z"/>
    <path class="cls-7" d="M124.75,7.24c.27.27,1.27,4.62.99,5-1.31-1.06-2.91-.65-3.99-1-1.26-3.96-6.48-2.3-6.99-6.99.51-.46,9.48,2.48,9.99,2.99Z"/>
    <path class="cls-7" d="M22.75,11.24c-.65.34-3.74,1.26-3.99,1-.46-5.3,6.86-6.92,10.99-7.99,1.28,1.25-6.12,6.53-6.99,7Z"/>
    <path class="cls-12" d="M128.75,28.24c-.08,3.16.12,6.35,0,9.51-.05,1.21.75,3.72-.99,3.48l-3-12.99h3.99Z"/>
    <path class="cls-5" d="M125.74,13.24c1.67,4.68,2.53,8.95,2,13.99-1.44.23-1.4-1.76-1.68-2.79-.71-2.52-1.98-7.36-2.25-9.78-.22-1.98.21-1.47,1.93-1.42Z"/>
    <path class="cls-13" d="M27.75,101.24l-1-2c.74-4.04,1.43-13.23,4-16l-2.04,16.5c-.22,1.7-.95,1.41-.96,1.5Z"/>
    <path class="cls-15" d="M129.75,50.24c1.28-.02,3.29-.32,4.31-.02,1.23.35.53,1.85.69,2.02h-5.01c-.07-.66.08-1.35,0-2Z"/>
    <path class="cls-13" d="M129.75,50.24c-.33,0-.67,0-1,0l.5-2.01c.92,0,.41,1.23.5,2.01Z"/>
    <polygon class="cls-12" points="123.75 26.24 124.75 26.24 124.25 27.22 123.75 26.24"/>
    <path class="cls-8" d="M63.75,4.24l1-1c-.07,0-.27.95-1,1Z"/>
    <path class="cls-6" d="M31.25,116.24c-1.89-.53-2.61-3.58-2.55-5.44.19-5.43,2.1-18.36,3.53-23.63.34-1.23.16-2.73,1.73-3.26l77.62-.49c2.48,1.52,4.25,26.63,4.2,31.14-.2.66-2.26,1.69-2.53,1.69H31.25Z"/>
    <path class="cls-14" d="M118.75,57.24c1.81,7.58,4.63,14.84,6.04,22.55l-2.54,23.46c-1.05.03-4.31-18.55-4.48-20.53-.7-8.05,1.01-17.76-.02-25.48h1Z"/>
    <path class="cls-14" d="M116.75,30.24c2.46-.51,2.12,1.15,2.74,2.71,3.45,8.8,4.81,18.31,5.31,27.74.09,1.62.73,6.86-1.04,7.54-.35-6.06-4.74-13.24-5.78-18.73-.87-4.59-.75-12.11-1.23-17.27-.06-.66.07-1.35,0-2Z"/>
    <polygon class="cls-12" points="117.74 100.24 115.88 92.62 115.76 87.25 117.63 94.87 117.74 100.24"/>
    <path class="cls-1" d="M127.75,76.24c-.06,1.13.48,3.82-.51,4.01h-1.49c.56-1.39,1.04-2.43,1-4.01h1Z"/>
    <path class="cls-1" d="M117.75,57.24c-.01-.11-1.64-1.4-1-1.99,2.05-1.9,1.84,1.34,2,1.99h-1Z"/>
    <path class="cls-1" d="M127.25,87.24c.65.33.65.67,0,1v-1Z"/>
    <path class="cls-8" d="M38.75,130.24c-.56-3.03,1.53-1.92,3.46-2,18.8-.73,44.85-3.08,63.08-1.04,1.5.17,3.09.21,3.46,2.03-7.98.13-16.02-.14-24,0-11.33.21-22.69.48-34,1-1.99.09-4.01-.07-6,0-1.8-.27-4.39.39-6,0Z"/>
    <path class="cls-11" d="M97.75,122.24v2h-23v-1.98c2.94-2.08,5.92-.02,7.5-.02h15.5Z"/>
    <path class="cls-12" d="M23.75,125.24c.06-.47.51-.91,1-1-.32.35-.63.7-1,1Z"/>
    <path class="cls-11" d="M31.75,76.24c5.89-2.75,12.39-3.65,18.84-4.17l3.87-6.85c10.99,1.02,22.88-2.43,33.74-.89,3.27.46,4.29,1.55,4.56,4.91-4.72-4.17-6.73-3.05-13-3-5.48-.51-13.39-.27-19,0-1.66.08-3.35-.07-5,0l.15,4.86c1.46,2.41,31.86.53,36.86,1.14-.04-.99.07-2.01,0-3,.9.79,1.41,2.42,2.67,2.81,5.4,1.67,12.11-.22,17.33,4.19-21.36-3.65-45.67-4.65-67.21-1.71-4.56.62-10,3.9-13.79,1.71Z"/>
    <path class="cls-12" d="M93.75,58.24h-2V13.24h.99c-.22.95,1.01,2.03,1.01,2.5v42.5Z"/>
    <path class="cls-12" d="M53.74,58.24c-1.75.23-.94-2.27-.99-3.48-.18-4.32.18-8.68-.01-13-.12-2.76-2.81-28.6.51-28.52l.49,45.01Z"/>
    <path class="cls-7" d="M60.75,66.24c-.56,3.02,1.53,1.94,3.45,2,6.67.22,13.37-.17,20.04,0,1.4-.79-4.25-1.98-4.5-2,6.27-.05,8.28-1.17,13,3,.08.99-.03,2.01,0,3-5-.61-35.4,1.27-36.86-1.14l-.15-4.86c1.66-.07,3.34.08,5,0Z"/>
    <path class="cls-4" d="M79.75,66.24c.25.02,5.9,1.22,4.5,2-6.67-.17-13.37.22-20.04,0-1.93-.06-4.01,1.02-3.45-2,5.61-.27,13.52-.51,19,0Z"/>
  </g>
</svg>