<?xml version="1.0" encoding="UTF-8"?>
<svg id="_图层_2" data-name="图层 2" xmlns="http://www.w3.org/2000/svg" viewBox="0 0 131.79 283.28">
  <defs>
    <style>
      .cls-1 {
        fill: #dbd625;
      }

      .cls-2 {
        fill: #515155;
      }

      .cls-3 {
        fill: #872120;
      }

      .cls-4 {
        fill: #3a3e44;
      }

      .cls-5 {
        fill: #c0c0c1;
      }

      .cls-6 {
        fill: #e9e9e8;
      }

      .cls-7 {
        fill: #8e8e8c;
      }

      .cls-8 {
        fill: #a9a8a6;
      }

      .cls-9 {
        fill: #efefef;
      }

      .cls-10 {
        fill: #a92928;
      }

      .cls-11 {
        fill: #e4e4e2;
      }

      .cls-12 {
        fill: #1e1e1f;
      }

      .cls-13 {
        fill: #bb3432;
      }

      .cls-14 {
        fill: #bcbcbc;
      }

      .cls-15 {
        fill: #2b2a2e;
      }

      .cls-16 {
        fill: #dbdbd8;
      }

      .cls-17 {
        fill: #2f2f30;
      }

      .cls-18 {
        fill: #5170ab;
      }

      .cls-19 {
        fill: #353439;
      }

      .cls-20 {
        fill: #d7d7d3;
      }

      .cls-21 {
        fill: #717376;
      }

      .cls-22 {
        fill: #5e5f64;
      }

      .cls-23 {
        fill: #314a83;
      }

      .cls-24 {
        fill: #252527;
      }

      .cls-25 {
        fill: #d45a58;
      }

      .cls-26 {
        fill: #38373b;
      }

      .cls-27 {
        fill: #c64341;
      }

      .cls-28 {
        fill: #47474a;
      }

      .cls-29 {
        fill: #d3d3cf;
      }
    </style>
  </defs>
  <g id="_图层_1-2" data-name="图层 1">
    <path class="cls-4" d="M130.45,28.01c.2.52,1,2.84,1,3,0,1.12-.98,3.58-1,6-1-1.37-1.69-4.31-2-6-.84-4.57.95-3.54,1-4,.36.26.84.6,1,1Z"/>
    <path class="cls-14" d="M127.45,278.01c-.01.07-.72.65-1,1-.21.26-.81.9-1,1-.23.12-.67-.1-1,0-1.6.49-2.55,1.14-4.55,1.11s-3.27-1.11-3.45-1.11v-5c4.36-.21,7.13.89,9.98-3.51l-.98-.49c.3-.28.88-.75,1-1,1.47,1.23,1.38,6.15,1,8Z"/>
    <path class="cls-21" d="M121.45.06v.95h-4c-35.84,0-71.7.04-107.55-.05-3.56.12-6,3.75-6.45,7.05h-1.22C2.43,6.06,7.84-.21,10.63,0l110.83.05Z"/>
    <path class="cls-9" d="M121.45,2.01c-.4-.17-.73-.64-1-1h1v1Z"/>
    <path class="cls-23" d="M130.45,45.01h-1c.1-.46.56-.83,1-1,0,.33,0,.67,0,1Z"/>
    <path class="cls-21" d="M130.45,46.01h-1c.08-.31-.07-.68,0-1h1c0,.33,0,.67,0,1Z"/>
    <path class="cls-28" d="M130.45,156.01h-2c0-.67,0-1.33,0-2,.03-6.32,0-12.68,0-19,.02-14.82-.41-29.27,0-44,.06-2.05.94-5.74,1-9,.18-9.28-.95-17.96-1-27-.02-3.51.42-4.86,1-8,.06-.33-.08-.7,0-1h1v110Z"/>
    <path class="cls-24" d="M130.45,160.01c0,2,0,4,0,6l-.98.5.98.5v3c-1.41,1.63-2.67.01-3,0l.99-.51c.08-1.16-.07-2.34.01-3.49.09-1.32-.03-2.67,0-4,.02-.67-.01-1.33,0-2h2Z"/>
    <path class="cls-28" d="M130.45,167.01l-.98-.5.98-.5c0,.33,0,.67,0,1Z"/>
    <path class="cls-26" d="M.45,82c2.35,1.43.17,8.9,1,10.01h1.76c.15,1.18.1.8.25,1.99l-2.02.51.02,1.49,1.99-1c0,1.33,0,2.67,0,4H1.45s-.01,1.49-.01,1.49l2.01.51c0,1,0,2,0,3,0,1.67-.01,3.33,0,5s-.01,3.33,0,5v3.01s-2-1.01-2-1.01v6.38s2,.63,2,.63c-.07,3.65-.04,7.35,0,11l-1-.99v26.99l1,1c-.09.64.1,1.38,0,2-.3,1.78-1.92,4.27-.99,7.01.66.06,1.33-.05,1.99,0,.99.06,2-.04,3,0-.04,1.33.05,2.67,0,4l-3.81.21c-1.12,3.88-1.28,8.12-.12,12.04.25.85,1.69.72,1.9,1.45.5,1.83-1.43,7.03,2.03,4.31-.12,2.32-.84,4.12-1,6h-1c-.09-.23-2.16-1.87-3-4-.3-.76.63-2.72-.5-3.01-.93,0-.45,2.07-.5,3.01-.07,1.32.02,2.67,0,4-.08,5.32.05,10.68,0,16H.45C.72,169.9.03,126.28.45,82ZM5.45,171.01v1c.65-.33.65-.67,0-1ZM6.45,194.01v1c.65-.33.65-.67,0-1Z"/>
    <path class="cls-22" d="M3.45,46.01c-.02,3.99.02,8.01,0,12-.05,10.32.04,20.68,0,31v3h-2c-.83-1.1,1.35-8.57-1-10,.11-11.98-.15-24.02,0-36h3Z"/>
    <path class="cls-7" d="M121.45,0c9.89,4.45,8.38,14.3,8,24-.04.99.1,2.02,0,3-.05.46-1.84-.57-1,4h-2c-.11-5.96,1.4-24.04-1.97-27.57-1.16-1.21-1.94-.96-3.03-1.43V0Z"/>
    <path class="cls-2" d="M3.45,28.01c-.07,5.99.03,12.01,0,18H.45c.07-5.98-.18-12.03,0-18h3Z"/>
    <path class="cls-7" d="M3.45,8.01c-.77,5.65.07,13.93,0,20H.45c.2-6.71,1.21-13.28,1-20h2Z"/>
    <path class="cls-9" d="M116.39,1.01c1.15,2.42-1.8,3.46-1.98,4-3.55.23-7.39-.33-10.9,0,.55-3.02-1.51-1.94-3.42-2-24.05-.81-48.23.65-72.29-.06-1.16.18-.35,1.62-.57,2.06-3.29-.11-6.63.16-9.91,0-.66-.03-1.32.03-1.98,0-2.98-.14-7.42-3.4-8.89,2.53l.11,49.33c4.52,2.99,10.19-.26,14.14.14,3.06.31,5.51,4.35,9.49,3.01l-.86,5.26c1.01,3.94,12.74,7.78,16.68,9.26,1.9.71,4.06.15,5.96.99,3.63,1.6,10,9.46,12.96,11.92,2.57,2.14,5.93,2.24,7.45,3.48.69.56,10.78,12.91,11.2,13.7.9,1.74.92,4.78,1.28,5.2.42.5,2.53.33,3.49.94,6.19,3.94,5.15,2.09,11.25,3.68,3.22.84,13.66,3.62,15.35,5.5,1.85,2.06,3.33,8.29-1.54,7.05-.05-1.18.39-2.77-.22-3.76-3.46-2.7-7.53-2.84-11.73-1.8-3.87,1.16-4.74,7.28-3.9,10.56l-3.33,2.27-.32,1.33,2.66,9.4c-27.7,0-55.53.49-83.21,0-.2,0-1.37-1.3-3.96-1-.8.09-3.71,1.21-3.96,2-.25,4.82.34,9.76.04,14.58-.08,1.32-1.01,2.19-1.03,2.42h-.99c.1-.62-.09-1.36,0-2,.04-.33-.04-.67,0-1,1.08-10.03.11-16.64,0-26-.04-3.65-.07-7.35,0-11,.06-3.09.02-5.99,0-9-.01-1.67.01-3.33,0-5,1.56-.66,1.56-4.34,0-5,0-1,0-2,0-3,0-.67,0-1.33,0-2,0-1.33,0-2.67,0-4,0-.33,0-.67,0-1,0-.67,0-1.33,0-2v-3c1.64-1.04.99-3.79,1.01-5.49.07-6.66.08-13.37,0-20.03-.02-1.69.63-4.45-1.01-5.49.02-3.99-.02-8.01,0-12,.03-5.99-.07-12.01,0-18s-.77-14.35,0-20c.45-3.3,2.86-6.93,6.39-7.05,35.51.09,71.04.05,106.54.05ZM22.71,62.98c0-.68-.55-1.23-1.23-1.23s-1.23.55-1.23,1.23.55,1.23,1.23,1.23,1.23-.55,1.23-1.23ZM29.23,135.01c1.05-.66,2.46.47,3.01-2.48l-1.24-10.28c-4.53-2.09-10.42-2.06-14.54.98v10.58c5.43,3,7.3,4.64,12.78,1.2Z"/>
    <path class="cls-29" d="M125.45,145.01c0,1.19.98,2.9.99,4.48.01,3.51.05,7.03.01,10.52,0,.85-.09.75,0,2,.09,1.32-.06,2.67,0,4-1.2.78-.22,1.37-3,2-14,3.15-40.47.94-56,1-.32-1.5-3.59-1.56-4,0-17.16,0-37.24,1.32-54,0-.45-.04-2.26-1.81-4-.99l3,1-1.01.99c-1-.04-2.01.06-3,0,.17-2.28-.25-4.75,0-7,.02-.23.96-1.1,1.04-2.42.3-4.82-.29-9.76-.04-14.58,4.29,1.79,7.56.05,11.46-.05,31.42-.8,63.11.05,94.54.05h1v2s2.5,0,2.5,0l.51-2.01h2v3s-2,0-2,0c-2.7,0-8.3-.56-10.34-.02-1.11.29-.54,1.89-.66,2.02s-1.67-.48-2.02.7c-.06,1.42-.09,2.88.02,4.3.11,1.34-.35,2.75.46,4.01,1.77,2.53,12.88,2.76,15.3.72.43-.49.08-1.48.24-1.72.56-.87,2-.53,2.11-3.48.09-2.28-.67-3.85-2.11-5.51,1.68-.02,4-1.43,6-1l-1-2.99v-1h2ZM11.45,156.01c.31,1.18-.14,2.11.92,3.54,2.49,3.33,12.46,3.51,15.08.46,1.43-1.67,1.52-6.28.86-8.38-.55-1.74-1.86-1.22-2.86-1.62-3.77-1.5-7.19-1.26-11.29-.79l-3.59,3.55c-.64,2.12.68,2.49.88,3.24ZM48.45,151.01l-.98,1.46,1.62,8.4,33.87-.85,1.1-7.11-1.61-1.91c.44,1.26-.98,1.89-1,2h-1c-1.12-1.77-4.12-.86-6-1l8-1-.71-.99c-3.09-.14-6.2.07-9.29,0-6.34-.16-15.59-.73-21.6-.05-.97.11-1.96-.04-2.4,1.05Z"/>
    <path class="cls-14" d="M1.45,160.01v-26.99s2,.99,2,.99c.11,9.36,1.09,15.97,0,26H1.45Z"/>
    <path class="cls-14" d="M3.46,122.98l-2.01-.63.03-6.34,1.97,1.01v-2.99c.03,2.99.06,5.87,0,8.95Z"/>
    <path class="cls-14" d="M4.45,163.01c-.25,2.25.17,4.72,0,7-.66-.04-1.34.07-1.99,0-.92-2.74.7-5.23.99-7.01h1Z"/>
    <path class="cls-14" d="M3.45,109.01c-.01-1.67,0-3.33,0-5,1.58.66,1.58,4.34,0,5Z"/>
    <path class="cls-22" d="M3.46,99c0,.67,0,1.33,0,2l-2.01-.51v-1.48s2.01,0,2.01,0Z"/>
    <path class="cls-22" d="M3.44,94.01c0,.33,0,.67,0,1l-1.99,1-.02-1.49,2.01-.51Z"/>
    <path class="cls-28" d="M3.45,160.01c-.04.33.04.67,0,1l-2-1h2Z"/>
    <path class="cls-11" d="M120.45,1.01c.27.36.6.83,1,1,1.09.47,1.87.22,3.03,1.43,3.37,3.53,1.86,21.61,1.97,27.57.07,3.72-.38,7.41,1,11-1.08,2.03-.83,1.84-1,4-.31,3.82.06,8.09,0,12-.01.67.01,1.33,0,2-.1,6.32.04,12.68,0,19-2.45.5-2.19-1.1-2.7-2.76-1.38-4.49-.65-8.15-5.87-10.24l-.43-5.52-9.36-3.55-2.19,3.07-21.99-11.96c-1.78-2.58,2.92-2.94,3.46-4.6-.69-6.42-6.49-3.66-10.29-1.57l-5.65-2.86.89-4.84-12.88-4.18-1-7.97,4.32-.18,1.67-2.82c-6.01-.63-11.33-2.6-16.28,1.85-3.87-4.98-8.92-.76-10.07-.95-.92-.15-4.8-4.61-7.64-3.91l-1-9-2-2c.21-.43-.6-1.88.57-2.06,24.29.71,48.7-.75,72.97.06,1.93.06,4.01-1.02,3.45,2-.57.05-1.32-.26-1.82.14l-.69,12.87c1.48,2.45,12.32,5.39,12.51,0,.33-.1.75.12,1,0l1-1-1-10c.1-.63-.16-1.51,0-2,.18-.54,3.16-1.58,2-4h3Z"/>
    <path class="cls-14" d="M3.45,89.01c.04-10.32-.05-20.68,0-31,1.66,1.04,1,3.79,1.02,5.49.08,6.66.07,13.37,0,20.03-.02,1.69.64,4.45-1.02,5.49Z"/>
    <path class="cls-23" d="M128.45,31.01c.31,1.69,1,4.63,2,6-.01,1,0,2,0,3-1.51-.31-2.34.77-3,2-1.38-3.59-.93-7.28-1-11h2Z"/>
    <path class="cls-6" d="M15.32,5.01c-4.11,7.21-2.39,16.6,7.45,15.96,3.05-.2,3.16-1.89,4.55-2.96.28-.22,1.41-.01,2.01-.52l.99-1.48c2.84-.71,6.72,3.76,7.64,3.91,1.16.19,6.2-4.03,10.07.95,4.96-4.44,10.27-2.48,16.28-1.85l-1.67,2.82-4.32.18,1,7.97,12.88,4.18-.89,4.84,5.65,2.86c3.8-2.09,9.59-4.85,10.29,1.57-.54,1.66-5.24,2.03-3.46,4.6l21.99,11.96,2.19-3.07,9.36,3.55.43,5.52c5.22,2.09,4.49,5.75,5.87,10.24.51,1.65.25,3.25,2.7,2.76-.13,21.96-.93,44.2-1,66h-28l-2.68-9.4.32-1.33,3.36-2.27c.06.24,1.54,1.53,2,2,3.61,3.68,7.28,3.76,11.95,1.45l1.86-2.14c.36-2.08.28-4.21.19-6.3,4.91,1.24,3.42-4.99,1.55-7.05-1.71-1.88-12.25-4.66-15.5-5.5-6.16-1.6-5.1.26-11.35-3.68-.97-.61-3.1-.44-3.53-.94-.37-.42-.38-3.47-1.3-5.2-.42-.79-10.61-13.14-11.3-13.7-1.53-1.24-4.92-1.34-7.52-3.48-2.98-2.46-9.41-10.32-13.08-11.92-1.92-.84-4.1-.27-6.01-.99-3.98-1.48-15.81-5.32-16.83-9.26l.87-5.26c-4.02,1.35-6.49-2.7-9.58-3.01-3.99-.4-9.72,2.85-14.28-.14l-.11-49.33c1.48-5.92,5.97-2.67,8.97-2.53ZM52.46,22.01v1.99s3.99,0,3.99,0v-1.99s-3.99,0-3.99,0ZM114.45,61.01c-6.18-1.06-1.24,4.33,0,2.99v-2.99Z"/>
    <path class="cls-7" d="M13.45,145.01c27.95.49,56.04,0,84,0h14v1c-31.43,0-63.12-.85-94.54-.05-3.9.1-7.17,1.84-11.46.05.25-.79,3.2-1.91,4-2l4,1Z"/>
    <path class="cls-4" d="M104.45,5.01c3.54-.33,7.41.23,11,0-.16.49.1,1.37,0,2-1.33-1.23-7.67-.26-10,0-.6.07-1.27-.26-1.85.14-.45.46,0,1.46-.15,1.86-3.61,9.69,2.82,11.41,11,9-.19,5.4-11.03,2.46-12.51,0l.69-12.87c.5-.4,1.25-.09,1.82-.14Z"/>
    <path class="cls-2" d="M29.45,135.01c-5.48,3.43-7.35,1.8-13-1.2v-10.58c4.34-3.03,10.23-3.06,14.76-.98l1.24,10.28c-.54,2.95-1.95,1.82-3.01,2.48l.56-11.06c-3.57-2.54-7.6,1.11-11.56-.94v10.89l11,1.11Z"/>
    <path class="cls-4" d="M98.45,132.01c-.84-3.28.03-9.39,3.94-10.56,4.23-1.04,8.35-.91,11.84,1.8.61.99.17,2.58.22,3.76.09,2.09.17,4.22-.19,6.3l-1.86,2.14c-4.67,2.32-8.34,2.23-11.95-1.45l11.06-.43c1.46-1.03,1.01-5.62.94-7.57-.04-1,.05-2.01,0-3h-12.01c-.03,1.33.03,2.67,0,4-.04,2.33.03,4.68,0,7-.46-.47-1.94-1.76-2-2Z"/>
    <path class="cls-4" d="M17.45,5.06c.85,1.62,3.4.94,5,1-.47.09-1.86.71-3,1-.82.21-2.07-.13-3,0l-1,4c-.1.62.04,1.35,0,2-.11,1.63-.05,3.33.05,4.95l11.95.05c-1.39,1.06-1.5,2.76-4.55,2.96-9.84.65-11.56-8.74-7.45-15.96.66.03,1.34-.03,2,0Z"/>
    <path class="cls-19" d="M27.45,5.01c-.17.34-.16.75-.6.91-1.39.43-3.15-.16-4.4.09-1.6-.06-4.15.62-5-1,3.31.16,6.68-.11,10,0Z"/>
    <circle class="cls-6" cx="21.45" cy="63.01" r="1"/>
    <path class="cls-6" d="M13.45,145.01l-4-1c2.62-.3,3.79,1,4,1Z"/>
    <path class="cls-21" d="M127.45,83.01c.02,2.5-.78,6.34,1,8-.41,14.73.02,29.18,0,44-1.68,5.45-1.67,13.63,0,19,0,.67,0,1.33,0,2,0,1,.01,2,0,3,0,.33,0,.67,0,1h-2c.04-3.5,0-7.01-.01-10.52,0-1.58-.99-3.29-.99-4.48.07-21.8.87-44.04,1-66,.04-6.32-.1-12.68,0-19,1.89,7.09.94,15.56,1,23Z"/>
    <path class="cls-2" d="M72.53,150.2c2.97.07,5.96-.12,8.94,0l.68.95-7.69.96v.88c.1,1.31-.15,2.7,0,4,.06.56-.26,1.3.15,1.82l6.41.21c.45-.55.32-1.38.44-2.02.22-1.2-.19-2.76,0-4,.02-.11,1.44-.74,1-2l1.61,1.91-1.1,7.11-33.87.85-1.62-8.4.98-1.46v1c.11,1.2,1.19.86,2,1-.1.63.15,1.46,0,2-.07.25-.73,1.38-1,2-.1.21,0,.5,0,.5v1.34s7.56-.16,7.56-.16c.41-.52,0-1.35.12-1.76.15-.47-.08-1.3,0-1.92.99.12,2.11.88,3.85.96.03,1.28-.04,2.57,0,3.85,2.03-.19,4.35.29,6.31.05,4.75-.59,2.48-2.74,3.32-3.9.1-.14,1.78-.11,2.48-.95.99-1.18-.53-1.73-.56-1.94-.11-.94.07-1.94,0-2.89Z"/>
    <path class="cls-21" d="M72.45,150.01c.07.99-.11,2.02,0,3-.51.38-1.71.63-2,1,.57-3.25-1.65-1.66-3.5-1.96-2.17-.35-4.32-.81-6.5-1.04.01,1.66-.04,3.33,0,5-1.8-.08-2.97-.88-4-1,.07-.6,1.32-1.52,1-2-2.05-2.08-6.18-.62-9-1v-1c.43-1.09,1.42-.95,2.4-1.05,6.01-.67,15.26-.1,21.6.05Z"/>
    <path class="cls-4" d="M104.45,156.01c1.23,5.85,9.5,4.2,14,3-.16.25.19,1.24-.24,1.73-2.43,2.05-13.53,1.81-15.3-.72-.82-1.26-.36-2.67-.46-4.01h2Z"/>
    <path class="cls-4" d="M26.45,155.01c.39,1.44,1.78,2.85,1,5-2.62,3.05-12.59,2.86-15.08-.46-1.07-1.42-.61-2.36-.92-3.54l1-1c.11,1.35-.31,2.76.44,4.04,1.5,2.02,15.11,2.12,13.56-4.04Z"/>
    <path class="cls-14" d="M123.46,146.01l1,2.99c-2.01-.43-4.32.99-6,1.01s-2.84-1-3-1h2s0-3,0-3h6Z"/>
    <path class="cls-21" d="M25.45,150.01v1h-13.01c-.05.66.05,1.34,0,2s-.05,1.36,0,2l-1,1c-.2-.75-1.52-1.12-.88-3.24l3.59-3.55c4.1-.47,7.52-.72,11.29.79Z"/>
    <path class="cls-22" d="M115.46,149c.16,0,1.25,1.02,3,1,1.44,1.66,2.2,3.24,2.11,5.52-.12,2.95-1.55,2.61-2.11,3.48-.07-1.99.1-4.01,0-6-.03-.66.05-1.34,0-2h-14.01c-.03.66.05,1.34,0,2-.07.99.05,2.01,0,3h-2c-.11-1.42-.07-2.88-.02-4.31.34-1.17,1.89-.57,2.02-.7s-.45-1.72.66-2.02c2.04-.54,7.65.01,10.34.02Z"/>
    <path class="cls-22" d="M27.45,160.01c.78-2.15-.61-3.56-1-5-.33-1.2-.73-2.09-1-3-.09-.3.07-.68,0-1v-1c.99.4,2.3-.12,2.86,1.62.67,2.1.57,6.72-.86,8.38Z"/>
    <path class="cls-27" d="M123.45,145.01v1h-12v-1h12Z"/>
    <path class="cls-14" d="M127.45,166.01v4c-1.33-.05-2.67.03-4,0v-2c2.78-.63,1.8-1.22,3-2,.2-.13.67.08,1,0Z"/>
    <path class="cls-14" d="M67.45,169.01c-1.1,0-2.87,0-4,0,.41-1.56,3.68-1.5,4,0Z"/>
    <path class="cls-21" d="M128.45,162.01c-.03,1.33.09,2.68,0,4h-1c-.33.08-.8-.13-1,0-.06-1.33.09-2.68,0-4h2Z"/>
    <path class="cls-14" d="M128.45,160.01c-.01.67.02,1.33,0,2h-2c-.09-1.25,0-1.15,0-2h2Z"/>
    <polygon class="cls-14" points="115.44 146.01 114.94 148.01 112.45 148 112.45 146.01 115.44 146.01"/>
    <path class="cls-24" d="M130.45,40.01c0,1.33,0,2.67,0,4-.44.17-.9.54-1,1-.07.32.08.69,0,1s.06.67,0,1l-3-1c.17-2.16-.08-1.97,1-4,.66-1.23,1.49-2.31,3-2Z"/>
    <path class="cls-24" d="M130.45,156.01v3h-2c.01-1,0-2,0-3h2Z"/>
    <path class="cls-28" d="M130.45,159.01c0,.33,0,.67,0,1h-2c0-.33,0-.67,0-1h2Z"/>
    <path class="cls-18" d="M29.45,7.01l-2,11-11.95-.05c-.1-1.62-.16-3.32-.05-4.95l6.99-2.51-2.99-3.49c1.14-.29,2.53-.91,3-1,1.25-.25,3.01.34,4.4-.09.44-.16.43-.57.6-.91l2,2Z"/>
    <path class="cls-18" d="M115.45,7.01c-.23,1.43.03,3.42,0,5,0,.38,0,.64,0,1,0,1.33,0,2.67,0,4v1c-.25.12-.67-.1-1,0-8.18,2.41-14.61.69-11-9l4.02,3.53,1.96-2.03-3.98-3.5c2.33-.26,8.67-1.23,10,0Z"/>
    <path class="cls-25" d="M129.45,82.01l-2,1c-.06-7.44.89-15.91-1-23,.01-.67-.01-1.33,0-2l2-3c.05,9.04,1.18,17.72,1,27Z"/>
    <path class="cls-21" d="M129.45,47.01c-.58,3.14-1.02,4.49-1,8l-2,3c.06-3.91-.31-8.18,0-12l3,1Z"/>
    <path class="cls-15" d="M30.45,16.01l-.99,1.48c-.59.51-1.72.31-2.01.52l2-11,1,9Z"/>
    <path class="cls-24" d="M116.45,17.01h-1c0-1.33,0-2.67,0-4v-1c.03-1.58-.23-3.57,0-5l1,10Z"/>
    <polygon class="cls-4" points="115.45 18.01 115.45 17.01 116.45 17.01 115.45 18.01"/>
    <rect class="cls-11" x="53.46" y="21.01" width="1.99" height="4" transform="translate(31.33 77.41) rotate(-89.87)"/>
    <path class="cls-11" d="M114.45,61.01v2.99c-1.24,1.34-6.18-4.05,0-2.99Z"/>
    <path class="cls-14" d="M105.45,7.01l3.98,3.5-1.96,2.03-4.02-3.53c.15-.4-.31-1.4.15-1.86.58-.41,1.26-.08,1.85-.14Z"/>
    <path class="cls-18" d="M29.34,135.01l-10.89-1.11-.1-10.89c3.95,2.04,7.98-1.6,11.55.94l-.56,11.06Z"/>
    <path class="cls-18" d="M112.45,126.01c.07,1.95.53,6.53-.94,7.57l-11.06.43c.03-2.32-.04-4.67,0-7,4.53,1.75,7.85,1.2,12-1Z"/>
    <path class="cls-8" d="M100.45,127.01c.03-1.33-.04-2.68,0-4h12.01c.04,1-.04,2,0,3-4.15,2.2-7.47,2.75-12,1Z"/>
    <path class="cls-14" d="M19.45,7.01l2.99,3.49-6.99,2.51c.04-.65-.1-1.38,0-2,.12-.79,1.73-2.39,1-4,.93-.13,2.18.21,3,0Z"/>
    <path class="cls-18" d="M15.45,11.01l1-4c.73,1.61-.88,3.21-1,4Z"/>
    <path class="cls-8" d="M128.45,154.01c-1.67-5.37-1.68-13.55,0-19,0,6.32.03,12.68,0,19Z"/>
    <path class="cls-3" d="M128.45,91.01c-1.78-1.66-.98-5.5-1-8l2-1c-.06,3.26-.94,6.95-1,9Z"/>
    <path class="cls-7" d="M70.45,156.01c-.87,1.21,1.49,3.44-3.45,4.05-2.04.25-4.44-.25-6.56-.05-.03-1.33.03-2.67,0-4,1.65.08,9.6.3,10,0,.23-.17-.23-1.7,0-2,.29-.37,1.49-.62,2-1,.02.21,1.61.79.58,2.01-.73.87-2.47.84-2.58.99Z"/>
    <path class="cls-16" d="M80.45,153.01h1c-.19,1.24.22,2.8,0,4h-7c-.15-1.3.1-2.69,0-4h6Z"/>
    <path class="cls-21" d="M81.45,157.01c-.12.65,0,1.48-.44,2.02l-6.41-.21c-.41-.52-.08-1.25-.15-1.82h7Z"/>
    <path class="cls-21" d="M56.45,157.01c-.14.42.3,1.29-.13,1.83l-7.87.16v-1.49c.09-.3.9-.29,1-.5h7Z"/>
    <path class="cls-11" d="M56.45,155.01c-.08.64.15,1.51,0,2h-7c.27-.62.93-1.75,1-2,1.95.16,4.1-.23,6,0Z"/>
    <path class="cls-5" d="M57.45,153.01c.32.48-.93,1.4-1,2-1.9-.23-4.05.16-6,0,.15-.54-.1-1.37,0-2,1.97.35,5.01.52,7,0Z"/>
    <path class="cls-9" d="M57.45,153.01c-1.99.52-5.03.35-7,0-.81-.14-1.89.2-2-1,2.82.38,6.95-1.08,9,1Z"/>
    <path class="cls-7" d="M80.45,153.01h-6v-1c1.88.14,4.88-.77,6,1Z"/>
    <path class="cls-16" d="M60.45,156.01c-.04-1.66.02-3.34,0-5,2.18.23,4.33.69,6.5,1.04,1.85.3,4.06-1.29,3.5,1.96-.23.3.23,1.83,0,2-.4.3-8.35.08-10,0Z"/>
    <path class="cls-18" d="M118.45,153.01c.1,1.99-.07,4.01,0,6-4.5,1.2-12.77,2.85-14-3,.05-.99-.07-2.01,0-3h14Z"/>
    <path class="cls-18" d="M26.45,155.01c1.55,6.16-12.06,6.07-13.56,4.04-.75-1.28-.32-2.7-.44-4.04-.05-.64-.04-1.36,0-2,4.12-.52,9.61,1.22,13-1,.27.91.67,1.8,1,3Z"/>
    <path class="cls-5" d="M25.45,151c.07.32-.09.7,0,1-3.39,2.22-8.88.48-13,1,.04-.66-.06-1.34,0-2h13.01Z"/>
    <path class="cls-5" d="M104.45,151.01h14.01c.05.66-.04,1.34,0,2h-14c.05-.66-.03-1.34,0-2Z"/>
    <path class="cls-28" d="M127.45,170.01v-4h1c-.08,1.15.07,2.33-.01,3.49l-.99.51Z"/>
    <path class="cls-23" d="M115.45,13.01c0-.36,0-.62,0-1v1Z"/>
    <path class="cls-22" d="M79.45,275.01l.99,6.01c8.18-.15,16.4.16,24.59.04,1.33-.02,2.28-1.04,2.41-1.05.33,0,.67,0,1,0s.67.01,1,0h6c.33,0,.67,0,1,0,.18,0,1.55,1.08,3.45,1.11,2,.03,2.94-.62,4.55-1.11v1c-.22.16-.33,1.2-.99,1.49-34.48.41-69.44,1.2-104.01.51-1-.02-2,.03-3,0-1.33-.04-2.68.08-4,0s-2.84.21-4,0v-2c2.45.16,4.75-1.01,5-1,.33.01.67-.01,1,0l1.62.92c1.79.29,3.59.05,5.38.08.33,0,.67,0,1,0,9.32.11,18.69-.08,28.01,0,.01-1.33,0-2.67,0-4h1c.43,1.53-1.38,3.82,1.47,4.01,8.63.58,17.84-.44,26.53-.02l-1-5.99h1Z"/>
    <path class="cls-29" d="M6.45,270.01c4.85-.69,13.39.82,19,1l1,2c-2.33,0-4.67-.03-7,0-.32-1.5-3.59-1.56-4,0-2.99.02-6-.02-8.99,0-.85,3.35,3.98,1.73,6.4,2.07.8.11,1.41.91,1.59.92l-1,4c-.25,0-2.55,1.16-5,1-.85-.05-2.61-1.42-4-1-.27-.35-.86-.68-1-1-1.34-3.11-2.28-6.06,1-8,.71-.42.75-.82,2-1Z"/>
    <path class="cls-28" d="M2.45,215.01l-1.02,10.57,1.02,1.43c.23.13.68-.11,1,0-1.79,5.14-.97,11.46-1,17-.01,2-.01,4,0,6,0,.33,0,.67,0,1,.02,2-.04,4,0,6,.09,4.46-1.29,10.78,2,14-3.28,1.94-2.34,4.89-1,8-2.48-1.8-2.9-9.39-3.06-12.47-.87-16.96-.05-35.2.06-52.53h1l1,1Z"/>
    <path class="cls-4" d="M8.45,281.01v2c-.68-.12-1.39-.11-2-.52-1.07-.54-1.37-1.66-2-2.48,1.39-.42,3.15.95,4,1Z"/>
    <path class="cls-14" d="M9.45,169.01v2c0,11.31-.41,22.74,1,34.01v-34.01h1c.25,3.11-.36,6.53-.04,9.58.14,1.3,1.01,2.2,1.04,2.42.24,2.03.73,3.39,1,5,.05.32-.05.67,0,1-3.02-.56-1.93,1.53-2,3.46-.13,3.44-.71,8.84,1,11.54l1.69,1.8c1.08.43,2.22.11,3.31.2v1h-9c-.91-.28-1.3-.62-2-1,.16-2.64-.23-5.37,0-8,.16-1.88.88-3.68,1-6,.03-.66-.03-1.34,0-2,.04-1-.04-2,0-3,.06-1.66-.03-3.34,0-5,.02-1,0-2,0-3,.01-1.66-.07-3.34,0-5,.05-1.33-.04-2.67,0-4l1.01-.99-3-1c1.74-.82,3.55.95,4,.99Z"/>
    <path class="cls-28" d="M7.45,174.01c-.07,1.66.01,3.34,0,5-1.5.14-1.5,2.86,0,3-.03,1.66.06,3.34,0,5-1.5.14-1.5,2.86,0,3-.03.66.03,1.34,0,2-3.46,2.72-1.53-2.48-2.03-4.31-.2-.73-1.64-.59-1.9-1.45-1.16-3.92-1-8.16.12-12.04l3.81-.21Z"/>
    <path class="cls-25" d="M1.44,198.01l2.81,1.19.19,2.81-1.99-1-.02,1.49,2.01.51c-.04.66,0,1.34,0,2,.07,4.37,1.53,8.57,1,13-1.13.62-1.17,1.49-3,0-.05-1,.04-2,0-3l-1-1c.05-5.32-.08-10.68,0-16ZM3.5,205.93l-1.34.17,1.36,11.02,1.34-.17-1.36-11.02Z"/>
    <path class="cls-7" d="M5.45,198.01c.84,2.29-.95,4.23-1,5v-1l-.19-2.81-2.81-1.19c.02-1.33-.07-2.68,0-4h1c.84,2.13,2.91,3.77,3,4Z"/>
    <path class="cls-22" d="M6.45,206.01c-.66-.35-1.33-.67-2-1,0-.66-.04-1.34,0-2,.05-.77,1.84-2.71,1-5h1c-.23,2.63.16,5.36,0,8Z"/>
    <path class="cls-28" d="M2.45,194.01h-1c.05-.94-.43-3.01.5-3.01,1.13.29.2,2.25.5,3.01Z"/>
    <path class="cls-28" d="M6.45,194.01c.65.33.65.67,0,1v-1Z"/>
    <path class="cls-28" d="M5.45,171.01c.65.33.65.67,0,1v-1Z"/>
    <path class="cls-14" d="M120.45,270.01l-.06,1.92-3.94,1.08c-11.98.11-24.01-.09-35.99,0-1.62,1.23.02,1.81,1.48,2,6.97.89,18.09.13,25.52,0-.09.64.13,1.42,0,2-.11.46-1.62.99,0,2v1c-.13,0-1.08,1.03-2.41,1.05-8.19.12-16.41-.19-24.59-.04l-.99-6.01c-1.04-1.66-3.8-1-5.49-1.02-7.83-.08-15.7.22-23.51.02s-15.9-1.01-24-1l-1-2c6.6.21,13.74.88,20,1,17.94.33,35.49-1.21,53-2,6.91-.31,15.59,1.06,22,0Z"/>
    <path class="cls-5" d="M50.45,275.01c0,.67,0,1.33,0,2,0,1.33.02,2.67,0,4-9.32-.09-18.69.1-28.01,0,.95-1.4,1.82-4.13,0-5,.13,0,1.13-1.03,2.42-1.04,8.52-.07,17.07.13,25.58.04Z"/>
    <path class="cls-20" d="M78.45,275.04l1,5.99c-8.69-.42-17.9.6-26.53.02-2.85-.19-1.04-2.47-1.47-4.01l.64-2.03,26.36.03Z"/>
    <path class="cls-26" d="M79.45,275.01h-1l-26.36-.03-.64,2.03h-1c0-.67,0-1.33,0-2v-1c7.81.2,15.69-.1,23.51-.02,1.69.02,4.45-.64,5.49,1.02Z"/>
    <path class="cls-1" d="M14.45,280.01v-3s7,0,7,0v4c-1.8-.02-3.6.22-5.39-.08l-1.61-.92Z"/>
    <path class="cls-26" d="M116.45,275.01v5c-.33,0-.67,0-1,0v-2l-8-1v2l1,1c-.33,0-.67,0-1,0v-3c.13-.58-.09-1.36,0-2,2.98-.05,6.02.15,9,0Z"/>
    <path class="cls-26" d="M22.45,276.01c1.9.91.86,3.87-.14,5.19l-.86-.31v-3.89s-7,0-7,0v3c-.33-.01-.66.01-.99,0l1-4c2.54.2,5.41.03,7.99,0Z"/>
    <path class="cls-3" d="M115.45,280.01c-1.99-.03-4.02-.08-6,0-.33.01-.67,0-1,0v-1l7-1v2Z"/>
    <path class="cls-14" d="M115.45,280.01h-6c1.98-.08,4.01-.03,6,0Z"/>
    <path class="cls-2" d="M127.45,278.01c.38-1.85.47-6.77-1-8,.55-1.11.73-1.83,1-3,1.17-5.03.59-8.97,0-14l-1.18,10.35c-.37,1.28-1.43,1.24-1.81,1.65-1.78-.95-1.81-1.2-2-3l2.99,1c-.42-3.7.61-8.5,0-12l3,.99-2-9.99h1l1-2,2-8c3.33,4.46-.53,8.72-1.05,12.45-1.38,9.89,1.56,22.49-.46,32.56-.3.66-1.33.77-1.49.99Z"/>
    <path class="cls-2" d="M126.45,279.01c.28-.35.99-.93,1-1-.26.37-.71.64-1,1Z"/>
    <path class="cls-2" d="M124.45,281.01v-1c.33-.1.77.12,1,0-.36.29-.63.74-1,1Z"/>
    <path class="cls-2" d="M125.45,280.01c.19-.1.79-.74,1-1-.28.34-.66.72-1,1Z"/>
    <path class="cls-5" d="M6.45,265.01c4.35,3.51,16.8,1.86,23,2,.67.02,1.34-.03,2,0,2.43.11,4.69.09,7,1-8.44.2-17.64.87-26.51.98-1.69.02-4.45-.64-5.49,1.02-1.25.18-1.29.58-2,1-3.29-3.22-1.91-9.54-2-14h1c.23,4.03-.48,5.19,3,8Z"/>
    <path class="cls-7" d="M15.45,273.01c1.09,0,2.81.02,4,0,2.33-.03,4.67,0,7,0,8.1-.01,16.36.8,24,1v1c-8.51.09-17.06-.11-25.58-.04-1.29.01-2.29,1.04-2.42,1.04-2.59.03-5.46.2-8,0-.18-.01-.79-.81-1.59-.92-2.42-.34-7.26,1.27-6.4-2.07,2.99-.02,6,.01,8.99,0Z"/>
    <path class="cls-7" d="M45.45,270.01v2c-6.26-.12-13.4-.79-20-1-5.61-.18-14.15-1.69-19-1,1.04-1.66,3.79-1,5.49-1.02,8.87-.11,18.08-.78,26.51-.98.33,0,.67,0,1,0,1.41,2.21,3.74,1.87,6,2Z"/>
    <path class="cls-14" d="M19.45,273.01c-1.19.02-2.91,0-4,0,.41-1.56,3.68-1.5,4,0Z"/>
    <path class="cls-1" d="M35.45,209.01l-24,24c-2-.04-3.94.81-5.89,1.11-.26.3-.36,7.16-.11,7.89-1.66-.35-2.23.75-3,2,.03-5.54-.79-11.86,1-17,1.15.39,2.45,1.04,3.52.09l18.48-18.09c3.58.21,6.6-.04,10,0Z"/>
    <path class="cls-13" d="M25.45,209.01l-18.48,18.09c-1.07.95-2.36.3-3.52-.09-.32-.11-.77.13-1,0-.11-2.98.16-6.02,0-9,1.83,1.49,1.87.62,3,0,3.44-1.87,7.3-7.01,10-10,3.14.29,7.22.83,10,1Z"/>
    <path class="cls-13" d="M5.45,242.01c.07.2,1.32.46,1.55,1.05.78,1.97-1.9,7.22-4.55,6.95-.01-2-.01-4,0-6,.77-1.25,1.34-2.35,3-2Z"/>
    <path class="cls-3" d="M2.45,218.01c.16,2.98-.11,6.02,0,9l-1.02-1.43,1.02-10.57c.04,1-.05,2,0,3Z"/>
    <path class="cls-3" d="M11.45,233.01c2,.04,5.4,1.68,9,1,.13,1.26,1,2.83,1,4-2.97-5.27-9.89-2.29-14.99-2.99-.56,1.83.91,1.77.99,1.99.43,1.12.87,3.85,1.61,4.06l9.39-1.06,2,1c-.65,1.15-1.27,2.41-2.68,2.8l-9.32,1.2c-1.21.75-1.38,1.95-2,3s-1.95,2.83-2,3h-2c0-.33,0-.67,0-1,2.65.27,5.33-4.98,4.55-6.95-.23-.58-1.48-.85-1.55-1.05-.25-.73-.15-7.59.11-7.89,1.95-.29,3.89-1.15,5.89-1.11Z"/>
    <path class="cls-8" d="M3.45,257.01h-1c-.04-2,.02-4,0-6h1c.08,1.99-.11,4.01,0,6Z"/>
    <path class="cls-22" d="M123.45,168.01v2l-1,1c-1.95,2.36-.92,20.27-1,24.99-.05,2.96.8,6.64-1,9l-1.01-34.99-.99,1c-4.32.01-8.68-.02-13,0-12.32.05-24.68-.05-37,0,1.64,4.51,1.1,10.1,1,14.99-.06,2.99.06,6.01,0,9h-2c0-7.99,0-16.02,0-24.01-1.66-.06-3.34.08-5.01,0-7.27-.33-14.72.02-22,0-9.65-.03-19.35,0-29,0h-2v-2c16.76,1.32,36.84,0,54,0,1.13,0,2.9,0,4,0,15.53-.06,42,2.15,56-1Z"/>
    <path class="cls-26" d="M62.45,171.01c1.68,5.94.17,11.96,0,18-5.93,1.47-13.1,2.5-18.69,4.81-3.19,1.32-11.6,5.74-14.37,7.66-1.62,1.12-2.57.37-1.94,3.53-4.99-.35-10.02-.44-15-1-1.71-2.71-1.13-8.1-1-11.54.07-1.93-1.02-4.01,2-3.46.26,1.87-.19,4.07,0,6.01,8.19,1.86,14.01-3.48,20.71-5.8,6.72-2.32,13.89-3.3,20.19-6.81,3.69-2.06,8.47-4.5,7.1-9.4-2.48-1.66-7.77-1.21-11-1h-10v-1c7.28.02,14.73-.33,22,0Z"/>
    <path class="cls-28" d="M61.45,173.01c1.36,4.89-3.42,7.34-7.1,9.4-6.3,3.52-13.47,4.49-20.19,6.81-6.7,2.32-12.52,7.66-20.71,5.8-.19-1.93.26-4.14,0-6.01-.05-.33.05-.68,0-1,6.4-1.37,12.65-3.68,18.95-5.55,2.24-.67,4.73-.23,7.09-.91,8.19-2.37,13.29-10.09,21.97-8.53Z"/>
    <path class="cls-2" d="M61.45,173.01c-8.68-1.55-13.78,6.16-21.97,8.53-2.36.68-4.84.24-7.09.91-6.29,1.88-12.54,4.19-18.95,5.55-.27-1.61-.76-2.97-1-5,1.77-1.12.86-4.11,1-6,6.7,2.06,16.2,1.89,22.72-.78,5.59-2.29,7.04-3.74,14.28-4.22,3.23-.21,8.52-.66,11,1Z"/>
    <path class="cls-1" d="M6.45,206.01c.7.38,1.09.72,2,1,3.21.99,3.86.71,7,1-2.7,2.99-6.56,8.13-10,10,.53-4.43-.93-8.63-1-13,.67.33,1.34.65,2,1Z"/>
    <path class="cls-28" d="M40.45,171.01v1c-8.99,0-18.02,0-27.01,0-.09,1.65.13,3.35,0,5.01-.14,1.89.77,4.88-1,6-.03-.22-.9-1.11-1.04-2.42-.32-3.05.29-6.47.04-9.58,9.65,0,19.35-.03,29,0Z"/>
    <path class="cls-22" d="M17.45,207.01c5.26,0,15.58-.92,20,0l1,1v1c-1,0-2,.01-3,0-3.4-.04-6.42.21-10,0-2.78-.17-6.86-.71-10-1s-3.79-.01-7-1h9Z"/>
    <path class="cls-28" d="M10.45,171.01l-.5,34.01c-.91-11.27-.5-22.7-.5-34.01h1Z"/>
    <path class="cls-12" d="M27.45,205.01c.85.06,1.73.03,2,1-3.83.07-8.26.29-12,0-1.09-.08-2.23.23-3.31-.2l-1.69-1.8c4.98.56,10.01.65,15,1Z"/>
    <path class="cls-8" d="M37.45,205.01v2c-4.42-.92-14.74,0-20,0v-1c3.74.29,8.17.07,12,0,2.93-.06,5.98-1,8-1Z"/>
    <path class="cls-26" d="M7.45,182.01c-1.5-.14-1.5-2.86,0-3,0,1,.02,2,0,3Z"/>
    <path class="cls-26" d="M7.45,190.01c-1.5-.14-1.5-2.86,0-3-.04,1,.04,2,0,3Z"/>
    <rect class="cls-1" x="2.84" y="205.97" width="1.35" height="11.1" transform="translate(-25.96 2.03) rotate(-7.06)"/>
    <polygon class="cls-26" points="4.45 202.01 4.45 203 2.45 202.49 2.47 201.01 4.45 202.01"/>
    <path class="cls-17" d="M127.45,170.01c.33.01,1.59,1.63,3,0-.05,8.32.07,16.68,0,25l-4.01,4-1.06-2.92-2.93-.08c-.33-8.29.24-16.7,0-25l1-1c1.33.03,2.67-.05,4,0ZM128.45,172.01h-1v20h1v-20Z"/>
    <path class="cls-22" d="M130.45,195.01c-.04,4.65.07,9.35,0,14-.97-.29-.94-1.15-1-2-.05-.66.01-1.34,0-2-.07-2.99.06-6.01-.01-8.99-2.03.43-1.43,4.51-1.99,5.99s-2.92,4.67-3,5c-3.8.36-8.75.43-12,2-4.93-1.67-5.82-.03-9,0-3.66.04-7.34,0-11,0s-7.34-.02-11,0-7.34,0-11,0h-24v-1c4.92,0,10.68.75,15-2,.33.01.67-.01,1,0,6.52.26,13.18,1.19,20,1-.1-.63.07-1.35,0-2,2.33,0,4.67-.02,7,0v2c-2.32.07-4.67-.06-7,0,.05.32-.08.67,0,.99l34.01-1.99c1.33-.03,2.67.04,4,0,1-.03,2.01.05,3,0,.67-3.46-.87-6.8-1-10.01l2.93.08,1.06,2.92,4.01-4Z"/>
    <path class="cls-3" d="M130.45,209.01c-.03,2.33.05,4.67,0,7-2.05,2.05-.66,6.15-1,9-.1.8-1.38,4.08-2,5-.05-.85-.03-1.74-1-2-1.36-3.41,1.84-3.76,2.07-5.43.49-3.44-.94-5.71-1.07-7.57-.11-1.6-.27-4.59,0-6,.08-.4,1.6-1.44,2-2,.06.85.03,1.71,1,2Z"/>
    <path class="cls-15" d="M130.45,225.01c-.1,2.32.07,4.68,0,7l-2,8c.09-.61,0-1.36,0-2,0-1.1.27-2.51-1-3-.08-1.66.1-3.35,0-5,.62-.92,1.9-4.2,2-5h1Z"/>
    <path class="cls-22" d="M130.45,225.01h-1c.34-2.85-1.05-6.95,1-9-.06,2.99.13,6.02,0,9Z"/>
    <path class="cls-8" d="M98.45,269.01v1c-17.51.79-35.06,2.33-53,2v-2c17.59,1.03,35.49-.49,53-1Z"/>
    <path class="cls-21" d="M116.45,275.01c-2.98.15-6.02-.05-9,0-7.42.13-18.54.89-25.52,0-1.46-.19-3.1-.76-1.48-2,11.98-.09,24.01.11,35.99,0,.13,0,.66.86,1.46.85,3.25-.06,5.36-.78,7.54-2.85l.98.49c-2.86,4.4-5.62,3.29-9.98,3.51Z"/>
    <path class="cls-8" d="M126.45,270.01c-.12.25-.7.72-1,1-2.19,2.07-4.29,2.79-7.54,2.85-.8.02-1.33-.85-1.46-.85l3.94-1.08.06-1.92c1.02-.17,1.92-.08,3.06-.44.98-.31,1.35-1.17,1.94-1.56s1.36-.64,2-1c-.27,1.17-.45,1.89-1,3Z"/>
    <path class="cls-21" d="M125.45,268.01c-.59.39-.96,1.25-1.94,1.56-1.14.36-2.04.27-3.06.44-6.41,1.06-15.09-.31-22,0v-1c7.53-.22,16.85.86,24,0,.75-.09,1.96-1.07,3-1Z"/>
    <path class="cls-21" d="M107.45,279.01c-1.62-1.01-.11-1.54,0-2v2Z"/>
    <polygon class="cls-1" points="115.45 278.01 108.45 279.01 108.45 277.01 115.45 278.01"/>
    <path class="cls-17" d="M31.45,247.01c.65-.08,1.35.09,2,0l-3,3,68,1c1.71-1.9,0-2.94,3-3l1,17-2,1v1c-5.61-.11-10.29-.93-15-1-13.54-.2-28.06-.53-41.55,0-1.93.08-4.01-1.03-3.45,2-.33,0-.67,0-1,0s-.67,0-1,0c-2.31-.91-4.57-.89-7-1l-3.02-2.71c-.59-5.15,1.32-11.54-.98-16.29,2.11-1.04,1.93-.73,4-1ZM69.45,253.02c-12.71.63-25.29-2.39-38.01-.51,11.34,1.28,23.05,1.97,34.52,1.5,1.22-.05,3.72.75,3.48-.99ZM71.45,252.01v1h28v-1h-28ZM31.45,255.01v1h60v-1H31.45ZM31.8,259.01l66.65,1H32.45l67.65-2-66.84-.99-1.46,1.99ZM32.45,263.01v1h63v-1h-63Z"/>
    <path class="cls-22" d="M18.45,262.02v3l-9.99.99h19.99c.39.23.68.69,1,1.01-6.2-.14-18.65,1.51-23-2-.13-.58.2-1.66,0-2,.45-.17.92-.53,1-1,3.47-.34,7.66.48,11,0Z"/>
    <path class="cls-28" d="M6.45,263.01c.2.34-.13,1.42,0,2-3.48-2.81-2.77-3.97-3-8-.11-1.99.08-4.01,0-6h1c-.33,1.21-.24,8.05.01,9.51.4,2.27,1.81,2.19,1.99,2.49Z"/>
    <path class="cls-21" d="M27.45,248.01c2.3,4.76.39,11.15.98,16.29l3.02,2.71c-.66-.03-1.33.02-2,0-.32-.32-.61-.78-1-1-3.21-1.86-6.33-.77-10-1v-3c.63-.09,2.21-.82,2.73-1.28.46-.47.12-1.52.27-1.72,1.45-1.89,5.22-5.07,2-8,1.49-.76,2.51-2.26,4-3Z"/>
    <path class="cls-5" d="M100.45,267.01c4.92.09,18.25.94,22,0v2c-7.15.86-16.47-.22-24,0-17.51.51-35.41,2.03-53,1-2.26-.13-4.59.21-6-2,.33,0,.67,0,1,0,13.81-.28,27.73.46,41.55,0,1.93-.06,4.01,1.02,3.45-2,4.71.07,9.39.89,15,1Z"/>
    <path class="cls-13" d="M38.45,209.01c2.7,0,5.53-.47,8,1-6.05,3.6-20.6,22.98-26,24-3.6.68-7-.96-9-1l24-24c1,.01,2,0,3,0Z"/>
    <path class="cls-21" d="M8.46,245.01c-.12,3.5-.62,2.76,2.44,3,2.56.21,5.25-.04,7.82-.02,1.03-.22,1.2-1.59,1.73-1.98v4c-3.34-.48-7.52.33-11,0v2.99s8,1,8,1h-9s0,5,0,5h-1c.09-3.37.76-8.42-1-11,.62-1.05.79-2.25,2-3Z"/>
    <path class="cls-1" d="M7.45,259.01c-.03.97.15,2.14,0,3-.08.47-.55.83-1,1-.18-.3-1.59-.22-1.99-2.49-.26-1.46-.35-8.3-.01-9.51.05-.17,1.38-1.93,2-3,1.76,2.58,1.09,7.63,1,11Z"/>
    <path class="cls-15" d="M118.45,178.01c0,7.1.85,16.87.05,23.55-.23,1.9-.86,3.03-2.05,4.45-9.26.24-17.89-.92-27-1-2.33-.02-4.67,0-7,0-6.13,0-8.37.96-15,0v-10h2c.06-2.98-.06-6.01,0-9,2.54,1.35-.81,7.49,2.49,7.01,14.41-8.26,29.65-14.2,46.51-15.01Z"/>
    <path class="cls-26" d="M105.45,171.01v1h-35.01c.68,2.23-1.63,10.2,1.52,10.04l42.48-10.04h4v6c-16.86.81-32.1,6.74-46.51,15.01-3.3.48.05-5.66-2.49-7.01.1-4.88.64-10.48-1-14.99,12.32-.06,24.68.04,37,0Z"/>
    <path class="cls-16" d="M62.45,171.01c1.66.08,3.35-.07,5.01,0,0,7.99,0,16.02,0,24.01v10c-1.55-.22-3.39.15-5,0,.11-5.32-.15-10.69,0-16,.17-6.04,1.68-12.06,0-18Z"/>
    <path class="cls-21" d="M120.45,205.01v1c-1.33.04-2.67-.03-4,0,1.19-1.41,1.82-2.54,2.05-4.45.8-6.68-.05-16.45-.05-23.55v-7l.99-1,1.01,35Z"/>
    <path class="cls-11" d="M122.45,196.01h-1c.08-4.72-.95-22.64,1-25,.24,8.3-.33,16.71,0,25Z"/>
    <path class="cls-14" d="M122.45,196.01c.13,3.21,1.68,6.54,1,10.01-1,.04-2-.04-3,0v-1c1.8-2.36.95-6.04,1-9h1Z"/>
    <path class="cls-15" d="M118.45,171.01v1h-4c-2.99,0-6.01,0-9,0v-1c4.32-.02,8.68.01,13,0Z"/>
    <path class="cls-15" d="M62.45,189.01c-.15,5.31.11,10.68,0,16v1c-.33-.01-.67.01-1,0-7.95-.27-16.12-.98-24-1-2.02,0-5.07.94-8,1-.27-.97-1.15-.94-2-1-.62-3.16.32-2.4,1.94-3.53,2.77-1.92,11.18-6.34,14.37-7.66,5.59-2.31,12.75-3.34,18.69-4.81Z"/>
    <path class="cls-22" d="M40.45,172.01h10c-7.24.48-8.7,1.93-14.28,4.22-6.52,2.67-16.02,2.84-22.72.78.12-1.65-.1-3.35,0-5.01,8.99,0,18.02,0,27.01,0Z"/>
    <path class="cls-7" d="M61.45,206.01c-4.32,2.75-10.08,2.01-15,2-2.66,0-5.34,0-8,0l-1-1v-2c7.88.02,16.05.73,24,1Z"/>
    <path class="cls-3" d="M46.45,208.01v2c-2.47-1.47-5.3-1-8-1v-1c2.66,0,5.34,0,8,0Z"/>
    <rect class="cls-2" x="127.45" y="172.01" width="1" height="20"/>
    <path class="cls-10" d="M70.45,209.01l40,38v2c-.43.1-1.43,1.59-2,2-.33-.03-.68.06-1,0-2.47-.48-3.11-1.78-5-3-.84-1.6-3.4-.97-5-1l-31.5-31c-.69,2.66-1.09,7.52.02,9.98,2.21,4.86,16.44,14.14,19.48,20.02-2.47-.08-6.91.04-10,0-3.8-3.41-5.08-6.92-10-9-.26-.11-.57-.82-1-1l-11,10c-3.01.03-7.69-.09-10,0l20.48-21.02c.89-1.93.69-5.34.51-7.5-.12-1.48.79-2.89-1.49-2.47l-31.51,31.99c-2.07.27-1.89-.04-4,1-1.49.74-2.51,2.24-4,3-.12-.11-2.74-.96-3-1v-4c6.58-4.91,15.3-13.99,21.53-19.97,5.67-5.46,11.27-11.12,16.47-17.03h12Z"/>
    <path class="cls-1" d="M58.45,209.01c-5.2,5.9-10.8,11.57-16.47,17.03-6.22,5.99-14.95,15.07-21.53,19.97-.53.4-.7,1.76-1.73,1.98-2.57-.02-5.26.23-7.82.02-3.06-.25-2.57.5-2.45-3l9.32-1.2c1.41-.39,2.03-1.66,2.68-2.8.73-1.29,1-1.09,1-3,0-1.17-.87-2.74-1-4,5.4-1.02,19.95-20.4,26-24v-1h12Z"/>
    <path class="cls-1" d="M81.46,209.01c4.96,5.27,9.85,10.94,15,16l-1,6.99h1.99s0-5.99,0-5.99c3.1,3.04,9.02,5.77,11,10,2.18,4.67-.7,7.85,7,8l2.99,1.99-7.99,1.01-40-38c3.66,0,7.34.02,11,0Z"/>
    <path class="cls-1" d="M103.45,209.01c4.67,7.11,15.97,12.8,20,20,.79,1.41,1.19,2.77,1.07,4.41-.2,1.18-1.56.39-2.07.59h-1c-.88-1.46-4.39-1.25-6-1l-23-24c3.66,0,7.34.04,11,0Z"/>
    <path class="cls-10" d="M92.45,209.01l23,24c-.47.07-.88.52-1,1-.33.03-.67-.04-1,0-1.85.23-3.41,1.14-5,2-1.98-4.23-7.9-6.96-11-10-.34-.33-.66-.67-1-1-5.15-5.06-10.04-10.73-15-16,3.66-.02,7.34,0,11,0Z"/>
    <path class="cls-10" d="M129.46,205c.01.66-.05,1.34,0,2-.4.56-1.93,1.6-2.01,2v-1.99s-2,0-2,0l-.03,7.36,2.03.63c.13,1.87,1.57,4.14,1.08,7.57-.24,1.66-3.45,2.01-2.08,5.43-.03.8-.39.82-1,1-.52.16-1.38-.11-2.01,0-4.04-7.2-15.37-12.89-20.05-20,3.19-.03,4.08-1.67,9.02,0s7.5,7.22,12.02,10c.56-3.48-.74-8.86.01-12,.08-.33,2.43-3.46,3.01-5l2.01,3Z"/>
    <path class="cls-1" d="M124.45,207.01c-.74,3.14.55,8.52-.01,12-4.51-2.78-6.94-8.29-11.99-10,3.25-1.57,8.2-1.64,12-2Z"/>
    <path class="cls-7" d="M116.45,206.01l-34.01,1.99c-.07-.32.06-.67,0-.99,2.33-.07,4.68.06,7.01,0v-2c9.1.08,17.73,1.24,26.99,1Z"/>
    <path class="cls-14" d="M67.45,205.01c6.63.96,8.87,0,15,0,.07.65-.1,1.37,0,2-6.82.19-13.48-.74-20-1v-1c1.61.15,3.45-.22,5,0Z"/>
    <path class="cls-3" d="M129.45,205.01l-2-3c.56-1.48-.04-5.56,1.99-5.99.07,2.99-.05,6.01.01,8.99Z"/>
    <path class="cls-10" d="M118.41,244c-2.32-1.12-3.93-2.39-6.95-2.04l-.05-5.96h13s.99,6,.99,6h1l1.99,9.99-2.99-.99c-.04-.25-.85-.62-1-1-1.67-4.14-2.21-4.17-5.99-5.99Z"/>
    <path class="cls-1" d="M124.45,250.01c.15.38.96.75,1,1,.6,3.5-.43,8.3,0,12l-2.99-1c-.11-.98.04-2.01,0-3-.13-3.32.08-6.68.01-10l1.99,1Z"/>
    <path class="cls-14" d="M127.45,267.01c-.64.36-1.39.59-2,1-1.04-.07-2.25.91-3,1v-2c.19-.05,1.6-1.56,2-2,.37-.4,1.43-.36,1.81-1.65l1.18-10.35c.6,5.03,1.18,8.97,0,14Z"/>
    <path class="cls-1" d="M127.45,230.01c.1,1.65-.08,3.34,0,5,.05,1.09-.31,2.52,1,3,0,.64.09,1.39,0,2-.05.33-1.08,1.24-1,2h-2v-13c.62-.18.97-.2,1-1,.97.26.95,1.15,1,2Z"/>
    <path class="cls-22" d="M122.45,262.01c.19,1.8.22,2.05,2,3-.4.44-1.81,1.95-2,2-3.75.94-17.08.09-22,0v-1h21.99c.45-.93-2.79-1.97-2.99-2l3-2Z"/>
    <path class="cls-3" d="M127.45,242.01c-.08-.76.95-1.67,1-2l-1,2Z"/>
    <path class="cls-1" d="M127.46,215l-2.01-.63.02-7.36h1.98s0,1.99,0,1.99c-.27,1.41-.11,4.4,0,6Z"/>
    <path class="cls-3" d="M128.45,238.01c-1.31-.48-.95-1.91-1-3,1.27.49,1,1.9,1,3Z"/>
    <path class="cls-1" d="M31.45,247.01l31.51-31.99c2.28-.41,1.36.99,1.49,2.47.18,2.16.37,5.57-.51,7.5l-20.48,21.02c-3.29.13-6.75.55-10,1-.65.09-1.35-.08-2,0Z"/>
    <path class="cls-26" d="M43.45,246.01c2.31-.09,6.99.03,10,0,3.66-.04,7.34.01,11,0,.33,0,.67,0,1,0,3.33.03,6.67-.04,10,0,3.09.04,7.53-.08,10,0,3.83.13,7.69.92,12,1,1.6.03,4.16-.6,5,1-.33,0-.67,0-1,0-2.99.06-1.29,1.1-3,3l-68-1,3-3c3.25-.45,6.71-.87,10-1Z"/>
    <path class="cls-21" d="M107.45,251.01l-.83,5.28,3.83,2.73c-.29-1.78.15-2.58,1.01-4-.11.96.16,2.1,0,3-.07.4.2.92.03,1.38l-2.02,1.61,4.99,3.01c-3,.13-8.08,1.97-12,1l-1-17c.33,0,.67,0,1,0,1.89,1.22,2.53,2.52,5,3Z"/>
    <path class="cls-14" d="M85.45,266.01c.56,3.02-1.53,1.94-3.45,2-13.82.46-27.73-.28-41.55,0-.56-3.03,1.53-1.92,3.45-2,13.48-.53,28-.2,41.55,0Z"/>
    <polygon class="cls-28" points="31.46 259.01 32.93 257.01 100.45 258.01 32.45 259.01 31.46 259.01"/>
    <path class="cls-28" d="M98.45,251.01l-68-1,68,1Z"/>
    <polygon class="cls-4" points="32.45 259.01 98.45 260.01 31.45 260.01 32.45 259.01"/>
    <rect class="cls-12" x="32.45" y="263.01" width="63" height="1"/>
    <rect class="cls-28" x="31.45" y="255.01" width="60" height="1"/>
    <path class="cls-4" d="M69.45,253.02c.23,1.74-2.27.94-3.48.99-11.47.47-23.18-.22-34.52-1.5,12.71-1.88,25.29,1.14,38.01.51Z"/>
    <rect class="cls-4" x="71.45" y="252.01" width="28" height="1"/>
    <path class="cls-8" d="M119.45,264.02c.2.03,3.44,1.07,2.99,1.99h-21.99s2-.99,2-.99c3.92.97,9-.87,12-1,1.5-.06,3.61-.2,5,0Z"/>
    <path class="cls-17" d="M20.45,259.01h1c-.15.2.19,1.26-.27,1.72-.51.46-2.1,1.19-2.73,1.28-3.34.48-7.53-.34-11,0,.15-.86-.03-2.03,0-3h1c3.9,1.69,8.75,2.17,11-2l1,2Z"/>
    <path class="cls-8" d="M18.45,265.01c3.67.23,6.79-.86,10,1H8.46s9.99-1,9.99-1Z"/>
    <path class="cls-10" d="M18.45,240.01l-9.39,1.06c-.74-.21-1.18-2.95-1.61-4.06l8.3-.81c1.71.6,2.6,2.03,2.7,3.81Z"/>
    <path class="cls-21" d="M21.45,238.01c0,1.91-.27,1.71-1,3l-2-1c-.1-1.77-.99-3.21-2.7-3.81l-8.3.81c-.09-.22-1.56-.17-.99-1.99,5.1.71,12.02-2.27,14.99,2.99Z"/>
    <path class="cls-20" d="M20.46,250.01c.26.04,2.88.89,3,1,3.22,2.93-.55,6.11-2,8h-1c.26-1.45-.19-1.98-1-3-.58-.73-.78-1.74-2-2l-8.01-1v-2.99c3.48.33,7.66-.48,11.01,0Z"/>
    <path class="cls-10" d="M17.45,254.01c1.22.26,1.42,1.27,2,2v1c-2.25,4.17-7.1,3.69-11,2v-5.01s9,0,9,0Z"/>
    <path class="cls-28" d="M105.45,172.01l9-1-42.48,11.04c-3.15.17-.84-7.81-1.52-10.04h35.01Z"/>
    <path class="cls-1" d="M97.45,247.01c-4.31-.08-8.17-.87-12-1-3.04-5.88-17.27-15.16-19.48-20.02-1.11-2.45-.72-7.32-.02-9.98l31.5,31Z"/>
    <path class="cls-1" d="M64.45,236.01v10c-3.66.01-7.34-.04-11,0l11-10Z"/>
    <path class="cls-1" d="M65.45,237.01c4.92,2.08,6.2,5.59,10,9-3.33-.04-6.67.03-10,0v-9Z"/>
    <path class="cls-6" d="M108.45,251.01c3.82.38,8.11-.29,11.99.01l-5.99,1.99c-.69.11-1.38.09-1.98.52-.59.32-.71.97-1.02,1.48-.86,1.42-1.3,2.22-1.01,4l-3.83-2.73.83-5.28c.32.06.67-.03,1,0Z"/>
    <path class="cls-3" d="M118.45,244.01c3.79,1.82,4.33,1.85,6,6l-1.99-1c.07,3.32-.14,6.68-.01,10h-1c.79-2.04-.94-4.68-1-6,0-.16,1.16-1.29,1-3-.05-.59-.98-2.86-1.67-3.03l-9.33,1.03v-1l7.99-1.01-2.99-1.99c1,.02,2-.01,3,0Z"/>
    <path class="cls-7" d="M121.45,250.01c.16,1.71-1.01,2.84-1,3-1.91.2-4.19-.29-6,0l5.99-1.99c-3.89-.3-8.18.37-11.99-.01.57-.41,1.57-1.9,2-2,3.3-.76,7.66.6,11,1Z"/>
    <path class="cls-29" d="M110.45,248.01l9.33-1.03c.7.17,1.62,2.44,1.67,3.03-3.34-.4-7.7-1.76-11-1v-1Z"/>
    <path class="cls-27" d="M65.45,237.01v9c-.33,0-.67,0-1,0v-10c.43.18.74.89,1,1Z"/>
    <path class="cls-2" d="M125.45,229.01v13l-.99-6.01h-13.01s.05,5.97.05,5.97c3.02-.35,4.63.92,6.96,2.04-1-.01-2,.02-3,0-7.69-.15-4.82-3.33-7-8,1.59-.86,3.15-1.77,5-2,2.53,2.18,6.28,1.09,9,0,.51-.2,1.87.59,2.07-.59.12-1.64-.28-3-1.07-4.41.63-.11,1.48.16,2,0Z"/>
    <path class="cls-7" d="M97.45,226.01v6s-2,0-2,0l1-6.99c.34.33.66.67,1,1Z"/>
    <path class="cls-21" d="M121.45,234.01h1c-2.71,1.09-6.47,2.18-9,0,.33-.04.67.03,1,0,2.26-.23,4.71.16,7,0Z"/>
    <path class="cls-3" d="M121.45,234.01c-2.29.16-4.74-.23-7,0,.12-.48.53-.93,1-1,1.61-.25,5.12-.46,6,1Z"/>
    <path class="cls-19" d="M121.45,259.01h1c.04.99-.11,2.02,0,3l-3,2c-1.39-.2-3.5-.06-5,0l-4.99-3.01,2.02-1.61c.18-.46-.1-.98-.03-1.38,2.81.96,7.55,2.15,10,1Z"/>
    <path class="cls-13" d="M114.45,253.01c1.81-.29,4.09.2,6,0,.06,1.32,1.79,3.96,1,6-2.45,1.15-7.19-.04-10-1,.16-.9-.11-2.04,0-3,.31-.51.43-1.16,1.02-1.48.6-.43,1.3-.41,1.98-.52Z"/>
    <path class="cls-21" d="M20.45,259.01l-1-2v-1c.81,1.02,1.26,1.55,1,3Z"/>
  </g>
</svg>