<?xml version="1.0" encoding="UTF-8"?>
<svg id="_图层_2" data-name="图层 2" xmlns="http://www.w3.org/2000/svg" viewBox="0 0 122.22 304.9">
  <defs>
    <style>
      .cls-1 {
        fill: #4e5352;
      }

      .cls-2 {
        fill: #e4e5e5;
      }

      .cls-3 {
        fill: #1e1d21;
      }

      .cls-4 {
        fill: #292a29;
      }

      .cls-5 {
        fill: #1a3e77;
      }

      .cls-6 {
        fill: #457fc3;
      }

      .cls-7 {
        fill: #c32f2b;
      }

      .cls-8 {
        fill: #bdbebf;
      }

      .cls-9 {
        fill: #e8e152;
      }

      .cls-10 {
        fill: #9f9127;
      }

      .cls-11 {
        fill: #981d1a;
      }

      .cls-12 {
        fill: #cfc03c;
      }

      .cls-13 {
        fill: #ddd047;
      }

      .cls-14 {
        fill: #2059a7;
      }
    </style>
  </defs>
  <g id="_图层_1-2" data-name="图层 1">
    <path class="cls-12" d="M122.04,20.78c-1.62-.85-.94-3.4-1-5,.54,2.1.81,2.41,1,5Z"/>
    <path class="cls-12" d="M108.04,251.78l3,17c-1.96,4.27-.24,9.41-1.02,13.48s-3.62,1.71-2.98,9.52c.08.99-.04,2.01,0,3l-10,.99c.09-.61-.19-1.58,0-1.99,1.37-3.11,1.08-2.78,2-6,1.43-.63.83-1.92,1-3,.91-3.57,2.28-6.86,2.87-10.63.92-5.94.13-15.06,1.15-19.68.19-.84,2.68-.68,1.98-2.69.63-.1,1.43.13,2,0Z"/>
    <path class="cls-12" d="M24.04,293.78c.34-1.4,1.01-1.86,0-3.99,4.48,1.06,9.01.65,13.54.95,1.29.09,2.61,1.04,2.96,1.04h43l14.5-1.99c-.9,1.03-.72,3.54-1,3.99-2.08,3.35-13.53,1.72-17.54,1.96-18.72,1.12-36.66.86-55.46.04.09-.64-.14-1.44,0-2Z"/>
    <path class="cls-12" d="M108.04,1.78v1c-.32-.04-.67.03-1,0H15.04c-7.36.79-12.25,6.82-13,14-.44,4.22-.51,11.24,1,15-.68,1.46-1.19,2.75-1.04,4.43l.04,197.06,4.53-5.47c.24-64.39,1.29-129.09.49-193.54-.02-1.69.64-4.45-1.02-5.49,2.56-1.24,4.03-1.26,7-1-.49,6.94.88,13.07,1.04,19.46,1.4,55.34-.98,111-1.09,166.09,0,2.79,1.68,7.47,1.05,9.45-.05.17-1.29.69-2,3-2.07,6.71-4.28,13.42-5.05,20.48l6.05,5.52h1c10.42,1.01,84.31,4.4,88,2,1.7,1.62,1.16,5.34.98,7.49-.58,7.2-1.85,16.31-2.98,23.51-.16.63-.68,1.89-1,3l-10.5,2h-19c-7.9,0-15.22.41-23.5,0-1.11-6.68,7.41-6.65,11.68-8.82,1.26-.64,9.55-5.66,9.87-6.15,3.83-5.91-14.28-8.27-17.32-8.76-9.69-1.57-20.41-2.13-30.23-3.27-.23-2.27-1.95-5.8-1.01-8.99h-1.49c-.28.09-.28.91-.5.99-1.38.51-2.93.39-4,1l-.99-1.99c-.06.99.04,2-.01,2.99-.02.33.01.67,0,1-1.71,2.54-1.66,8.66,0,11,0,.67,0,1.33,0,2l-4.91-.91c-1.13,2.59-1.16,5.14-1.09,7.91.06,2.24.87,9.14,1.44,11.06.71,2.38,3.36,3.52,3.56,3.94.43.92.98,5.96,0,7-.91-.16-2.04.11-3,0-.06-6.86-6.4-3.76-1,0v1h-1c-.13-.4-.79-.67-1-1-.55-.86-.95-1.64-2-2-.22-.99-.93-1.69-1-2C1.38,292.95-.02,290.32,0,287.32L.72,13.95C3.37,7.43,8.82,2.75,15.6.84c28.48,1.68,59.88-2.45,88.01-.1,2.02.17,2.77.57,4.43,1.04Z"/>
    <path class="cls-10" d="M111.04,24.78c1.82.65,3.8,4.03,5,5-1.66,1.04-1,3.79-1.02,5.49-.66,63.01.57,126.05-.03,189.06l3.07,9.45,1.99-1.48c-.63-65.49.84-131.05,0-196.52h2c-.06,3.28-.97,6.56-1,9-.75,62.96.25,126.03,0,189-.05,12.98.2,26.02,0,39-.03,1.67.04,3.34,0,5-.2,8.21,1.17,13.38-3,21-.18.32-.75.61-1,1s-1.71.66-2,2c-.64.09-1.43-.13-2,0-.48.11-.86.52-1,1-.33,0-.67,0-1,0-3.95,0-8.7-1-11.5-1H33.54c-8.56,0-13.95-.53-22.5-2,.98-1.04.43-6.08,0-7l4-1c-.12.93-.08,1.99.07,2.92,2.95.91,5.87.95,8.93,1.08,18.8.82,36.74,1.08,55.46-.04,4.01-.24,15.47,1.39,17.54-1.96-.18.41.09,1.38,0,1.99l10-.99c-.05-.99.07-2.01,0-3,9.58,5.46,11.26-16.84,8.45-20.95-1.2-1.75-2.36-2.23-4.45-2.05l-3-17c1.75-.41,6.88-3.64,7.03-5.49.21-2.57-4.15-21.2-5.69-21.57-7.55.37-15.29,2.63-22.8,3.1-21.76,1.36-45.45-.16-67.05-2.03-2.48-.22-5.01.1-7.49,0,.71-2.31,1.95-2.83,2-3,4.23.45,8.81,1.69,13,2,10.62.79,22.24-.05,33,0,1.87,0,4.26,1.01,7,1,7.19-.03,15.83-.44,23-1,6.04-.47,11.99-.98,17.95-2.05.12-25.63.02-51.32.05-76.95,0-3.66,0-7.34,0-11s-1-7.64-1-10c0-26.08,1-52.71,1-79v-21c.83.22,2.29-.25,3,0Z"/>
    <path class="cls-10" d="M99.04,287.78c.32-1.11.84-2.37,1-3-.17,1.08.43,2.37-1,3Z"/>
    <path class="cls-10" d="M46.04,289.78c8.28.41,15.6,0,23.5,0h19l10.5-2c-.92,3.22-.63,2.89-2,6,.28-.45.1-2.96,1-3.99l-14.5,1.99h-43c-.35,0-1.67-.95-2.96-1.04-4.52-.3-9.06.1-13.54-.95,1.01,2.14.34,2.59,0,3.99-.84-1.94-.73-3.99-1-6,3.45,2.31,18.21,1.77,23,2Z"/>
    <path class="cls-10" d="M106.04,251.78c.7,2.01-1.79,1.84-1.98,2.69-1.02,4.62-.24,13.74-1.15,19.68-.58,3.77-1.96,7.06-2.87,10.63,1.13-7.2,2.41-16.31,2.98-23.51.17-2.16.72-5.88-.98-7.49,1.13-.73-2.04-1.01,4-2Z"/>
    <path class="cls-10" d="M17.04,254.78c.22-.08.22-.91.5-.99h1.49c-.95,3.19.77,6.72,1.01,8.99.87,8.44,1.86,16.55,3,25-3.71-2.49-4.77-27.39-6-33Z"/>
    <path class="cls-8" d="M121.04,233.78c.25-62.97-.75-126.04,0-189v189Z"/>
    <path class="cls-10" d="M121.04,15.78c.06,1.6-.62,4.15,1,5,.2,2.6-.02,5.37,0,8l-2,3c-.11-7.28,1.68-17.64-2.96-23.32-.78-.95-1.93-.58-2.04-.68-1.92-1.88-2.69-4.12-6-5-.29-.08-.66.05-1,0v-1c7.43,2.09,11.17,6.81,13,14Z"/>
    <path class="cls-12" d="M40.04,7.78c13.13.11,26.89.07,40,0,12-.06,23.85,3.9,35,0,.11.11,1.26-.27,2.04.68,4.64,5.68,2.85,16.03,2.96,23.32l2-3c.02,2.33.04,4.67,0,7h-2c-.02-1.33.02-2.67,0-4-1.43,0-2.92-1.13-4-2-1.2-.97-3.18-4.35-5-5,.53-3.39-.27-4.55-2-7-3.85-5.45-14.99-6.45-21.51-6.99-4.17-.34-7.64-1.41-6.49,3.99h-41c.1-1.32-.05-2.68,0-4-2.31.13-4.71-.19-7.01,0l-1-2c2.63-.25,4.6-1.03,8-1Z"/>
    <path class="cls-8" d="M121.04,277.78c.04-1.66-.03-3.33,0-5,1.58.66,1.58,4.34,0,5Z"/>
    <path class="cls-9" d="M84.04,20.78c.57-.06,1.49-.1,2,0,.1.48.53.94,1,1,7.26.91,12.68,1.25,20,3l1,2v19c-3.3-1.66-6.99,8.06-7,10-4.18-.5-5.52.78-5,5,.59,4.75,6.73,5.02,6.92,8.42-3.1,17.29-9.37,33.91-13.85,50.9-6.8,2.42-6.07,4.63-9.03,9.22-9.24,14.27-19.19,25.04-30.1,37.15-3.3,3.66-7.27,12.83-10.24,16.02-3.17,3.4-10.69,6.68-13.57,11.93-2.31,4.22-1.99,10.16-3.31,13.69-.56,1.51-2.66,1.73-3.63,3.36-1.76,2.97-2,8.41,1.25,10.38,2.91,1.76,6.94-.62,6.57,2.94-4.19-.31-8.77-1.55-13-2,.64-1.98-1.05-6.66-1.05-9.45.11-55.09,2.49-110.74,1.09-166.09-.16-6.39-1.53-12.52-1.04-19.46.08-1.06.49-2.08,1-3,4.64.15,14.08-2.47,20-3,16.56-1.47,34.43.58,50-1ZM27.02,119.8l-4.01,3.53,1.64,3.35c6.14.6,4.9-3.5,2.37-6.88Z"/>
    <path class="cls-4" d="M12.04,225.78c2.48.11,5.01-.21,7.49,0,21.61,1.88,45.29,3.39,67.05,2.03,7.51-.47,15.25-2.73,22.8-3.1,1.54.37,5.9,19,5.69,21.57-.15,1.85-5.28,5.08-7.03,5.49-.57.13-1.37-.1-2,0-6.04.99-2.87,1.27-4,2-3.69,2.4-77.58-.99-88-2h-1l-6.05-5.52c.77-7.06,2.98-13.77,5.05-20.48Z"/>
    <path class="cls-4" d="M6.04,28.78c1.66,1.04,1,3.79,1.02,5.49.8,64.46-.24,129.15-.49,193.54l-4.53,5.47-.04-197.06c-.15-1.68.36-2.97,1.04-4.43s1.61-2.33,3-3Z"/>
    <path class="cls-13" d="M17.04,254.78c1.23,5.61,2.29,30.51,6,33,.27,2.01.16,4.06,1,6-.14.56.09,1.36,0,2-3.06-.13-5.98-.17-8.93-1.08-.15-.93-.2-1.99-.07-2.92,1.05-7.86.52-4.14-3-9v-12c0-.67,0-1.33,0-2,0-3.65-.13-7.36,0-11,.01-.33-.02-.67,0-1,.39-.24.67-.81,1-1,1.07-.61,2.62-.49,4-1Z"/>
    <path class="cls-13" d="M46.04,289.78c-4.79-.23-19.55.31-23-2-1.14-8.45-2.13-16.56-3-25,9.82,1.14,20.54,1.7,30.23,3.27,3.04.49,21.15,2.85,17.32,8.76-.32.49-8.61,5.5-9.87,6.15-4.27,2.17-12.79,2.14-11.68,8.82Z"/>
    <path class="cls-9" d="M15.04,2.78c29.83,1.81,62.51-2.42,92,0,.33.03.68-.04,1,0,.34.05.71-.08,1,0-2.01,6.84-13.32,1.45-17.47.97-9.14-1.06-28.62-.73-38.07-.01-1.88.14-6.04-.01-5.46,3.04-2.04.14-5.24,1.9-8,1-3.4-.03-5.37.75-8,1-2.93.28-7.64.16-10.31,1-1.27.4-.56,1.92-.69,2-3.4,2.35-8.45,3.43-10,8l-9-3C2.79,9.6,7.68,3.57,15.04,2.78Z"/>
    <path class="cls-1" d="M11.04,299.78c8.55,1.47,13.94,2,22.5,2h66c2.8,0,7.55,1,11.5,1-.21,1.78-2.65,1.65-3,2l-90.57.04c-1.7.38-3.13-.74-4.43-1.04-1.17-.27-3.04-.55-4-1-.6-.28-1.33-1.54-2-2v-1h1c.96.11,2.09-.16,3,0Z"/>
    <path class="cls-13" d="M11.04,19.78l1,4c.37.93,1.15.97,2,1-.51.92-.92,1.94-1,3-2.97-.26-4.44-.24-7,1-1.39.67-2.35,1.6-3,3-1.51-3.76-1.44-10.78-1-15l9,3Z"/>
    <path class="cls-7" d="M6.04,277.78l4.81,1.19c.22,1.54.22,2.47,1.19,3.81,3.52,4.86,4.05,1.14,3,9l-4,1c-.2-.42-2.85-1.56-3.56-3.94-.57-1.92-1.38-8.81-1.44-11.06Z"/>
    <path class="cls-11" d="M12.04,270.78v12c-.97-1.34-.96-2.27-1.19-3.81l-4.81-1.19c-.07-2.77-.04-5.32,1.09-7.91l4.91.91Z"/>
    <path class="cls-10" d="M12.04,268.78c-1.66-2.34-1.71-8.46,0-11-.13,3.64,0,7.35,0,11Z"/>
    <path class="cls-10" d="M8.04,299.78h-1c-5.4-3.76.94-6.86,1,0Z"/>
    <path class="cls-2" d="M5.04,299.78l-1,1c-.2-.78-.7-1.62-1-3,1.05.36,1.45,1.14,2,2Z"/>
    <path class="cls-10" d="M13.04,255.78c-.33.19-.61.76-1,1,.05-.99-.05-2,.01-2.99l.99,1.99Z"/>
    <path class="cls-13" d="M108.04,45.78c0,26.29-.99,52.92-1,79-3.74,1.1-7.14-9.01-10.55-4.06-4.16,6.05,4.8,5.89,6.55,7.56,1.86,1.77,1.01,6.57,5,6.5,0,3.66,0,7.34,0,11-2.26-.24-4.38,3.9-5.05,5.45-3.05,7.03-3.41,14.84-5.2,21.8-.39,1.51-2.23,2.72-2.6,4.48-.64,3.09,1.37,5.45.65,8.5-.45,1.88-3.45,4.6-4.65,6.42-8.48,12.87-18.56,17.25-28.89,28.11-1.26,1.32-2.87,1.46-2.26,4.24-10.76-.05-22.38.79-33,0,.37-3.56-3.65-1.18-6.57-2.94-3.25-1.97-3.01-7.4-1.25-10.38.97-1.64,3.07-1.86,3.63-3.36,1.32-3.53,1-9.47,3.31-13.69,2.88-5.25,10.4-8.53,13.57-11.93,2.96-3.19,6.94-12.35,10.24-16.02,10.9-12.11,20.86-22.88,30.1-37.15,2.97-4.59,2.23-6.8,9.03-9.22,4.48-16.99,10.75-33.61,13.85-50.9-.19-3.4-6.33-3.67-6.92-8.42,8.55,2.65,4.98-1.33,5-5,.01-1.94,3.7-11.66,7-10Z"/>
    <path class="cls-12" d="M108.04,145.78c-.03,25.63.07,51.32-.05,76.95-5.96,1.07-11.91,1.58-17.95,2.05-5.76-1.69-13.43-1.2-19.55-1-1.93.06-4.01-1.02-3.45,2-2.74.01-5.13-.99-7-1-.6-2.78,1-2.92,2.26-4.24,10.33-10.86,20.41-15.24,28.89-28.11,1.2-1.82,4.2-4.54,4.65-6.42.72-3.05-1.29-5.41-.65-8.5.37-1.76,2.21-2.97,2.6-4.48,1.78-6.96,2.15-14.77,5.2-21.8.67-1.55,2.79-5.69,5.05-5.45Z"/>
    <path class="cls-3" d="M120.04,31.78c.02,1.33-.02,2.67,0,4,.84,65.47-.63,131.03,0,196.52l-1.99,1.48-3.07-9.45c.61-63.01-.63-126.06.03-189.06.02-1.69-.64-4.45,1.02-5.49,1.08.87,2.57,1.99,4,2Z"/>
    <path class="cls-5" d="M109.04,17.78l-2.5-1.03-.95,1.96c-.79-.37-1.67-.85-2.54-.93-3.42-5.18-12.48-3.55-17.99-4.99-.05,7.79,9.83,3.94,15.99,5.99,1.24.42,7.25,4.83,7.99,4v-5c1.74,2.45,2.53,3.61,2.01,7-.71-.25-2.17.22-3,0-.31-.08-.68.08-1,0-7.32-1.75-12.74-2.09-20-3-.13-.53-.46-.89-1-1-.51-.1-1.43-.06-2,0-.1-.47-.55-.96-1-1,.02-1.55-.39-4.5-2-5-1.15-5.4,2.32-4.33,6.49-3.99,6.51.54,17.66,1.54,21.51,6.99Z"/>
    <path class="cls-11" d="M107.04,291.78c-.64-7.81,2.17-5.31,2.98-9.52s-.94-9.21,1.02-13.48c2.08-.18,3.25.3,4.45,2.05,2.82,4.11,1.13,26.41-8.45,20.95Z"/>
    <path class="cls-12" d="M107.04,124.78c0,2.36,1,6.46,1,10-3.99.07-3.14-4.73-5-6.5-1.75-1.67-10.71-1.51-6.55-7.56,3.41-4.96,6.82,5.15,10.55,4.06Z"/>
    <path class="cls-13" d="M90.04,224.78c-7.17.56-15.81.97-23,1-.56-3.02,1.53-1.94,3.45-2,6.11-.2,13.78-.69,19.55,1Z"/>
    <path class="cls-13" d="M108.04,26.78l-1-2c.32.08.69-.08,1,0v2Z"/>
    <path class="cls-1" d="M113.04,302.78h-1c.14-.48.52-.89,1-1v1Z"/>
    <path class="cls-13" d="M107.04,2.78c-29.49-2.42-62.17,1.81-92,0h92Z"/>
    <path class="cls-13" d="M115.04,7.78c-11.15,3.9-23-.06-35,0-10.3,1.39-22.12-1.69-32-1-.58-3.06,3.58-2.9,5.46-3.04,9.46-.72,28.93-1.05,38.07.01,4.15.48,15.46,5.87,17.47-.97,3.31.88,4.08,3.12,6,5Z"/>
    <path class="cls-5" d="M33.04,10.78c2.3-.19,4.7.13,7.01,0-.06,1.32.1,2.69,0,4s-.81,2.69-1,4c-.3,0-3.02,2.95-5,3-5.92.53-15.36,3.15-20,3-.85-.03-1.63-.07-2-1l6.29-1.21,9.71-4.79c1.66.04,3.34,0,5,0,.1,0,.62,1.03,1.36.9.86-.32,1.44-1.03,1.64-1.9.26-1.09-.16-2.77,0-4-6.77.57-14.21,0-20,4-.37.25-1.69-.16-2.47.99-.45.66-1.76,5.81-1.53,6.01l-1-4c1.55-4.57,6.6-5.65,10-8,4.14.83,8.44-.7,12-1Z"/>
    <path class="cls-10" d="M83.04,19.78c.45.04.9.53,1,1-15.57,1.58-33.44-.47-50,1,1.98-.05,4.7-3,5-3,13.1-.12,30.88-.26,44,1Z"/>
    <path class="cls-10" d="M101.04,55.78c-.02,3.67,3.55,7.65-5,5-.52-4.22.82-5.5,5-5Z"/>
    <path class="cls-13" d="M27.02,119.8c2.53,3.38,3.78,7.49-2.37,6.88l-1.64-3.35,4.01-3.53Z"/>
    <path class="cls-10" d="M87.04,21.78c-.47-.06-.9-.52-1-1,.54.11.87.47,1,1Z"/>
    <path class="cls-10" d="M80.04,7.78c-13.11.07-26.87.11-40,0,2.76.9,5.96-.86,8-1,9.88-.69,21.7,2.39,32,1Z"/>
    <path class="cls-13" d="M32.04,8.78l1,2c-3.56.3-7.86,1.83-12,1,.13-.09-.59-1.6.69-2,2.68-.84,7.38-.72,10.31-1Z"/>
    <path class="cls-9" d="M81.04,14.78c1.61.5,2.02,3.45,2,5-13.12-1.26-30.9-1.12-44-1,.19-1.31.9-2.72,1-4h41Z"/>
    <path class="cls-6" d="M103.04,17.78c-.76-.07-1.94.04-2,1-6.16-2.06-16.05,1.79-15.99-5.99,5.52,1.44,14.57-.18,17.99,4.99Z"/>
    <path class="cls-14" d="M109.04,17.78v5c-.75.83-6.76-3.58-8-4,.06-.96,1.24-1.07,2-1,.88.09,1.75.56,2.54.93l.95-1.96,2.5,1.03Z"/>
    <path class="cls-6" d="M16.04,16.78c5.79-4.01,13.24-3.44,20-4-.16,1.24.26,2.91,0,4l-3,1c-1.66,0-3.34.04-5,0-2.97-.08-4.94-1.31-8.25.25-2.91,1.36-2.51,4.76-5.75,4.75l2-5.99Z"/>
    <path class="cls-14" d="M16.04,16.78l-2,5.99c3.25.02,2.84-3.38,5.75-4.75,3.31-1.55,5.28-.32,8.25-.25l-9.71,4.79-6.29,1.21c-.23-.21,1.08-5.35,1.53-6.01.78-1.15,2.1-.73,2.47-.99Z"/>
    <path class="cls-14" d="M36.04,16.78c-.21.87-.79,1.58-1.64,1.9-.74.13-1.25-.9-1.36-.9l3-1Z"/>
  </g>
</svg>