<?xml version="1.0" encoding="UTF-8"?>
<svg id="_图层_2" xmlns="http://www.w3.org/2000/svg" version="1.1" viewBox="0 0 143.6 298.8">
  <!-- Generator: Adobe Illustrator 29.3.0, SVG Export Plug-In . SVG Version: 2.1.0 Build 146)  -->
  <defs>
    <style>
      .st0 {
        fill: #929394;
      }

      .st1 {
        fill: #444;
      }

      .st2 {
        fill: #757675;
      }

      .st3 {
        fill: #545455;
      }

      .st4 {
        fill: #6a696a;
      }

      .st5 {
        fill: #b0b0b1;
      }

      .st6 {
        fill: #495c8b;
      }

      .st7 {
        fill: #0a0a09;
      }

      .st8 {
        fill: #2b2b2a;
      }

      .st9 {
        fill: #373737;
      }

      .st10 {
        fill: #1f2d50;
      }

      .st11 {
        fill: #272626;
      }

      .st12 {
        fill: #e9eaeb;
      }

      .st13 {
        fill: #2d4868;
      }

      .st14 {
        fill: #202020;
      }

      .st15 {
        fill: #c2c2c2;
      }

      .st16 {
        fill: #375376;
      }

      .st17 {
        fill: #1a1a1a;
      }

      .st18 {
        fill: #e2a63c;
      }
    </style>
  </defs>
  <g id="_图层_1-2">
    <g>
      <path class="st15" d="M129.5,240.9h2v2.8l-2,.6c0-1.1,0-2.2,0-3.4h0Z"/>
      <g>
        <path class="st14" d="M14.5,32.9c.2.2.8-.2,1,0-1.1,1.9-1,4-1,6.1-1.3,40.8.7,82.6,0,123.6-.7.3-1.3.8-2,1.1-.4-.5-.8-2.1-1-2.2.5.1,2.1.4,2-.6-.6-40.6.8-81.3,0-121.9,0-4.2-2.1-6.1,0-10.6h1c-.3,2.2-1.8,3.3,0,4.5h0Z"/>
        <g>
          <path class="st16" d="M86.5,15c5.3.4,11.8.3,17,1.1,6,1,13.5,4.6,19.9,5.1,2.8,1.3,5.5,5.8,5.8,9.1,0,.9-.8,1.4-.8,1.5l-6-4.5c-.4-.3-.7-1-1-1.1-1-2-2.8-1.8-4.5-2.2-29.4-6.6-60.2-8.2-89.5,0l-2-3.4c-.7,25.9-1.4,51.8-1,77.7.1,6.8,1.9,14.4,1,21.8,0,.4,0,.8,0,1.1-5.5,2.5-4.5,12.6-5,17.9-1.6-2.2-1.9-5.6-2-8.4-1.6-29.4-1.2-67.8,0-97.4.1-2.6,1-4.7,1-7.2l-5,6.7c-1.8-1.2-.3-2.3,0-4.5,0-.4,0-.8,0-1.1s0-.8,0-1.1c2.3-1.2,3.4-4.2,5.8-5.3,5.9-2.6,18.6-3.9,25.2-4.8,3-.4,6-.9,9-1.1,11.4-1,20.6-.8,32,0h0Z"/>
          <path class="st8" d="M107.5,2.7c-.1,0-1.1,1-2.4,1.2-2.8.3-5.8-.3-8.6,0v4.5l5,2.2c-1.3,0-2.7,0-4,0v3.3c1.9,1.2,4.2.8,6,1.2v1.1c-5.2-.8-11.7-.7-17-1.1v-2.2c1.3,0,2.7,0,4,0v-4.5h-3c.7-.1,2.4-1.7,3.9-1.2V2.7c-7.8.9-17.8-1.2-25.5,0-1.9.3-1.3,2.3-2.1,2.4-3.1.4-9.8-5.2-8.4,3.3-1,0-2,0-3,0,0,2.5-.8,4.9,2,4.5v2.2c-3,.3-6,.7-9,1.1v-2.2c0-1.2.4-4.4-.5-4.5-6.2,1.4-13.7,2.3-19.4,5.6,4.5-6.1,14.1-6.2,20.9-6.7V1.6c.9,0,2.5-1.1,4.4-1.2,18.4-1,38.4-.3,56.6,2.3h0ZM53.7,6c0-.8-.5-1.4-1.2-1.4s-1.2.6-1.2,1.4.5,1.4,1.2,1.4,1.2-.6,1.2-1.4ZM94.5,7.2v1.1c.7-.4.7-.8,0-1.1Z"/>
          <path class="st9" d="M109.5,2.7v2.2h7c3.9,2,11.7,7.7,12,12.9.4,6.6,1.4,9.5,2,16.2h-2c0-.7,0-1.5,0-2.2,0,0,.9-.6.8-1.5-.3-3.3-3-7.8-5.8-9.1-6.4-.6-13.9-4.2-19.9-5.1v-1.1c4.2,1.1,9.4,2.7,13.6,3.2,1.1.1,3.6,1,3.4-1-6.1-3.7-11.9-6.4-19-6.7l-5-2.2V3.8c2.8-.3,5.8.4,8.6,0,1.3-.2,2.3-1.2,2.4-1.2.7,0,1.3,0,2,0h0Z"/>
          <path class="st9" d="M46.5,1.6v6.7c-6.8.5-16.5.6-21,6.7-.6.4-1.4,2.6-3,2.2-.3,1.8,1.4,1.2,2.5,1.1,6.4-.6,13.8-4,20.5-4.5v2.2c-6.7.9-19.4,2.1-25.2,4.8-2.4,1.1-3.4,4.1-5.8,5.3.2-3,0-5.8.2-8.1.4-4.3,5.9-10.6,9.8-10.9.4,0,1.6,1.3,2.4,1.2,1-.2.7-2.7,2.2-3.2,2.3-.9,9-1,11.9-1.3,1.9-.2,4,1.4,3.5-2.2.7,0,1.3,0,2,0h0Z"/>
          <path class="st1" d="M130.5,34v127.5c-.7.4-1,2.3-2,2.2-.7-43.2,1-86.5,0-129.7.7,0,1.3,0,2,0Z"/>
          <path class="st8" d="M44.5,1.6c.6,3.6-1.6,2-3.5,2.2-2.9.4-9.6.5-11.9,1.3-1.5.6-1.2,3.1-2.2,3.2-.7.1-2-1.2-2.4-1.2,3.5-6.4,13.9-5,20-5.6Z"/>
          <path class="st8" d="M116.5,4.9h-7v-2.2c4.5-.2,4,.7,7,2.2h0Z"/>
          <path class="st9" d="M14.5,28.4h-1c.2-.4.7-.8,1-1.1,0,.4,0,.8,0,1.1Z"/>
          <path class="st13" d="M121.5,26.2c.3.1.6.8,1,1.1,1.2,1,2.8,1.9,2.9,3.8-1.2,4.4-1.2,9-1,13.6,1,29.1,2.3,59.2,1.1,88.3-.2,4-1,10.1-2,13.9-.5-6.5-.4-21.1-5-24.6-.4-.3-1.7-1.1-2-1.1.1-.7-.2-1.7,0-2.2.3-1.2.9-1.6,1.1-3.8,1.7-29.4-2.2-60.8.9-90.2.6.1,2.5.8,3,1.1h0Z"/>
          <path class="st13" d="M25.5,120.1c.9-7.4-.9-14.9-1-21.8-.4-26,.4-51.9,1-77.8l2,3.4.6,1c1.2,0,2.3-.9,3.4-1v93.9c-1.6.2-4.3,1.7-6,2.2h0Z"/>
          <path class="st10" d="M20.5,139.1c-.6,7.1-1.6,14-1,21.2-1.7.3-.9-2.5-1-3.9-.1-3.4.1-6.8,0-10.1,0-2.1,1-4.5-2-3.9-2.1-34.4,2.8-73,0-106.9-.1-1.5.3-1.8-1.1-2.7-.2-.2-.8.2-1,0l5-6.7c0,2.5-.9,4.6-1,7.2-1.2,29.5-1.6,68,0,97.4.1,2.7.5,6.2,2,8.4h0Z"/>
          <path class="st10" d="M128.5,31.9c0,.7,0,1.5,0,2.2-.7,0-2.1-.5-2,.7l1,126.7h-1c-.2-2.3-2-6.6-1-10.1h-2c0-1.5.1-3,0-4.5,1-3.9,1.9-9.9,2-13.9,1.2-29.2,0-59.2-1.1-88.2-.2-4.5-.2-9.2,1-13.6-.1-1.9-1.8-2.8-2.9-3.8l6,4.5h0Z"/>
          <path class="st10" d="M121.5,26.2c-.5-.3-2.4-1-3-1.1-1.4-.3-3.5.3-5,0-2.4-.5-4.6-.7-7-1.1-1.4-.2-2.9-.8-5-1.1-2-.3-3.8-.9-6-1.1-1.6-.2-3.3.1-5,0-2.2-.2-4.3-1-7-1.1-2-.1-4,0-6,0-1.7,0-3.3,0-5,0-2.3,0-4.7,0-7,0s-4.7-.1-7,0c-1.3,0-2.7,0-4,0-2.5.2-4.3.9-6,1.1-2.4.2-4.3.9-6,1.1-1.3.2-2.7-.2-4,0-2.3.4-4.6.8-7,1.1-1.1.2-2.2,1-3.4,1l-.6-1c29.3-8.2,60.1-6.6,89.5,0,1.7.4,3.5.2,4.5,2.2h0Z"/>
          <path class="st9" d="M56.5,12.8l.5,1.1.5-1.1c9.6,0,19.4.2,29,0v2.2c-11.4-.8-20.6-1-32,0v-2.2h2Z"/>
          <path class="st16" d="M128.5,34c1,43.2-.7,86.5,0,129.7l-1-2.2-1-126.8c-.1-1.2,1.3-.7,2-.7Z"/>
          <path class="st9" d="M55.5,8.3c-1.4-8.5,5.2-2.9,8.4-3.3.7,0,.1-2.1,2.1-2.4,7.6-1.2,17.7,1,25.6,0v4.4c-1.6-.5-3.3,1.1-4,1.2-9.3,1.3-22.1-.3-32,0h0Z"/>
          <path class="st12" d="M55.5,8.3c9.9-.3,22.7,1.3,32,0h3v4.5c-1.3,0-2.7,0-4,0-9.6.2-19.3,0-29,0h-3c-2.8.5-2-2-2-4.5,1,0,2,0,3,0Z"/>
          <path class="st12" d="M25.5,15c5.7-3.3,13.3-4.2,19.5-5.6.9,0,.5,3.3.5,4.5-6.7.4-14.2,3.8-20.5,4.5-1.1.1-2.8.7-2.5-1.1,1.6.4,2.4-1.9,3-2.2Z"/>
          <path class="st12" d="M101.5,10.5c7.1.3,12.9,3,19,6.7.2,2-2.3,1.1-3.4,1-4.2-.5-9.4-2.1-13.6-3.2-1.8-.4-4.1,0-5.9-1.2v-3.3c1.3,0,2.6,0,3.9,0h0Z"/>
          <ellipse class="st9" cx="52.5" cy="6.1" rx="1" ry="1.1"/>
          <path class="st9" d="M94.5,7.2c.7.4.7.8,0,1.1v-1.1Z"/>
          <path class="st16" d="M16.5,142.5c.3,6.8.3,13.9,0,20.7-.1,2.7.7,3.7-2,1.7,0-.7,0-1.5,0-2.2.6-41-1.3-82.8,0-123.6,0-2.1-.1-4.2,1-6.1,1.4.9.9,1.2,1,2.7,2.8,33.9-2.2,72.5,0,106.9h0Z"/>
          <path class="st16" d="M118.5,25.1c-3.2,29.3.8,60.7-.9,90.2-.1,2.2-.7,2.6-1.1,3.8-1.2.6-2.5-1-3-1.1V25.1c1.5.3,3.6-.3,5,0Z"/>
          <path class="st16" d="M38.6,22l-3.1,2.9v93.8c-1.3,0-2.7-.2-4,0V23.1c2.4-.3,4.7-.8,7.1-1.1Z"/>
          <path class="st16" d="M72.5,20.6l-1.1,14.1c-.4,2.2,2.1,1.4,2.1,1.6v71c0,2.1,1.7,5.9,0,9.5-2.7,0-5.3,0-8,0V20.6c2.3,0,4.7,0,7,0Z"/>
          <path class="st13" d="M113.5,25.3v92.3c-1.2-.2-2.7,0-4,0l-4-4.1,1-89.3c2.3.4,4.6.6,7,1.1Z"/>
          <path class="st13" d="M42.5,22.8v95.1c-2.3.2-4.7-.2-7,0V25.7c0,0,3-2.9,3-2.9,1.3-.2,2.7.2,4,0h0Z"/>
          <path class="st13" d="M54.5,20.6v96.2c-2,0-4,0-6,0V21.7c1.7-.2,3.5-1,6-1.1Z"/>
          <path class="st13" d="M90.5,21.7l-1,95.1c-1.7,0-3.3,0-5,0l-1-96.2c2.7.1,4.8.9,7,1.1h0Z"/>
          <path class="st16" d="M83.5,20.6l1,96.2c-2.7,0-5.3,0-8,0l1-96.2c2,0,4-.1,6,0Z"/>
          <path class="st13" d="M65.5,20.6v96.2c-2,0-4,0-6,0l-1-96.2c2.3-.1,4.7,0,7,0Z"/>
          <path class="st13" d="M101.5,22.8v95.1c-2-.1-4,0-6,0V21.7c2.2.2,4,.9,6,1.1Z"/>
          <path class="st16" d="M48.5,21.7v95.1c-1,0-3.7,1-6,1.1V22.8c1.7-.2,3.6-.9,6-1.1Z"/>
          <path class="st16" d="M95.5,21.7v96.2c-1.7,0-3.7-1-6-1.1l1-95.1c1.7.1,3.4-.2,5,0h0Z"/>
          <path class="st16" d="M58.5,20.6l1,96.2c-1.7,0-3.3,0-5,0V20.6c1.3,0,2.7,0,4,0Z"/>
          <path class="st16" d="M106.5,24l-1.1,89.8,4.1,4.1c-2.7-.1-5.3.2-8,0V22.8c2.1.3,3.6.9,5,1.1Z"/>
          <path class="st13" d="M77.5,20.6l-1,96.2h-3c1.7-3.6,0-7.4,0-9.5V36.2c0-.2-2.4.6-2.1-1.6l1.1-14.1c1.7,0,3.3,0,5,0Z"/>
          <polygon class="st8" points="56.5 12.8 57.5 12.8 57 13.9 56.5 12.8"/>
        </g>
        <g>
          <path class="st14" d="M1.3,167.3l1,21.6,9.1,1.1v-7.3l6,1.1-3,4.5,3-2.2,1,2.2v-6.7s-7,0-7,0c-.6-2.1.5-1.7,1-2.2h7c-.5,11.1-1.4,23.2-1,34.2.1,3.9,1,17.2,2.3,19.8.3.7.6,1.6,1.2,2,2.4,2,17.6,2,21.6,2.1v1.1c-4.7,0-18.6,1-21.7-1.5-1.4-1.2-1.8-6.1-3.8-5.2-3.4,1.4-2.5,7.9-2.5,11.2,0,.7,0,1.5,0,2.2.2,3.5-1,4.5,3,5.6,0,1.5-.1,3,0,4.5.9,10.6,2.8,23.2,15,20.1l-5-2.2h7s.6,1,1,1.1c2.4.6,8.8.7,12,1.1v1.1l.6,2.3c18.1-1.4,38.1,1.7,55.9,0,5.2-.5,14-2.8,16.7-8.2,1.1-2.2,5.9-21.1,5.8-23.2-1.1-5.4,2.6-11.5-1-15.6,1.7.4,2.2-.8,3-2.2-.1,3.7,0,7.5,0,11.2,0,1.1,0,2.2,0,3.4,0,2.2,0,4.5,0,6.7-.1,7.5,2.6,28.6-6,30.2-2.6.5-6.7,0-9.5,0-25.8-.3-52.5-.6-78.5-1.1l7-1.1v-1.4c-2.9,1-11.9-2.9-8.6,3.4-3.7,0-7,1.6-11.2,1.1-4.9-.5-6.3-2.7-9.1-6.8,1.1-1.8,0-37.5,0-43.2l5.2-1.9-2.1-22c1.4-2.9,1.6-11,.9-14-.7-2.9-2.8-.6-3.9-.7-.2,0-.8-1-1.6-1.1-2.7-.1-9.1,2.1-11.1-2.3-1.7-3.8-.3-18.2.5-22.7h0Z"/>
          <path class="st8" d="M17.5,243.1c1.1-1.1,1.4-3.1,3.2-3.1,5.2-.1,13.1,1.8,18.4,1.9,2.6,0,5.7-1,8.9-1,1.9,0,4-1,3.5,2.2-1.9.3-4.1-.2-6,0v13.4h50.5c2.9-3.2,1-9.1,1.5-13.4.3,0,2.9-1,5-1.1.7,4.7-1.7,17.5,2,20.1,2.6,1.8,8.9,2.5,12,2.2l-4-2.2c5.8,1.1,10.5-1.3,11-8.4.3-3.7-.2-2.9-3-2.8,1.1-4.1,2.4-5.4,0-10.1.8,0,3.1-2.3,4.9-1,0,2.1,2,6.3,2.1,7.7.2,2-4.7,21-5.8,23.2-2.7,5.4-11.5,7.7-16.7,8.2-17.8,1.7-37.8-1.4-55.9,0l-.6-2.3,7-.6c0-1.1-5.7-.4-7-.6-3.2-.4-9.6-.5-12-1.1.2-2.5-.3-5.4,0-7.8.4-3.5,2.3-5.4,2-9-4,4.2-9.7,4.6-14,.5-3.1-3-1.3-6.8-4-10l3-2.8c-3.4,1.3-3.7-2-6-2.2h0ZM36.5,250.2c0-3.4-2.5-6.2-5.6-6.2s-5.6,2.8-5.6,6.2,2.5,6.2,5.6,6.2,5.6-2.8,5.6-6.2h0ZM97.5,263.2c0-1.1.2-2.1-.1-3.2-1.3-.8-2.8-1.2-4.3-1.3-10.8-1.1-32.2-1.1-43,0-1.5.2-3,.5-4.3,1.3-.8,5.7,0,6.7,4.9,6.6.8,0,1.7,0,2-1.1.3,0,.7,0,1,0,.3.4.7.8,1,1.1.5.6,1.9,1.7,2,2.2.3,1.7-.4,4.3,0,6,.3,1.4,1.5.5,2,.7,1.3.6,1.4,1,3.4,1.2,5.4.4,16,.6,21.2,0,1.4-.2,1.4,0,2.4-1.2,1.7-1.9.9-4.2,1-6.7,2.9-.3,7.4-3,11-2.3.1-1.1,0-2.2,0-3.3h0ZM117.5,266.6h-9v4.5l9-1.1v-3.3h0ZM87.5,276.7h18.5c.9,0,6.9-1.5,8.3-1.9,2.3-.7,1.7-1.8-.3-1.5,0,0-26.5,3.4-26.5,3.4Z"/>
          <path class="st3" d="M126.5,231.9c3.6,4.1,0,10.2,1,15.6,0-1.4-2-5.6-2.1-7.7-1.8-1.4-4.1.9-4.9,1-3.6.4-7.4.8-11,1.1-1,0-2,0-3,0-.7,0-1.3,0-2,0s-1.3,0-2,0c-2.1.1-4.7,1.1-5,1.1-15.8.1-29.7-2.3-46,0,.6-3.3-1.6-2.3-3.5-2.2-3.2,0-6.3,1.1-8.9,1-5.2,0-13.2-2.1-18.4-1.9-1.8,0-2.2,2-3.2,3.1-.7,0-1.3,0-2,0,0-3.2-.8-9.8,2.5-11.2,2-.8,2.4,4.1,3.8,5.2,3,2.5,17,1.4,21.7,1.5,19.9.4,41.1.7,61,0,6-.2,18,1.7,19-6.7,0-.4,0-.8,0-1.1h1c1.1-.1,1.4.4,2,1.1h0Z"/>
          <path class="st8" d="M18.5,255.4c3.2-.3,1.5,3.5,4.6,5.5s10,0,10.4,4.6c-1.8-.2-5-.6-6,1.1-.7,0-1.3,0-2,0-1.5,0-1,2-1,3.4l1-1.1c0,.2,1.8.8,2,2.2,0,0-1.2.4-1,1.1,2.4.3,5.1-.4,7.5,0,1,.2,1.4,1.1,1.5,1.1h-7l5,2.2c-12.2,3.1-14.1-9.5-15-20.1h0Z"/>
          <path class="st1" d="M17.5,243.1c2.3.2,2.7,3.6,6,2.2l-3,2.8c2.8,3.2.9,7,4,10,4.3,4.1,9.9,3.7,14-.5.3,3.5-1.5,5.4-2,9-1,0-2.3-1-3-1.1-.4-4.5-7.2-2.5-10.4-4.6s-1.4-5.8-4.6-5.5c-.1-1.5,0-3,0-4.5-.1-2,2-4.5-3-5.6,0-.7,0-1.5,0-2.2.7,0,1.3,0,2,0h0Z"/>
          <path class="st8" d="M33,280c-3.2-6.2,5.7-2.4,8.5-3.4v2.2l-6.5,1.1c-.7,0-1.3,0-2,0Z"/>
          <path class="st17" d="M33.5,265.5c.7,0,2,1.2,3,1.1-.3,2.4.2,5.3,0,7.8-.4-.1-.8-1.1-1-1.1,0,0-.5-.9-1.5-1.1-2.4-.4-5.1.2-7.5,0-.2-.7,1-1,1-1.1l7-.6v-3.9c-2.3,0-4.7-.1-7,0,1-1.7,4.2-1.3,6-1.1h0Z"/>
          <path class="st8" d="M15.5,245.4c5,1.1,2.9,3.6,3,5.6-4-1.1-2.8-2.1-3-5.6Z"/>
          <path class="st17" d="M48.5,275.5c1.3.2,7-.6,7,.6l-7,.6s0-1.1,0-1.1Z"/>
          <path class="st17" d="M97.5,243.1c-.5,4.3,1.4,10.2-1.5,13.4h-50.5v-13.4c1.9-.2,4.1.3,6,0,16.3-2.3,30.2.1,46,0ZM50.5,246.5v1.1h40v-1.1s-40,0-40,0ZM46.5,253.2v1.1h50v-1.1s-50,0-50,0Z"/>
          <path class="st7" d="M50.5,266.6c-4.8.1-5.6-.9-4.9-6.6,1.4-.7,2.8-1.1,4.3-1.3,10.8-1.1,32.2-1.1,43,0,1.5.2,3,.5,4.3,1.3.4,1,.2,2.1.1,3.2-3,.9-5.9,1.7-9,2.2-11.6-.5-23.4.6-35,0-.3,0-.7,0-1,0-.1,0-.8-1.6-2-1.1v2.2h0Z"/>
          <path class="st5" d="M86.5,268.8c0,2.5.7,4.8-1,6.7h-27c-.5-.2-1.7.7-2-.7-.4-1.7.4-4.3,0-6,9.7-.8,20.5,1,30,0Z"/>
          <path class="st17" d="M120.5,240.9c2.4,4.7,1.1,6,0,10.1-2.6,9.6-3.9,9-13,9-1.9-4.3-4.5-14.7,1-15.6-1.8,5.5-4.2,11.5,3,12.3.6,0,1.5.1,2,0,1.7-.4,2.5-.5,3.4-2.3,4.4-8.4-1.6-11.2-8.4-10,.3-.8.7-1.5,1-2.2,3.6-.3,7.4-.7,11-1.1Z"/>
          <ellipse class="st5" cx="31" cy="250.4" rx="5.5" ry="6.1"/>
          <path class="st17" d="M97.5,263.2c0,1.1,0,2.2,0,3.3-3.6-.7-8,2-11,2.3-9.5,1-20.3-.8-30,0-.1-.6-1.5-1.7-2-2.2,9.9-.8,20.9,1,30.6,0,1.9-.2,2.8-1.1,3.4-1.2,3.1-.6,6-1.3,9-2.2h0Z"/>
          <path class="st1" d="M120.5,250.9c2.8,0,3.3-.9,3,2.8-.5,7.1-5.2,9.5-11,8.4l4,2.2c-3.1.2-9.4-.4-12-2.2,0-.8,0-1.5,0-2.2h3c9.1,0,10.4.7,13-8.9h0Z"/>
          <path class="st11" d="M88.5,265.5c-.6.1-1.5,1-3.4,1.2-9.7,1-20.8-.9-30.6,0-.3-.4-.7-.7-1-1.1,11.6.6,23.4-.5,35,0h0Z"/>
          <path class="st17" d="M87.5,276.7l26.5-3.4c2-.3,2.6.8.3,1.5-1.4.4-7.4,1.9-8.3,1.9h-18.5Z"/>
          <polygon class="st18" points="117.5 266.6 117.5 269.9 108.5 271 108.5 266.6 117.5 266.6"/>
          <path class="st17" d="M85.5,275.5c-1,1.1-1,1-2.4,1.2-5.2.7-15.8.5-21.2,0-2-.1-2.1-.6-3.4-1.2h27Z"/>
          <path class="st17" d="M104.5,242c0,.7.1,1.6,0,2.2-1.2,7.4-.1,9.1,0,15.6,0,.7,0,1.5,0,2.2-3.7-2.6-1.3-15.4-2-20.1.7,0,1.3,0,2,0h0Z"/>
          <path class="st17" d="M52.5,265.5c-.3,1-1.2,1.1-2,1.1v-2.2c1.2-.5,1.9,1.1,2,1.1h0Z"/>
          <path class="st9" d="M109.5,242c-.3.8-.7,1.5-1,2.2-5.5,1-2.9,11.4-1,15.6h-3c-.1-6.5-1.2-8.3,0-15.6l2-2.2c1,0,2,0,3,0Z"/>
          <path class="st8" d="M106.5,242l-2,2.2c.1-.7,0-1.5,0-2.2.7,0,1.3,0,2,0Z"/>
          <path class="st18" d="M27.5,266.6c2.3-.1,4.7,0,7,0v3.9l-7,.6c-.2-1.5-1.9-2-2-2.2-.2-.5,0-1.5,0-2.2.7,0,1.3,0,2,0h0Z"/>
          <path class="st17" d="M25.5,268.8l-1,1.1c0-1.3-.5-3.3,1-3.4,0,.7-.2,1.8,0,2.2h0Z"/>
          <g>
            <path class="st14" d="M123.5,146.9c.1,1.5,0,3,0,4.5.6,8.8,1.6,17.8,1,26.8,1.2,1.8,1.8,0,2-1.6.4-3.9.3-11.1,0-15.1h1l1,2.2c1,0,1.3-1.9,2-2.2.6-.3,1.5-1,2-1.1.6,3.1-2.8,2.1-3.1,5-.3,3.8,2.3,11.5,1,16.2h4l-3,2.9c-.4,5.8,4.7,10.2,8.7,5.8.5-.5,2.1-8.6,2.2-9.8,4.2,12.1-4,14.9-13,12.3v20.1c-.6-1.5-1.8-5.1-3-5.6-.6,4.4-.7,9-1,13.4h-1c.5-10-1-20.2-1-29.6v-19c0-6-1.5-15.4-2-21.8-.7-9.2,0-19-3-27.9,4.6,3.5,4.5,18.1,5,24.6h0Z"/>
            <path class="st8" d="M142.5,180.5c0,1.2-1.8,9.3-2.2,9.8-4,4.5-9.1,0-8.7-5.8l3-2.9h-4c1.3-4.8-1.3-12.5-1-16.3.2-2.9,3.6-1.9,3.1-5,1.4-.3,5.1-.3,6.3.2,3.8,1.5,4,15.9,3.7,19.9Z"/>
            <path class="st11" d="M11.5,161.5c-1.1-.5-6.4.2-7.4,1l-.6,3.4c3.2,0,6.1-.8,9-2.2.7-.3,1.3-.8,2-1.1,0,.7,0,1.5,0,2.2,0,4.2-.6,8.2,0,12.6-.2,1.1-1.4,1.3-2,1.9-.4.5-1.6.2-1,2.2h7v6.7s-1-2.2-1-2.2l-3,2.2,3-4.5-6-1.1v7.8l-9-1.1-1-21.2c1.6-9.3,1.7-8.8,10-6.7h0Z"/>
            <path class="st16" d="M129.5,212.9c2.2,5.6,2.3,7,0,13.4v2.2c0,.4,0,.8,0,1.1-.8,1.4-1.3,2.6-3,2.2-.6-.7-.9-1.2-2-1.1.3-3.4.7-6.7,1-10.1.4-4.4.5-9,1-13.4,1.2.5,2.4,4.1,3,5.6h0Z"/>
            <path class="st16" d="M16.5,208.4l2.1,21.6-5.1,1.8c0-7.3-.1-14.1,0-21.2,1.7.4,2.2-.8,3-2.2h0Z"/>
            <path class="st1" d="M16.5,208.4c-.8,1.4-1.3,2.6-3,2.2,0-5.6,0-11.2,0-16.8,1.1.1,3.1-2.1,3.9.7.8,3,.5,10.9-.9,13.8h0Z"/>
            <path class="st8" d="M22.5,134.6c-1.6,14.2-2.4,30.6-3,44.7h-7c.6-.6,1.8-.8,2-1.9-.6-4.4,0-8.4,0-12.6,2.7,2,1.9,1.1,2-1.7.3-6.9.3-13.9,0-20.7,3-.6,1.9,1.7,2,3.9.1,3.4-.1,6.8,0,10.1,0,1.4-.8,4.2,1,3.9-.5-7.2.4-14.2,1-21.2.5-5.3-.5-15.4,5-17.9-.9,4.7-2.3,6.9-3,13.4h0Z"/>
            <path class="st10" d="M54.5,116.8c1.7,0,3.3,0,5,0,2,0,4,0,6,0,2.7,0,5.3,0,8,0h3c2.7,0,5.3,0,8,0,1.7,0,3.3,0,5,0,2.3,0,4.3,1,6,1.1,2,0,4-.1,6,0,2.7.2,5.3-.1,8,0,1.3,0,2.8-.2,4,0,.5,0,1.8,1.7,3,1.1-.2.6.1,1.5,0,2.2-.6,0-1.4,0-2,0-1.2-1.4-2.5-1.1-4-1.1-2.3,0-4.7.2-7,0-18-1.3-35.7-2.3-54-1.1-5.3.3-20.3.5-24,2.2,0-.3,0-.8,0-1.1,1.7-.5,4.4-2,6-2.2,1.3-.2,2.7,0,4,0,2.3-.2,4.7.2,7,0s5-1.1,6-1.1c2,0,4,0,6,0Z"/>
            <path class="st13" d="M22.3,134.6c4.9-2.1,4.6.7,6.4,1.2,13,3.5,30.8.8,44.1-.1.4,2.5,7.9,2.2,11.1,2.3,10.1.4,20.9-1.3,30.6,1.1v-3.4h5l-4,8.9-88.8.8c-3.2,1.6-3.9,8.4-4.2,12.1-.8,8.1-1.7,22.5-1.1,30.3.2,2.2.6,2.4,1.1,3.8.2.6-.3,1.8.7,2.3,4,4.1,22.3,1.7,28.8,2.2,3.6.3,9.7.8,12,3.3l1.9-2.3c14.1,1.3,29.7-5.3,41.6,3.4l9,1.1c.7,2-.8,2.7-1,3.4v-2.2c-4,0-8,0-12,0,2.7-3.2-3-3.3-4.4-3.4-5.8-.4-11.8.4-17.5,0v3.3c2.3,0,4.7,0,7,0,.6,3.4-1.5,2.1-3.4,2.2-8.2.4-16.8-1.9-24.5-2.2.1-3.9.6-3.1-2.5-3.4-5.5-.5-14.6-.5-20.1,0-3.1.3-2.6-.6-2.5,3.4-2.7,0-5.3,0-8,0,2.7,9.9,3.8,23,13.3,27,8,3.4,43.2,3,53.2,2.1,4.2-.4,11.6-1.8,13.9-5.7,2-3.5,5.9-15.3,7.6-20l-4.9,17.5c.3,4.4,4.4-.6,5.3-1.9,2-2.9,5.7-15,5.7-18.4,0-2.5-5.4-3.3-5.1-7.2,2.4-.4,1.8-.8,3-2.2s1.7-.6,2.1-3.8c1.4-12.7-2.1-26.9-1.1-39.8h1c.5,6.4,2,15.8,2,21.8v19c0,9.5,1.5,19.7,1,29.6-.1,2.4-.7,7.1-1,10.1,0,.4,0,.8,0,1.1-1.2,2.1-3.7,3.8-5.7,4.2-1.3.3-11.1,1.6-11.7,1.5-1.2-.2,0-2.8-1.6-2.3v2.4c-20.3-.5-40.8.7-61.1,0-4-.1-19.2-.1-21.6-2.1-.5-.5-.9-1.3-1.2-2-1.2-2.7-2.1-16-2.3-19.9-.4-11,.6-23.1,1-34.2.6-14.2,1.4-30.6,3-44.8h0ZM106.5,234.2v-2.2h-1v2.2h1Z"/>
            <path class="st6" d="M49.7,119v2.2c2.4.4,6.6-.1,6,3.4-3.9,0-8.7-.5-12.4,0-.7.1-3.3,1.1-2,2.2l62.2-1.1v-5.6c2.3.2,4.7,0,7,0v2.2c1.5.7,3.2-1.1,4-1.1.6,0,1.4,0,2,0,.3,0,1.6.8,2,1.1,3,9,2.3,18.7,3,28h-1l-5-5.6,4-8.9h-5v3.4c-9.7-2.4-20.4-.7-30.5-1.1-3.2-.1-10.6.1-11-2.3-13.2.9-30.9,3.7-43.8.1-1.8-.5-1.5-3.3-6.4-1.2.7-6.6,2.1-8.7,3-13.4,3.7-1.7,18.7-1.9,23.9-2.2h0Z"/>
            <path class="st13" d="M123.5,151.4h2c-1,3.5.8,7.7,1,10.1.3,4,.4,11.3,0,15.1-.2,1.6-.8,3.5-2,1.6.6-9-.4-18-1-26.8h0Z"/>
            <path class="st8" d="M125.5,220.8c-.3,3.4-.7,6.7-1,10.1h-1c.3-3,.9-7.6,1-10.1h1Z"/>
            <path class="st1" d="M11.5,161.5c.2.1.6,1.7,1,2.2-2.9,1.4-5.8,2.3-9,2.2l.6-3.4c1-.8,6.3-1.5,7.4-1h0Z"/>
            <path class="st16" d="M103.5,120.1v5.6c-15.8-1.8-32-1.3-48-1.1.6-3.6-3.6-3-5.9-3.4v-2.2c18.2-1.1,36-.2,53.9,1.1Z"/>
            <path class="st16" d="M114.5,121.2c-.8,0-2.5,1.8-4,1.1v-2.2c1.5,0,2.8-.3,4,1.1Z"/>
            <path class="st6" d="M35.5,202.9c8.1-.2,16.9-.4,25,0s16.4,2.6,24.6,2.2c1.9,0,4,1.2,3.4-2.2,5,.2,10,0,15,0,4,0,8,0,12,0v2.2c-.1.3.1.8,0,1.1-1.7,4.7-5.6,16.5-7.6,20-2.3,4-9.7,5.3-13.9,5.7-10,.9-45.2,1.3-53.2-2.1-9.6-4.1-10.6-17.1-13.3-27,2.7,0,5.3,0,8,0h0ZM43,226.4c-1,.8.5,1.5,1,2.2,1-.7-.5-1.5-1-2.2ZM96,228.6c-16.3,1.3-34-1-50.5,0l10.5,2.3c10.2-.6,20.9.7,31.1,0,3.5-.2,10.6-.5,12.4-3.4-1.5-.7-2.8,1.1-3.5,1.1h0Z"/>
            <path class="st16" d="M116.5,196.1c-.4,4,5.1,4.7,5.1,7.2,0,3.4-3.7,15.5-5.7,18.4-.9,1.3-5,6.3-5.3,1.9l4.9-17.5c.1-.3-.1-.8,0-1.1.2-.7,1.7-1.4,1-3.4l-9-1.1-2-3.4v-1.1c3.4-.4,7.7.6,11,0h0Z"/>
            <path class="st17" d="M35.5,202.9c-.1-3.9-.6-3.1,2.5-3.4,5.6-.5,14.5-.5,20.1,0,3.1.3,2.6-.6,2.5,3.4-8.1-.4-16.9-.2-25,0Z"/>
            <path class="st17" d="M88.5,202.9c-2.3,0-4.7,0-7,0v-3.3c5.8.3,11.8-.5,17.6,0,1.4.1,7.2.2,4.4,3.4-5,0-10,.2-15,0h0Z"/>
            <path class="st17" d="M104.5,237.5v1.1c-19.9.7-41.1.4-61,0v-1.1c20.3.7,40.7-.5,61,0Z"/>
            <path class="st8" d="M123.5,231.9c-1,8.4-13,6.5-19,6.7v-3.4c1.7-.5.5,2.1,1.6,2.3.6.1,10.4-1.2,11.7-1.5,2.1-.5,4.6-2.1,5.7-4.2h0Z"/>
            <rect class="st8" x="105.5" y="231.9" width="1" height="2.2"/>
            <path class="st13" d="M55.5,124.6c16-.2,32.2-.7,48,1.1l-62.5,1.1c-1.3-1.1,1.3-2.1,2-2.2,3.7-.6,8.5,0,12.5,0Z"/>
            <path class="st13" d="M96,228.6c.7,0,2-1.8,3.5-1.1-1.8,2.9-9,3.2-12.4,3.4-10.2.7-20.8-.6-31.1,0l-10.5-2.3c16.5-1,34.1,1.3,50.5,0h0Z"/>
            <path class="st13" d="M43,226.4c.5.7,2,1.5,1,2.2-.5-.7-2-1.4-1-2.2Z"/>
            <g>
              <path class="st14" d="M22.5,191.7c6.2,5.1,15.8,3.8,23,2.2l-10-2.2c-.3-1.9,2.4-1.2,3.5-1.2,15,.5,30.7,7.4,46.5,4.5,3.3-2.8-8.2-2.4-9.2-2.5-.4,0-3.9-.8-2.2-2l24,2.3c6.3,3.9,14.6,2.2,21.6,1.1-1.2,1.4-.6,1.8-3,2.2-3.3.6-7.6-.4-11,0l-1,.6,1,.6,2,3.4c-11.9-8.7-27.5-2.2-41.6-3.4l-1.9,2.3c-2.3-2.6-8.5-3.1-12-3.3-6.5-.5-24.8,1.9-28.8-2.2-1-.5-.5-1.7-.7-2.3h0Z"/>
              <path class="st8" d="M115.5,145.8l5,4.5c-1.1,12.9,2.5,27.1,1.1,39.8-.4,3.3-.8,2.4-2.1,3.8-.8-4,.8-8.3.8-11.8,0-1.3-.8-2.4-.8-2.7,0-2.2,0-4.5,0-6.7-.1-3.8-.8-6.7-1-10.1-.4-5.2.5-10.4-1-15.6H25.5c-1.6,4.5-.7,9-1,13.4-.2,3.3-.8,6.4-1,10.1-.2,3.3.1,6.7,0,10.1,0,.1-1,1.3-1,2.7-.2,2.8.2,5.7,0,8.5-.5-1.4-.9-1.6-1.1-3.8-.6-7.8.3-22.3,1.1-30.3.4-3.7,1-10.4,4.2-11.8h88.8Z"/>
              <path class="st1" d="M119.5,179.4c0,.4.9,1.4.8,2.7,0,3.5-1.6,7.8-.8,11.8-6.9,1.2-15.3,2.9-21.5-1.1l-23.9-2.3c-1.6,1.2,1.8,1.9,2.2,2,1,.1,12.5-.3,9.2,2.5-15.8,2.9-31.5-4-46.5-4.5-1.1,0-3.8-.7-3.5,1.2l10,2.2c-7.2,1.6-16.8,2.9-23-2.2.1-2.8-.2-5.7,0-8.5,0-1.4,1-2.6,1-2.7,4.8-1.1,7.3-6,11.7-8.8,17.2-11.1,57.6-8.6,75.3,1.5,3.6,2,4.9,6.3,9,6.2h0Z"/>
              <polygon class="st13" points="105.5 197.3 104.5 196.7 105.5 196.1 105.5 197.3"/>
              <path class="st2" d="M24.5,160.4c.3-4.5-.6-9,1-13.4h92c1.5,5.3.6,10.5,1,15.6-4-.9-8.2-3.9-12-5-18-5.4-36.5-9-55.3-5.9,0,0-26.7,8.7-26.7,8.7Z"/>
              <path class="st3" d="M119.5,172.7c0,2.2,0,4.5,0,6.7-4.1.1-5.4-4.1-9-6.2-17.8-10.1-58.1-12.5-75.3-1.5-4.4,2.8-6.9,7.7-11.7,8.8.1-3.3-.2-6.7,0-10.1,5.6-1.8,10.3-6.1,16-8.4,17.7-7.1,37.9-6.6,56-1.1,8.2,2.5,16.8,6.8,24,11.7h0Z"/>
              <path class="st4" d="M118.5,162.6c.2,3.4.9,6.2,1,10.1-7.2-4.9-15.8-9.2-24-11.7-18.1-5.5-38.2-6-56,1.1-5.7,2.3-10.4,6.5-16,8.4.2-3.7.8-6.8,1-10.1l26.7-8.7c18.8-3.1,37.3.5,55.3,5.9,3.8,1.1,8,4.1,12,5h0Z"/>
            </g>
          </g>
          <rect class="st8" x="46.5" y="253.2" width="50" height="1.1"/>
          <rect class="st8" x="50.5" y="246.5" width="40" height="1.1"/>
          <path class="st0" d="M113.5,256.5c6.2-7.5-4.1-11.5-4.9-6l2.9,6c-7.2-.8-4.8-6.8-3-12.3,6.8-1.2,12.9,1.6,8.4,10-.9,1.8-1.8,1.9-3.4,2.3Z"/>
          <path class="st15" d="M111.5,256.5l-2.9-6c.8-5.5,11.2-1.5,4.9,6-.5.1-1.4,0-2,0Z"/>
        </g>
      </g>
    </g>
  </g>
</svg>