<?xml version="1.0" encoding="UTF-8"?>
<svg id="_图层_2" data-name="图层 2" xmlns="http://www.w3.org/2000/svg" viewBox="0 0 107.36 158">
  <defs>
    <style>
      .cls-1 {
        fill: #232324;
      }

      .cls-2 {
        fill: #ab1e1b;
      }

      .cls-3 {
        fill: #939190;
      }

      .cls-4 {
        fill: #393739;
      }

      .cls-5 {
        fill: #5f5d5c;
      }

      .cls-6 {
        fill: #1e1e1d;
      }

      .cls-7 {
        fill: #333133;
      }

      .cls-8 {
        fill: #9e9e9c;
      }

      .cls-9 {
        fill: #2a2a2a;
      }

      .cls-10 {
        fill: #464446;
      }

      .cls-11 {
        fill: #878685;
      }

      .cls-12 {
        fill: #797776;
      }
    </style>
  </defs>
  <g id="_图层_1-2" data-name="图层 1">
    <path class="cls-11" d="M73.12,2.68c.33.03.67-.04,1,0,1.86,1.35,6.36,3.03,8,1,1.97.38,3.88,1.08,5.94,1.08l.06,1.92c-1.59-.27-7.81-2.34-6.98.47.65,2.22,3.46,5.84,4.5,8.5.73,1.85.27,4.16.92,6.08.84,2.48,4.14,3.71,3.55,6.95-.61.06-1.77-.16-2,0-2.78-2.68-7.26-3.73-10.97-4.53-20.08-4.35-40.22-3.35-59.03,4.53-.44.18-1.39-.12-2,0,.07-.99-.1-2.02,0-3,5.56,3.32,11.56-4.22,12.55-8.98.48-2.29.36-7.75.45-10.02.04-.89-.21-2.42,0-3,3.13-.52,11.06-2,13.5-2h22c1.27,0,6.3.79,8.5,1Z"/>
    <path class="cls-9" d="M91.12,36.68c.42.6,1.93,2.55,1.98,2.73.35,1.31-.11,2.91.02,4.27.02.22-.74.84-.65,1.54.12.98,1.51,1.19,1.65,1.46.07.13.03.71,0,1-.96,7.87-1.03,10.96,0,19,.07.58.93,1.42,1,2-.66.04-1.34-.06-2,0v17.01s2.99,0,2.99,0c.49-5.83-.26-11.31-1-17.01.99-.06,2,.04,3,0-.06,7.87,0,15.38,0,22.5v19c0,6.42,1.11,13.67,1,20.5h-2c.04-.33-.04-.67,0-1,.61-5.5,1.87-12.96,0-18-.26-.69-.1-1.56-1-2,.05-.66-.03-1.34,0-2,.21-5.3-.15-10.69,0-15.99-3.49-.48-2.33,4.21-4.98,4.99-2.91-17.95-9.87-34.95-8.02-53.5.44-4.44,3.8-12.51,8.01-6.5Z"/>
    <path class="cls-9" d="M23.12,41.68c-.19,1.95.12,4.04,0,6.01h3c-.14,1.22-.63,2.77-1,3.99-.48,1.61-2.78,3.36,1,3,.06,1.32.01,2.67,0,4-4.01-.28-2.5-.21-2.98,2.48-.63,3.55-1.17,7.02-2.02,10.52-2.02,8.31-4.41,16.57-6,25-.06-.56-1.66-5.28-1.98-5.54l-2.93.65c-.31,4.47.07,8.99-.12,13.47-.06,1.34,1.04,2.29,1.03,2.42-.02.51-1.93,2.17-2.05,4.45-.34,6.35.09,14.28,1.05,20.55.05.33-.06.68,0,1h-2c.09-9.76.39-17.09.99-26.51.66-10.28-1.36-19.75-.9-29.88.13-2.76.95-5.24.91-8.61l2,1c-1.26,2.02-2.97,17.23,1.99,16.99.02-5.18-.03-10.39.05-15.58.02-1.32-1.05-2.28-1.04-2.42.01-.33-.01-.67,0-1,.22-7.02,1.01-12.37,1-20,0-.33,0-.67,0-1,0-.86.01-2.02,0-3,0-.33,0-.67,0-1l3.6-8.07c4.04-.33,7.02,2.96,6.4,7.07Z"/>
    <path class="cls-5" d="M96.12,16.68c3.3,8.57,1.7,15.94,2.01,24.99,5.49-.49,12.69,1.95,7.35,7.93l-7.35-.92c-.05,6.65.04,13.35,0,20-1,.04-2.01-.06-3,0-.07-.58-.93-1.42-1-2,2.71,1.78,1.9.98,2-1.49.19-4.77,1.36-14.2-2-17.51.03-.29.07-.87,0-1,2.12-.76,11.93,2.99,10.99-1.48-.54-2.6-9.81-1.19-11.99-1.52-.13-1.36.32-2.96-.02-4.27-.05-.18-1.56-2.13-1.98-2.73h2c.77-2.38-1.45-6.15-1-8,.04-.14,1.45-.41,1.59-1.41.08-.52-.43-8.7-.59-9.59l3-1Z"/>
    <path class="cls-3" d="M88.12,6.68c.19.03.88-.79,1.53-.71,1.01.13,1.04,1.19,1.47,1.71-1.75.09-3.96-.94-2.5,2,1.17,2.36,4.01,5.36,4.5,8,.17.89.67,9.07.59,9.59-.14,1-1.56,1.26-1.59,1.41-.66.04-1.34-.06-2,0,.58-3.23-2.71-4.47-3.55-6.95-.65-1.92-.2-4.22-.92-6.08-1.04-2.66-3.85-6.28-4.5-8.5-.83-2.81,5.39-.74,6.98-.47Z"/>
    <path class="cls-5" d="M11.12,14.68v4s3-1,3-1c-1.06,3.87-1.14,8.01-1,12.01h2c2,1.07-.68.63-.95,1.72-.86,3.44-.99,7.7-1.05,11.27,0,.33,0,.67,0,1-1.83.34-4.05-1.8-5-2,.19-9.42-1.26-18.4,3-27Z"/>
    <path class="cls-3" d="M29.12,3.68c-.21.58.04,2.11,0,3-2.33.9-2.86,3.46-4.51,4.99-1.3,1.21-5.75,3.54-6.21,4.28-.57.92-2.11,8.09-2.28,9.73-.1.98.07,2.01,0,3l-1,1h-2c-.14-3.99-.06-8.13,1-12,.91-3.32,5.25-7.89,4-11,3.93-2.47,6.77-2.3,11-3Z"/>
    <path class="cls-6" d="M99.12,130.68c-.06,3.86.38,8.29,0,12,0,.09-.71-.19-.97,1.49-.55,3.61,1.19,5.73-2.52,8.53-5.08,3.83-8.56.79-12.51.98,8.24-4.96,10.96-7.46,13-17,.42-1.95.75-4.02,1-6h2Z"/>
    <path class="cls-1" d="M10.12,133.68c.67,3.76,1.96,5.27,3,8,.65,1.71-.28,5.3,2.46,7.05l9.54,5.95c-7.4-1-14.03,2.76-17-7,.02-.67-.01-1.33,0-2,.03-1.67-.01-3.33,0-5,.02-2.33-.02-4.67,0-7h2Z"/>
    <path class="cls-10" d="M13.12,46.68c0,.33,0,.67,0,1-1.49.78-2.83.29-3.08,2.46-.43,3.86-.06,9.97.08,14.08.06,1.92-1.02,4.01,2,3.45-.01.33.01.67,0,1-.25.38-.79.66-1,1l-2-1c0-.13-1-1.12-1.04-2.42-.2-5.84.23-11.74.04-17.58l-7.99,1c-.18-3.21-.54-4.14,1.99-5.99l-1,2.47,1.6,1.47,10.4-.94Z"/>
    <path class="cls-5" d="M73.12,2.68c-2.2-.21-7.23-1-8.5-1h-22c-2.44,0-10.37,1.48-13.5,2,.44-1.25,7-2.7,8.61-2.89,9.31-1.09,21.55-.96,30.91-.13,1.77.16,3.44.34,4.48,2.02Z"/>
    <path class="cls-11" d="M8.12,41.68c.95.2,3.17,2.34,5,2,.01.98,0,2.14,0,3l-10.4.94-1.6-1.47,1-2.47c.08-.06.89.07,1.66-.35s.27-2.52,4.34-1.65Z"/>
    <path class="cls-2" d="M14.12,17.68l-2.99,1v-4c1.66-3.36,3.77-5.98,6.99-8,1.25,3.11-3.09,7.68-4,11Z"/>
    <path class="cls-2" d="M91.12,7.68c2.65,3.21,3.61,5.39,5,9l-3,1c-.49-2.64-3.33-5.64-4.5-8-1.46-2.94.75-1.91,2.5-2Z"/>
    <path class="cls-5" d="M82.12,3.68c-1.64,2.03-6.14.35-8-1,2.56.28,5.5.52,8,1Z"/>
    <path class="cls-12" d="M18.12,28.68c-.8,2.67,2.16,2.14,3,3,.13.13,1.89,2.78,2,3,.26,1.87.74,2.11,1,3,.09,2.38-.93,3.29-1,4,.63-4.11-2.35-7.4-6.4-7.07l-3.6,8.07c.06-3.57.19-7.83,1.05-11.27.27-1.09,2.96-.64.95-1.73l1-1c.61-.12,1.56.18,2,0Z"/>
    <path class="cls-12" d="M23.12,30.68c16.89-4.49,34.79-5.51,52.05-2.55,4.03.69,9.41,4.07,12.66,2.22.48-.27.21-1.62.29-1.67.23-.16,1.39.06,2,0,.66-.06,1.34.04,2,0-.46,1.85,1.77,5.62,1,8.01h-2c-4.21-6.02-7.56,2.05-8.01,6.49-1.86,18.55,5.11,35.56,8.02,53.5,2.66-.78,1.49-5.48,4.98-4.99-.15,5.31.22,10.69,0,15.99-3.01-.56-1.94,1.53-2,3.45-.09,2.98.23,5.99-.09,8.96-.1.97-.44,3.76-1.9,3.58.04-5.82,1.74-11.63,1.01-17.52-.43-3.44-2.31-4.92-3.02-7.48-.25-.89-.9-1.61-1-2-1.98-7.42-4.35-16.58-6-24-.13-.6.13-1.4,0-2-.42-1.97-1.89-4.37-2-5-.64-3.79-1.14-12.57-1.04-16.54.11-4.45,1.7-9.9,2.04-14.45-4.41.22-9.16.43-13.53.95-2.27.27-3.47.28-3.46,3.04-2.48-.26-5.42.04-8,0-1.33-.02-2.67-.03-4,0-8.55.17-14.64,2.21-22,3-.62.07-4.08-2.45-5,0-.17-.98-1.69-2.95-2-4-.08-2.02-.38-1.73-1-3-.17-1.26.12-2.7,0-4Z"/>
    <path class="cls-9" d="M88.12,28.68c-.07.05.19,1.4-.29,1.67-3.25,1.85-8.63-1.53-12.66-2.22-17.27-2.96-35.16-1.94-52.05,2.55-.77.21-1.63.03-2,1-.84-.86-3.8-.33-3-3,18.82-7.88,38.95-8.89,59.03-4.53,3.71.8,8.19,1.86,10.97,4.53Z"/>
    <path class="cls-12" d="M16.12,25.68c.16-1.64,1.7-8.81,2.28-9.73.46-.74,4.92-3.08,6.21-4.28,1.65-1.53,2.18-4.09,4.51-4.99-.09,2.28.03,7.74-.45,10.02-.99,4.76-7,12.3-12.55,8.98Z"/>
    <path class="cls-10" d="M96.12,136.68c-2.04,9.54-4.76,12.04-13,17-4.15.2-12.61,3.62-18.46,4.04-14.86,1.07-25.47-1.14-39.54-3.04l-9.54-5.95c-2.74-1.74-1.8-5.33-2.46-7.05l.5-.98c1.65,1.56,3.3,3.02,4.5,4.98.27.45-.41,2.14.97,3.5,1.14,1.14,4.14,1.45,5.64,2.4l.39-3.9c10.33.13,7.76,1.92,15,4l2.46,3.08,24.53-1.08c1.64-1.22-.02-1.81-1.48-2-6.18-.79-14.03.34-20.52,0v-3c6.95.92,14.11-.73,21-1,3.84-.15,8.85.99,14,0v2s7.34.05,7.34.05c1.58-.38,1.2-3.97,1.66-5.04,1.24-2.91,3.53-7.68,7-8Z"/>
    <path class="cls-5" d="M23.12,119.68c.45.18,1.38-.12,2,0l-1.01,2.39c2.61,2.02,4.44,7.91,5.06,11.54l47.95.06c-.55,1.26-1.51,9.41-.99,10,2.62-.16,4.78-1.87,6.99-3,1.5-.76,3.53-2.06,5-3h-2.99s0-1.99,0-1.99h2.99s0,1.99,0,1.99c2.44-1.57,5.85-1.76,4.92-6.38-.94-2.88-4.95-1.12-6.92-.62,6.39-5.56,4.91-1.5,6.7-1.01,1.28.34,2.93-.09,4.3.01-.04.33.04.67,0,1-.25,1.98-.58,4.05-1,6-3.47.32-5.76,5.09-7,8-3.21.37-5.88,2.4-9,3-5.15.99-10.16-.15-14,0,4.59-2.28,8.1-5.42,8-11-.01-.8.38-1.67-.58-2.09-2.62-1.62-24.2-1.09-28.96-.91-1.92.08-4.01-1.03-3.45,2-1.92.18-8.17,1.03-7.86,3.32,1.87,5.59,6.06,8.91,11.86,9.68v3c-1.46-.08-3.9.31-5,0-7.24-2.08-4.67-3.87-15-4-2.33-.03-4.41-2.41-7-2-1.2-1.96-2.86-3.42-4.5-4.98l-.5.98c-1.04-2.73-2.33-4.24-3-8-.06-.32.05-.67,0-1l5-3-1.99,4.48c1.01,2.31,11.65,7.38,14.47,7.55,3.75.23-.38-3.64-.48-5.03-.53-7.66-2.88-8.34-4-14-.15-.76-.06-2.13,0-3ZM74.62,143.68v1c.65-.33.65-.67,0-1Z"/>
    <path class="cls-11" d="M90.12,98.68c.71,2.56,2.6,4.04,3.02,7.48.73,5.89-.97,11.7-1.01,17.52,1.46.18,1.79-2.62,1.9-3.58.32-2.97,0-5.98.09-8.96.06-1.92-1.01-4.01,2-3.45-.03.66.05,1.34,0,2-.06.74-1.95,2.92-.99,5l1.99-3c1.87,5.04.61,12.5,0,18-1.37-.1-3.01.33-4.3-.01-1.8-.48-.31-4.54-6.7,1.01-1.15.29-2.37,1.59-3.74,1.81-1.66.26-2.85-.83-3.26-.81.83-9.66,6.2-17.32,9.03-26.48.41-1.32,1.9-3.63-.03-4.52.34-.18.98-1.87,2-2Z"/>
    <path class="cls-12" d="M94.12,47.68c3.36,3.32,2.19,12.75,2,17.51-.1,2.46.7,3.26-2,1.49-1.03-8.04-.96-11.13,0-19Z"/>
    <path class="cls-12" d="M95.12,68.68c.74,5.69,1.49,11.18,1,17.01h-2.99s0-17.01,0-17.01c.66-.05,1.34.05,2,0Z"/>
    <path class="cls-11" d="M94.12,46.68c-.15-.26-1.53-.47-1.65-1.46-.09-.7.67-1.32.65-1.54,2.18.33,11.45-1.09,11.99,1.52.93,4.47-8.87.72-10.99,1.48Z"/>
    <path class="cls-12" d="M97.12,111.68l-1.99,3c-.96-2.08.93-4.25.99-5,.9.44.74,1.31,1,2Z"/>
    <path class="cls-11" d="M65.12,38.68c0-2.77,1.19-2.77,3.46-3.04,4.38-.52,9.12-.73,13.53-.95-.33,4.55-1.93,10-2.04,14.45-.1,3.97.41,12.75,1.04,16.54-2.53,1.22-5.26,1.57-8,2-14.46,2.26-32.87,1.98-47-2,.39-1.32-.02-5.16,0-7,.01-1.33.06-2.68,0-4-.05-1.09.31-2.52-1-3,.37-1.23.86-2.78,1-4,.17-1.45.24-4.65,0-6,.92-2.45,4.38.07,5,0,.66,13.43-6.79,20.6,11.55,20.04,4.88-.15,9.61-1.1,15-1.08,4.14.01,17.47,3.28,19.26-2.65.63-2.09-.18-13.31-.8-15.59-.54-2-8.88-3.5-11.01-3.72Z"/>
    <path class="cls-11" d="M11.12,107.68c2.7-1.78,1.91-.98,2,1.49.23,6.06-.23,12.01,1,18.01l1-.49,3.33.91,4.67-4.91c1.12,5.66,3.47,6.34,4,14-5.15,2-1.03-.72-2.45-2.96-2.28-3.56-5.9-3.02-9.55-4.04l-5,3c-.97-6.27-1.39-14.21-1.05-20.55.12-2.27,2.04-3.93,2.05-4.45Z"/>
    <path class="cls-11" d="M23.12,71.68c-1.63,5.65-2.21,8.11-3,14-.96.37-.8,1.22-1,2-.81,3.11-2.33,7.43-2.09,10.54s2.04,3.25,2.09,3.46c1.14,4.11,1.53,8.2,2,12-1.08-.75-.8-2.49-1.18-2.77-1.09-.8-4.34.19-5.82-1.23-.02-4.48,1.49-8.73,1-13,1.59-8.43,3.98-16.69,6-25h2Z"/>
    <path class="cls-11" d="M21.12,113.68c.28.19,1.42-.16,2,0l-1,2.99c-.06-.23-.72-.74-1-3Z"/>
    <path class="cls-11" d="M22.12,116.68c3.55-.36,1.15.74,1,3-2.01-.79-.53-1.13-1-3Z"/>
    <path class="cls-5" d="M15.12,96.68c.49,4.27-1.02,8.52-1,13,.03,5.76.73,11.28,1,17l-1,.49c-1.23-6-.77-11.95-1-18.01-.09-2.46.7-3.26-2-1.49,0-.13-1.09-1.08-1.03-2.42.2-4.48-.18-9.01.12-13.47l2.93-.65c.32.26,1.92,4.98,1.98,5.54Z"/>
    <path class="cls-12" d="M12.12,67.68c-3.02.56-1.94-1.53-2-3.45-.14-4.11-.51-10.22-.08-14.08.24-2.17,1.58-1.68,3.08-2.46,0,7.63-.78,12.98-1,20Z"/>
    <path class="cls-12" d="M12.12,68.68c0,.13,1.06,1.1,1.04,2.42-.08,5.19-.03,10.4-.05,15.58-4.97.24-3.25-14.97-1.99-16.99.21-.34.75-.62,1-1Z"/>
    <path class="cls-5" d="M26.12,58.68c-.02,1.84.39,5.68,0,7-.1.33-2.31,3.6-3,6h-2c.85-3.5,1.39-6.97,2.02-10.52.48-2.69-1.04-2.75,2.98-2.48Z"/>
    <path class="cls-5" d="M24.12,37.68c-.26-.89-.74-1.13-1-3,.62,1.27.92.98,1,3Z"/>
    <path class="cls-5" d="M26.12,41.68c.24,1.35.17,4.55,0,6h-3c.12-1.96-.19-4.05,0-6,.07-.71,1.09-1.62,1-4,.31,1.05,1.83,3.02,2,4Z"/>
    <path class="cls-5" d="M23.12,30.68c.12,1.3-.17,2.74,0,4-.11-.22-1.87-2.87-2-3,.37-.97,1.23-.79,2-1Z"/>
    <path class="cls-5" d="M26.12,54.68c-3.78.36-1.48-1.39-1-3,1.31.48.95,1.91,1,3Z"/>
    <path class="cls-1" d="M20.12,90.68c-.15,2.02-2.08,5.15-.86,7.86,8.72,3.73,6.02-.84,9.43-4.79.95-1.09,5.8-4.26,7.22-4.77,4.46-1.59,32.37-5.8,36.73-5.32,6.9.75,11.1,7.37,12.51,13.34l3.97-.32c.1.39.75,1.11,1,2-1.02.13-1.66,1.82-2,2-17.65,9.56-50.23,6.96-69,1-.06-.21-1.86-.47-2.09-3.46s1.28-7.43,2.09-10.54h1c-.08.99.07,2.01,0,3Z"/>
    <path class="cls-7" d="M73.12,67.68c1.07,2.72,7.28-.78,8,0l.1,2.87,1.9.13c.13.6-.13,1.4,0,2-3.65-.57-5.84,3.16-8.7,3.8-4.24.94-13.59,2.63-17.92,3.08-8.81.93-22.1-1.45-29.74,4.26-2.64,1.98-3.27,6.45-6.64,6.86.07-.99-.08-2.01,0-3,.08-1.05-.02-1.88,0-2,.79-5.89,1.37-8.35,3-14,.69-2.4,2.9-5.67,3-6,14.13,3.98,32.54,4.26,47,2Z"/>
    <path class="cls-9" d="M83.12,72.68c1.65,7.42,4.02,16.58,6,24l-3.97.32c-1.4-5.97-5.61-12.59-12.51-13.34-4.36-.47-32.27,3.73-36.73,5.32-1.42.51-6.28,3.68-7.22,4.77-3.41,3.95-.71,8.52-9.43,4.79-1.23-2.7.7-5.84.86-7.86,3.37-.41,4-4.88,6.64-6.86,7.64-5.71,20.92-3.33,29.74-4.26,4.33-.46,13.68-2.14,17.92-3.08,2.86-.64,5.06-4.37,8.7-3.8Z"/>
    <path class="cls-4" d="M57.12,38.68c-.56,3.07,1.54,1.88,3.46,2,4.51.28,8.94.49,13.4,1.14l1.14,13.86c-3.06.69-5.93-1.82-8.56-1.94-1.87-.09-3.82,1-5.89.99-10.01-.07-18.67.33-28.54,1.95v-15c5.88-.21,11.64-.78,17.55-1,1.93-.07,4.01,1.01,3.45-2,1.33-.03,2.67-.02,4,0Z"/>
    <path class="cls-9" d="M53.12,38.68c.56,3.02-1.53,1.93-3.45,2-5.91.22-11.67.79-17.55,1v15c9.87-1.62,18.53-2.03,28.54-1.95,2.07.02,4.03-1.07,5.89-.99,2.63.12,5.5,2.64,8.56,1.94l-1.14-13.86c-4.46-.65-8.89-.86-13.4-1.14-1.92-.12-4.01,1.07-3.46-2,2.58.04,5.52-.26,8,0,2.13.22,10.47,1.71,11.01,3.72.61,2.28,1.43,13.5.8,15.59-1.79,5.93-15.12,2.67-19.26,2.65-5.39-.02-10.11.93-15,1.08-18.33.56-10.88-6.61-11.55-20.04,7.36-.79,13.45-2.83,22-3Z"/>
    <path class="cls-9" d="M83.12,70.68l-1.9-.13-.1-2.87c-.72-.78-6.93,2.72-8,0,2.74-.43,5.47-.78,8-2,.11.63,1.58,3.03,2,5Z"/>
    <path class="cls-6" d="M74.12,136.68c.1,5.58-3.41,8.72-8,11-6.89.27-14.05,1.92-21,1-5.79-.77-9.99-4.09-11.86-9.68-.31-2.29,5.94-3.14,7.86-3.32,9.96-.95,22.54,2.54,33,1Z"/>
    <path class="cls-6" d="M45.12,151.68c6.49.34,14.34-.79,20.52,0,1.46.19,3.12.78,1.48,2l-24.53,1.08-2.46-3.08c1.1.31,3.54-.08,5,0Z"/>
    <path class="cls-4" d="M89.12,144.68c-.46,1.08-.08,4.67-1.66,5.04l-7.35-.05v-2c3.13-.6,5.8-2.63,9.01-3Z"/>
    <path class="cls-9" d="M25.12,147.68l-.39,3.9c-1.51-.95-4.5-1.27-5.64-2.4-1.37-1.37-.69-3.06-.97-3.5,2.59-.41,4.67,1.97,7,2Z"/>
    <path class="cls-3" d="M88.12,100.68c1.92.88.43,3.2.03,4.52-2.83,9.16-8.19,16.82-9.03,26.48-.47.02-1.81,1.57-2,2l-47.95-.06c-.62-3.63-2.45-9.52-5.06-11.54l1.01-2.39c-.62-.13-1.55.17-2,0-.06.87-.15,2.24,0,3l-4.67,4.91-3.33-.91c-.27-5.72-.97-11.24-1-17,1.48,1.42,4.73.43,5.82,1.23.37.27.1,2.02,1.18,2.77.28,2.26.94,2.77,1,3,.47,1.87-1.01,2.21,1,3,.15-2.26,2.55-3.36-1-3l1-2.99c-.59-.17-1.73.18-2,0-.47-3.8-.86-7.89-2-12,18.77,5.96,51.35,8.56,69-1Z"/>
    <path class="cls-8" d="M27.12,136.68c.1,1.39,4.23,5.26.48,5.03-2.82-.17-13.46-5.24-14.47-7.55l1.99-4.48c3.64,1.03,7.27.48,9.55,4.04,1.43,2.23-2.69,4.95,2.45,2.96Z"/>
    <path class="cls-12" d="M41.12,135.68c-.56-3.03,1.53-1.92,3.45-2,4.76-.19,26.34-.72,28.96.91.96.42.57,1.3.58,2.09-10.46,1.54-23.04-1.95-33-1Z"/>
    <path class="cls-8" d="M88.12,137.68v-1.99s-2.99,0-2.99,0v1.99s2.99,0,2.99,0c-1.47.94-3.5,2.24-5,3-9.52,1.22.54-7.86,3-10,1.97-.49,5.99-2.26,6.92.62.93,4.62-2.49,4.81-4.92,6.38Z"/>
    <path class="cls-10" d="M86.12,130.68c-2.46,2.14-12.52,11.22-3,10-2.22,1.12-4.38,2.84-6.99,3-.52-.58.45-8.73.99-10,.19-.43,1.53-1.98,2-2,.41-.02,1.61,1.07,3.26.81,1.37-.22,2.59-1.52,3.74-1.81Z"/>
    <path class="cls-10" d="M74.62,143.68c.65.33.65.67,0,1v-1Z"/>
    <path class="cls-9" d="M20.12,87.68h-1c.2-.78.04-1.63,1-2-.02.12.08.95,0,2Z"/>
  </g>
</svg>