<?xml version="1.0" encoding="UTF-8"?>
<svg id="_图层_2" data-name="图层 2" xmlns="http://www.w3.org/2000/svg" xmlns:xlink="http://www.w3.org/1999/xlink" viewBox="0 0 152.48 299.13">
  <defs>
    <style>
      .cls-1 {
        fill: #b83939;
      }

      .cls-2 {
        fill: #1a171a;
      }

      .cls-3 {
        fill: #191b1c;
      }

      .cls-4 {
        fill: #9c2a26;
      }

      .cls-5 {
        fill: #f0eff6;
      }

      .cls-6 {
        fill: #d2615e;
      }

      .cls-7 {
        fill: #625763;
      }

      .cls-8 {
        fill: #926e78;
      }

      .cls-9 {
        fill: #2d2e2f;
      }

      .cls-10 {
        fill: #761f1f;
      }

      .cls-11 {
        fill: url(#_未命名的渐变_7);
      }

      .cls-12 {
        fill: #eaebf1;
      }

      .cls-13 {
        fill: #b35453;
      }

      .cls-14 {
        fill: #8b6b6d;
      }

      .cls-15 {
        fill: #ba332f;
      }

      .cls-16 {
        fill: #ea6059;
      }

      .cls-17 {
        fill: #811f20;
      }

      .cls-18 {
        fill: #ca443f;
      }

      .cls-19 {
        fill: #1d6fce;
      }

      .cls-20 {
        fill: #5e2623;
      }

      .cls-21 {
        fill: #4d5d65;
      }

      .cls-22 {
        fill: #e0423b;
      }

      .cls-23 {
        fill: #716e6c;
      }

      .cls-24 {
        fill: #af2f2b;
      }

      .cls-25 {
        fill: #642c25;
      }

      .cls-26 {
        fill: #763b2f;
      }

      .cls-27 {
        fill: #442121;
      }

      .cls-28 {
        fill: #c43635;
      }

      .cls-29 {
        fill: #ad8fa3;
      }

      .cls-30 {
        fill: #9ca0a0;
      }

      .cls-31 {
        fill: #ac4343;
      }

      .cls-32 {
        fill: #250f0b;
      }

      .cls-33 {
        fill: #542625;
      }

      .cls-34 {
        fill: #869099;
      }

      .cls-35 {
        fill: #a92b2a;
      }

      .cls-36 {
        fill: #58595b;
      }

      .cls-37 {
        fill: #d34b48;
      }

      .cls-38 {
        fill: #ca413d;
      }

      .cls-39 {
        fill: #532420;
      }

      .cls-40 {
        fill: #8b8c8b;
      }

      .cls-41 {
        fill: #c8ced7;
      }

      .cls-42 {
        fill: #7c4840;
      }

      .cls-43 {
        fill: #b9622c;
      }

      .cls-44 {
        fill: #8e2a23;
      }

      .cls-45 {
        fill: #747676;
      }

      .cls-46 {
        fill: #624146;
      }

      .cls-47 {
        fill: #0b100c;
      }

      .cls-48 {
        fill: #252b31;
      }

      .cls-49 {
        fill: #842721;
      }

      .cls-50 {
        fill: #15191c;
      }

      .cls-51 {
        fill: #582e2d;
      }

      .cls-52 {
        fill: #080b0d;
      }

      .cls-53 {
        fill: #6d2825;
      }

      .cls-54 {
        fill: #c0c0c1;
      }

      .cls-55 {
        fill: #473032;
      }

      .cls-56 {
        fill: #bcbdbd;
      }

      .cls-57 {
        fill: #812a24;
      }

      .cls-58 {
        fill: #767676;
      }

      .cls-59 {
        fill: #232424;
      }

      .cls-60 {
        fill: #b1332b;
      }

      .cls-61 {
        fill: #613533;
      }

      .cls-62 {
        fill: #96461e;
      }

      .cls-63 {
        fill: #701f1c;
      }

      .cls-64 {
        fill: #5e2123;
      }

      .cls-65 {
        fill: #cc443f;
      }

      .cls-66 {
        fill: #ce4542;
      }

      .cls-67 {
        fill: #2a2629;
      }

      .cls-68 {
        fill: #a86258;
      }

      .cls-69 {
        fill: #cccfd4;
      }

      .cls-70 {
        fill: #797b7b;
      }

      .cls-71 {
        fill: #bb4440;
      }

      .cls-72 {
        fill: #8e1f1a;
      }

      .cls-73 {
        fill: #bf713c;
      }

      .cls-74 {
        fill: #cecece;
      }

      .cls-75 {
        fill: #aeadac;
      }

      .cls-76 {
        fill: #c53d3a;
      }

      .cls-77 {
        fill: #903933;
      }

      .cls-78 {
        fill: #282729;
      }

      .cls-79 {
        fill: #af302c;
      }

      .cls-80 {
        fill: #923e33;
      }

      .cls-81 {
        fill: #3d1714;
      }

      .cls-82 {
        fill: #709fa8;
      }

      .cls-83 {
        fill: #2b272a;
      }

      .cls-84 {
        fill: #aca6aa;
      }

      .cls-85 {
        fill: #3a2326;
      }

      .cls-86 {
        fill: #606365;
      }

      .cls-87 {
        fill: #503732;
      }

      .cls-88 {
        fill: #939597;
      }

      .cls-89 {
        fill: #979da0;
      }

      .cls-90 {
        fill: #db8f53;
      }

      .cls-91 {
        fill: #cdcec7;
      }

      .cls-92 {
        fill: #8b4545;
      }

      .cls-93 {
        fill: #9b302f;
      }

      .cls-94 {
        fill: #b5a197;
      }

      .cls-95 {
        fill: #373939;
      }

      .cls-96 {
        fill: #b3b4b4;
      }

      .cls-97 {
        fill: #e9e8ec;
      }

      .cls-98 {
        fill: #6a2f29;
      }

      .cls-99 {
        fill: #7d807e;
      }

      .cls-100 {
        fill: #964944;
      }

      .cls-101 {
        fill: #d34c46;
      }

      .cls-102 {
        fill: #bb302e;
      }

      .cls-103 {
        fill: #aa2d2a;
      }

      .cls-104 {
        fill: #e0ddde;
      }

      .cls-105 {
        fill: #c23935;
      }

      .cls-106 {
        fill: #a8561a;
      }

      .cls-107 {
        fill: #ccc;
      }

      .cls-108 {
        fill: #964b48;
      }

      .cls-109 {
        fill: #a5a5a9;
      }

      .cls-110 {
        fill: #3a3a3a;
      }

      .cls-111 {
        fill: #6e191a;
      }

      .cls-112 {
        fill: #dec5c8;
      }

      .cls-113 {
        fill: #bf5a56;
      }

      .cls-114 {
        fill: #a62928;
      }

      .cls-115 {
        fill: #828693;
      }

      .cls-116 {
        fill: #2d1515;
      }

      .cls-117 {
        fill: #7b6959;
      }

      .cls-118 {
        fill: #cf4b46;
      }

      .cls-119 {
        fill: #691e20;
      }

      .cls-120 {
        fill: #623629;
      }

      .cls-121 {
        fill: #a32b27;
      }

      .cls-122 {
        fill: #c23c39;
      }

      .cls-123 {
        fill: #b43731;
      }

      .cls-124 {
        fill: #4d1415;
      }

      .cls-125 {
        fill: #b8b9ba;
      }

      .cls-126 {
        fill: #c18534;
      }

      .cls-127 {
        fill: #832d29;
      }

      .cls-128 {
        fill: #ab3d1b;
      }

      .cls-129 {
        fill: #aca7a7;
      }

      .cls-130 {
        fill: #712826;
      }

      .cls-131 {
        fill: #242324;
      }

      .cls-132 {
        fill: #361516;
      }

      .cls-133 {
        fill: #ae2b2a;
      }

      .cls-134 {
        fill: #535052;
      }

      .cls-135 {
        fill: #978d85;
      }

      .cls-136 {
        fill: #718096;
      }

      .cls-137 {
        fill: #635660;
      }

      .cls-138 {
        fill: #2c2d2e;
      }

      .cls-139 {
        fill: #d06261;
      }

      .cls-140 {
        fill: #d96c69;
      }

      .cls-141 {
        fill: #9f2a20;
      }

      .cls-142 {
        fill: #4d5359;
      }

      .cls-143 {
        fill: #5a5f60;
      }

      .cls-144 {
        fill: #a22117;
      }

      .cls-145 {
        fill: #732022;
      }

      .cls-146 {
        fill: #858c99;
      }

      .cls-147 {
        fill: #50342a;
      }

      .cls-148 {
        fill: #6e7487;
      }

      .cls-149 {
        fill: #613334;
      }

      .cls-150 {
        fill: #c4c8c7;
      }

      .cls-151 {
        fill: #7d2323;
      }

      .cls-152 {
        fill: #c23d38;
      }

      .cls-153 {
        fill: #58211e;
      }

      .cls-154 {
        fill: #a82928;
      }

      .cls-155 {
        fill: #902d2b;
      }

      .cls-156 {
        fill: #4a231b;
      }

      .cls-157 {
        fill: #842922;
      }

      .cls-158 {
        fill: #dd5f5b;
      }

      .cls-159 {
        fill: #a5836e;
      }

      .cls-160 {
        fill: #9c4d48;
      }

      .cls-161 {
        fill: #b0322f;
      }

      .cls-162 {
        fill: #191617;
      }

      .cls-163 {
        fill: #972624;
      }

      .cls-164 {
        fill: #888b91;
      }

      .cls-165 {
        fill: #c87919;
      }

      .cls-166 {
        fill: #9e2625;
      }

      .cls-167 {
        fill: #76473d;
      }

      .cls-168 {
        fill: #cac7c7;
      }

      .cls-169 {
        fill: #50382c;
      }

      .cls-170 {
        fill: #5c6470;
      }

      .cls-171 {
        fill: #4b2c2d;
      }

      .cls-172 {
        fill: #272726;
      }

      .cls-173 {
        fill: #282627;
      }

      .cls-174 {
        fill: #832a27;
      }

      .cls-175 {
        fill: #474248;
      }

      .cls-176 {
        fill: #36414f;
      }

      .cls-177 {
        fill: #624238;
      }

      .cls-178 {
        fill: #7f909c;
      }

      .cls-179 {
        fill: #a22726;
      }

      .cls-180 {
        fill: #584a5d;
      }

      .cls-181 {
        fill: #080b0a;
      }

      .cls-182 {
        fill: #eef9fc;
      }

      .cls-183 {
        fill: #6d1717;
      }

      .cls-184 {
        fill: #a1413f;
      }

      .cls-185 {
        fill: #bebcbb;
      }

      .cls-186 {
        fill: #bdbdbc;
      }

      .cls-187 {
        fill: #b6342f;
      }

      .cls-188 {
        fill: #ba3531;
      }

      .cls-189 {
        fill: #8e9190;
      }

      .cls-190 {
        fill: #c43b36;
      }

      .cls-191 {
        fill: #2d211e;
      }

      .cls-192 {
        fill: #201c1e;
      }

      .cls-193 {
        fill: #13181c;
      }

      .cls-194 {
        fill: #101011;
      }

      .cls-195 {
        fill: #282829;
      }

      .cls-196 {
        fill: #c13e40;
      }

      .cls-197 {
        fill: #302c2e;
      }

      .cls-198 {
        fill: #2c7bd6;
      }

      .cls-199 {
        fill: #7d8481;
      }

      .cls-200 {
        fill: #6e2523;
      }

      .cls-201 {
        fill: #873835;
      }

      .cls-202 {
        fill: #78392b;
      }

      .cls-203 {
        fill: #5e3d2b;
      }

      .cls-204 {
        fill: #b32e2a;
      }

      .cls-205 {
        fill: #cf5855;
      }

      .cls-206 {
        fill: #b9322d;
      }

      .cls-207 {
        fill: #65181b;
      }

      .cls-208 {
        fill: #232423;
      }

      .cls-209 {
        fill: #c97071;
      }

      .cls-210 {
        fill: #8e8d8f;
      }

      .cls-211 {
        fill: #251518;
      }

      .cls-212 {
        fill: #932d26;
      }

      .cls-213 {
        fill: #d2514d;
      }

      .cls-214 {
        fill: #4d4e55;
      }

      .cls-215 {
        fill: #2e5fa8;
      }

      .cls-216 {
        fill: #b95455;
      }

      .cls-217 {
        fill: #27454d;
      }

      .cls-218 {
        fill: #ab2a28;
      }

      .cls-219 {
        fill: #6f2222;
      }

      .cls-220 {
        fill: #da5955;
      }

      .cls-221 {
        fill: #4f5041;
      }

      .cls-222 {
        fill: #145eb8;
      }

      .cls-223 {
        fill: #89211e;
      }

      .cls-224 {
        fill: #932e2b;
      }

      .cls-225 {
        fill: #852824;
      }

      .cls-226 {
        fill: #181718;
      }

      .cls-227 {
        fill: #221c1e;
      }

      .cls-228 {
        fill: #ba6260;
      }

      .cls-229 {
        fill: #8b8284;
      }

      .cls-230 {
        fill: #414240;
      }

      .cls-231 {
        fill: #a92d29;
      }

      .cls-232 {
        fill: #b4b4b5;
      }

      .cls-233 {
        fill: #c8463e;
      }

      .cls-234 {
        fill: #2d2d2e;
      }

      .cls-235 {
        fill: #a72c29;
      }

      .cls-236 {
        fill: #322527;
      }

      .cls-237 {
        fill: #a3403b;
      }

      .cls-238 {
        fill: #a7a6a7;
      }

      .cls-239 {
        fill: #828183;
      }

      .cls-240 {
        fill: #afaeae;
      }

      .cls-241 {
        fill: #c7c9c9;
      }

      .cls-242 {
        fill: #672220;
      }

      .cls-243 {
        fill: #353a40;
      }

      .cls-244 {
        fill: #b53a35;
      }

      .cls-245 {
        fill: #932424;
      }

      .cls-246 {
        fill: #70757b;
      }

      .cls-247 {
        fill: #a5302b;
      }

      .cls-248 {
        fill: #642420;
      }

      .cls-249 {
        fill: #c97373;
      }

      .cls-250 {
        fill: #554e53;
      }

      .cls-251 {
        fill: #737373;
      }

      .cls-252 {
        fill: #d1897e;
      }

      .cls-253 {
        fill: #2b2a29;
      }

      .cls-254 {
        fill: #8c8e90;
      }

      .cls-255 {
        fill: #2e2f2f;
      }

      .cls-256 {
        fill: #a52827;
      }

      .cls-257 {
        fill: #902523;
      }

      .cls-258 {
        fill: #b3302e;
      }

      .cls-259 {
        fill: #818089;
      }

      .cls-260 {
        fill: #d85a55;
      }

      .cls-261 {
        fill: #cecccc;
      }

      .cls-262 {
        fill: #241e20;
      }

      .cls-263 {
        fill: #7d1d23;
      }

      .cls-264 {
        fill: #411718;
      }

      .cls-265 {
        fill: #13171a;
      }

      .cls-266 {
        fill: #d4dce7;
      }

      .cls-267 {
        fill: #2a1d19;
      }

      .cls-268 {
        fill: #ad6526;
      }

      .cls-269 {
        fill: #331d24;
      }

      .cls-270 {
        fill: #aba7a9;
      }

      .cls-271 {
        fill: #adaead;
      }

      .cls-272 {
        fill: #393937;
      }

      .cls-273 {
        fill: #cc524e;
      }

      .cls-274 {
        fill: #ae98b0;
      }

      .cls-275 {
        fill: #745c4b;
      }

      .cls-276 {
        fill: #853631;
      }

      .cls-277 {
        fill: #ac2b29;
      }

      .cls-278 {
        fill: #888;
      }

      .cls-279 {
        fill: #7e888a;
      }

      .cls-280 {
        fill: #b03729;
      }

      .cls-281 {
        fill: #933f23;
      }

      .cls-282 {
        fill: #c8443f;
      }

      .cls-283 {
        fill: #995e69;
      }

      .cls-284 {
        fill: #ab6c75;
      }

      .cls-285 {
        fill: #c4c3c3;
      }

      .cls-286 {
        fill: #222;
      }

      .cls-287 {
        fill: #ad2c2a;
      }

      .cls-288 {
        fill: #b7332f;
      }

      .cls-289 {
        fill: #a13f40;
      }

      .cls-290 {
        fill: #646061;
      }

      .cls-291 {
        fill: #65666a;
      }

      .cls-292 {
        fill: #6e6f73;
      }

      .cls-293 {
        fill: #3d2b29;
      }

      .cls-294 {
        fill: #729db0;
      }

      .cls-295 {
        fill: #e8e8e8;
      }

      .cls-296 {
        fill: #752e2e;
      }

      .cls-297 {
        fill: #b45657;
      }

      .cls-298 {
        fill: #bb3531;
      }

      .cls-299 {
        fill: #d6dbda;
      }

      .cls-300 {
        fill: #bc3534;
      }

      .cls-301 {
        fill: #743836;
      }

      .cls-302 {
        fill: #23252a;
      }

      .cls-303 {
        fill: #9c2728;
      }
    </style>
    <linearGradient id="_未命名的渐变_7" data-name="未命名的渐变 7" x1="699.25" y1="664.27" x2="699.42" y2="702.27" gradientTransform="translate(-624 -464)" gradientUnits="userSpaceOnUse">
      <stop offset="0" stop-color="#4f555c"/>
      <stop offset="1" stop-color="#24292e"/>
    </linearGradient>
  </defs>
  <g id="_图层_1-2" data-name="图层 1">
    <path class="cls-272" d="M64.23,297c.87.28.86.62,0,1-13.73.32-21.63.07-35-1,4.51-.08,9.06.1,13.58.04,1.32-.02,2.28-1.04,2.42-1.04.19-.89.52-.86,1,0,.13-.46.28-.89.55-1.25.54-.72,14.39.64,17.45,2.25Z"/>
    <path class="cls-110" d="M98.23,297c8.32-1.04,16.65-1.04,25,0,.87.28.86.62,0,1-16.83.15-33.59,1.2-50.51,1.02-1.69-.02-4.45.64-5.49-1.02,7-.17,14.42-.81,21-1l2.86-2.01c1.7,1.36,4.08,2.03,7.14,2.01Z"/>
    <path class="cls-119" d="M142.23,202c-.58-.19-1.46-.66-2-1-1.38,1.31-2,.71-1-1-.28-1.13-.17-2.56,1-3v-1l1-5c-.86-.33-.86-.67,0-1-.52-1.56-1.08-3.64,0-5h1v17Z"/>
    <path class="cls-88" d="M11.23,6c1.61.34,2.14,1.29,1.88,2.76,1.88-.32,2.92.1,3.12,2.24,36.82.8,73.82,1.13,111,1l.07,1.36c3.11-.26,5.75.29,7.93,1.64.87.28.86.62,0,1-37.23,1.08-77.94,1.02-116,0-1.22.82-3.7.69-5,0-.7,1.02-2.06,1.89-3,1-.08,34.39-.41,69.39-1,105,.79,12.63.83,25.36,0,38,.81,11.88,1.1,24.14,0,36-1.66-1.04-1-3.79-1.02-5.49-.76-61.38-.22-123.44,1.02-184.51.28-.87.62-.86,1,0Z"/>
    <path class="cls-257" d="M142.23,120c-.41,3.3-.7,6.64-.86,10.02l-1.14-.02c-.56,0-.99-.03-1-.08-.33-14.79-.32-29.95,0-44.75.01-.54.49-.91,1-1.17-1.48-10.32-1.47-20.68,0-31,.87-4.94.85-10.06,0-15-1.46-2.64-1.44-5.36,0-8,.44-1.72.77-2.69,2-1-.28,30.31,0,60.69,0,91Z"/>
    <path class="cls-223" d="M142.23,154c-.4,2.73-.73,5.4-1,8-.28.87-.62.86-1,0-1.51-10.07-1.95-22.02,0-32,0-.13.92-1.14,1.05-2.41.25-2.44-1.01-6,.95-7.59v34Z"/>
    <path class="cls-96" d="M142.23,5c1.21,2.63,1.03,4.26,1,7-1.15,1.78-1.48.79-2-1-1.33,1.42-5.23.88-7,0-2.13-1.52-1.57-2.24,1-2,1.52-.99,1.52-1.32,0-1-5.77,4.31-5.78-6.57,1-7,.32.09.75-.12,1,0,1.63,1.15,3.29,2.49,5,4Z"/>
    <path class="cls-72" d="M11.23,169c.73,10.07.91,21.86,0,32-.28.87-.62.86-1,0,.26-1.4-.08-3.42,0-5,.58-11.71-.07-24.18,0-36,.28-.87.62-.86,1,0,.71,3,.74,6.02,0,9Z"/>
    <path class="cls-263" d="M142.23,185c-.28.87-.62.86-1,0-.8-7.79-.8-15.45,0-23,.02-2.5-.78-6.34,1-8v31Z"/>
    <path class="cls-93" d="M139.23,17c.29-2.1,4.73-4.11,3,1-.11,3.65.03,7.35,0,11l-2,1c-1.77-2.95-1.13-6.8,0-10-1.36-.1-1.16-1.79-1-3Z"/>
    <path class="cls-292" d="M143.23,12c-.03,2.58-.97,5.02-1,6,.53-4.1-2.32-1.01-3-1-.18.9-.52.87-1,0-1.64.44-2.64.1-3-1v-1l1.2-1.34c2.31.48,3.91.26,4.8-.66-1.9-.56-1.91-1.43,0-2,.53.05,1.37.81,2,1Z"/>
    <path class="cls-40" d="M15.23,1c2.09,2.19-1.35,6.28-4,5h-1c.37-2.74,2.8-4.6,5-6v1Z"/>
    <path class="cls-189" d="M142.23,5c-2.59.53-4.25-3.63-5-4V0c1.31.31,4.38,3.66,5,5Z"/>
    <path class="cls-141" d="M12.23,48c.89.19.86.52,0,1-.86,4.6-.87,9.39,0,14,1.48,5.31,1.48,10.69,0,16,.58.3.57.63,0,1-.75,1.57-.86,3.44,0,5,.28-.87.62-.86,1,0,.87.28.86.62,0,1-.28.87-.62.86-1,0-.87,2.92-.88,6.08,0,9,.81,6.3,1.28,12.75,0,19-.4,2.73-.73,5.4-1,8-.28.87-.62.86-1,0,.08-34.19-.01-68.4-.06-102.61-.2-1.32.36-1.63,1.06-2.39l.99,1.14c-1.26,9.86-.82,19.96.01,29.86Z"/>
    <path class="cls-127" d="M19.23,16c4.83-.13,15.68.97,19.35.02,1.03-.27.23-1.83,1.16-2.03,2.39-.5.54,1.79,2.92,2.1,6.32.82,65.49,1.49,68.37-.36.48-.31-.22-1.54.72-1.74,2.25-.48,1.16,1.36,1.7,1.74,1.2.84,18.29.17,21.79.27,1.69.05,2.83.99,3,1-.51,2.11-1.18,2.44-2,1-.81,2.46-2.87,1.4-3-1-1.1,2.81-1.7,2.6-3,0-1.32.48-2.65.91-4,1.21s-2.68.56-4.02.56c-31.66-.07-63.31-.1-94.96-.04-1.33,0-2.67-.25-4.01-.54s-2.68-.72-4-1.19c-.87-.28-.86-.62,0-1Z"/>
    <path class="cls-89" d="M141.23,13c-.07.65.07,1.34,0,2-2,.06-4.01-.05-6.01,0-6.31.16-12.68-.11-18.99-.01l10.99-2.99c4.73.11,9.34.06,14,1Z"/>
    <path class="cls-144" d="M11.23,132c.73,9.33.74,18.68,0,28h-1c.07-12.65-.03-25.35,0-38h1c.76,3.28.77,6.72,0,10Z"/>
    <path class="cls-160" d="M14.23,16c.87.28.86.62,0,1-.08.73-.42,1.06-1,1-.17,9.19-.17,18.51,0,27.96l-1,1.04v1c-2.29-9.86-.38-20.86-1-31,1.22-1.33,1.54-.84,3-1Z"/>
    <path class="cls-25" d="M19.23,16v1c-.24,2.01-1.23,1.92-2,0-1.36,2.59-1.68,2.68-3,0v-1c1.56-.17,3.37.05,5,0Z"/>
    <path class="cls-14" d="M140.23,130c-.67,10.38.32,21.49,0,32,.89.78.47,3.09-1,3-.28.87-.62.86-1,0-.98-.82-.98-2.82,0-6-1.18-24.62-1.18-49.28,0-74,.13-.65.24-1.08,1-1,.28-.87.62-.86,1,0v46Z"/>
    <path class="cls-229" d="M140.23,30c0,2.66,0,5.34,0,8,.84,4.99.85,10.02,0,15,0,10.32,0,20.68,0,31h-1c-.71-.8-1.04-2.14-1-4-.47-.25-.43-.59,0-1-1.05-11.95-1.05-23.95,0-36-2.98-6.16-2.87-13.81,0-20,.22-2.32.89-3.32,2-3,.11,3.31-.01,6.68,0,10Z"/>
    <path class="cls-93" d="M140.23,53c0-4.99,0-10.01,0-15,1.69,3.91,1.67,11.3,0,15Z"/>
    <path class="cls-303" d="M141.23,185c-.05,1.65.13,3.36,0,5-2.98,1.75-1.59-4.98-1-7-.26-5.91-.59-11.91-1-18,.02-.57.96-1.85,1-3h1c-.06,7.64.25,15.37,0,23Z"/>
    <path class="cls-36" d="M135.23,8l.56-.96c1.55-.41,3.05.32,3.44,1.95h-4c.02-.3.06-.94,0-.99Z"/>
    <path class="cls-77" d="M12.23,157c1.52,1.86,1.56,6.87,0,9,1.47.69,1.48,2.31,0,3-.28.87-.62.86-1,0,0-2.99,0-6.01,0-9,0-9.32-.02-18.68,0-28,.28-.87.62-.86,1,0,.58.14,1.03.29,1.04.46.42,7.96.09,16.68-1.04,24.54Z"/>
    <path class="cls-29" d="M140.23,20l-2,3c-1.18-1.95-1.66-4.29,0-6,.33.02.67,0,1,0,1.3.48.96,1.9,1,3Z"/>
    <path class="cls-45" d="M137.23,0c.57.3.56.63,0,1-.31.85-.64.85-1,0l-1.22,1.59c-39.49.5-79,.64-118.55.41l-1.22-2c-.55-.3-.54-.63,0-1h122Z"/>
    <path class="cls-54" d="M136.23,1c-2.8,2.64,3.02,1.72.99,4-.25.28-5.55-3.57-4.01,2.36.28,1.09,1.87.5,2.02.64.92.25.9.58,0,1-.04.64-.7,1.39-1,2-39.36,1.24-78.69,1.24-118,0-3.53-.79-5.58.93-5-5L15.23,1h121Z"/>
    <path class="cls-254" d="M134.23,11c2.27.03,4.81-.22,7,0-.04.66.07,1.34,0,2-3.76,1.06-11,1.55-14-1-34.82-.78-73.5,2.63-107.62.07-1.93-.14-2.53-.88-3.38-1.07,39.31.37,78.7-.5,118,0Z"/>
    <rect class="cls-70" x="14.23" y="7.01" width="2.99" height="1.99"/>
    <path class="cls-259" d="M14.23,121c3.16,9.55,2.97,20.38,0,30-.12,2.91-.78,4.91-2,6v-25c-.73-5.99-.82-12.02,0-18,0-6.32-.03-12.68,0-19-.62-2.25-1.18-4.85,0-7,1.28-1.05,1.45.63,1.55,2l.45,31Z"/>
    <path class="cls-146" d="M14.23,49c1.38,4.49,1.38,8.49,0,12,.68,6.33.97,12.69,0,19-1.1,2.16-1.5.94-2-1,0-5.32,0-10.68,0-16-.86-4.64-.86-9.36,0-14,0-.33,0-.67,0-1s0-.67,0-1c.72-1.52,1.38-.85,2,2Z"/>
    <path class="cls-115" d="M14.23,89c.77,10.66.63,21.34,0,32-.2-8.77-.87-18.31-.98-27.51-.02-1.69.64-4.45-1.02-5.49-.5-.47-.5-1.13,0-2h1c1.78-1.46,1.86,1.51,1,3Z"/>
    <path class="cls-114" d="M15.23,70c2.94,1.04,4.02,9.54,1,11,3.13.79,1.82,7.35-1,8-.28.87-.62.86-1,0,0-1.73-1-2.84-1-3v-1c-.59-1.41-.48-4.31,1-5,0-6.32,0-12.68,0-19,.28-.87.62-.86,1,0,.78,2.99.82,6.03,0,9Z"/>
    <path class="cls-160" d="M12.23,132h-1c0-3.33-.03-6.68,0-10,.02-2.5-.78-6.34,1-8,0,5.99,0,12.01,0,18Z"/>
    <path class="cls-160" d="M12.23,63c-1.67-3.35-1.7-10.44,0-14-.03,4.65,0,9.35,0,14Z"/>
    <path class="cls-294" d="M14.23,80c0,2.3-1,4.63-1,5h-1c-.9-1.49-.78-3.48,0-5v-1l2,1Z"/>
    <path class="cls-160" d="M12.23,88c-.09,2.32.01,4.67,0,7-1.68-1.86-1.68-7.14,0-9-.02.67.02,1.33,0,2Z"/>
    <path class="cls-160" d="M12.23,85c-1.69-.52-1.51-4.36,0-5v5Z"/>
    <path class="cls-277" d="M133.23,17c1.21,1.18,2.5,2.44,3,4,.68-1.32,1.34-.65,2,2,.12,6.65-.02,13.35,0,20l-.97,25.41-1.03.59c-.89-.18-.86-.52,0-1-2-5.61-2.81-11.84-2.43-18.67-4.97,1.69-9.04-.31-13.18-3.02l-11.48,3.93c-11.07,9.9-21.82,14.87-36.01,18.1-5.82,7-11.68,12.6-21.2,8.98-3.03,5.77-7.22,8.04-12.55,6.8-5.68,4.14-8.85,2.45-14.29-.92-3.09,2.75-7.66,1.41-8.87-2.2,0-2.71-.99-7.2-1-11,.74-2.88.95-6.35,0-9h-1c0-3.99.02-8.01,0-12-1.47-2.64-1.49-5.37,0-8,3.63-.23,3.65,2.93,3.48,6,.61,2.44,2.85,5.38,5.68,8.06.45,2.71,2,9.58,5.75,9.06,2.17-4.32,9.64-11.8,13.79-6.77,2.18-3.37,5.74-5.49,10.67-6.36,17.4-14.22,38.53-21.13,60.3-25.38,5.47-3.3,10.92-6.17,16.33-8.61,1,.03,2-.04,3,0Z"/>
    <path class="cls-287" d="M17.23,17c.89,3.05,1.56,3.05,2,0,35.49-1.31,75.46-1.1,111,0,2.07,5.27-.24,1.73-2.02,2.6-3.64,1.77-10.84,7.18-13.97,7.99-3.4.88-5.5.9-9.81,2.12-11.47,3.26-23.04,6.27-33.9,12.1-6.1,3.27-10.4,7.9-16.01,10.95-4.53,2.46-10.39,1.24-9.3,7.25-2.4,1.25-4.99-2.98-5.5-2.98-.39,0-6.09,4.04-6.53,4.44-1.13,1.05-3.63,6.52-4.47,6.51-1-2.56-4.89-4.3-5.77-6.21-.84-1.81-.34-3.98-1.29-5.75-1.02-1.88-6.31-3.89-4.44-9.02l-1.98,6.99c-.63-4.38,2.13-9.14-1.01-13-1.77-5-1.79-14.03,0-19-.75-1.81-.75-3.47,0-5,.74-.2,2.06.07,3,0Z"/>
    <path class="cls-182" d="M136.23,18c1.59-.11,1.44,2.63,0,3-1.67-.85-3.82,2.09-3-4,1.1.05,2.42.98,3,1Z"/>
    <path class="cls-93" d="M138.23,23c-.95.02-1.22-1.61-2-2v-3c.38.01,1.74-1.44,2-1,.03,1.99-.04,4.01,0,6Z"/>
    <path class="cls-178" d="M14.23,22c.63,5.66-.05,13.06,0,19,.02,2.66-.01,5.34,0,8l-2-2c.06-8.13-.95-18.93-.06-26.61.17-1.5.27-1.4,1.06-2.39l1,4Z"/>
    <path class="cls-274" d="M14.23,22c-.07-.59-1.79-2.43-1-4,.29-.37.48-.86,1-1v5Z"/>
    <path class="cls-112" d="M19.23,17c3.05,6.89-5.31,6.33-2,0,.66-.05,1.34.02,2,0Z"/>
    <path class="cls-166" d="M138.23,80c.47,1.72.47,3.39,0,5,.03,24.65,0,49.35,0,74-.01,2.95-.68,4.95-2,6-.49-.29-.46-.62,0-1-1.75-2.93-3.69-4.58-5.81-4.93-.42-8.98-1.53-17.77-3.32-26.39l-2.2-2.22c-25.56-.72-51.11-1.21-76.67-1.47-3.53,1.7-9.37,1.51-13,0-.37-.98-.4-1.95-.07-2.94.84-2.5,10.46-7.71,13.31-9.24,7.06-3.77,19.96-9.27,27.64-7.95,3.95-3.36,7.72-4.2,12.84-3.95,2.36-3.85,3.83-4.8,8.33-3.19,3.09-3.31,7.53-4.21,13.32-2.7,9.36-3.42,16.8-2.09,25.63.96l.54,1.24c-.15-7.1,0-14.18.46-21.24.1-.69.19-1.12,1-1,0,.33,0,.67,0,1Z"/>
    <path class="cls-82" d="M139.23,84l-1,1c0-1.67,0-3.33,0-5l1,4Z"/>
    <path class="cls-154" d="M138.23,79l-1,1c-3.01-1.14-4.16-9.78-1-11l2-26c.04,11.98-.02,24.02,0,36Z"/>
    <path class="cls-179" d="M136.23,100c-4.05,2.92-7.26-.49-10.55-.94-6.97-.95-9.57,1.38-14.91,1.98-2.79.31-6.95-.92-8.67-.52-1.88.43-3.18,3.02-4.48,3.26s-3.21-1.11-4.72-.85c-1.06.18-1.07,3.23-3.35,3.9-1.94.57-4.41-.08-6.6.4-2.55.56-4.93,3.29-6.45,3.59-1.72.33-3.45-1.04-5.54-.67-.59.1-9.25,3.49-10.97,4.12-9.07,3.34-18.53,7.2-24.76,14.74-2.3,1.18-4.96,1.51-8,1-3.84,4.97-3.96,11.22-3.98,17.21l-1.02.79c.6.98.84,2.17,0,3-1.63-.48-.32-3.84-1.57-4.06-6.65-1.17-4.55.53-6.43,5.06,0-.33,0-.67,0-1-.1-9.98.23-20.03,0-30,0-10.65,0-21.35,0-32h1c.72,5.25.92,10.73,0,16l1.9,3.35c-1.56,1.49-2.12,3.92-.9,5.65l2.18-.93,6.54,4.98c-.06-4.66,3.08-6.06,9.41-4.21,3.56-1.17,10.33-5.36,13.58-7.95,5.23-8.32,11.03-10.49,20.66-9.21,9.99-3.06,20.03-5.86,30.11-8.41l3.4,1.29,13.12-6.12c5.57-1.21,11.54-1.28,17.93-.19.15-1.35.89-2.95,2.46-2.68,2.13.36,1.27,16.19.6,19.42Z"/>
    <path class="cls-154" d="M16.23,81c2.04-.63,3.93,1.97,5.34,1.83,1.28-.13,2.37-1.87,3.97-1.62s5.18,3.37,7.37,3.55c2.07.17,4.03-2.17,6.09-2.59s4.41.79,5.98.12c2.33-1,4.03-5.91,6.29-6.83,1.93-.78,3.77,1.13,6.1,1.03,9.8-.45,11.05-7.95,14.83-9.91,3.39-1.75,13.55-3.66,17.75-5.37,7.71-3.15,13.25-10.61,19.6-13.4,1.16-.51,10.62-3.46,11.2-3.46,1.66.02,4.92,3.58,8.98,3.65.89.02,5.07-.85,5.35-1.2.68-.88-.72-3.12,1.15-2.8.17,7.98-.2,16.02.01,23.99l-1.76,1.48c-5.92-.11-11.95,1.71-18.11,5.45-4.09-.53-6.9.59-8.42,3.35l-4.21,2.25c-9.07-.6-17.81,1.6-26.23,6.59l-2.27-1.12-9.08,2.53c-2.65,3.94-7.37,5.11-14.14,3.52-5.54,3.61-11.43,5.12-17.66,4.54-4.58,3.25-7.44,3.08-8.6-.5-2.45,1.09-4.95,1.13-7.51.1,1.04,6,.04,8.94-3.01,8.8.05-5.32-.06-10.68,0-16,.04-2.98,1-5.51,1-8Z"/>
    <path class="cls-287" d="M15.23,70c0-2.99,0-6.01,0-9l.99-1c-.43,3.08,1.16,7.49-.99,10Z"/>
    <path class="cls-256" d="M136.23,68c0,.33,0,.67,0,1,.1,3.73.95,8.3,1,11,.34,16.97-.24,34.02-.01,50.99-1.75.23-.94-2.27-.99-3.48-.37-9.12.05-18.39,0-27.51-.03-5.12.29-10.42,0-15.52-.06-1.13.66-2.74-.99-2.48.73,7-11.04,1.62-15.41,2.01-3.29.29-14.3,7-17.52,7.53-1.67.28-2.75-1.46-4.4-1.33-7.66.61-19.45,7.2-27.64,8.33-5.34.74-9.73-1.55-14.99,2-2.67,1.8-3.56,4.65-5.55,6.45-2.72,2.47-6.29,3.58-9.15,5.36-.76.47-1.06,2.21-2.55,2.91-3.6,1.7-10.23-.88-10.79-.27-.21.23.52,4.44-1.55,5-2.73.74-7.12-4.69-9.45-5.99-2.06-7.13,2.08-8.72,12.43-4.77,4.16.18,7.21-2.28,9.14-7.38,4.97-.79,7.23-2.74,6.79-5.86,4.51-3.77,10.34-4.99,17.48-3.68,4.15-3.2,7.77-5.66,13.15-6.32,4.84-2.4,15.76-7.17,20.77-7.82,2.82-.37,4.88,1.04,7.24.42,2.7-.72,6.26-3.46,5-6.6,10.33,5.66,16.88-8.64,28-4Z"/>
    <path class="cls-114" d="M75.23,86c-2.2,1.09-11.11,7.39-12.73,7.84-3.14.87-14.27-2.04-16.07,2.86-.46,1.25.06,3.25-.64,4.36-.77,1.2-4.17.7-6.13,1.87-2.3,1.37-2.87,5.48-4.46,6.54-6.85,4.55-11.06-.92-16.22-.26-3.71.48-2.62,1.93-2.75,4.79-.11,2.49.11,5.01,0,7.51-.05,1.21.76,3.72-.99,3.49.22-6.63-.34-13.37-.01-19.99,0-.13.95-1.13,1.04-2.42.26-3.83-.27-7.75-.03-11.58,1.86.52,2.94,3.4,4.72,3.86,4.12,1.08,5.35-4.07,7.77,3.11,4.63-5.75,10.44-2.62,14.63-3.5,1.93-.4,5.68-3.79,8.6-4.25,2.31-.36,7.32,1.32,9.55.63s2.12-3.42,3.96-4.19c2.95-1.22,6.65-.5,9.77-.66Z"/>
    <path class="cls-155" d="M12.23,186c1.35,3.14,1.35,5.81,0,8,.83,1.75,1.17,3.41,1,5-.43.41-.65,1.87-2,2v-32h1c1.55,5.37,1.58,11.63,0,17Z"/>
    <path class="cls-245" d="M14.23,152c-.34-9.41,7.83-10.9,8-1,.9,2.59.91,10.97-3,8-1.46,2.73-1.79,4.07-1,4,1.06.84,1.65,1.9,1.74,3.22.47,7.16.13,17.6-2.74,23.78h-1l-1.01-.23-.99-26.77c-1.82-3.47-1.06-7.35,0-11Z"/>
    <path class="cls-149" d="M16.23,190c.09,3.77.64,6.06-2,9-1.13-.43-1.37-1.73,0-2-1.46-3-1.46-5.33,0-7-1.43-7.81-1.78-17.52,0-25-1.5-.03-1.47-1.63,0-2l2,27Z"/>
    <path class="cls-184" d="M141.23,190c-.03.33.04.67,0,1l-1,5v1c-1.23-1.23-1.89-3.56-2-7-.6-.3-.59-.63,0-1,.34-2.08.68-4.08,1-6,.28-.87.62-.86,1,0,.02,2.19-.74,5.64,1,7Z"/>
    <path class="cls-303" d="M140.23,196c-.98-1.8.96-4.68,1-5-.06,1.6.62,4.15-1,5Z"/>
    <path class="cls-301" d="M138.23,165c.8,7.59.87,16.15,0,24-.16.18-1.89,1.12-1.99,1.01-.08-1,.04-2.01,0-3.01-.93-7.12-.6-14.85,0-22l2-6v6Z"/>
    <path class="cls-283" d="M139.23,183c-.12,2.36.73,4.06-1,6v-24h1c.61,5.95,1.18,12.18,0,18Z"/>
    <path class="cls-297" d="M140.23,183h-1c.31-5.96-.22-12.03,0-18,1.88,5.02.94,12.22,1,18Z"/>
    <path class="cls-8" d="M14.23,190c-1.14.21-1.8-1.12-2-4-.03-5.65-.11-11.36,0-17,.02-1-.03-2,0-3,.44-1.74.74-2.69,2-1v25Z"/>
    <path class="cls-148" d="M14.23,152c.03,3.66,0,7.34,0,11v2l-2,1c.08-2.93-.28-6.17,0-9,.09-.92,1.36-4.94,2-6v1Z"/>
    <path class="cls-284" d="M14.23,190v7l-2-3c-.08-2.66.01-5.34,0-8l2,4Z"/>
    <path class="cls-219" d="M20.23,160c-.59,1.04-1.43,1.95-2,3-.53.97-1.16,1.8-1.01,2.99h-.98c-.89-3.96,1.39-4.84,2.99-6.99.32.32.78.61,1,1Z"/>
    <path class="cls-183" d="M136.23,165c.65,6.97-.34,14.86,0,22h-1c-.86-1.72-.86-3.72,0-6,.02-2-.01-4,0-6,.02-2.98-.17-6.03,0-9-.95-2.71-.62-3.37,1-2,.05.32-.03.67,0,1Z"/>
    <path class="cls-234" d="M142.23,202c3.41,1.09,8.81.34,9.8,3.7.62,2.12.53,11.32.16,13.78-.34,2.28-1.43,2.46-1.95,3.52-.44,1.94-4.57,1.79-6,1-2.42,2.65-3.72,1.01-3-2l-1.02-.34-.98-17.66c-.89-.25-.86-.58,0-1-2.25-1.45-1.54-2.38,1-2,1.19-1.64,1.55-.72,2,1Z"/>
    <path class="cls-138" d="M9.23,203c.33.87.91,1.42,1.8,1.57-.02,4.25-.29,8.4-.8,12.43-1.99,2.74-6.74,4.45-8,0-.16.6-.49,1.93-1,4-1.68-3.67-1.65-13.01.19-16.31,1.99-3.57,4.71-1.62,7.81-1.69Z"/>
    <path class="cls-253" d="M1.23,226c3.03.26,6.03.6,9,1,1.99-.51,1.66,2.39,1,4,.89.26.88.6,0,1,.89.27.87.6,0,1-2.16-1.48-4.51.7-6.53.58-3.64-.22-5.75-4.38-3.47-7.58Z"/>
    <path class="cls-172" d="M151.23,226c1.81,2.54,1.41,6.64-2,7-1.6-.71-3.4-.76-5,0-.98-.04-2.07.13-3,0-1.48,1.32-2.03.72-1-1-.16-1.51.53-4.61,2-5,1.35-.78,3.11-.41,5.28,1.11,1.07-1.79,2.31-2.5,3.72-2.11Z"/>
    <path class="cls-255" d="M150.23,225c.55.12.72.6,1,1-2.42,5.88-4.87,4.71-9,1-1.78-2.23-.54-4,2-2,1.34-.66,5.28-1.37,6,0Z"/>
    <path class="cls-131" d="M2.23,217l2.69,2.62c3.37-1.73,5.14-1.6,5.31.38,1.01,1.68-.06,3.53-2,3-.97,1.03-3.54.62-5,0-.09,1.59-1.05,1.14-2,0-.1-.6.03-1.35,0-2-.2-4.3.13-8.69.01-12.99l.99,8.99Z"/>
    <path class="cls-293" d="M18.23,192c2.34,3.28,2,5.95-1,8,.87,2.06.25,2.26-2,2,.51,2.58.02,2.65-2,1-1.81,1.05-3.14,1.05-4,0,.25-.59.98-1.89,1-2h1c.44-1.66,1.11-2.33,2-2,.29-.89.62-.87,1,0,.58-3.23,1.24-6.23,2-9,.28-.87.62-.86,1,0,2.11-.64,2.59.44,1,2Z"/>
    <path class="cls-9" d="M8.23,225c1.95-1.46,3.08.07,2,2-2.26,2.37-7.61,1.87-9-1,.28-.4.45-.88,1-1,1.05-1.13,3.05-1.13,6,0Z"/>
    <path class="cls-191" d="M15.23,233c.87-1.54,1.54-1.21,2,1,1.34,1.75,1.34,2.75,0,3-.28.87-.62.86-1,0-1.3,1.51-1.56.8-2-1-.3.86-.63.85-1,0-.5.47-.83.14-1-1-.29-.34-.87-1.54-1-2-.09-.31.09-.69,0-1,1.8-2.98,3.32-2.15,4,1Z"/>
    <path class="cls-227" d="M141.23,233c-.39.57-.59,1.53-1,2-.24.27-.8.88-1,1-.28,2.48-1.33,2.65-3,1-.28.87-.62.86-1,0-.88-1.4-1.31-4.18,1-4,.07-1.75.74-1.75,2,0-.24-1.33-.19-1.79,1-1,.28-.87.62-.86,1,0,.36.21.78.97,1,1Z"/>
    <path class="cls-74" d="M13.23,259c.72,2.12.68,6.6-1,8-1.16-.11-1.5-1.78-1-5,.44-1.92.79-2.74,1-5,.06-.66-.04-1.34,0-2,.28-.87.62-.86,1,0,.74,1.22.77,2.79,0,4Z"/>
    <path class="cls-167" d="M13.23,236c.74,4.32.74,8.67,0,13-.28.87-.62.86-1,0,.03-4.65-.02-9.35,0-14,.1.12.94.96,1,1Z"/>
    <path class="cls-210" d="M3.23,223c1.72.37,3.39.7,5,1,.87.28.86.62,0,1-.8-.21-5.13-.19-6,0-.21-.65-.9-1.41-1-2h2Z"/>
    <path class="cls-164" d="M150.23,225c-.9-.2-5.11-.21-6,0-.87-.28-.86-.62,0-1,2,.24,4.23.04,6-1-.19.39.13,1.4,0,2Z"/>
    <path class="cls-47" d="M149.23,233c-1.5.16-3.44.06-5,0,.66-1.58,4.34-1.58,5,0Z"/>
    <path class="cls-218" d="M139.23,236v3c-.42,2.72-.75,5.38-1,8-1.56,2.7-6.77,4.39-6,0,1.31-3.2,2.64-6.53,4-10,.68-1.1,2.55-.73,3-1Z"/>
    <path class="cls-239" d="M15.23,279c.89.19.86.52,0,1,.77,3.59.77,7.26,0,11,2.64.18,2.43,1.07,0,2h-1c-.5-3.67-2.92-9.45-1-13-.98-1.43-.59-1.92,1-1,.24-.91.57-.89,1,0Z"/>
    <path class="cls-117" d="M14.23,263c.95.88,1.33,1.25,0,2,.87,1.52,1.69,3.04,0,4,3.1-.13,3.34,1.08,1,3-1,1.68-1.61.71-2-1,.04-.89-1.01-1.87-1-2,.03-.66-.02-1.34,0-2,.06-1.76.94-4.97,1-8,.28-.87.62-.86,1,0,2.53,1.47,2.52,2.53,0,4Z"/>
    <path class="cls-129" d="M15.23,272c1.39-1.33,1.95-.73,1,1,1.74,1.38,1.47,6.1-1,6-.35.04-.75-.09-1,0-1.47-.8-1.8-2.8-1-6,.02-.67-.03-1.34,0-2,.5.4,1.71.64,2,1Z"/>
    <path class="cls-153" d="M139.23,252c-.28.87-.62.86-1,0-1.95-1.61-1.96-3.4,0-5,.02-2.5-.78-6.34,1-8,0,4.31-.13,8.69,0,13Z"/>
    <path class="cls-56" d="M14.23,279c-.62.22-.72.48-1,1-2.85-1.76-.02-6.05,0-7l1,6Z"/>
    <path class="cls-87" d="M139.23,259h-1c-2.48-2.45-2.5-4.56,0-7h1c.07,2.32-.13,4.68,0,7Z"/>
    <path class="cls-262" d="M134.23,192c1.93-3.87,4.41-.12,2.1,3.33,1.1-.11,1.74,1.11,1.9,3.67,1.31-1.23,1.66-.67,1,1,.35.27.62.76,1,1,.09.77-.95,1.67-1,2-1.87,1.98-2.43,1.7-2-1-1.23.63-2.56-.04-4-2l1.59,30.94c.1,1.31-.47,2.31-1.59,3.06.52,1.65-.42,3.56-2,4-3.11-6.59-2.93-15.3,0-22-.53-4.3-.87-8.63-1-13-1.25-.36-2.31-.87-2.02-2.07-8.33,1.47-16.33,1.16-23.98-.93-22.28,1.27-44.68.65-67,0l-2.5,1.72c-4.73-1.26-9.23-1.5-13.5-.72-1.46-.96-1.49-2.07,0-3-1.94-.49-1.64-2.18,0-3,.18-2.37,1.38-2.33,2,0,3.84.7,7.69.91,11.56.64l.44,1.36c10.02-.81,20.02-.81,30,0,9.33-1.89,19.02-3.06,28.28-.5l21.16-.45c1.24-.18,2.1-1.19,2.55-3.05,1.39-1.88,7.29-2.62,8,0,2.35.45,5.03.24,6.72-1.75l2.28.75Z"/>
    <path class="cls-224" d="M139.23,203c-.05.32.02.67,0,1,.76,6.26.76,12.26,0,18,.74.66.72,1.37,0,2l-1.02.18-.98-8.18-1-10c-1.54-1.35-1.8-5.38,1-4,.53.42,1.4.62,2,1Z"/>
    <path class="cls-261" d="M144.23,224v1c-1.19.28-1.46,1.1-2,2-.66,1.09-.8,3.74-2,5h-1c-1.27-.08-1.3-1.59,0-2,.35-2.7.69-5.37,1-8,.26-.87.59-.85,1,0,.78.48.38,1.68,3,2Z"/>
    <path class="cls-252" d="M141.23,222c-.2-.13-.67.08-1,0-.28.87-.62.86-1,0,.08-5.9-.36-12.18,0-18l2,18Z"/>
    <path class="cls-3" d="M13.23,203c-.14.66-.26,1.09-1,1-.44,6.08-.78,12.08-1,18,.92.1.86.45,0,1-.1,2.98-1.12,3.32-3,1-.87-.26-.85-.59,0-1,.51-.82,1.53-.33,2-3-2.76-.49-2.57-1.99,0-3,.16-2.49.48-8.42.07-10.45-.21-1.07-2.27-.43-3.08-.55-.35-.28,1.67-2.21,2.01-2.99,1.02-.03,2.33-.97,3.48-1l.52,1Z"/>
    <path class="cls-59" d="M10.23,217c-.06.97.16,2.12,0,3-2.28-.71-5.01,2.17-5.48,1.99-1.55-.58-2.85-3.28-2.52-4.99,2.3,1.2,4.66,2.16,5.46-.96l2.54.96Z"/>
    <path class="cls-92" d="M16.23,202c.77,3.09.94,6.96,0,10-.06,6.23-.39,12.56-1,19,1.43-.07,1.36,1.49,0,2-1.33-.57-2.47-1.16-4-1-.09-.31.1-.71,0-1,.62-2.34.22-4.71-1.18-7.11l1.18-.89c-.02-.33.02-.67,0-1,.28-.87.62-.86,1,0,.41-2.74.74-5.4,1-8-.77-3.53-.83-7.48,0-11,.41-.29,1.61-.94,2-1h1Z"/>
    <path class="cls-97" d="M11.23,231c-.4-1.17-.01-2.42-1-4-.22-.34-1.86-1.96-2-2v-1c1.06-.06,2.08-.5,3-1,.11,1.52,2.84,5.85,0,8Z"/>
    <path class="cls-59" d="M8.23,223c-.13.2.08.67,0,1-1.56.08-4.21.51-5-1h5Z"/>
    <path class="cls-267" d="M21.23,194c.9.18.86.52,0,1,.03.81-.01,2.02,0,3-.13,1.09-.94,1.51-2,2-.28.87-.62.86-1,0-.25.88-.59.86-1,0l2.01-4.52c-4.19-1.25-.99-3.21-1.01-3.48l3,2Z"/>
    <path class="cls-209" d="M14.23,197v2c-.15.17-.83-.17-1,0-1.46-1.44-.95-3.25-1-5,.89-1.06,1.55-.06,2,3Z"/>
    <path class="cls-33" d="M17.23,205c-.38-.87-.72-1.87-1-3-.15-.07-.72-.04-1,0,.81-.3,1.6-1.77,2-2,.21-.12.67.08,1,0,1.62,1.52,1.75,6.16-1,5Z"/>
    <path class="cls-13" d="M140.23,197c.14.91.22,2.85-1,3-.37-.28-.65-.69-1-1-2.79-3-2.19-6.18,0-9,.81,1.6,1.74,5.29,2,7Z"/>
    <path class="cls-15" d="M16.23,237c1.14,4.63,3.23,8.29,6.29,10.96l-.29,1.04c-5,8.07-7.37,7.22-8-3-.87-2.91-.8-7.17,0-10,.66.35,1.34.65,2,1Z"/>
    <path class="cls-57" d="M18.23,240l2.33.71c2.08,5.24,6.57,7.61,12.1,7.35l1.57,1.95c2.05-.07,1.96,1.4,0,2-1.98,3.09-12.08.88-12-3-.08-.04-.46-.93-1.14-1.42-.71-.53-2.34-.34-2.69-.74-.33-.38-1.41-8.21-2.17-9.84h1c2.07-.62,2.22,1.8,1,3Z"/>
    <path class="cls-296" d="M17.23,223c1.12,4.17,1.12,7.83,0,11-.58-.37-1.35-.73-2-1,.11-.63-.16-1.48,0-2-.25-5.36.42-10.02,2-14,1.54,1.55,1.56,4.46,0,6Z"/>
    <path class="cls-49" d="M14.23,246c.4,1.2.4,2.2,0,3-.28.87-.62.86-1,0,0-4.32,0-8.68,0-13,.22.15.73-.14,1,0v10Z"/>
    <path class="cls-190" d="M19.23,236c.86-.42,1.16-.04,1,1,1.6,3.03,1.32,5.17-2,3-.27-.8-.92-2.44-1-3-.13-.94.07-2.02,0-3,.84-1.48,1.51-.81,2,2Z"/>
    <path class="cls-244" d="M136.23,223c.62,2.91,1.25,7.68,0,10-.1.79-.74,2.79-1,4,.63,1.33.31,3.26-1,4-4.99,4.11-3.32-1.9-.95-5.33l-.05-1.67c.28-8.27-.75-15.53-1.05-23.45-.08-2.08-.57-10,1.05-10.55,1.17.06,1.71.86,2.15,1.84l.85,21.16Z"/>
    <path class="cls-130" d="M132.23,247c1.13,3.23-2.82,4.69-5,3-.87-.28-.86-.62,0-1-.5-2.68,4.24-7.9,7-8,.45-1.12.73-2.76,1-4h1c-.13,3.72-1.8,7.11-4,10Z"/>
    <path class="cls-27" d="M137.23,226c.75,2.37,1.08,4.71,1,7-.53.15-1.37-.1-2,0,.37-3.04-.11-6.79,0-10-.62-2.47-.29-3.47,1-3,1,1.91,1.66,4.5,0,6Z"/>
    <path class="cls-201" d="M139.23,230c-.06.65.15,1.53,0,2-.24.75-.21.77-1,1-1.4-2.17-.94-4.61-1-7,.9-1.12,1.57.21,2,4Z"/>
    <path class="cls-206" d="M138.23,247c-.01,1.67,0,3.33,0,5,0,2.33.04,4.67,0,7-.02,1,.02,2,0,3l-1,2c-.5,1.87-4.81,2.17-5,1-5.96,1.16-7.45.19-4.46-2.9l-.54-1.1-1.22.63c-2.38-1.35-4.98-1.9-7.78-1.63-1.54-2.28-1.43-4.67,0-7-.87-.28-.86-.62,0-1,2.65-1.3,6.05-1.83,9-2,2.26-.76,4.31-2.91,5-3,.24-.03,1.13.91,1.7.76,1.78-.47,2.8-2.11,4.3-.76Z"/>
    <path class="cls-241" d="M110.23,280c6.89,1.04,13.89,1.04,21,0,.61-.51,1.61-.85,3-1,.61-2.13,1.37-2.19,2,0,1.11.19,1.24-.02,2,1,.37,4.92-.3,9.58-2,14-.05.33.07.68,0,1h-1c-.83.74-1.49,1.15-2,0-1.97,0-4.87-.71-5.5-2.54-6.09-.57-2.55-2.1,1.5-2.46-1.6-1.37-1.36-3.77,1-4-.76-.96-2.43-1.29-5-1-.27.88-.61.87-1,0-2.21,2.94-7.51,5.06-10,2-1.63.3-1.53-.64-1-2-2.51,3.26-11.23,2.57-6-1-2.78-1.58.02-6.86,3-5,.87.28.86.62,0,1Z"/>
    <path class="cls-107" d="M31.23,281c.13,1.98-1.44,2.94-4.69,2.87l-.31,1.13c.02,2.92-2.34,2.71-3,0-.89,1.53-.88,3.46,0,5,1.42-2.36,2.35-1.62,2,1,1.43-2.47,2.43-2.47,3,0,.28,2.2-.96,3.41-3.73,3.63l-1.27,1.37c-1.54,1.43-4.39.8-5-1-1.43-.42-2.15-.17-3-2,.11-.62-.16-1.49,0-2l.49-10.34c5.32-.46,10.49-.35,15.51.34Z"/>
    <path class="cls-278" d="M23.23,296c2.24-2.57,6.75-2.61,9.31-.78l6.69.78c-.38-2.98,5.44-2.87,6,0,1,.95.4,1.43-1.8,1.45l-14.2-.45-.42,1.3c-2.52-.51-5.05-.61-7.58-.3-.78-.11-1.95-1.07-3-1-.06-.66.04-1.34,0-2,2.05.6,2.71.85,5,1Z"/>
    <path class="cls-58" d="M136.23,294c.74-4.84.67-9.88,2-14,1.35,1.82,1.19,12.55-2,14Z"/>
    <path class="cls-221" d="M136.23,276c-1-.48-.56-1.97,0-3-.87-.25-.85-.58,0-1-.53-1.64.03-4.47,1-6-1.93-.14-1.67-1.03,0-2,.05-.85.04-1.72,1-2-.11,4.6,1.05,10.22-2,14Z"/>
    <path class="cls-147" d="M136.23,276v3c-.61-.1-1.35.05-2,0-.86-.3-.85-.63,0-1-1.89-1.99-1.74-2.61,1-3-2.07-.95-.94-2.49,1-2-.11.95,0,2.03,0,3Z"/>
    <path class="cls-69" d="M23.23,280c5.99-.83,12.02-.87,18,0,.39-2.72,1-2.46,2,0,.87.28.86.62,0,1-1.19,2.57-10.66,2.7-12,0h-15.01c.32,3.93.13,6.4-.99,10,.13-3.65-.18-7.36,0-11,2.05-.98,5.8-.78,8,0Z"/>
    <path class="cls-107" d="M23.23,279c.87.28.86.62,0,1h-8c.02-.33,0-.67,0-1l1.16-2.1c1.9,1.05,4.18,1.75,6.84,2.1Z"/>
    <path class="cls-268" d="M20.23,267c.74.29.72.62,0,1,.89.19.85.52,0,1,.51,1,.87,2.19,0,3,.43,2.35-.23,2.69-2,1-.78,1.79-1.45,1.79-2,0-.02-.07-.51-.39-1-1,.09-1.06-.89-2.23-1-3,.36-.95,1.02-1.61,2-2-1.22-2.68,3.49-2.14,4,0Z"/>
    <path class="cls-126" d="M16.23,267c-.29.34.74,2.72-2,2-.17-1.23.05-2.7,0-4l2,2Z"/>
    <path class="cls-203" d="M18.23,273c1.4,1.77,3.07,3.44,5,5,.85.24.82.57,0,1-2.55.04-5.58-.3-8,0,.04-1.7,1.46-3.95,1-6,.62-1.02,1.68.06,2,0Z"/>
    <path class="cls-187" d="M133.23,234c0,.09.86.55.78,1.32-.24,2.08-4.36,6.17.22,5.68-1.03,2.55-4.48,6.95-7,8-2.19,1.65-6.34,2.36-9,2-.26.72-.59.7-1,0-.74.07-1.07-.27-1-1-3.17-1.86-5.56-3.98-7.16-6.38,6.11.11,12.16-.09,18.16-.62,3.08-1.48,2.77-2.79,4-5,.73-1.31,1.65-2.49,2-4Z"/>
    <path class="cls-64" d="M137.23,202c-1.5.69-.97,2.68-1,4l1,10c.37,1.37.37,2.7,0,4-1.3.48-.96,1.9-1,3-2.31-7.55.29-15.6-3-23,2.53-.86,3.06,1.26,4,2Z"/>
    <path class="cls-171" d="M136.23,187c.75,1.64,1.42,2.31,2,2v10c-.55-.48-.98-1.82-1.1-1.86-.59-.2-3.94,2.44-3.61-1.67.1-1.24,3.05-2.18,2.73-3.96.05-1.1-1.65.23-2.01.49-.09-.64.14-1.44,0-2,.13-1.28.46-2.28,1-3,.28-.87.62-.86,1,0Z"/>
    <path class="cls-111" d="M65.23,196v1c-9.84-.07-20.27.52-30,0-.87-.28-.86-.62,0-1,6.15-2.43,15.13-3.36,21-1,1.93-1.53,7.33-.88,9,1Z"/>
    <path class="cls-248" d="M35.23,196v1c-3.5-.19-8.96-.98-12-2,1.33,0,2.67.02,4,0,1.99-1.17,4.65-1.5,8-1,2.03.23,1.94,1.23,0,2Z"/>
    <path class="cls-39" d="M21.23,198c.02,1-.01,2,0,3,0,.67,0,1.33,0,2-.28.87-.62.86-1,0-1.26-.34-1.52-1.92-1-3-.34-1.6.36-2.42,2-2Z"/>
    <path class="cls-237" d="M139.23,224c.78,1.62.88,4.32,0,6-1.72,0-.47-3.39-2-4-.05-2,.02-4,0-6-.01-1.33,0-2.67,0-4l2,8Z"/>
    <path class="cls-80" d="M137.23,216c-1.75-2.42-1.08-6.83-1-10,1.83,2.3.98,6.86,1,10Z"/>
    <path class="cls-42" d="M139.23,230c.18-1.94-.04-4.03,0-6,.01-.67,0-1.33,0-2h1v7.5c-.14.54-.56.5-1,.5Z"/>
    <path class="cls-55" d="M12.23,214c1.01,2.13.74,5.54,0,8h-1c-.23-4.07-.71-15.16,1-18,.84,2.81.85,7.11,0,10Z"/>
    <path class="cls-249" d="M13.23,214c-.28.87-.62.86-1,0v-10c.22-.36.65-.75,1-1-.06,3.65.09,7.35,0,11Z"/>
    <path class="cls-85" d="M17.23,217c-1.97,4.57-.37,8.68-2,14-.74-6.42.56-12.81,1-19,.28-.87.62-.86,1,0,1.67,1.33,1.58,3.59,0,5Z"/>
    <path class="cls-269" d="M17.23,205c2.3.71,2.24,5.18,0,6,.9.18.86.52,0,1h-1c.23-3.3-.16-6.69,0-10,1.54.73.88,1.57,1,3Z"/>
    <path class="cls-228" d="M12.23,222v-8h1c-.06,2.48.84,6.49-1,8Z"/>
    <path class="cls-280" d="M20.23,203c.78,1.56.76,3.43,0,5,.79,3.28.91,6.74,0,10-.28.87-.62.86-1,0l-1-.28c.43-3.07.09-5.31-1-6.72-.06-1.98.17-4.03,0-6,1.62-.85.94-3.4,1-5h1c.05.22.95.84,1,3Z"/>
    <path class="cls-123" d="M27.23,244l15.18-.7c1.65,1.68-2.22,4.34-4.18,3.7-1.16,2.88-2.49,3.88-4,3-8.25.49-13.37-2.18-16-10,1.43-.43,1.99-1.54,2-3,2.34,2.37,2.94,6.26,7,7Z"/>
    <path class="cls-264" d="M39.23,248c.86,1.72-.45,2.71-2,3,1.47,1.2.84,1.58-1,1-.65-.06-1.37.09-2,0,.13-.57-.2-1.72,0-2,.44-.64,3.08-2.22,4-3,1.45-.99,1.95-.58,1,1Z"/>
    <path class="cls-190" d="M17.23,211c3.22-.94,1.92,4.07,2,7,.87,4.52.94,9.5,0,14-1.28-2.22-1.95-5.22-2-9-.05-2,.02-4,0-6-.02-1.67.04-3.34,0-5,0-.33,0-.67,0-1Z"/>
    <path class="cls-22" d="M19.23,232c.97.7.69,2.9,0,4-.61-.63-1.32-1.57-2-2-.27-3.59.09-7.37,0-11,1.13,2.69,1.46,6.09,2,9Z"/>
    <path class="cls-212" d="M127.23,249v1c-2.92.98-5.99,1.4-9,2-.87-.28-.86-.62,0-1,2.12-.33,7.28-1.28,9-2Z"/>
    <path class="cls-206" d="M118.23,252v1c-.63,2.28-1.3,4.28-2,6-8.88,2.96-18.29,3.68-28.23,2.17l-9.31,2.75c-14.39.04-28.54-1.6-42.46-4.92-1.11-.94-1.44-2.61-1-5,.28-.37.5-.87,1-1,.72-1.3,1.49-1.4,2,0l12.43.95.57,1.05c15.57-.02,30.9-.35,46-1,4.23-.62,8.56-.95,13-1,1.97-1.29,5.65-1.48,8-1Z"/>
    <path class="cls-133" d="M127.23,261c.84,3.66-1.21,4.39-5,4-3.59,2.52-7.67,1.42-5-4-.8-1.33-.36-1.84,1-1,2.69-3.57,6.51-1.99,9,1Z"/>
    <path class="cls-157" d="M127.23,261c.72-.79,2.36-.95,2.85-2.7.74-2.68-2.02-5.99.14-7.29,3.29,7.09,1.35,8.04-2.98,13.5l4.99.49-.16,1.4c-1.91-.3-3.86-.1-5.84.6-.78,1.06-1.49,1.25-2,0l-2-2c4.35-.83,3.76-2.63,5-4Z"/>
    <path class="cls-20" d="M137.23,266c-.28.87-.62.86-1,0-.26,1.53-1.26,2.53-3,3-.28.87-.62.86-1,0-1.86-.79-3.86-1.46-6-2,1.67-.88,4.2-1.63,6-2,1.54-.31,3.47.23,5-1-.04.66.05,1.34,0,2Z"/>
    <path class="cls-225" d="M118.23,260c-.28.38-.65.68-1,1-.45.17-.78-.17-1-1-.87-.25-.85-.58,0-1-.08-2.16-.59-5.16,2-6v7Z"/>
    <path class="cls-125" d="M106.23,284c.32-.88.65-.87,1,0,.22.37-.25,1.76,0,2,.44.4,2.56-2.88,5.99-1-.32,1.88.01,2.54,1,2,1.59-.51,6.74-1.07,10-2,1.43,1.44,1,2.27-1,2,.36,1.34.7,2.87,0,4,.87.28.86.62,0,1l-.65.8c-4.92-1.51-9.37-1.77-13.35-.8.3,1.78-1.35,2.88-3,3,.37,1.4-.87,1.65-2,1-2.99-.55-3.66-1.55-2-3-.87-.28-.86-.62,0-1,.55-.97,1.22-1.97,2-3l.3-.94c-11.8-.36-23.56-.71-35.3-1.06-4.8-.49-9.65-.77-14.53-.83l-.47-1.17c16.61-.02,33.28-.36,50-1,.12-.96,1.18-.44,2,0Z"/>
    <path class="cls-161" d="M113.23,273c.86.27.85.6,0,1,.56.29.54.62,0,1,2.08,1.77,1.7,2.2-1,2,1.51.78,1.18,1.45-1,2-.31.65-.65.64-1,0-1.47.61-2.12,3.66-3,5-.06-.1-.66.05-1,0-2.07-.39-4.07-.72-6-1-.87-.28-.86-.62,0-1-.19-1.37.76-2.75,2.83-4.13.89-2.47,1.95-4.43,3.17-5.87,4.21-1.84,6.54-1.51,7,1Z"/>
    <path class="cls-185" d="M125.23,290c.33-.88.67-.87,1,0,.91-2.72,2.1-2.71,3,0-1.71,1.84-3.99-.02-4,1.99,3.61-.31,6.08-.42,8,3.01-.74.18-1.55.73-3,1-.96.59-2.28.94-3,0-1.61-.96-3.2-2.51-4-4v-1c-.8-2.26.27-3.07,2-1Z"/>
    <path class="cls-279" d="M117.23,279c1.86-.78,4.15-.8,6,0,3.13-1.43,6.8-1.43,11,0-1.28,1.44-1.93.69-3,1-7.06,1.01-14.06,1.01-21,0v-1c.23-.1.64.04,1,0,1.17-1.49,4.34-.66,6,0Z"/>
    <path class="cls-299" d="M131.23,280c-5.27,1.52-13.98,1.83-19.54,1.01-.75-.11-1.53-.1-1.46-1.01h21Z"/>
    <path class="cls-90" d="M130.23,286c-.02,1.18-.22,3.16-1,4-1,.04-2.01-.06-3,0-1.21-.96-1.51-3.14,0-4,.38-1.45,3.59-1.75,4,0Z"/>
    <path class="cls-275" d="M126.23,286c.67,1.6.63,2.38,0,4-.33.02-.67-.04-1,0-2.04.18-2.33-1.17-2-3,.27-.69.71-1.32,1-2,.31-.09.69.08,1,0,1.5-.4,1.85-.42,1,1Z"/>
    <path class="cls-125" d="M125.23,285c1.08-.28,2.81-1.83,5-1,.02.66,0,1.33,0,2h-4c-.21-.5-.44-.86-1-1Z"/>
    <path class="cls-251" d="M114.23,287c-.49.16-.93,1.38-1.02,1.99-3.04-1.19-1.34-1.95.02-3.99.85.46,1.03,1.09,1,2Z"/>
    <path class="cls-285" d="M43.23,281c1.63-2.62,3.91-.65,3,2,.89-.34,1.79.13,2,1,2.13.13,4.13.46,6,1,3.99,2.81,11.01-.81,15,2-7.16.45-14.49.78-22,1,2.51.15,2.63,1.23,1,3,1.75,2.38-.52,4.5-3,3-2.67.8-3.31-.79-2-3l-1.33-1.54c.8-2.42.24-3.58-1.67-3.46.18,1.63-.9,2.07-2.09,1.02-1.19,1.93-6.36,3.19-7.91.98-2.03.95-3.1.39-3-2-1.51,1.23-2.03.67-1-1-1-.58-1.67-1.27-3-1.01-.28-.28.63-1.35.98-1.51.39-.18,6.21-1.4,7.02-1.48,2.57-.28,9.7-.45,12,0Z"/>
    <path class="cls-186" d="M40.23,286c.44-.03,1.18-2.01,1.47-1.99,3.45.23,2.44,4.5,1.53,6.99-2.93,1.84-4.27,3.51-4,5-5.2,0-10.88.34-16,0-2.5-2.7,3.05-3.76,5-5-.82-2.11-.24-3.02,2-3,1.74-1.14,8.17-1.86,10-2q-1.25,1.9,0,0Z"/>
    <path class="cls-73" d="M26.23,285c.39.23.66.79,1,1,2.73,1.33.33,4.76-2,5-.27-.06-1.96-.89-2-1-.9-1.5-.91-3.5,0-5,.18-.19,2.23.12,3,0Z"/>
    <path class="cls-291" d="M30.23,288c-.16.11.35,1.51-2,3-.95-.12-2.13.18-3,0l2-5c.78.49,2.59.19,3,2Z"/>
    <path class="cls-285" d="M23.23,290c-1.58-.66-1.58-4.34,0-5-.17.18-.16,4.56,0,5Z"/>
    <path class="cls-75" d="M43.23,291c.74.18,1.51,2.15,2,3,2.76-.87,3.17.08,1,2-.33,0-.67,0-1,0h-6l-8-1.99c4.35,1.19,7.77-4.02,12-3.01Z"/>
    <path class="cls-281" d="M133.23,269c.89.63,1.56,1.63,2,3,.28-.87.62-.86,1,0-.03.33.04.67,0,1-1.05.27-.81,1.23-1,2-1.88,1.87-2.62,1.63-3-1-.84-1.18-1.86-4.65,0-5h1Z"/>
    <path class="cls-165" d="M136.23,272h-1c-1.6-.7-1.21-6.05,1-6h1c-.19,2.47-.83,4.4-1,6Z"/>
    <path class="cls-128" d="M135.23,275c-.35,1.41-.26,1.55-1,3-1.41,1.07-5.54.73-6-1-.87-.28-.86-.62,0-1,.3-1.59,1.3-2.25,3-2,.31-.9.64-.89,1,0,1.07-.02,2.09.49,3,1Z"/>
    <path class="cls-202" d="M128.23,277c1.25.15,3.77,1.98,6,1-.14.28.16.82,0,1-3.47-.27-7.45-.02-11,0-.87-.28-.86-.62,0-1-.87-.28-.86-.62,0-1,1.17-1.3,3.49-.68,5,0Z"/>
    <path class="cls-247" d="M47.23,275c1.76.46,3.2,3.07,3,5,.85-.41,1.16-.03,1,1,3.06,3.11-2.41,2.69-5,2-.93-.35-2.18-1.84-3-2v-1c-2.64-.94-2.3-2.26-1-4,2.57-3.23,4.24-3.57,5-1Z"/>
    <path class="cls-135" d="M39.23,279c1.23-.97,3.54-.97,2,1h-18v-1c4.96-1.16,10.29-1.16,16,0Z"/>
    <path class="cls-120" d="M42.23,276l1,4h-2c-.27-.97-1.15-.94-2-1-.87-.28-.86-.62,0-1,1.35-.32,1.68-.65,1-1-1.73-.26-1.89-1.61,0-2,.3-.59.63-.58,1,0,.92-.25,1.25.08,1,1Z"/>
    <path class="cls-242" d="M101.23,252c4.99-1.76,10.63-3.54,16-1,.33-.05.68.05,1,0v1c-2.44.48-5.47.71-8,1-17.98.83-36.03.81-54,0-5.95,1.06-11.95,1.06-18,0-.65.05-1.48-.14-2,0v-1c.26-.34.88-.68,1-1,5.07-1.09,10.4-1.31,15.99-.65,13.25-.24,26.69-.44,39.99-.12,2.76.07,5.42.9,8.02,1.77Z"/>
    <path class="cls-79" d="M14.23,246l2.5,7.99c1.32-3.12,1.62-4.76,5.5-4.99,3.43,1.72,8.19,2.43,12,3,.17-1.85,1.64-1.94,2,0,.87.28.86.62,0,1,1.31,1.31.68,1.87-1,1v7c.78.09,1.43,4.54,1.28,4.91-.3.73-14.13.55-15.79.46-.19-.01-.34-.61-.49-1.37-1.99,1.34-5.22.78-6-2-.03-1.33.02-2.67,0-4-.04-3.32,0-6.67,0-10v-3Z"/>
    <path class="cls-295" d="M13.23,255h-1c.11-1.98-.01-4.01,0-6h1c.74,1.98.74,4,0,6Z"/>
    <path class="cls-169" d="M14.23,259h-1c.03-1.33-.02-2.67,0-4,.03-2,0-4,0-6h1c1.85,3.79,2.75,6.47,0,10Z"/>
    <path class="cls-156" d="M20.23,265c2.66.32,2.54,1.24,0,2-1.11-1.01-3.01-1.17-4,0-.75,1.53-1.42.87-2-2-.03-.66.01-1.33,0-2,2,1.31,3.61,1.78,6,2Z"/>
    <path class="cls-53" d="M41.23,275h-1c-1.77,1.07-2.13-.38-1-2-1.93-1.38-2.93-2.72-3-4-1.73-.85-4.73-1.52-9-2-.5,2.86-4.98,2.58-7,1v-3c2.02.18,14.47.53,15.01,0,.29-.28-.24-3.04,0-4-.65-1.57-.77-2.7,1-2,2.18,1.35,3.45,4.17,3.82,8.44,1.8,3.09,2.2,5.6,1.18,7.56Z"/>
    <path class="cls-57" d="M21.23,254c.38-1.22.23-2.73,1.99-3-1.21,5.58-1.08,7.83,3.01,11.99-2.68.38-3.65-2.65-5-3.99-2.28-1.47-3.11-4.79,0-5Z"/>
    <path class="cls-4" d="M21.23,254c-.54,1.73-1.23,3.43,0,5-1.25-1.23-4.33-.28-2.99-6l2.99,1Z"/>
    <path class="cls-44" d="M36.23,259c-.94.95-.71.81-1,2-1.87-1.71-1.44-5.09,0-7,1.7.87.84,3.43,1,5Z"/>
    <path class="cls-104" d="M27.23,267c1.76.41,2.67.77,1,2,2.16-.37,2.68.49,1,2,2.69,1.24,2.83,1.95,0,3-.34,1.84-2.34,2.51-6,2-1.08,1.67-2.73,1.04-2-1l-1-6c0-.33,0-.67,0-1,2.18-1.41,4.61-.93,7-1Z"/>
    <path class="cls-43" d="M20.23,272c.51.69.85,1.69,1,3,.71.87,1.41.68,2,1,1.49-.82,1.89-.48,1,1,1.16,1.25.6,1.57-1,1h-5.01s0-5,0-5c.35-.06,1.23-1.08,2-1Z"/>
    <path class="cls-177" d="M21.23,275c-1.22-1.52-.76-1.42-1-3-.13-.9.02-2.03,0-3,1.77,1.12.86,4.12,1,6Z"/>
    <path class="cls-62" d="M30.23,278c.19-.89.52-.85,1,0,3-1.25,5.66-1.25,8,0v1c-4.97-.38-10.92-.09-16,0,.08-.33-.13-.81,0-1,.04-.06.93-.98,1-1,1.59-2.09,6.01-2.21,6,1Z"/>
    <path class="cls-121" d="M116.23,250c.39.23.69.67,1,1-5.02.7-10.89.81-16,1-1.9-.77-1.57-1.43,1-2l.62-1.49c-3.06.55-5.27.05-6.62-1.51-.4-.83-.38-1.6.27-1.64l8.73-.36c1.86-.03,8.94,3.8,11,5Z"/>
    <path class="cls-103" d="M98.23,244c1.35.11,4.53,2.01,7,1l-9,2c1.51,1.11,3.32,1.67,5.42,1.67l.58,1.33-1,2c-21.24.79-42.83.02-64-1,.07-.2-.94-1.71,2-3,1.4-.61,3.45-.86,5-1q2.4,1.14,0,0c.36-1.31,1.79-2.43,3-3,17.04-.92,34.04-.92,51,0Z"/>
    <path class="cls-134" d="M129.23,297v1c-.67,0-1.33,0-2,0-1.33,0-2.67-.01-4,0v-1c1.54-.83,4.41-.72,6,0Z"/>
    <path class="cls-278" d="M115.23,296c4.04-.52,8.04-.52,12,0h3c-.27.05-.71.96-1,1-1.86.23-4.05-.09-6,0-8.28.38-16.7-.25-25,0-.87-.28-.86-.62,0-1,1.95-1.95,4.05-1.96,6,0,.46,0,1.49-1,2-1,1.58-2.08,8.38-2.07,9,1Z"/>
    <path class="cls-204" d="M36.23,259c3.23-3.27,7.03-.6,10.6-.1,9.45,1.32,21.17,4.5,30.95,3.15,2.81-.39,5.65-2.28,9.23-2.78,6.08-.85,13.5,1.37,19.49.48,1.2-.18,5.98-1.69,6.83-2.26.95-.64-.9-3.56,1.4-2.5.19.09,1.46,3.67,1.51,4.01.05.32-.01.67,0,1,.66.62.66,1.3,0,2-1.08,3.28-7.26,7.44-9.38,4.57-20.69.04-41.24.18-61.62.43,1.9.6,1.9,1.49,0,2,1.05.01,1.38.35,1,1,.91,1.88,1.24,3.55,1,5l-1.91.08-.1,2.92c-.13.17-2.64-1.64-2.99-2-.33-.34-.73-.6-1-1-2.65-3.9-4.51-11.28-5-16Z"/>
    <path class="cls-31" d="M110.23,253c-4.62.52-8.07.85-13,1-13.54,1.01-27.46,1.06-41,0-.87-.28-.86-.62,0-1,17.98-.18,36.02.14,54,0Z"/>
    <path class="cls-65" d="M56.23,254c13.63-.27,27.37.43,41,0-1.04,1.66-3.79,1-5.49,1.02-13.18.16-27.45.57-40.51-.02-1.02-2.12,3.46-1.88,5-1Z"/>
    <path class="cls-71" d="M56.23,253v1c-1.6.03-4.16-.6-5,1-3.93-.18-9.57-.88-13-2,5.66-.47,12.19.06,18,0Z"/>
    <path class="cls-63" d="M117.23,261c.14.98-.24,3.79,0,4.01.21.2,3.9-.06,5.01,0,1,.05,2.01-.05,3,.01l-1,1.99c-2.87,1.3-5.54,2.1-8,0-.28.87-.62.86-1,0-2.43-.81-2.1-2.48,1-5,.04-.66.02-1.34,0-2,.48.1.93.53,1,1Z"/>
    <path class="cls-168" d="M124.23,267c.67,0,1.33-.02,2,0,2.42.07,6.7-1.19,6,2v5c-.34,0-.92-.08-1,0l-1.31.16c-1-3.01-2.9-4.73-5.69-5.16-.49,1.27-2.26.89-3,0,.35,2.58-.11,2.42-2,1-.75,2.78-3.46,1.99-3-1-1.21.08-.84-1.26,0-2,2.66.01,5.34-.02,8,0Z"/>
    <path class="cls-106" d="M136.23,266l-1,6-1.99,1c0-1.33-.06-2.67-.01-4,.03-1-.05-2.01,0-3h3Z"/>
    <path class="cls-286" d="M104.23,289c-1.03,1.65,3.95,2.67-2,3-4.47.93-9.51.81-14,0-.81-.16-1.14-.49-1-1-6.38-.78-12.89-1.01-19.52-.69-5.5,2.99-10.89,2.45-17.48,1.69-1.73,2.16-2.32,1.73-2-1-.69-.81-1.17-1.88-1-3,14.21-.45,28.74-.81,43.06-.57,4.16.07,9.2.18,13.28.64.25.03.47.43.66.94Z"/>
    <path class="cls-232" d="M69.23,287c7.4-.15,15.1-1.14,22.42-.87,4.78.18,9.69,1.4,14.58.87,1,2.81-1.87,1.79-1.99,1.99l-57-1c6.77-1.95,14.87-.85,22-1Z"/>
    <path class="cls-95" d="M52.23,284c3.36-.87,7.82-.83,11,0,11-.76,22.01-.76,33,0,2.05-.8,5.78-.9,8,0-13.83,2.07-35.58,1.78-50,1-2.97-.16-3.21-.03-6-1,2.4-1.45,3.73-1.45,4,0Z"/>
    <path class="cls-271" d="M109.23,292c2.61-1.65,10.74-.17,13.73.85,7.41,2.52-4.36,3.31-7.73,3.15-3.23-.03-6.86-.99-9-1,.37-3.14,2-2.39,3-3Z"/>
    <path class="cls-232" d="M123.23,292c1.47.28,3.11,1.48,5,1.01l-1,2.99c-3.99,0-8.01.04-12,0l9-1.01c2.06-1.52-13.44-3.63-15-2.99.24-.15.43-1.27,1.04-1.49,4.28-1.53,5.19.86,8.56,1.43,1.49.25,3.19-.18,4.4.05Z"/>
    <path class="cls-232" d="M102.23,293l2,3c-2-.01-4,0-6,0-6.66,2.39-11.43-2.82-1.08-1.93l1.08-1.07c.66-.79,3.04-.73,4,0Z"/>
    <path class="cls-95" d="M102.23,292v1h-4c-1.81,1.04-9.32,3.35-10,0-.03-.19-.81-.62-1-1,.23-.59.57-.55,1,0,4.63-.04,9.39.25,14,0Z"/>
    <path class="cls-124" d="M100.23,283c1.89.03,4.91-.68,6,1-.54-.08-1.46-.08-2,0h-8c-.87-.28-.86-.62,0-1,1.15-1.47,2.48-.95,4,0Z"/>
    <path class="cls-217" d="M125.23,290c-.85.1-1.68.02-2,1-1.76-1.38-.59-2.5,0-4l2,3Z"/>
    <path class="cls-231" d="M116.23,262c-.07,1.2-.7,3.61-1,5,.85,1.6-.44,4.99-2,6-2.68-1.65-4.26,2.42-7-1-1.45-.48-1.08-1.06,0-2-.44-.39-.11-.73,1-1-1.77-.43-2.5-.78-.89-1.01l-60.42-.06-.69-.93c1.04-1.66,3.79-1,5.49-1.02,16.83-.21,40.29,2.06,56.06.07,3.25-.41,6.54-2.81,9.45-4.05Z"/>
    <path class="cls-98" d="M97.23,281c1.18-1.6,2.99-1.01,3,1v1c-1.33-.02-2.67,0-4,0-10.98.75-22.02.75-33,0-1.91.77-4.08.75-6,0-3.21-.07-4.87-.74-5-2,.07-.33.17-.62.37-.76,4.58-3.06,36.57-.83,44.21-.27.16.01.29.46.42,1.03Z"/>
    <path class="cls-61" d="M116.23,269c2.29,1.66,1.09,4.71-1,6-.57.87-1.76.02-2-1,.08-.31-.09-.69,0-1,.57-2.06,1.7-4.62,2-6h1c-.11.63.16,1.48,0,2Z"/>
    <path class="cls-94" d="M115.23,276c1.1-2.57,1.88-2.58,3,0,2.15,1.08.95,1.54-1,2-1.55.79-4.73.89-5-1,.26-.57.95-1.78,1-2,.65-.26,1.56.34,2,1Z"/>
    <path class="cls-51" d="M117.23,278c.87.28.86.62,0,1-1.94.07-4.15-.23-6,0,.31-.67.69-1.32,1-2,1.55,1.1,3.23.91,5,1Z"/>
    <path class="cls-91" d="M115.23,275c.87.28.86.62,0,1-.85-.08-1.72-.02-2-1,.07-.32-.08-.69,0-1l2,1Z"/>
    <path class="cls-26" d="M123.23,278v1c-2,.01-4.01-.07-6,0v-1c1.44-1.67,4.22-1.09,6,0Z"/>
    <path class="cls-240" d="M50.23,292c5.18.96,10.14.83,14.9-.41l-.9,5.41c-4.84.02-9.7-.03-14.55,0-1.46.01-2.94-1-3.45-1,.08-.94-.66-1.41-1-2l3-3c.2.24,1.5.79,2,1Z"/>
    <path class="cls-174" d="M57.23,283c-1.55.34-3.21.67-5,1h-4c-.88-.31-1.48-.81-2-1l.45-.66c5.53,1.83,3.55.14,4.55-1.34.24-.9.58-.88,1,0l5,2Z"/>
    <rect class="cls-23" x="37.73" y="286.5" width="2.99" height="1.99" transform="translate(-248.34 326.23) rotate(-89.9)"/>
    <path class="cls-12" d="M124.23,269c1.04-.1,2.33-2.14,5.11-.53.28.16,2,4.89,1.89,5.53-.66.65,1.73,1.78-3,2-1.35.81-4.8.78-5-1-2.66-.19-2.66-.86,0-2-1.22-1.55-.89-2.55,1-3-.87-.28-.86-.62,0-1Z"/>
    <path class="cls-84" d="M128.23,276v1c-1.62-.19-3.38.21-5,0-1.21.71-3.11.59-3-1-.64-2.33.36-2.67,3-1,.98.07,2.31,1.12,5,1Z"/>
    <path class="cls-68" d="M120.23,276c.24.03,1.49.81,3,1v1c-1.99-.07-4.01.1-6,0l1-2c.38-2.64,1.13-2.49,2,0Z"/>
    <path class="cls-162" d="M51.23,278c.85-.91,1.76-1.74,3-2.02,8.81-2.05,30.31-.27,39.96.9l3.03,2.12v2c-8.84-.86-36.89-1.35-45,0-.35.06-.93-.11-1,0-.36-.31-.68-.66-1-1-.7-1.6-.94-2.65,1-2Z"/>
    <path class="cls-159" d="M37.23,276c.92-1.97,2.54-.69,3,1,.02.07,1.28.16,1,.99-.66.05-1.33-.03-2,.01-2.59.15-5.4.09-8,0-.71-1.23.62-1.89,4-2,.2-1.55,1.6-1.85,2,0Z"/>
    <path class="cls-150" d="M40.23,275c.18.5-.17,1.44,0,2-1.23.51-2.54-.92-3-1-2.61-.68-.7-2.33,1-3,.29-.7.63-.69,1,0,.3.63.83,1.53,1,2Z"/>
    <path class="cls-270" d="M27.23,267c2.78-.08,5.59.03,8.37-.04,1.18.23.46,1.84.63,2.04-2.23.54-6.15.99-8,0-.3-.68-.69-1.32-1-2Z"/>
    <path class="cls-30" d="M39.23,273h-1c-.96-.18-1.96-.85-3-2-.87-.28-.86-.62,0-1l1-1c1.43,1.62,1.91,1.71,3,4Z"/>
    <path class="cls-290" d="M35.23,270v1c3.49,1.5,1.57,5.95-1,3-.95,1.41-2.98,1.16-4,0-.25.88-.58.86-1,0-.13-.95.19-2.14,0-3,.28-.87.62-.86,1,0,1.3.15,2.3-.19,3-1,.61-.77,1.32-.72,2,0Z"/>
    <path class="cls-5" d="M29.23,274c.32-.05.67.03,1,0,.87.28.86.62,0,1,2.42,1.44,2.59,1.58,0,3-1.46-.07-3.44-1.61-6-1-.4-.22-.69-.83-1-1,1.46-1.28,4.11-1.74,6-2Z"/>
    <path class="cls-175" d="M36.23,269c.11.96-.35.84-1,1-.56.14-1.36-.09-2,0-.27,1.39-1.78,1.27-3,1h-1c-.04-.17-.74-1.41-1-2,2.36-1.6,5.22.48,8,0Z"/>
    <path class="cls-136" d="M33.23,276c.95-1.17,1.56-1.58,2,0l-4,2c-.33-.01-.67.02-1,0v-3c1.1-.58,2.95-.4,3,1Z"/>
    <path class="cls-11" d="M37.23,200c22.66,1.03,44.99,1.03,67,0,8.72-.12,17.32-.53,26.01-1.01.18,1.26-.25,2.85,0,4.01.16,4.35.49,8.69,1,13,.15,7.31-.11,14.69,0,22,1.05,3.08.07,7.36-4,5-6.3.2-12.45.62-18.44,1.26l-1.56-1.26c-19.53-.51-39.53-.84-60-1-.64,1.98-5.66,3.86-6.45,1.31l-13.55.69c-3.12,3.79-8.28-3.41-7-7-.33-.33-.67-.66-1-1l1-3c.43-8.4.76-16.73,1-25-.73-1.64-.72-3.34,0-5-.78-.7-.85-1.41,0-2,1.27-.8.11-3.18,2.38-2.96,4.39.43,9.2,1.55,13.62,1.96Z"/>
    <path class="cls-142" d="M104.23,200c-1.04,1.66-3.79,1-5.49,1.02-20.28.21-41.59.86-61.51-1.02,22.31-.23,44.69.31,67,0Z"/>
    <path class="cls-243" d="M131.23,216c-2.22-3.39-.48-8.88-1-13,1.05,5.02.89,7.87,1,13Z"/>
    <path class="cls-302" d="M107.23,243c-.54,1.62-1.35,1.55-2,0-19.44.77-38.78.77-58,0-.87-.28-.86-.62,0-1,18.15.16,36.35-.21,54.51-.02,1.69.02,4.45-.64,5.49,1.02Z"/>
    <path class="cls-265" d="M73.23,238v2h-28.5c-.17,0-1.58-1.35-1.5-2h30Z"/>
    <path class="cls-50" d="M107.23,238c-1.07,3.04-3.61,2-5.5,2h-23.5v-2h29Z"/>
    <path class="cls-2" d="M107.23,243c6.61-.41,13.38.29,20,0-4.76,2.28-11.63.4-17,1.01l6,5.99c-2.38,1-7.82-.51-7.85-3.46-1.81,0-2.86-.5-3.15-1.54-3.79,1.09-6.12.76-7-1l7-1c.65-.07,1.34.04,2,0Z"/>
    <path class="cls-226" d="M47.23,242v1c.87.28.86.62,0,1,.37,1.32-.63,2.32-3,3-.25,2.88-3.12,3.02-5,1l-1-1c1.03-.88,2.61-1.69,3-2.99-4.26-.55-9.99.72-14,0l20-2Z"/>
    <path class="cls-48" d="M20.23,233c-.7-4.82-.76-10.19,0-15,0-3.32.04-6.68,0-10,.28-.87.62-.86,1,0,.02,8.09.82,17.24-1,25Z"/>
    <path class="cls-83" d="M20.23,233c-.1,1.29.53,2.99-1,3-.15-1.27.22-2.81,0-4-.09-4.65.13-9.35,0-14h1c-.01,4.86.35,10.24,0,15Z"/>
    <path class="cls-83" d="M21.23,208h-1c-.02-1.67.04-3.34,0-5h1c.01,1.67,0,3.33,0,5Z"/>
    <path class="cls-194" d="M105.23,243c-1.41.14-4.46,1.99-7,1-16.34-1.37-34.46,1.01-51,0v-1h58Z"/>
    <path class="cls-132" d="M96.23,247h11.99c.17,3.7-3.44,3-5.99,3s-6.17.66-6-3Z"/>
    <path class="cls-116" d="M44.23,247c2.77-.25,7.85-.34,10.52,0,1.46.19,3.09.77,1.48,2l-11.42.02c-.93.11-.73-1.43-.57-2.01Z"/>
    <path class="cls-95" d="M87.23,291c-7.43-.08-14.76.26-22,1-.44.48.96,4.8-1,5-.17-.91.26-3.76,0-4-.51-.5-10.12.63-14.01-1,3.96-.41,8.76.56,12.57.08,1.91-.24.95-1.92,2.87-2.16,4.36-.55,11.35.01,16.08.06,1.69.02,4.45-.64,5.49,1.02Z"/>
    <path class="cls-238" d="M98.23,293c3.13,4.02-5.2.78-6.01,2.5,0,.9,4.76.49,6.01.5v1c-3.32.1-6.68-.1-10,0-.12-1.3.17-2.73,0-4h10Z"/>
    <path class="cls-208" d="M87.23,292c.86.09,1.19.42,1,1,2.95.62,2.64,2.7,0,4-6.29,1.95-14.22,1.57-21,1-1,.02-2-.02-3,0v-1c.71-1.41,1.14-3.79-.42-4.43l1.42-.57c7.06-1.18,15.09-1.06,22,0Z"/>
    <path class="cls-195" d="M81.73,294c2.44.33,4.98,3,3.5,3h-19v-3c4.89.46,10.76-.64,15.5,0Z"/>
    <path class="cls-109" d="M87.23,291c.45.04.9.53,1,1-.33,0-.67,0-1,0-3.04.03-21.25-.81-22,0,1.04-1.66,3.79-1,5.49-1.02,5.15-.06,11.56-.46,16.51.02Z"/>
    <path class="cls-192" d="M45.23,267l61.42-.02c.94-.12.75,1.45.58,2.02-2.09,1.31-3.42,1.31-4,0h-46c-4.02-.06-8.53-.83-12,0-.13-.55.07-1.36,0-2Z"/>
    <path class="cls-143" d="M119.23,270c1.18-.17,4.9,1.71,4,3v2c-.47-.03-2.09,1.11-3,1-.65-.07-1.35.09-2,0-.96-.13-2.02.09-3,0v-1c-.69-2.53.39-4,1-6,.66.65,2.67.7,3,1Z"/>
    <path class="cls-199" d="M121.23,269l3,1v2.48c-.2.5-.52.55-1,.52-.16-.01-.4-.83-.88-.88l-.14,1.87h-.98c-.24-1.2-1.17-3.22-2.01-3.99.44-.91,1.26-.77,2-1Z"/>
    <path class="cls-230" d="M124.23,269v1c-1.53,1.34-2.29.88-3-1,2.01-.62,2.28.07,3,0Z"/>
    <path class="cls-32" d="M96.23,283v1h-33c-.87-.28-.86-.62,0-1,10.98-.05,22.02-.05,33,0Z"/>
    <path class="cls-81" d="M57.23,283c2-.04,4,0,6,0v1h-11c.84-1.6,3.39-.96,5-1Z"/>
    <path class="cls-214" d="M35.23,271c1.62-.32,2.21.82,3,2l-1,3c-.63-.1-1.37.1-2,0s-1.36.08-2,0c-1.75-1.18-.87-1.64,1-2,.87-.52,3.52,1.26,1-3Z"/>
    <path class="cls-99" d="M33.23,270c.48,2.6-1.39,2.76-3,1,.57-1.38,1.94-.85,3-1Z"/>
    <path class="cls-176" d="M34.23,274c-.32.19-.63,1.52-1,2-1.07-.13-2.07-.45-3-1v-1c1.32-.1,2.68.07,4,0Z"/>
    <path class="cls-78" d="M57.23,269h33l-3.39,1.42c-11.55-.3-22.75-.11-33.61.58-1.12.88.38,1.24,4.5,1.1,14.44.44,29.07.7,43.5-.1-1.11-2.12,2.24-2.75,3-1-.81,5.14-.72,8.2-7,8-13.39-.42-29.17-2.62-42.58-1.09-2.68.31-.31,4.18-3.42.09-1.91-2.51-3.21-5.36-5-8-.16-.24-.84-.34-1-1,2.11-2.02,9.56-1.63,12,0Z"/>
    <path class="cls-192" d="M106.23,272c-.69,3.18-3.03,8.38-6,10-1.02.08-2.29-.93-3-1-2.66-.32-2.54-1.24,0-2,.47-1.28,1.72-2.24,3.75-2.88.47-2.41,1.55-4.11,3.25-5.12-.64-1.37.69-1.54,2-1-.09.64.13,1.41,0,2Z"/>
    <path class="cls-192" d="M51.23,278l-1,2c-1.15-1.21-2.38-3.48-3-5-.7-1.7-1.32-3.06-1-5,3.33-.41,6.51,5.16,5,8Z"/>
    <path class="cls-173" d="M103.23,269h4c-.21.71-.58.69-1,1-.39.29-1.55.89-2,1-1.7.42.56-.81-3,1-16.37,1.14-32.37.81-48-1,1.04-1.66,3.79-1,5.49-1.02,10.63-.13,21.24-.55,31.51-.98h13Z"/>
    <path class="cls-181" d="M53.23,271l48,1c-3.56,1.81-38.1,1.44-44.54,1.04-1.73-.11-3.37-.3-4.95-1.04l1.49-1Z"/>
    <path class="cls-52" d="M99.23,275c.08.65-1.33,2-1.5,2h-41c-.6,0-2.25-1.39-3.49-1.01v-.99s45.99,0,45.99,0Z"/>
    <path class="cls-193" d="M103.23,269c-4.3,0-8.7-.18-13,0-10.98-.11-22.02.15-33,0h46Z"/>
    <path class="cls-300" d="M22.23,177c1.85,3.33,4.09,6.24,6.72,8.75l-.72,1.25c-1.18.38-2.51.71-4,1-.25.6-.92.6-2,0-.94,1.34-1.2-.31-1.15-.24.29.42,1.2,1.97,1.21,2.18.02.33-.46.69-1.07,1.05,2.64,1.29,2.62,1.56,0,3-.69,2.45-3.46-.08-3-2-.04-.52-.98-1.47-1-2-.32-9.09,1.15-17.94,1-27-.99-1.13.67-3,2-3,.71-.03,1.33.03,1.65.37.75.8,1,14.68.35,16.63Z"/>
    <path class="cls-235" d="M87.23,193c2.86,2.1,5.12,2.06,8,0-.87-.28-.86-.62,0-1,6.26,1.89,15.53,1.99,22,0,.88.25.86.58,0,1-.27,1.99.36,3.76-2.5,4-16.5-.09-33.02.11-49.5,0-.87-.28-.86-.62,0-1-2.71-.59-2.47-1.78,0-3-.88-.25-.86-.58,0-1l.81-.94c7.06,1.07,14.12,1.05,21.19-.06,2.15.18,1.72.98,0,2Z"/>
    <path class="cls-28" d="M135.23,181l-1,9c1.79-.1,1.79.56,0,2-2.09,1.49-2.35,2.69-5.52,3.06-4.75.55-3.27-1.93-3.48-2.06-2.66-.27-2.55-1.25,0-2l1-2c1.15-.51,2.49-.84,4-1-.02-.47.31-1.14,1-2-1.17.83-1.63.23-1-1-.52.08-1.02.11-1.41-.07-.51-.24,3.03-10.06,3.42-10.47,1.01-1.07,1.89-.53,3,.54.8,1.97.74,4,0,6Z"/>
    <path class="cls-137" d="M122.23,190c-.13-1.54,1.66-1.5,2,0,1.32-.64,1.78-.32,1,1,.17.49-.11,1.38,0,2-.78-.5-6.34.35-8,0,.04-.33-.03-.67,0-1-.87-.28-.86-.62,0-1,.3-1.37,1.96-1.71,5-1Z"/>
    <path class="cls-105" d="M27.23,191c.87.28.86.62,0,1,2.7,1.33,2.7,2.33,0,3-1.28.42-2.62.42-4,0h-2c-.01-.33.01-.67,0-1-.04-.98.12-2.06,0-3,.95-1.46,4.74-1.07,6,0Z"/>
    <path class="cls-145" d="M23.23,151c.9.18.86.52,0,1,2.76,2.86,2.74,6.08,0,9l.74,7.07c1.56,2.82,1.32,4.79-.74,5.93,1.55,1.28,3,2.81,1,4,1.43,4.27-1.47,2.14-2-1-.51-4.67.17-13.16-2-17-1.35,1.36-1.93.74-1-1,.51-.69,1.82-.94,2.32-2.25.83-2.18.46-3.74.68-5.75.11-.98-.11-2.02,0-3,1.84-1.24,1.73,1.38,1,3Z"/>
    <path class="cls-163" d="M130.23,177c2.56,1.54-1.53,7.65-4,9l-2,1c-31.94,1.09-64.05.61-96,0-2.92-3.94-5.42-4.63-6-10l1.02,1.99c1.13.18.91-1,.98-.99l1.14-.74c2.64,4.65,8.93,5.01,13.95,5.14,25.5.62,50.8.66,76.34-.38,5.27-.22,11.68-5.62,11.43-10.9l2.14-1.11c.68,2.22,1.01,4.56,1,7Z"/>
    <path class="cls-200" d="M28.23,187c31.94-.8,64.05.65,96,0,.95-.56,2.3-.85,3,0,.87.28.86.62,0,1-7.65.8-15.31.8-23,0-24.63.83-49.37.96-74,0-1.68.81-4.31,1.02-6,0,.69-1.5,2.68-.97,4-1Z"/>
    <path class="cls-101" d="M22.23,188c2.73.42,5.39.75,8,1,2.98-.71,6-.69,9,0,.87.28.86.62,0,1-1.4,2.89-3.45,2.66-5,0-.45,1.26-5.37,1.85-7,1-2,.3-4.23,1.28-6,0-.13-.98-1.54-2.44-.99-4,1.46-.49,1.88.98,1.99,1Z"/>
    <path class="cls-113" d="M24.23,188c1.97.14,4.02-.02,6,0,.87.28.86.62,0,1-2.5-.02-6.34.78-8-1,.61.1,1.34-.05,2,0Z"/>
    <path class="cls-60" d="M117.23,191v1c-1.21,1.22-.23,2.79-2.44,3.08s-16.5.36-17.93-.03c-.88-.24-.67-2.13-1.63-3.05-2.83-.29-5.5-.62-8-1-.87-.28-.86-.62,0-1,10.17-.95,20.17-.62,30,1Z"/>
    <path class="cls-288" d="M87.23,190v1c-1.61.57-.87,2.75-1.01,4-1.96.31-.54-2.38-1-3.01-.28-.39-6.59,2.04-9.48,2.08-4.52.07-6.64-1.2-10.51-2.07-2.06-.98-1.05-1.5,1-2,6.97-.78,14.03-.8,21,0Z"/>
    <path class="cls-236" d="M65.23,193c-.1.98.07,2.01,0,3-2.83,1.01-7.07-1.01-9-1-2.33-1.63-1.8-2.49,1-2,1.2-2.08,5.96-1.04,8,0Z"/>
    <path class="cls-67" d="M94.23,193c.28-.87.62-.86,1,0v3s-7.41.02-7.41.02c-1.18-.17-.44-2.1-.59-3.02.28-.87.62-.86,1,0,1.86-.84,4.12-.84,6,0Z"/>
    <path class="cls-21" d="M65.23,192c-.05.32.03.67,0,1h-8c-6.05-2.26,5.94-4.22,8-1Z"/>
    <path class="cls-46" d="M95.23,192v1h-1c-1.9-.82-4.09-.82-6,0h-1c-.1-.62.07-1.35,0-2,1.58-.56,6.67-.27,8,1Z"/>
    <path class="cls-102" d="M135.23,166c.88,2.67.99,6.27,0,9-3.09.82-2.28,3.5-3.11,5.19-.61,1.23-3.07,1.4-1.89,4.81-.4,1.37-2.85,1.69-4,1,1.22-2.79,4.01-5.79,4-9-.71-4.16-.71-8.16,0-12-1.31-10.14,4.68-6.48,5,1Z"/>
    <path class="cls-205" d="M127.23,188c.35-.85,2.48-.94,3,0-2.13,1.28-2.17.69-4,1,.05,1.39-.75,1.52-2,1-.42-.15-1.37.02-2,0-6.3.28-12.3-.06-18-1-.87-.28-.86-.62,0-1h23Z"/>
    <path class="cls-102" d="M135.23,187c-.05,1.1.31,2.52-1,3-.6-2.48-.63-6.56,1-9-.02,1.99.09,4.01,0,6Z"/>
    <path class="cls-196" d="M131.23,186c-.13,1.62-2.67,1.85-4,1-.99.06-2-.02-3,0,.3-1.01,1.19-.84,2-1,1.01-.19,3.79-1.01,4-1,1.12.04.92.9,1,1Z"/>
    <path class="cls-233" d="M126.23,189l1.99,1.01c.37,1.63-1.46.87-2.99.99-.02-.07-.92-.97-1-1,.56-.53,1.24-.87,2-1Z"/>
    <path class="cls-276" d="M130.23,188h-3v-1c1.44-.09,2.77-.15,4-1,.03.04,1.06-.1.98.5s-1.4,1.15-1.98,1.5Z"/>
    <path class="cls-24" d="M39.23,190c8.91-.92,18.08-.8,27,0-.2.65-.92,1.43-1,2-2.35-.53-4.66-1.71-7.38-1.04-1.21.3-.43,1.47-.62,2.04-.17.51-1.03,1.19-1,2-.13,0-1.15,1.02-2.43,1.03-6.19.03-12.39-.09-18.57-.03-.03-.66.04-1.34,0-2-.91-.1-.86-.45,0-1-1.06-.91-2.43-2.2-1-3,1.66-.08,3.34.04,5,0Z"/>
    <path class="cls-233" d="M104.23,189c5.72,0,12.68-.85,18,1-2.43-.08-4.62,1-5,1-9.9-.1-19.97-.93-30-1-6.98-.05-14.01-.02-21,0-8.97.03-18.04-.24-27,0v-1c21.66-.65,43.35-.8,65,0Z"/>
    <path class="cls-197" d="M29.23,193c1.58-1.03,3.44-1.15,5,0,.28-.87.62-.86,1,0,.04.33-.02.67,0,1-2.49,1.49-5.3.96-8,1v-3c1.24-.92,2.69-.67,2,1Z"/>
    <path class="cls-250" d="M34.23,190c.54.93.87,1.93,1,3h-1c-1.82-1.06-3.16-.95-5,0-.57-.08-1.36-.8-2-1v-1c2.55-.38,4.01-.86,7-1Z"/>
    <path class="cls-10" d="M48.23,129c25.32-.32,50.74-.14,76.05.45,8.68,2.7,4.12,21.38,6.61,27.32.93,2.2,4.47,1.78,5.34,7.23-.96.27-.95,1.15-1,2l-3.5-7c.17,1.84-1.36,4.71-1.5,6-.46.56-.79.22-1-1-1.91-.56-1.91-1.44,0-2l-2.07-2.78c-.62-7.6-.6-15.01.07-22.22-2.8.58-2.97-3.89-3-6-3.35,2.65-8.66,2.43-12,0l-2.54,1.91c-3.18.06-11.47-.95-14.85-1.57-.44-.08-.79-.64-1.11-1.34-.09.75-.18,1.33-.3,1.33-3.58.18-28.99,1.08-30.04,0-.33-.34-.52-.82-.66-1.33-1.03,2.4-7.4,2.46-9.5,1-2.75-.03-4.42-.7-5-2Z"/>
    <path class="cls-17" d="M35.23,129c4.3-.19,8.69.05,13,0l5,2c-9.01,2.28-17.68,2.28-26,0-.56-.3-.55-.63,0-1,2.94-1.45,5.03-.87,8-1Z"/>
    <path class="cls-151" d="M27.23,131c1.35.95.58,1.55-1,2,1.86,2.37.2,8.28-1.54,10.53l-.46,5.47c2.5.86,1.69,2.91-1,2-.05-1.11.31-2.49-1-3,.61-5.22.11-15.59,5-18v1Z"/>
    <path class="cls-35" d="M129.23,170l-1.01,8.99-1.49-1.99c-2.6,4.52-5.76,6.41-11,7-25.02-.99-51.1,1.51-75.99-.01-1.72-.11-12.03-1.23-12.55-1.58-1.42-.94-2.56-4.38-2.96-4.41-.22-1.33-.88-2.66-1-4l2.24-1.34c3.29,3.84,5.83,6.46,11.26,6.72,27.11,1.36,56.68,2.45,83.06-2.05l2.54-3.46c1.27-6.44,3.57-9.06,6.89-7.88.65,1.33.65,2.69,0,4Z"/>
    <path class="cls-298" d="M29.23,153c.55,3.29.83,6.85.84,10.66.1,9.56,4.81,11.46,13.96,11.61,23.75-.9,47.45-1.38,71.08-1.45,2.44-1.69,4.48-2.3,6.12-1.82.44.29.44.96,0,2,.9,3.16-3.06,4.31-5.69,4.7-22.79,1.47-46.17,2.23-69.24,1.55-14.3-.42-23.05-2.76-23.07-19.26-.03-2.99.06-6.01,0-9,2.93-2.26,2.97-4.51,3.01-8.36l.99-.64c-1.41-1.35-.78-1.94,1-1-.09,3.64.58,6.98,2,10.02l-1,.98Z"/>
    <path class="cls-258" d="M121.23,174l1.43-13.45c2.27-.8,5.87-1.46,6.57,1.45.02.67-.01,1.33,0,2,.48.77.75,1.43,0,2-5.27,2.33-5.49,10.42-9.08,12.42-2.57,1.44-12.93,2.36-16.43,2.57-16.09.97-58.36,2.09-72.53-1.48-4.48-1.13-3.98-4.72-7.96-5.51-.35-4.09.05-8.79,0-13,1.72,1.73.69,4.49,1.54,6.96.27.78,5.21,7.43,5.95,8.05,2.34,1.97,7.93,2.61,11.14,2.86,15.92,1.22,38.27-.73,54.92-.92,6.19-.07,13,1.11,19.52-.38,2.41-.55,3.79-1.41,4.94-3.57Z"/>
    <path class="cls-1" d="M27.23,143v10s-4-1-4-1c0-.33.01-.67,0-1,.83-.47.72-1.36,1-2,.26-7.48,1.26-9.48,3-6Z"/>
    <path class="cls-207" d="M130.23,165c-.39,3.81.27,8.11,0,12,0-1.05-1.01-4.25-1-7,0-1.33,0-2.67,0-4,0-.67.01-1.33,0-2l1,1Z"/>
    <path class="cls-216" d="M104.23,188v1c-21.65-.03-43.35.04-65,0-2.99,0-6.01.02-9,0v-1c24.64.28,49.36,0,74,0Z"/>
    <path class="cls-86" d="M94.23,193h-6c1.01-1.64,5.05-1.61,6,0Z"/>
    <path class="cls-170" d="M34.23,193c-1.62-.15-3.43.22-5,0,1.51-2.24,3.49-2.24,5,0Z"/>
    <path class="cls-118" d="M112.23,131c6.83,2.04,8.16,4.04,4,6l-2,1c.85.29.84.62,0,1-.28.87-.62.86-1,0-4.17-2.17-8.07-3.5-13.38-3.88s-55.86-2.94-58.34.78c.12,1.89-.64,2.93-2.28,3.1-.28.87-.62.86-1,0-1.58.53-3.04-.36-2-2-3.29.09-5.44-.85-6.47-2.84-2.02,1.61-3.81,1.67-3.53-1.16.31-.67.71-1.31,1-2,8.65-.16,17.36.22,26,0,3.17-.08,7.52-1,9.5-1h31c5.65,0,12.47.87,18.5,1Z"/>
    <path class="cls-188" d="M129.23,162h-5.99c-.13,3.73-.23,8.67-2.01,12v-2c-1.78-.48-1.97-2.32-.58-5.53.42-4.88.69-11.48-1.42-12.47-.33.86-.67.86-1,0-1.04,3.29-4.3,2.32-3-1l.39-.88c8.32,1.58,9.43-1.81,7.61-9.12-1.36,1.36-1.95.76-1-1-2.89.26-3.11-1.32-1-3-.5-2.06,1.5-2.73,6-2,1.85,8.13,1.75,16.51,2,25Z"/>
    <path class="cls-152" d="M127.23,137l-1.01,4.99c-1.59.25-1.15-2.49-2.96-3.48-.85-.46-1.83.52-2.02.49-2.49-.24-4.82-.57-7-1,.6-1.3.89-.85,2-1,.95-2.15,1.38-2.42,3.54-2.61.32-2.64,2.03-3.06,4.46-3.39,2.64.62,2.55,4.05,3,6Z"/>
    <path class="cls-18" d="M124.23,131c-5.26,4.87.85,4.83-8,6,2.73-4.11-4.89-2.72-4-6,3.3.07,9.33-.63,12,0Z"/>
    <path class="cls-282" d="M26.23,133c.85,1.75,2.3-1.42,4.41-1.08.69.11.81,1.84,1.67,2.45,1.32.95,2.3,1.34,3.92,2.62-1.02,1.15-2.69,1.82-5,2,.61,2.56-.12,2.82-2,1-.13.96-.47,1.63-1,2-.31.31-.7.77-1,1-.2.16-1.53-.36-1.86.1-.28.38-.09,3.5-1.14,5.9-.12-6.34-.7-10.18,2-16Z"/>
    <path class="cls-76" d="M30.23,153c.87.28.86.62,0,1,.81.09,1.15.43,1,1l1.54,11.75c-.23,5.65,6.5,6.19,10.91,6.16,21.48-1.5,43.12-1.88,64.91-1.14,12.31.98,11.96-9.25,10.64-17.77.44.03,1.9-.14,2,0,.54.72,0,15.37,0,18.01-1.53.87-2.95,2.42-4.71,2.79-10.17,2.17-20.91.21-30.74.16-15.17-.07-34.27,3.03-48.98.98-8.09-1.12-8.03-11.46-8.61-18.52-.2-2.4,1.05-4.19,1.05-4.41.28-.87.62-.86,1,0Z"/>
    <path class="cls-289" d="M39.23,142l1,5c2.8,1.13,3.44,5.17,1,7,3.22,2.19,3.89,4.19,2,6,1.84.37,2.72.76,1,2,1.55.95,1.86,1.6,0,2l-.94.47c-2.18-3.67-3.86-7.49-5.06-11.47-.82,2.9-1.55,2.46-3,0-1.51.74-3.65.83-5,0h-1c-.12-2.89-1.95-7.35-1-11,.19-.19.11-1.31,1-2,1.94.91,1.94,2.09,0,3l1.33.39c-1.77,8.43,7.97,9.96,5.83,1.37l1.84-1.77c-2.39-1.01-2.39-2.01,0-3-.87-.28-.86-.62,0-1h1c2.22.43,1.63,1.86,0,3Z"/>
    <path class="cls-220" d="M113.23,139c.9,1.8.48,6.27-2,5-2.05-3.68-5.91-4.66-11.56-2.96-12.15-1.6-24.18-3.06-36.39-4.03-6.81-.54-16.68-.71-20.61,5.81l-2.44.19c-.47.24-.8-.09-1-1-.02-.97-.1-2.05,0-3,.24-2.32-.33-4.9,2.7-5.8,3.62-1.08,13.3-.08,17.84-.15,12.12-.19,25.72-.95,38-.09,4.34.3,14.87,1.02,15.46,6.04Z"/>
    <path class="cls-122" d="M114.23,140c2.34.99,2.34,1.99,0,3,.89.19.85.52,0,1,.87.28.86.62,0,1-.39,2.08-.72,4.08-1,6,1.43.41,2.19.81,1,2-.35,1.48-1.01,2.14-2,2,1.22,7.83-5.61,12.97-13,10-14.85.92-30.14.9-45,0-3.16.88-8.64,2.14-10-1-.1-.63.15-1.46,0-2l1.35-.86c18.95,2.64,38.69,1.88,57.64.25,4.82-1.09,7.49-4.89,8.01-11.39-3.18-.82-2.16-3.1,0-5-.87-.25-.85-.58,0-1,.04-.28,2.32-2.27,2-5h1c.86.24.84.58,0,1Z"/>
    <path class="cls-7" d="M36.23,137c.72.57,1.28,1.41,2,2v1c-.84,2.34-6.9,1.89-7-1,1.27-.82,1.81-2.99,5-2Z"/>
    <path class="cls-180" d="M121.23,139c-.75,2.13-5.6,2.75-7,1,.03-.33-.05-.68,0-1,.05-.36-.1-.78,0-1,2.76-.82,5,.61,7,1Z"/>
    <path class="cls-66" d="M118.23,154c4.12,8.99,1.11,19.31-10.65,17.79-21.42-.83-42.59-.46-63.5,1.11-6.89.54-10.67-1.52-11.32-6.19l-1.53-11.71c-.14-.3-.78-.6-1-1,.62-.91,2.07-.65,3,0l2.26.26c.06,3.59,1.85,5.98,4.05,8.65l3.69,3.09c1.51-1.11,5.71-.41,7,1,17.33-.18,34.67-.18,52,0l.5-1.07c4.94-.12,8.44-2.76,10.5-7.93-.36-1.93-.03-3.59,1-5,.31-.89.64-.88,1,0,.51,1.32,1.9.93,3,1Z"/>
    <path class="cls-38" d="M119.23,154c1.63,6.62,2.81,15.63-4.72,18.78-21.6.46-43.21.15-64.82.17-2.16,0-4.12,1.05-6,1.07s-10.18-1.73-10.99-3c-1.56-2.43-1.33-12.71-1.46-16.04,1.58,3.33,2.46,14.17,3.99,15.51,3.46,3.03,26.44-.24,32.61-.39,12.93-.31,27.15.3,38.89.55,12.16.26,14.43-5.48,11.51-16.67.33.02.67-.02,1,0Z"/>
    <path class="cls-222" d="M123.23,143c1.35,4.35,1.02,7.02-1,8-1.34.7-2.34.7-3,0-1.81-.6-2.25-2.23-1.32-4.88-2.1.25-3.33-.45-3.68-2.12,0-.33-.01-.67,0-1,.26-2.7,6.89-3.52,8-1,.24.36.9.7,1,1Z"/>
    <path class="cls-266" d="M121.23,139c.58.25.66,2.47,1,3l-8,1c.03-.99-.09-2.02,0-3,1.48-.92,5.71-1.56,7-1Z"/>
    <path class="cls-211" d="M115.23,153c-.35.04-.72-.08-1,0-.03-.53-.95-1.44-1-2,.28-.87.62-.86,1,0,.28-.87.62-.86,1,0,2.25.88,4.73.79,7,0,1.97-1.98.72-5.34,1-8,3.78,11.73-.15,9.03-8,10Z"/>
    <path class="cls-41" d="M31.23,139l7,1c.04,1-.07,2.01,0,3-.48,3.1-8.26,2.96-9,0,0-1,0-2,0-3,.82-.63,1.52-.69,2-1Z"/>
    <path class="cls-298" d="M35.23,153c2.24,2.46-.43,4.03-2,1-.98.1-2.01-.07-3,0v-1c1.66-.07,3.34.1,5,0Z"/>
    <path class="cls-158" d="M111.23,144c-.05.33.05.67,0,1-1.75,4.62-13,13.74-17,9-.86-.14-1.2-.47-1-1-.87-.28-.86-.62,0-1-.9-.18-.87-.52,0-1-.87-.32-.86-.65,0-1-11.19-.73-22.53-1.07-34-1-2.29,6-13.69,12.98-18,5-.62-2.87-.83-3.97-1-7-.62-1.23-.89-2.85,0-4,4.86-8.84,12.53-7.93,21.49-8,13.91-.1,25.1,3.06,38.06,4.04,4.34.33,12.16-3.58,11.45,4.96Z"/>
    <path class="cls-260" d="M111.23,145c-.23,1.55.15,3.39,0,5-1.36,10.86-5.39,11.83-15.36,9.97-17.26,2.74-35.83,4.95-52.64.03-.99-2.44-1.4-3.24-2-6,4.04,3.68,10.27.3,14.26-1.97,1.37-.78.56-2.55,3.74-3.03.87.28.86.62,0,1,1.35,1.02.43,1.7-1,2,.79.22,1.13.56,1,1,11.64.63,23.3.96,35,1,7.85-.29,10.47-5.77,17-9Z"/>
    <path class="cls-213" d="M44.23,162c-.18-.65-.73-1.33-1-2,9.31-.53,18.88,1.44,28.54,1.04,7.9-.33,16.36-2.41,24.01-3.07,2.37-.2,5.11.97,8.19.68,6.7-.64,4.31-4.13,7.26-8.65-1.16,12.19-1.39,13.18-14.46,14.04s-31.43.83-44.08,0c-2.95-.19-5.77-.88-8.47-2.04Z"/>
    <path class="cls-19" d="M38.23,143c.37,5.45,2.51,9.09-5.54,9.05-4.92-.02-3.48-5.08-3.46-9.05h9Z"/>
    <path class="cls-37" d="M38.23,153c1.79,4.5,3.46,8.83,5,13-7.23-1.81-4.08-2.77-6.28-4.78-.55-.5-2.2.02-2.54-.33-.55-.56-.19-5.43-1.18-6.88.84-.09,1.72-.01,2-1,.99-.06,2.01.07,3,0Z"/>
    <path class="cls-6" d="M44.23,164c2.56,1.69,6.91.89,10,1,.87.28.86.62,0,1-.95.5-2.29.83-4,1-2.32-.27-4.73-.43-7-1-2.82-3.73-4.4-8.36-5-13,.11,0,.25-1.2.98-1,.73,3.09,2.35,10.25,5.02,12Z"/>
    <path class="cls-118" d="M40.23,143c.19,1.19-.07,2.7,0,4-1.61-.84-.96-3.39-1-5,.48.11.93.53,1,1Z"/>
    <path class="cls-273" d="M99.23,165c.87.28.86.62,0,1-14.81,1.35-30.23,1.68-45,0v-1c14.24.5,30.8.65,45,0Z"/>
    <path class="cls-198" d="M114.23,144h6.01s-1.01,7-1.01,7c-1.26.94-2.61.6-4,0h-1c-1.08-1.05-.65-4.22,0-6v-1Z"/>
    <path class="cls-139" d="M113.23,158c-2.12,6.8-3.95,8.36-11,9-1.2-.21-2.2-.54-3-1v-1c4.94-.23,9.04.61,11.78-4.73.96-1.88.7-3.96,1.22-5.27,1.12-.53,1.45.47,1,3Z"/>
    <path class="cls-215" d="M114.23,151h-1c-.16-1.76-.53-5.03,1-6v6Z"/>
    <path class="cls-213" d="M113.23,158l-1-3c.4-.99.94-1.69,2-2,.17,2.8-.36,2.93-1,5Z"/>
    <path class="cls-140" d="M54.23,166c14.6-.36,30.43-.49,45,0,1.1.04,2.52-.3,3,1-16.22,1.48-35.86,1.9-52,0,.69-1.5,2.68-.97,4-1Z"/>
    <path class="cls-215" d="M119.23,151h3c-1.56,1.57-5.53,1.75-7,0h4Z"/>
    <path class="cls-246" d="M60.23,150c11.22-.2,22.22.13,33,1,.06.32-.05.67,0,1-11.57.78-23.24.78-35,0-.08-.84.32-1.53,1-2,.29-.7.63-.68,1,0Z"/>
    <path class="cls-16" d="M93.23,153c.45.04.9.53,1,1-9.25.35-23.78,1.03-32.61.05-1.54-.17-1.41-.33-2.39-1.05,11.38-.9,22.71-.9,34,0Z"/>
    <path class="cls-108" d="M93.23,152v1c-10.78-1.04-23.05.77-34,0-.38-.28-.92-.15-1-1h35Z"/>
    <path class="cls-100" d="M93.23,150c-10.82.34-21.82.34-33,0h-1v-1c7.31-1.1,20.5-.1,28.51-.02,1.69.02,4.45-.64,5.49,1.02Z"/>
    <path class="cls-34" d="M93.23,150c.1.05-.07.67,0,1l-33-1c6.18,1.4,28.99-1.87,33,0Z"/>
  </g>
</svg>