<?xml version="1.0" encoding="UTF-8"?>
<svg id="_图层_2" data-name="图层 2" xmlns="http://www.w3.org/2000/svg" viewBox="0 0 132.43 174.06">
  <defs>
    <style>
      .cls-1 {
        fill: #4b4b4e;
      }

      .cls-2 {
        fill: #b42f2c;
      }

      .cls-3 {
        fill: #232222;
      }

      .cls-4 {
        fill: #2c2c2c;
      }

      .cls-5 {
        fill: #c9c8c5;
      }

      .cls-6 {
        fill: #cb3d3b;
      }

      .cls-7 {
        fill: #535255;
      }

      .cls-8 {
        fill: #682225;
      }

      .cls-9 {
        fill: #b1b0af;
      }

      .cls-10 {
        fill: #434143;
      }

      .cls-11 {
        fill: #3b3a3d;
      }

      .cls-12 {
        fill: #5267a4;
      }

      .cls-13 {
        fill: #e6e6e1;
      }

      .cls-14 {
        fill: #d2d2d1;
      }

      .cls-15 {
        fill: #57575b;
      }

      .cls-16 {
        fill: #deddda;
      }

      .cls-17 {
        fill: #d34644;
      }

      .cls-18 {
        fill: #969697;
      }

      .cls-19 {
        fill: #47474a;
      }

      .cls-20 {
        fill: #1b1a1a;
      }

      .cls-21 {
        fill: #3e5494;
      }

      .cls-22 {
        fill: #fdfdfd;
      }
    </style>
  </defs>
  <g id="_图层_1-2" data-name="图层 1">
    <path class="cls-3" d="M128.26,84.76l-1-1c.83.24.93.97,1,1Z"/>
    <path class="cls-4" d="M2.26,85.76c.22-.34.66-.8,1-1l-1,1Z"/>
    <path class="cls-4" d="M117.26,2.76c-1.67-1.13-3.55-.98-5.45-1.04-29.3-.88-58.76.76-88.07.02-3.85.48-8.36,2.62-8.47,7.02,2.33.26,3.07-2.13,4.99-2.99-.39.55-.59,1.59-1,2-.82.83-2.29.92-2.8,2.68-1.15,3.99-.67,14.61-1.32,19.72-.19,1.52-.27,5.31-2.88,4.6.25-6.17-.42-13.78-.04-19.45.49-7.32,2.38-12.96,9.77-15.31l93.05.51c1.26.39,1.58,1.38,2.22,2.25Z"/>
    <path class="cls-10" d="M10.26,149.76l2.49-5.99c1.74,1.49,3.77,3.18,5.82,4.18,16.29,7.95,56.32,6.67,75.02,5.43,8.52-.57,19.73-4.68,26.66-9.62-.95,20.52-9.31,25.53-28.54,26.98-1.9.14-4.02.93-3.45-1.98,6.59-1.48,2.53-8,2-8h-46.5c-1.11,0-4.8,5.11-3.41,6.94.58.31,1.58-.11,1.91.06,2.17,1.12,2.71,1.72,5.5,2,8.98.9,25.36.68,34.5,0,.96-.07,1.73-.96,2-1,.64-.09,1.43.13,2,0v3c-2.65.05-5.34-.06-8,0-4.54.1-9.08-.47-13.54.84l-1.96-.84h-19c-4.3,0-12.08-4.66-16.5-2-.65-.06-1.34,0-2,0-2.17-3.23-7.68-2.64-7.08-6.87l-3.92-.14,1.93-1.41c-1.16-2.7-2.13-8.12-5.93-8.58-.05-.99.07-2.01,0-3ZM19.89,154.84c-6.29,6.54,10.59,12.84,13.87,8.92.5-1.57,2.39-4.25.52-5.5l-14.39-3.42ZM113.26,154.76c-.59-.6-11.03,2.1-12.79,2.7-5.31,1.82-9.32,2.94-2.44,7.02,6.57,2.99,17.24-1.42,15.23-9.73ZM93.26,157.77l-1.99.49,1.99,1.5v-1.99Z"/>
    <path class="cls-4" d="M12.26,65.76c-.03,8.94-.99,21.04-.04,29.54.17,1.5.21,3.09,2.03,3.46.38-2.11-.77-4.06-.99-6,.98-.29.92-1.15,1-2,.07-.65-.02-1.34,0-2,1.6-.84.97-3.4,1-5h2c-.14,1.31.13,2.69,0,4-.4,3.93-.75,8.06-1,12-.13,2.05-.94,3.97-1,6l-2.85,1.65c-.55,3.23.23,6.55-.23,9.78-.28,1.97-1.89,4.26-1.92,4.57h-1c.55-5.97,1.63-11.89,1-17.99-11.49.49-11.33-5.88-9-15.01l1.44,9.06,7.57.94c-.62-4.9,2.11-11.18-3-14,1.07-.08,2.08-.46,3-1,2.38-2.29.79-15.38,0-19-1.12-5.1-4.64-9.34,1-14,2.23,6.49,1.03,7.7,1,15Z"/>
    <path class="cls-2" d="M19.26,7.76v3c.97-.09,2.07.15,3,0-1.02,4.16-.19,7.35,0,11l-1.03,1.45c1.13,9.33-4.01,16.18-5.68,25.35-1,5.5-1.07,9.72-1.29,15.21l-2,2c.03-7.3,1.23-8.51-1-15-1.19-3.46.84-11.93,1-16,2.61.71,2.69-3.09,2.88-4.6.65-5.11.17-15.72,1.32-19.72.51-1.76,1.98-1.86,2.8-2.68Z"/>
    <path class="cls-3" d="M10.26,121.76c-.32,3.38-.57,15.71,1.28,17.77.64.71,2.35.82,2.72,1.23.27.3.16,1.95,1.45,3.01,6.05,4.99,16.28,7.99,24.05,7.99h31.5c.22-1.76-2.26-.95-3.49-1-8.81-.37-20.29,1.26-28.51-1-1.09-7.91-7.42-11.96,4-13,1.62-.15,3.35.05,5,0,4.97-.16,10.02.02,15,0,.67,0,1.33,0,2,0,10.38.05,20.68-.21,31,1.01l-4.98,11.51c-.39,1.29.2,1.95,1.47,1.47,4.93-1.88,4.08-9.34,7.48-13.31,1.43-1.66,9.68-5.28,12.04-6.68l1-1,4.11.58c1.37,2.72.55,5.75.89,8.42-2.54,2.89-5.14,3.5-8,5,5.24-2.12,10-7.8,5.47-13-7.37,3.15-17.3,6.56-17.46,15.99,3.39-1.59,8.99-1.78,11.99-3-.33.17-.8,1.39-2.4,2.05-4.3,1.8-9.22,2.36-13.6,3.96-.08,1.8-.51,2.1,1.48,1.99,7.19-.39,17.34-4.52,22.48-9.57.96-.94.79-2.12,1.03-2.43.55-.71,2.28-.85,2.8-2.68.6-2.1.17-5.04.2-7.32h1c-.18,3.46-1,8.95-1,11.5v21c0,1.75-3.03,6.61-5,7.5-1.68.76-7.57,1.89-9.54,2.02-9.66.61-19.67,1.49-29.46,1.98v-2c2.66-.06,5.35.05,8.01,0v-3c.59-.14,1.4.13,1.99,0-.57,2.92,1.55,2.13,3.45,1.98,19.23-1.46,27.6-6.46,28.54-26.98-6.94,4.93-18.14,9.05-26.66,9.62-18.7,1.24-58.72,2.52-75.02-5.43-2.05-1-4.08-2.69-5.82-4.18l-2.49,5.99c-.64-9.64-1.87-18.56-1-28h1ZM61.26,137.76c-4.48.06-8.99-.08-13.49.01l-9.52,2.48,23.01-.49c.24,2.72,1.28,3.02,2,6-2.78-2.25-1.14.87-3.42,1.09-5.3.52-11.22-.12-16.52-.66-1.36-.14-2.38-1.43-2.05,1.05,5.57,3.34,13.26,2.63,19.54,2.52,1.48-.03,2.89-.99,3.45-1.01,1.66-.04,3.34.09,5,0,7.2-.38,15.69,1.09,22-2.5l-2-.5v-1c.99-.08,2.01.06,2.99,0v-1.99c-3.64.16-7.37-.24-10.99,0-.99.06-2.01-.08-3,0v2c-.33,0-.66,0-1,0-.71-1.61-2.75-.83-4-1-2.02-.28-3.98-.8-6.01-1.01-.15-.14,1.02-2.16,1.01-2.99l17-.99c-.58,1.38-5.1,1.66-6.62,1.87-2.45.33-4.93.07-7.37.13.69,1.78,5.92,1.12,7.54,1.03,3.6-.21,8.44-.61,12-1,1.5-.16,3.08-.22,3.46-2.03-9.01-.69-17.95-.96-27-1.01-2-.01-4-.03-6,0ZM47.26,140.77h-2.99v.98h2.99v-.98ZM57.26,143.76c-2.16-.2-16.68-1.62-17.01-.49-.7,2.4,2.21,1.32,3.53,1.46,4.2.43,9.45,1.52,13.48,1.03.69-.08,2.03.43,2.01-.51.32-2.12-.4-1.34-2.01-1.49Z"/>
    <path class="cls-18" d="M117.26,2.76c.16.21-.16.77,0,1,.51.75,3.23,4.8,3,4.99-2.68.41-2.65-2.67-5-3.99-1.61-.9-2.68-.9-4.43-1.04-27.98-2.36-59.25,1.85-87.57.04h-2s0,2,0,2c-.31.11-.73-.12-1,0-1.92.86-2.67,3.26-4.99,2.99.11-4.4,4.63-6.54,8.47-7.02,29.32.74,58.77-.9,88.07-.02,1.9.06,3.79-.09,5.45,1.04Z"/>
    <path class="cls-11" d="M121.26,13.76c2.71,17.24,4.34,34.38,1.95,51.45-.78,5.55.68,12.78.05,18.56,1.2.21,3-.3,4.01,0l1,1c.31.12.79-.14,1,0,.11.96-.16,2.09,0,3l-7-1c.24-.75,2.28-.76,2-1.5s-1.91-1.25-2-1.5c-.83-2.48,1.4-7.91-1-10-.18-12-.65-24-1-36,0-.33,0-.67,0-1l1.99,2.99c-.67-8.5-.39-17.63-1.99-25.99h1Z"/>
    <path class="cls-3" d="M122.26,83.76c.08.25,1.73.79,2,1.5s-1.76.75-2,1.5c-.89,2.84.64,9.56,0,13-.52.16-.73,1.51-1,2-.98.11-2.01-.08-2.99,0v1.99s2.99,0,2.99,0c.16-.6-.19-1.65,0-2,2.06-.24,4.31.26,6.34-.92,1.17-.73,1.43-2.78,1.66-4.08.55-3.04.45-6.35,0-9-.16-.91.11-2.04,0-3,4.96,3.47,2.46,10.19,3.02,15.29l-10.12,5.11c-2.13,2.55.02,4.1.1,5.6l-2-1c-.22-1.92-.41-1.69-1-3-.44-.98-2.13-3.64-3-4,.05-2.58.19-5.46,0-8,1.53,1.86,2.22,3.59,4.99,3-.01-2.32.04-4.67,0-7-.01-1-.02-2,0-3v-4h1Z"/>
    <path class="cls-19" d="M7.26,84.76c5.12,2.82,2.38,9.11,3,14l-7.57-.94-1.44-9.06c.34-1.34-.02-1.45,1-3l1-1c2.94-1.75,2.96.07,4,0Z"/>
    <path class="cls-3" d="M10.26,152.76c3.8.46,4.78,5.88,5.93,8.58l-1.93,1.41,3.92.14c-.6,4.23,4.9,3.64,7.08,6.87-1.97.01-6.14,2.01-9,1-.31-.79-2.51-1.91-3.26-3.23-3.55-6.18-2.39-8.2-2.74-14.77Z"/>
    <path class="cls-19" d="M122.26,110.76c.44,7.48,1.39,11.48,1,19h-1c.08-6.3-1.26-13.51-2-20l2,1Z"/>
    <path class="cls-3" d="M121.26,13.76h-1l-.99-2c.09,1.98-.16,4.02-.01,6h-1c-.24-4.06,1.09-9.31-3-12v-1c2.35,1.32,2.32,4.4,5,3.99.23-.19-2.49-4.24-3-4.99,5.79.59,3.41,6.21,4,10Z"/>
    <path class="cls-19" d="M10.26,83.76v-19c.79,3.62,2.38,16.71,0,19Z"/>
    <path class="cls-20" d="M42.26,167.76c-.33-.17-1.32.25-1.91-.06-1.4-1.84,2.3-6.94,3.41-6.94h46.5c.53,0,4.59,6.52-2,8-.6.13-1.41-.14-2,0s-1.36-.09-2,0v-1c2,0,4.01.01,6.01,0,3.1-6.24-7.64-7.98-8.9-4.36-.95,2,.5,3.12.9,4.35.16.51-.11,1.38,0,2-9.14.68-25.52.9-34.5,0-2.78-.28-3.33-.89-5.5-2h9s-.44-5.06-.44-5.06c-5.1-2.39-9.85-1.53-8.56,5.06ZM77.76,162.76c-7.93.92-17.39-.68-25.5,0l1.11,5.88c8.69-.1,17.68.98,26.25-.83l.63-6.05c-1.12-.38-2.07.95-2.49,1Z"/>
    <path class="cls-3" d="M113.26,154.76c2.01,8.31-8.66,12.72-15.23,9.73-6.88-4.09-2.87-5.2,2.44-7.02,1.76-.61,12.2-3.3,12.79-2.7Z"/>
    <path class="cls-3" d="M19.89,154.84l14.39,3.42c1.88,1.25-.02,3.94-.52,5.5-3.28,3.91-20.17-2.39-13.87-8.92Z"/>
    <path class="cls-4" d="M78.26,171.76v2c-12.47.63-26.99.28-39.38-1.12-3.74-.42-8.56-2.6-11.62-2.88,4.42-2.66,12.2,2,16.5,2h19l1.96.84c4.46-1.32,9-.75,13.54-.84Z"/>
    <path class="cls-3" d="M84.26,167.76v1c-.27.04-1.04.93-2,1-.11-.62.16-1.49,0-2,.67,0,1.33,0,2,0Z"/>
    <polygon class="cls-3" points="93.26 157.77 93.25 159.76 91.27 158.26 93.26 157.77"/>
    <path class="cls-6" d="M22.26,107.76c-6.3,3.3-1.18,11.14,0,16-.78-.22-2.08.15-3,0-1.19-4.85-1.47-9.49-2.29-14.25-.18-1.02-.3-3.9-1.71-3.75-.25,8.28,1.57,12.63,3.31,20.24.43,1.9,1.16,2.88-.31,4.76-.83-.25-2.57-.36-3.03.65-.73,2.48-1.39,6.06.03,8.35l-1,1c-.37-.4-2.08-.52-2.72-1.23-1.85-2.06-1.61-14.39-1.28-17.77.03-.31,1.64-2.6,1.92-4.57.46-3.23-.32-6.55.23-9.78l2.85-1.65c.06-2.03.87-3.95,1-6h1c-.02,4.01,2.55,5.52,5,8Z"/>
    <path class="cls-2" d="M27.26,31.76c-.36.82-1.77.78-2,1-1.58,1.57-.9,2.21-1,4-.42,7.28,1.32,15.94,1,24-.01.33.02.67,0,1s.02.67,0,1c-1.68,1.79-1.98,4.66-2.51,6.99-1.56,6.84-5.47,23.88-5.49,30.01h-1c.25-3.94.6-8.07,1-12,4.61-17.4,6.47-35.35,4.35-53.37l.79-2.5c1.59-.39,3.24-.07,4.86-.13Z"/>
    <path class="cls-20" d="M22.26,22.76c.09.98-.11,2.02,0,3,.19,1.72-.63,4.1,1.64,4.86l14.36.14,1-1c.89.46,2,1.01,3,1v1c-1.33.01-2.67-.01-4,0-.67,0-1.33,0-2,0-2.99.04-6.01-.1-9,0-1.62.06-3.26-.26-4.86.13l-.79,2.5c2.12,18.02.27,35.97-4.35,53.37.13-1.31-.14-2.69,0-4,.95-8.9,3.9-18.58,4.05-27.47.02-1.11.54-2.79-1.03-2.52.19,2.09-2.53,3.86-3.01,4.99.33-1.37-.41-3.01.51-4.97.63-1.34,2.98-2.19,3.33-3.73.47-2.06-.59-9.73-.86-12.3-1.37.48-2.2,4.59-2.52,5.96-.95,4.12-2.09,10.37-2.48,14.53-.26,2.75,1.98.62,2.01.5-3.19,7.48-1.84,16.9-2,25-.03,1.6.6,4.16-1,5,.04-1.33-.01-2.67,0-4,.02-2,0-4,0-6,.02-4.97-.2-10.04,0-15,.22-5.49.29-9.71,1.29-15.21,1.67-9.16,6.81-16.01,5.68-25.35l1.03-1.45c.02.33-.03.67,0,1Z"/>
    <path class="cls-19" d="M17.26,83.76h-2c.16-8.1-1.19-17.52,2-25,.48-1.13,3.2-2.9,3.01-4.99,1.58-.27,1.05,1.41,1.03,2.52-.15,8.89-3.1,18.57-4.05,27.47Z"/>
    <path class="cls-6" d="M14.26,78.76c-1.64,1.01-1.61,5.05,0,6-.01,1.33.04,2.67,0,4-.02.66.07,1.35,0,2-.94.06-1.09,1.26-1,2,.22,1.94,1.37,3.89.99,6-1.82-.38-1.86-1.97-2.03-3.46-.95-8.49,0-20.59.04-29.54l2-2c-.2,4.96.02,10.03,0,15Z"/>
    <path class="cls-2" d="M13.26,92.76c-.09-.74.06-1.94,1-2-.08.85-.02,1.71-1,2Z"/>
    <path class="cls-17" d="M112.26,4.76v5c-4.82-.2-9.72.27-14.54.04-20.6-.97-55.85-2.15-75.46.96-.93.15-2.03-.09-3,0v-3c.4-.41.6-1.45,1-2,.27-.12.69.11,1,0,.72-.25,1.44-.43,2-1h89Z"/>
    <path class="cls-8" d="M112.26,9.76c0,3.99.1,8.02,0,12-.39-.18-.82-.98-1-1l-.94-9.56c-1.45-1.01-12.17-.41-15.06-.44-19.61-.21-39.39-.31-59,0-2.59.04-10.63-.56-12.06.44l-.94,9.57c5.65.05,11.35-.09,17.01,0,1.89.03,4.91-.68,6,1-7.99.07-16.01-.05-24,0-.19-3.65-1.02-6.84,0-11,19.6-3.11,54.86-1.93,75.46-.96,4.82.23,9.72-.24,14.54-.04Z"/>
    <path class="cls-2" d="M119.26,106.76c.59,1.31.78,1.08,1,3,.74,6.49,2.08,13.7,2,20-.03,2.28.4,5.22-.2,7.32-.52,1.82-2.25,1.97-2.8,2.68-.48-.1-.94-.53-1-1-.34-2.67.48-5.7-.89-8.42l-4.11-.58c2.31-6.67,3.46-12.53,4.01-19.53.15-1.91-1.13-4.02,1.99-3.47Z"/>
    <path class="cls-19" d="M119.26,139.76c-.24.31-.08,1.49-1.03,2.43-5.14,5.05-15.3,9.18-22.48,9.57-1.99.11-1.56-.18-1.48-1.99,4.38-1.6,9.3-2.16,13.6-3.96,1.6-.67,2.08-1.88,2.4-2.05,2.86-1.5,5.46-2.11,8-5,.06.47.52.9,1,1Z"/>
    <path class="cls-20" d="M115.26,4.76v1c-.55-.36-2.25-.29-3-1H23.26v-1c28.32,1.81,59.59-2.4,87.57-.04,1.75.15,2.83.14,4.43,1.04Z"/>
    <path class="cls-4" d="M23.26,3.76v1c-.56.57-1.28.75-2,1v-2s2,0,2,0Z"/>
    <path class="cls-6" d="M115.26,5.76c4.09,2.69,2.76,7.94,3,12,.39,6.46-.15,13.71,2,20,.35,12,.82,24,1,36,.05,3.32-.03,6.67,0,10v2c-1.53.96,0,1.8,0,2-.02,1-.01,2,0,3-2.71,1.78-1.9.98-2-1.49-.64-15.96,2.13-40.12-5-54.51l.9-1.92-1.9-.08c-.04-.66.06-1.34,0-2-.24-2.54.94-6.28-1-8,.01-.33,0-.67,0-1,.1-3.98,0-8.01,0-12v-5c.75.71,2.45.64,3,1Z"/>
    <path class="cls-18" d="M120.26,13.76c1.6,8.36,1.32,17.5,1.99,25.99l-1.99-2.99c-.19-6.62-.49-12.5-1-19-.15-1.97.1-4.02.01-6l.99,2Z"/>
    <path class="cls-8" d="M120.26,36.76c0,.33,0,.67,0,1-2.15-6.29-1.61-13.54-2-20h1c.51,6.5.81,12.38,1,19Z"/>
    <path class="cls-20" d="M122.26,83.76h-1c-.03-3.33.05-6.68,0-10,2.4,2.09.17,7.52,1,10Z"/>
    <path class="cls-20" d="M114.26,34.76c7.13,14.4,4.36,38.55,5,54.51.1,2.46-.71,3.26,2,1.49.03,2.33-.02,4.67,0,7-2.78.59-3.47-1.14-4.99-3-1.68-22.03-8.95-35.45-4.42-59.48.19-.99-.09-2.78,1.42-2.52-.19.89.69,1.38,1,2ZM114.25,38.76c-1.4-1.48-1.82.1-1.99,1.48-.78,6.11-.03,12.39,4.99,16.52l-3-18ZM118.25,90.76c-2.47-12.35,3.33-25.48-5.98-35.99-.1,10.54,1.84,21.9,4.33,32.17.29,1.2.09,3.98,1.65,3.83Z"/>
    <path class="cls-2" d="M113.26,32.76l1.9.08-.9,1.92c-.31-.62-1.19-1.11-1-2-1.51-.26-1.23,1.53-1.42,2.52-4.53,24.03,2.74,37.45,4.42,59.48.19,2.54.05,5.42,0,8h-1c.47-14.4-5.97-28.95-7-43-.67-9.19,1.13-18.23.93-27.39l4.07-1.61c.06.66-.04,1.34,0,2Z"/>
    <path class="cls-19" d="M129.26,87.76c.45,2.65.55,5.96,0,9-2.39-.53-2.48,2.57-3.74,3.02-.95.34-2.47-.25-3.26-.02.64-3.44-.89-10.16,0-13l7,1Z"/>
    <path class="cls-8" d="M119.26,106.76c-3.11-.55-1.84,1.56-1.99,3.47-.55,7-1.7,12.86-4.01,19.53l-1,1c-.05-4.1,1.2-8.04,2-12,1.28-6.34,1.88-9.29,2-16,.87.36,2.56,3.02,3,4Z"/>
    <path class="cls-11" d="M129.26,96.76c-.24,1.3-.49,3.35-1.66,4.08-2.03,1.18-4.27.68-6.34.92-.19.35.16,1.4,0,2h-2.99s0-1.99,0-1.99c.98-.09,2.02.11,2.99,0,.27-.49.48-1.84,1-2,.78-.24,2.3.36,3.26.02,1.26-.45,1.35-3.55,3.74-3.02Z"/>
    <path class="cls-20" d="M121.26,87.76c0-.2-1.53-1.04,0-2v2Z"/>
    <path class="cls-19" d="M36.26,147.76c.87.23,2.09,1.75,3,2,8.22,2.26,19.7.63,28.51,1,1.23.05,3.71-.76,3.49,1h-31.5c-7.77,0-18-3-24.05-7.99-1.29-1.06-1.17-2.71-1.45-3.01l1-1c2.95,4.75,15.72,6.61,21,8Z"/>
    <path class="cls-2" d="M112.26,130.76c-2.35,1.4-10.61,5.02-12.04,6.68-3.4,3.97-2.55,11.42-7.48,13.31-1.27.49-1.86-.18-1.47-1.47l4.98-11.51c-10.32-1.22-20.61-.95-31-1.01,1.44-1.2,3.66-.6,3-3,.67.02,1.33,0,2,0,.13,0,1.11,1.04,2.42,1.04,4.22.02,25.59.33,27.38-2.26.68-.99.25-4.5,2.21-5.78,5.24,0,3.49-1.47,6.45-4.05,1.73-1.51,3.62-2.75,5.55-3.95-.8,3.96-2.05,7.9-2,12Z"/>
    <path class="cls-2" d="M22.26,123.76c1.33.38,4.25,3.74,6,5,1.09.79.88,2.89,3.96,1l.96,3.57c1.86,1.35,10.18-.94,10.08,3.43-11.42,1.04-5.09,5.09-4,13-.91-.25-2.13-1.77-3-2-2.95-9.32-6.59-11.48-15-15,.78-3.42-1.3-6.16-2-9,.92.15,2.22-.22,3,0Z"/>
    <path class="cls-6" d="M61.26,133.76c-.13,0-1.12.93-2.42,1.04-3.45.29-7.12-.29-10.59-.04v2c-1.64.05-3.37-.15-4.99,0,.1-4.37-8.22-2.07-10.08-3.43l-.96-3.57c-3.08,1.89-2.87-.21-3.96-1,2.97.75,1.69-2.57,2.93-3.58,2.69-2.19,10.73,5,14.25,5.9,5.52,1.42,11.25-.73,15.82,2.68Z"/>
    <path class="cls-4" d="M67.26,137.76c-.12.73,1,1.82,1,2,.01.84-1.16,2.85-1.01,2.99,2.03.21,3.99.73,6.01,1.01v1c-.96.08-1.97-.25-2.92.1-.38.59.08,1.54-.08,1.9-.3.68-.68,1.33-1,2-1.66.09-3.34-.04-5,0,0-1.09-.78-2.09-1-3-.72-2.98-1.76-3.28-2-6-.06-.66.04-1.34,0-2,2-.03,4-.01,6,0Z"/>
    <path class="cls-11" d="M63.26,145.76c.22.91,1,1.91,1,3-.55.01-1.97.98-3.45,1.01-6.28.11-13.97.81-19.54-2.52-.33-2.49.69-1.19,2.05-1.05,5.3.54,11.21,1.17,16.52.66,2.28-.22.64-3.34,3.42-1.09Z"/>
    <path class="cls-11" d="M61.26,137.76c.04.66-.06,1.34,0,2l-23.01.49,9.52-2.48c4.5-.09,9.01.05,13.49-.01Z"/>
    <path class="cls-11" d="M89.26,145.76l2,.5c-6.31,3.6-14.79,2.13-22,2.5.32-.67.7-1.32,1-2,6.36-.09,12.78.53,19-1Z"/>
    <path class="cls-20" d="M73.26,144.76c1.31-.11,2.68.03,4,0,.33,0,.67,0,1,0,1-.02,2,.01,3,0,2.63-.04,5.39.2,8,0v1c-6.22,1.53-12.64.91-19,1,.16-.37-.29-1.31.08-1.9.95-.34,1.96-.02,2.92-.1Z"/>
    <path class="cls-11" d="M57.26,143.76v2c-4.02.48-9.28-.6-13.48-1.03-1.31-.13-4.23.94-3.53-1.46.33-1.13,14.84.29,17.01.49Z"/>
    <path class="cls-11" d="M67.26,137.76c9.05.05,17.99.32,27,1.01-.38,1.81-1.96,1.87-3.46,2.03-3.56.39-8.4.79-12,1-1.61.09-6.85.75-7.54-1.03,2.44-.07,4.92.2,7.37-.13,1.52-.21,6.04-.49,6.62-1.87l-17,.99c0-.18-1.12-1.27-1-2Z"/>
    <path class="cls-2" d="M63.26,133.76v3c-4.98.02-10.03-.16-15,0v-2c3.46-.25,7.13.33,10.58.04,1.3-.11,2.29-1.04,2.42-1.04.66-.03,1.33.02,2,0Z"/>
    <path class="cls-11" d="M81.26,142.76c3.63-.23,7.36.16,10.99,0v1.99c-.99.07-2.01-.07-2.99,0-2.61.2-5.37-.04-8,0v-2Z"/>
    <path class="cls-6" d="M68.26,133.76c.66,2.4-1.56,1.8-3,3-.67,0-1.33,0-2,0v-3c1.66-.04,3.34-.04,5,0Z"/>
    <path class="cls-4" d="M81.26,142.76v2c-1,.01-2-.02-3,0v-2c.99-.08,2.01.06,3,0Z"/>
    <path class="cls-4" d="M57.26,143.76c1.61.15,2.32-.63,2.01,1.49.03.94-1.31.43-2.01.51v-2Z"/>
    <path class="cls-11" d="M77.26,144.76c-1.32.03-2.69-.11-4,0v-1c1.25.17,3.29-.61,4,1Z"/>
    <rect class="cls-11" x="44.27" y="140.77" width="2.99" height=".98"/>
    <path class="cls-4" d="M77.76,162.76c.43-.05,1.37-1.37,2.49-1l-.63,6.05c-8.56,1.81-17.55.73-26.25.83l-1.11-5.88c8.11-.68,17.57.92,25.5,0Z"/>
    <path class="cls-4" d="M42.26,167.76c-1.28-6.59,3.46-7.45,8.56-5.06l.44,5.06h-9Z"/>
    <path class="cls-4" d="M82.26,167.76c-.4-1.23-1.85-2.35-.9-4.35,1.26-3.63,12-1.88,8.9,4.36-2,.01-4.01,0-6.01,0-.67,0-1.33,0-2,0Z"/>
    <path class="cls-5" d="M18.26,130.76c.17.05,1.78,1.49,3,2,8.41,3.52,12.05,5.68,15,15-5.28-1.39-18.05-3.25-21-8-1.42-2.29-.76-5.87-.03-8.35.46-1.01,2.2-.89,3.03-.65Z"/>
    <path class="cls-8" d="M19.26,123.76c.7,2.84,2.78,5.58,2,9-1.22-.51-2.83-1.95-3-2,1.47-1.88.74-2.86.31-4.76-1.74-7.61-3.55-11.96-3.31-20.24,1.41-.15,1.54,2.73,1.71,3.75.82,4.76,1.09,9.4,2.29,14.25Z"/>
    <path class="cls-11" d="M29.26,62.76c-1.08,6.51,2.73,12.04,6.96,16.54,7.95,8.48,26.72,19.25,38.48,17.4,4.44-.7,15.64-5.84,19.49-8.5,5.69-3.94,8.3-10.07,15.07-12.43,1.01,4.51,7.24,26.67,3.3,29.03-1.31.79-10.68,2.51-12.94,2.83-11.67,1.68-21.47,1.16-32.82,1.09-8.18-.05-42.14.9-46.62-5.38-3.05-4.28,4.49-32.76,5.08-40.58.02-.33-.02-.67,0-1,1.59-.79,3.35.92,4,1Z"/>
    <path class="cls-6" d="M36.26,31.76l1.49.99.51-.99c1.33-.01,2.67.01,4,0,2.66-.03,5.34.02,8,0,.65,17,3.7,24.6,22.49,22.99,6.09-.52,9.13-1.75,13.51-4.99-.57,3.42,4.52,2.91,7,3,.66.02,1.34.02,2,0,1-.04,2,.04,2.99,0,.67-1.57-.9-2.53-.99-3-.07-.34.09-.73,0-1-.16-.47.15-1.38,0-2-.65-.1-1.36.08-2,0,.24-7.38-10.92-6.69-10-15,.67,0,1.33,0,2,0,6.98.05,14.01-.05,21,0-1.67,7.11-1,14.69-1,21.99-4.62,2.71-8.89,1.41-13.49,2.01-12.26,1.62-35.95,6.08-47.32,1.32-1.57-.66-1.08-2.27-1.19-2.33,4.3-8.53-4.32-11-10.54-7.04-1.18,2.98-.82,4.31,1.54,6.04.77.57.83.82,2,1,.94.15,2.03-.1,3,0-1.79.19-3.25,1.51-6.55,1.05-2.95-.41-5.08-2.99-8.45-2.05,0-6.28-.14-10.81-1-17-.17-1.26.12-2.7,0-4,.23-.22,1.64-.18,2-1,2.99-.1,6.01.04,9,0Z"/>
    <path class="cls-3" d="M108.26,59.76c1.03,14.05,7.47,28.6,7,43-1.15.49-1.5,2.31-2.47,3.02-4.15,3.02-33.31,5.76-39.99,6.02-17,.68-33.71-2.38-50.54-4.04-2.45-2.48-5.02-3.99-5-8,.02-6.12,3.93-23.16,5.49-30.01.53-2.33.82-5.2,2.51-6.99-.58,7.81-8.13,36.29-5.08,40.58,4.48,6.28,38.44,5.34,46.62,5.38,11.35.06,21.15.58,32.82-1.09,2.26-.32,11.62-2.05,12.94-2.83,3.94-2.36-2.29-24.52-3.3-29.03-.62-2.75-1.17-11.32-2.48-13.02-2.1-2.73-5.48-.03-6.52.02-3.98.17-8.03-.19-12,0-13.94.67-27.94,1.51-42,1-3.1-.11-5.4-.8-8-1-2.89-.23-6.22.36-9,0-.65-.08-2.41-1.79-4-1,.02-.33-.01-.67,0-1h1c3.88-1.05,9.58,1,12.5,1h52c2.88,0,8.78-.8,12.5-1,1.87-.1,2.13-.76,3-1,.31-.09.68.06,1,0h1ZM69.26,109.77c-1.98.55-7.11-1.29-7.99.98,1.98-.55,7.11,1.29,7.99-.98Z"/>
    <path class="cls-8" d="M26.26,53.76c0,2.33,0,4.67,0,7h-1c.32-8.06-1.42-16.72-1-24h1c.86,6.19,1,10.72,1,17Z"/>
    <path class="cls-20" d="M25.26,36.76h-1c.1-1.79-.58-2.43,1-4,.12,1.3-.17,2.74,0,4Z"/>
    <path class="cls-4" d="M111.26,20.76c.18.02.61.82,1,1,0,.33.01.67,0,1-.02.66.05,1.34,0,2h-1c.56-3.02-1.53-1.94-3.45-2-3.84-.13-7.72.09-11.55,0,.03,1.33-.06,2.68,0,4,.07,1.44.16,2.77,1,4-.9-.02-1.81-.99-2-1v-7.01s-9.01,0-9.01,0c.19,1.92-.27,4.17,0,6.01-2.01,3.7-2.41,1.04-3,1l.42-7.02h-7.43s0,7.02,0,7.02c-.08,0-.4.68-1.2.67-.35,0-.61-.67-.8-.67l-.58-7.02h-14.43s0,7.02,0,7.02c-.32,0-.68,0-1,0l-.57-7.02h-7.43s0,7.02,0,7.02l-.98,1.01c.07-1.14-.65-2.02-1.02-3.01-.5-1.32.3-3.41-1.99-4.51l-7.01-.5v7s-1,1-1,1c-.04-1.66.05-3.34,0-5-.03-1,.05-2.01,0-3h-16.01c-.03-.33.02-.67,0-1,7.99-.05,16.01.07,24,0,1.33-.01,2.67,0,4,0,2.33-.01,4.67,0,7,0,6.65-.03,13.35.02,20,0,2,0,4,0,6,0s4,.01,6,0c7.31-.05,12.92-.1,20-1,.58-.07,1.42-.07,2,0Z"/>
    <path class="cls-1" d="M48.26,27.76c.38.99,1.09,1.87,1.02,3.01l.98-1.01c2.66,0,5.34.01,8,0,.32,0,.68,0,1,0,4.99.01,10.01-.03,15,0,.19,0,.45.67.8.67.8,0,1.12-.67,1.2-.67,2.31.02,4.7-.15,7,0,.59.04.99,2.7,3-1,.01.07.61-.38,1,1,.15.54-.1,1.37,0,2-.67,0-1.33,0-2,0-11.65-.07-23.35-.07-35,0-2.66.02-5.34-.03-8,0v-1c3.08-.03,3.71-1.32,6-3Z"/>
    <path class="cls-21" d="M38.26,25.76c.05,1.66-.04,3.34,0,5l-14.36-.14c-2.27-.76-1.45-3.14-1.64-4.86h16Z"/>
    <path class="cls-22" d="M48.26,27.76c-2.29,1.68-2.92,2.97-6,3-1,0-2.11-.54-3-1v-7s7.01.5,7.01.5c2.29,1.1,1.49,3.19,1.99,4.51Z"/>
    <path class="cls-1" d="M17.26,58.76c-.03.12-2.27,2.26-2.01-.5.39-4.16,1.53-10.41,2.48-14.53.32-1.37,1.15-5.49,2.52-5.96.27,2.57,1.33,10.24.86,12.3-.35,1.54-2.7,2.38-3.33,3.73-.92,1.96-.18,3.6-.51,4.97Z"/>
    <path class="cls-12" d="M22.26,22.76h16.01c.04.99-.04,2,0,3h-16c-.11-.98.09-2.02,0-3Z"/>
    <path class="cls-2" d="M38.26,31.76l-.51.99-1.49-.99c.67,0,1.33,0,2,0Z"/>
    <path class="cls-17" d="M116.26,102.76c-.12,6.71-.72,9.66-2,16-1.93,1.2-3.83,2.44-5.55,3.95-2.96,2.58-1.21,4.06-6.45,4.05l-1.37-1.94c-4.88,1.4-11.66,4.92-16.37,5.7-4.95.81-10.43-1.13-14.26,3.24-.67,0-1.33.02-2,0-1.66-.04-3.34-.04-5,0-.67.02-1.34-.03-2,0-4.57-3.41-10.3-1.26-15.82-2.68-3.51-.9-11.56-8.09-14.25-5.9-1.24,1.01.03,4.33-2.93,3.58-1.75-1.26-4.67-4.62-6-5-1.18-4.86-6.3-12.7,0-16,16.83,1.66,33.54,4.72,50.54,4.04,6.68-.27,35.84-3,39.99-6.02.97-.71,1.32-2.53,2.47-3.02h1ZM55.26,112.77l-25.99-3c-.39,2.14.94,2.4,2.5,2.99,3.18,1.22,19.09,3.71,21.82,2.83,1.32-.42,1.94-1.44,1.67-2.82ZM104.26,109.77l-26,3v2.99c1.12,1.17,21.12-2.39,24-3.55,1.61-.64,2.45.11,2-2.44Z"/>
    <path class="cls-2" d="M14.26,84.76c-1.61-.95-1.64-4.99,0-6,0,2,.02,4,0,6Z"/>
    <path class="cls-17" d="M95.26,10.76l-4,10c-.85.06-1.73.03-2,1-2,.01-4,0-6,0-.95-1.61-4.99-1.64-6,0-6.65.02-13.35-.03-20,0-1.26-1.65-5.74-1.65-7,0-1.33,0-2.67-.01-4,0-1.09-1.68-4.11-.97-6-1,.64-4.39-4.33-5.95-4-10,19.61-.31,39.39-.21,59,0Z"/>
    <path class="cls-6" d="M111.26,20.76c-.58-.07-1.42-.07-2,0-5.9.32-12.15-.45-18,0l4-10c2.89.03,13.62-.57,15.06.44l.94,9.56Z"/>
    <path class="cls-6" d="M36.26,10.76c-.33,4.05,4.64,5.61,4,10-5.65-.08-11.35.06-17.01,0l.94-9.57c1.43-1,9.48-.4,12.06-.44Z"/>
    <path class="cls-8" d="M113.26,30.76l-4.07,1.61c.2,9.16-1.61,18.2-.93,27.39h-1v-6c0-7.31-.67-14.88,1-21.99-6.98-.05-14.01.05-21,0-.1-.63.15-1.46,0-2,2.59,2.1,5.3-.1,8,0,.19,0,1.1.98,2,1,3.25.08,13.92,1.02,14.86-1.67.45-1.29.04-2.97.14-4.33.05-.66-.02-1.34,0-2,1.94,1.72.76,5.46,1,8Z"/>
    <path class="cls-1" d="M118.25,90.76c-1.56.15-1.36-2.63-1.65-3.83-2.49-10.27-4.43-21.63-4.33-32.17,9.31,10.52,3.51,23.64,5.98,35.99Z"/>
    <path class="cls-15" d="M114.25,38.76l3,18c-5.02-4.13-5.77-10.41-4.99-16.52.18-1.38.59-2.96,1.99-1.48Z"/>
    <path class="cls-6" d="M70.26,133.76c3.83-4.37,9.31-2.43,14.26-3.24s11.48-4.3,16.37-5.7l1.37,1.94c-1.95,1.29-1.52,4.79-2.21,5.78-1.79,2.59-23.16,2.28-27.38,2.26-1.31,0-2.29-1.04-2.42-1.04Z"/>
    <path class="cls-19" d="M109.26,75.76c-6.76,2.36-9.38,8.5-15.07,12.43-3.85,2.67-15.05,7.8-19.49,8.5-11.76,1.85-30.53-8.92-38.48-17.4-4.23-4.5-8.04-10.03-6.96-16.54,2.78.36,6.11-.23,9,0-1.67,7.72,4.79,13.21,10.52,16.98,14.77,9.72,31.44,9.82,44.83-2.13,5.08-4.53,7.85-7.42,6.65-14.85,1.05-.04,4.42-2.75,6.52-.02,1.3,1.69,1.86,10.27,2.48,13.02Z"/>
    <path class="cls-17" d="M85.26,31.76c-.92,8.31,10.24,7.62,10,15-.32-.04-.67,0-1,0-3.84-.05-3.99-.09-7,2-.38.26-.63.73-1,1-4.38,3.24-7.42,4.47-13.51,4.99-18.8,1.61-21.85-5.98-22.49-22.99,11.65-.07,23.35-.07,35,0Z"/>
    <path class="cls-2" d="M41.26,54.76c.76-.08,3.74-.15,4,0,.11.06-.38,1.67,1.19,2.33,11.37,4.76,35.06.3,47.32-1.32,4.6-.61,8.87.7,13.49-2.01v6c-.32.06-.69-.09-1,0l-3,1c-3.72.2-9.62,1-12.5,1h-52c-2.92,0-8.62-2.05-12.5-1,0-2.33,0-4.67,0-7,3.37-.93,5.5,1.64,8.45,2.05,3.3.46,4.75-.87,6.55-1.05Z"/>
    <path class="cls-11" d="M45.26,54.76c-.26-.15-3.24-.08-4,0-.97-.1-2.06.15-3,0l-2-1c-2.36-1.73-2.73-3.06-1.54-6.04,6.22-3.95,14.84-1.49,10.54,7.04Z"/>
    <path class="cls-15" d="M92.26,49.76c.52.3.87,2.24,1,3-2.48-.09-7.57.42-7-3,.37-.27.62-.74,1-1,1.18.72,4.26.58,5,1Z"/>
    <path class="cls-4" d="M95.26,46.76c.64.09,1.35-.1,2,0,.16.62-.16,1.53,0,2l-2,3v1c-.66.02-1.34.02-2,0-.13-.76-.48-2.7-1-3,1.25-.77,2.35-1.34,2-3,.33,0,.68-.04,1,0Z"/>
    <path class="cls-7" d="M97.26,49.76c.1.47,1.67,1.42.99,3-.99.04-2-.03-2.99,0v-1c1.71.25,2.37-.24,2-2Z"/>
    <path class="cls-9" d="M97.26,49.76c.37,1.76-.29,2.25-2,2l2-3c.09.27-.07.66,0,1Z"/>
    <path class="cls-2" d="M38.26,54.76c-1.17-.18-1.23-.43-2-1l2,1Z"/>
    <path class="cls-11" d="M69.26,109.77c-.88,2.27-6.01.43-7.99.98.88-2.27,6.01-.43,7.99-.98Z"/>
    <path class="cls-7" d="M46.26,63.76c5.57,15.83,39.43,18.4,42-1,3.97-.19,8.02.17,12,0,1.2,7.43-1.57,10.32-6.65,14.85-13.39,11.95-30.06,11.85-44.83,2.13-5.73-3.77-12.19-9.27-10.52-16.98,2.6.2,4.9.89,8,1Z"/>
    <path class="cls-15" d="M88.26,62.76c-2.57,19.4-36.43,16.83-42,1,14.06.51,28.06-.33,42-1Z"/>
    <path class="cls-8" d="M106.26,59.76c-.87.24-1.13.9-3,1l3-1Z"/>
    <path class="cls-13" d="M59.26,29.76v-7.01s14.42-.01,14.42-.01l.58,7.02c-4.99-.03-10.01.01-15,0Z"/>
    <path class="cls-21" d="M97.26,30.76c-.84-1.23-.93-2.56-1-4,4.58-2.55,10.72.62,15-2h1c-.1,1.36.31,3.04-.14,4.33-.94,2.69-11.61,1.75-14.86,1.67Z"/>
    <path class="cls-16" d="M86.26,28.76c-.27-1.83.18-4.09,0-6.01h9.01s0,7.01,0,7.01c-2.7-.1-5.41,2.1-8,0-.39-1.38-.99-.93-1-1Z"/>
    <path class="cls-13" d="M50.26,29.76v-7.01s7.43-.01,7.43-.01l.57,7.02c-2.66.01-5.34,0-8,0Z"/>
    <path class="cls-16" d="M76.26,29.76v-7.01s7.42-.01,7.42-.01l-.42,7.02c-2.3-.15-4.69.02-7,0Z"/>
    <path class="cls-12" d="M96.26,26.76c-.06-1.33.02-2.68,0-4,3.83.1,7.71-.12,11.55,0,1.92.06,4.01-1.02,3.45,2-4.28,2.62-10.42-.55-15,2Z"/>
    <path class="cls-8" d="M91.26,20.76c5.85-.45,12.1.32,18,0-7.08.9-12.69.95-20,1,.27-.97,1.15-.94,2-1Z"/>
    <path class="cls-8" d="M57.26,21.76c-2.33,0-4.67-.01-7,0,1.26-1.65,5.74-1.65,7,0Z"/>
    <path class="cls-8" d="M83.26,21.76c-2,0-4,0-6,0,1.01-1.64,5.05-1.61,6,0Z"/>
    <path class="cls-4" d="M104.26,109.77c.45,2.55-.39,1.8-2,2.44-2.88,1.15-22.88,4.71-24,3.55v-2.99s26-3,26-3Z"/>
    <path class="cls-4" d="M55.26,112.77c.28,1.38-.35,2.39-1.67,2.82-2.74.88-18.64-1.61-21.82-2.83-1.55-.59-2.89-.85-2.5-2.99l25.99,3Z"/>
    <path class="cls-14" d="M110.26,143.76c-3.01,1.22-8.6,1.41-11.99,3,.16-9.43,10.09-12.84,17.46-15.99,4.53,5.2-.22,10.87-5.47,13Z"/>
    <path class="cls-9" d="M94.26,46.76c.35,1.66-.75,2.23-2,3-.74-.42-3.82-.28-5-1,3.01-2.09,3.16-2.05,7-2Z"/>
  </g>
</svg>