<?xml version="1.0" encoding="UTF-8"?>
<svg id="_图层_2" xmlns="http://www.w3.org/2000/svg" version="1.1" viewBox="0 0 147 184.6">
  <!-- Generator: Adobe Illustrator 29.3.0, SVG Export Plug-In . SVG Version: 2.1.0 Build 146)  -->
  <defs>
    <style>
      .st0 {
        fill: #838286;
      }

      .st1 {
        fill: #dfe0de;
      }

      .st2 {
        fill: #2c2a31;
      }

      .st3 {
        fill: #434146;
      }

      .st4 {
        fill: #2d2c2d;
      }

      .st5 {
        fill: #6e6e75;
      }

      .st6 {
        fill: #191818;
      }

      .st7 {
        fill: #babab8;
      }

      .st8 {
        fill: #1e1c1d;
      }

      .st9 {
        fill: #c3c4c4;
      }

      .st10 {
        fill: #252324;
      }

      .st11 {
        fill: #d1d1cf;
      }

      .st12 {
        fill: #5b5a5f;
      }

      .st13 {
        fill: #acaba8;
      }

      .st14 {
        fill: #363337;
      }

      .st15 {
        fill: #9d9d9c;
      }

      .st16 {
        fill: #4f4e52;
      }

      .st17 {
        fill: #931a14;
      }
    </style>
  </defs>
  <g id="_图层_1-2">
    <path class="st13" d="M64,.2v1c-9.6.3-19.4,1.7-29,2C43.2,0,54.9.3,64,.2Z"/>
    <path class="st0" d="M98,175.2v1c-15.7-.1-29.7,1.6-46,0-2.4-.2-4.2-.8-6-1,16.8-1.1,35.3,1.4,52,0Z"/>
    <path class="st15" d="M102,176.2c-.3,0-.7,0-1,0,0-.5.5-.9,1-1v1Z"/>
    <path class="st11" d="M27,67.2c-1.4,8.5-4.5,16.7-6,25-.2.9.1,2.1,0,3-.5,3.5-.9,2,0,6,.8,3.8,1.6,6,3,9.5,2.8,6.8,9.2,14.1,7,21.5l-6-1,1-2-3.5,1.1-.6-2.1c-1.8-.3-.5,1.8-1.2,2.8-.4.6-1.6.1-1.8.2l-2-2v7c-3.1.7-2.3,1.3-3,3-.3.8-1.4,1.6-1,3-1.2-.8-2.6-1-4-1-.4-3.3,1.2-7.7-2-10,0-2,0-4,0-6,2.1-2.1.6-5.8,1.1-8.4.4-2,2.3-4.3,2.9-6.6,1-3.6,2.8-10.6,3-14h2c.2,8.4-.9,16.9,1.5,25,1.1-8.2-1.5-16.6-.5-25,1-8.8,6.1-20.7,9-29h1Z"/>
    <path class="st1" d="M88,.2c2.2,0,9.8-.1,10.3,0,.7.1.6,1.8,1.3,2,2.3.6,11.8-.4,13.1.3.2,0,.3,1.4.9,1.7,2.2,1.1,3.8.7,5.8,3,2.8,3.3,3.5,8.2,4.5,12,.9,3.4,1.2,7.7,2,11l-3.5,5c-.7-1.1-2.5-3.4-3.5-4,.2-5.5-.3-19.3-4.5-23-3.1-2.8-15.4-3.7-20-4-18.1-1-45.1-1-62.5,3-1.6,8.6-4.1,12.7-3,22,0,.2-2.7,2.6,2,3,1.2,6.8.6,9.4,0,16-.4,3.7-.8,7.2-1.7,10.8-.4,1.8.5,3.7-2.3,3.2,1.2-9.5,3-18.2,2-28-2.3-.4-2.9,1.6-4,3-1,1.2-2.4,2-2,4h-1c0-.2-1.1-1.8-.2-2.7l4.2-6.8-5-2.5c1.5-5.3,3-10.8,5-16,.6-1.6,1-3.1,1.2-4.8,1.4-1.1,3.2-.8,4.8-1.2.2-1.2-.3-2.7,0-4,.9-.3,2.3.2,2.9,0,9.6-.3,19.4-1.7,29-2,7.9-.3,17.1,1.8,24-1h0Z"/>
    <path class="st8" d="M9,141.2c.7,5.8,1.8,16,4.8,20.7,2.8,4.4,7.2,5.3,11.2,7.8.9.6.9,2.4,1,2.4-.1,4-3.5,3.3-6,5-2.6-.6-6.7-.4-9-1-3.1-.8-4.4-2.3-4.9-5.6-1.3-8.6-.3-25.1,0-34.4,0-2.3,1-4.4,1-5,3.2,2.3,1.6,6.7,2,10h0Z"/>
    <path class="st8" d="M141,137.2c.2,8.8,1.2,24.3,0,32.4-.6,3.9-2.1,6.1-5.9,6.6-1.5.2-3.4,0-5,0-2.1,0-5.3.5-7-.5l-2-4.5v-1c12.8-4.7,14.4-9.2,16-22,.3-2.2-.2-4.8,0-7,.4-3.7,1.7-7.4,2-11h1c0,2.9,1,5.7,1,7Z"/>
    <path class="st10" d="M25,37.2c1.1-1.4,1.7-3.4,4-3,1,9.8-.8,18.5-2,28,0,.3,0,.7,0,1-1.7.7-.7,3.1-1,4-2.9,8.3-8,20.2-9,29h-3c.2-3.4-1.2-3.8-4-5-.4-.2-1.4.1-2,0-.3,0-.7-.7-1-1,3.7,0,7.3.1,10-3,.3-6.8-.4-13.8,0-20.5.2-4,1-17.8,2-20.5.3-.7,2.2-1.5,3-5h1l2,1.4c-1.1,4.1-5.9,14.2-5,18,.5,1.9,3.1,2.4,4.4.6,1.4-2,4.4-19.8,3.4-20.9-4.9.3-1.2-.9-2.9-3.1h0Z"/>
    <path class="st10" d="M121,36.2l2.1,8.3c3.2,1.3-.3,5.8,4.9,4.7.3,1,.8,1.8,1,3h-2l2,3c.4,3,1.9,8.3,2,10,.5,6-1.2,17.2,0,22,.3,1.1,1.1,1.1,2,1,.7,3.9,3.6,3.3,7,3-.4,1-1.3.7-2,1-.8.3-1.5.8-2,1-.7.2-2.3-.4-2.9,0-.1,0,1.2,2.2-.6,2.9l-3-1c-1.4-9.9-5.3-19.5-7.5-29l5,3c2.2-7.5-2-15.6-5-22.5-.7-1.6-1.6-6-4-5.5,0-.9-.2-2.3,0-3,0-.2,1.3-1,1-2,.7,0,1.3,0,2,0Z"/>
    <path class="st9" d="M19,46.2c-1,2.7-1.8,16.5-2,20.5-.4,6.8.4,13.8,0,20.5h-2c.3-2.2,0-3.1-1-5-.5-.9-.9-1.6-2-2-.3,0-.6,0-1,0-1-6,1.4-8.9,4-13.5l-3,1.5c-1.3-4.9,2.5-10.7,0-15,.3-.8,1.7-1.4,2-2,1.1-1.9,2-2.2,3-5h2,0Z"/>
    <path class="st15" d="M9,79.2v1c-3.6,0-7.7-1-7,4,3.1-.5,6.1.3,9,.6,3.2.2,2,.6,2-2.5h1c1,1.9,1.3,2.8,1,5h2c-2.7,3.1-6.3,3-10,3s-3.7.4-4.8-.2c-5-6.4-1-11.9,6.8-10.8Z"/>
    <path class="st13" d="M147,85.2c0,.4-.8,2.7,0,3.9-2.3.5-4.6,1.9-7,2.1-3.4.3-6.3.9-7-3,0-.3,0-.7,0-1l14-2Z"/>
    <path class="st0" d="M124,19.2c6,8.8,5.2,21.7,8.5,31,.7,2,2.8,3.4,3.3,5.7.9,3.9,1.2,23.3,2.2,24.2,1.7.4,3.8-.4,5.3,0,1.1.3.5,1.9.6,2l-9.8.2c-.8,1.4-1.1,3.2-1.2,4.8,0,.3,0,.7,0,1-.9,0-1.7.1-2-1,1.7-4.5,0-4.7,5.1-6.7l-2.1-10.3c.4-.2.9-.6,1-1,0-.3,0-.7,0-1,.6-11.6-5.2-22.7-8-34-.3-1.3-.7-2.7-1-4-.8-3.3-1.1-7.6-2-11h0Z"/>
    <path class="st5" d="M12,53.2c2.5,4.3-1.3,10.1,0,15l3-1.5c-2.6,4.6-5,7.5-4,13.5-.6,0-1.4,0-2,0v-1c2.1-7.4.2-19.1,3-26h0Z"/>
    <path class="st1" d="M144,82.2c1.1.9,2.4-.7,3,3l-14,2c0-1.7.4-3.4,1.2-4.8l9.8-.2h0Z"/>
    <path class="st0" d="M21,29.2c-1.5,5.4-2.1,11.8-4,17-1,2.8-1.9,3.1-3,5,2.9-11.5,5.6-22.9,9.5-34,.5-1.6.7-3.3,2.5-4-2,5.2-3.5,10.7-5,16Z"/>
    <path class="st12" d="M138,92.2c-.8,5.3.9,10.4,1.1,15.5,0,2.3-1.4,4.7-1.1,6.9s2.9,3.6,3.1,7.1c.2,2.9-1.1,5.5-1.1,8.5h-1c.7-9.2-.7-10.4-3-18,1.8-4.1,1.1-10.3,1-15,0-1.3.5-3.3-1-4,.5-.2,1.2-.7,2-1h0Z"/>
    <path class="st0" d="M10,91.2c-1.4,5.4-1.3,11.8-1,17.5.1,2.4-.7,3.3,2,1.5-.6,2.3-2.6,4.6-2.9,6.6-.5,2.7,1,6.3-1.1,8.4-.2-6.9.3-6.5,1-12.5.8-6.6-.7-14.7,0-21.5.6.1,1.6-.2,2,0Z"/>
    <path class="st15" d="M88,.2c-6.9,2.8-16.1.7-24,1V.2c7.9-.2,16.1-.3,24,0Z"/>
    <path class="st15" d="M13,142.2c6.8,4.7,13.6,8.9,22,11,.2.9-.2,2.3,0,3l-19-5c-.9,4.6.7,5.8,3,9,.1.2-.4,1.1.6,2.1,2.6,2.5,15.3,8.2,18.3,5.9.5-1.3-1-1.9-1-2-.2-1.2.2-2.8,0-4,3.5-.7,5.9.7,9,2,.3,1.6,1.9,4.1,3,5,2.8,2.2,4.7,1.8,8,2,10.2.7,24.7.6,35,0,4.4-.3,10,.2,9-6,1.7,1.1,7.4.7,8,1,0,0-.4,1.7.7,2,2.9.8,14.9-1.5,15.3-6,4.4-2.3,6.5-7.1,6-12,2-.8,3.8-2,6-2-1.6,12.8-3.2,17.3-16,22-5.6,2.1-17.1,4.5-23,5-16.7,1.4-35.2-1.1-52,0-2.8-.4-19.2-2.4-20-3-.1,0-.1-1.9-1-2.4-4-2.6-8.4-3.5-11.2-7.8-3-4.8-4.1-14.9-4.8-20.7,1.4,0,2.8.2,4,1h0Z"/>
    <path class="st1" d="M15,139.2c.5.6,1.3.7,2,1,5.3,2.6,8.8,3.2,14,5,3.4,1.2,3.4,2.1,5,3,2.3,1.3,4.1,2.5,7,2,.9-2-.8-4-1-5,0-.7.5-1.5,1-2,.4,1.4,2.9,4.6,4,6,.2.2-.6,1.8.7,2,16,2.5,32.5,3,48.6.8,1.7-.2,3.6-1.6,4.7-1.8.4,0,2.1,1.3,3.4,1.1,1.1-.2.5-2,.6-2.1.1-.1,2.7-.9,3-1,.3,0,.7,0,1,0,1.2-.2,2.7.2,4,0l-3-2c6.5-1.6,13.5-2.1,20-5,1.2-.3.8-1.2,1-2l2,3c-19.2,17.7-73,17.2-98,11-8.4-2.1-15.2-6.3-22-11-.4-1.4.7-2.2,1-3h1ZM34,147.2h-2v1h2v-1Z"/>
    <path class="st9" d="M19,131.2c.1-.1,1.4.4,1.8-.2.7-.9-.6-3.1,1.2-2.8l.6,2.1,3.5-1.1-1,2,6,1,1,2,.5-3c1.7,1.2,2,2.1,2.5,4,0,.3,0,.7,0,1-.5-.3-2.2-.4-3-1l-6.7,4.8-7.3-2.8c.1-1.3-.2-2.8,0-4,.3-.3.8-.6,1-1,.2-.2-.2-.8,0-1h0Z"/>
    <path class="st13" d="M14,96.2c-.2,3.4-2,10.4-3,14-2.7,1.8-1.9,1-2-1.5-.3-5.7-.4-12.1,1-17.5,2.8,1.2,4.2,1.6,4,5Z"/>
    <path class="st0" d="M32,135.2c-.6,3.1-4.9,5.8-8,6l7,3v1c-5.2-1.8-8.7-2.4-14-5v-2l-2,1h-1c.7-1.7,0-2.3,3-3l1,1,7.3,2.8,6.7-4.8Z"/>
    <path class="st15" d="M17,96.2c-1,8.4,1.6,16.8.5,25-2.4-8.1-1.3-16.7-1.5-25h1Z"/>
    <path class="st5" d="M19,131.2c-.2.2.2.8,0,1-.5.1-.9.5-1,1-.2,1.2.1,2.7,0,4l-1-1v-7l2,2Z"/>
    <path class="st10" d="M119,31.2c-1.3-.7-2.4-1.3-4-1-.2,10.7.8,21.5,3,32-1.2-1.2-.2-2.8-2.4-3.1-7.2-1-18.7.1-26.6,0-5.7,0-11.3,0-17,0s-11.3,0-17,0c-2,0-4,0-6,0v-1c16.3.7,35.2.6,51.5,0,4.7-.2,9.7-2.6,14.4,0-1.3-10-2.6-19.8-2-30-26.4-4.3-53.5-4.3-79.9,0,1.5,7.4.7,13.6,0,21l-2-1c.6-6.6,1.2-9.2,0-16-.2-.9.1-2,0-3h-2c-1.1-9.3,1.4-13.4,3-22,17.4-4.1,44.5-4.1,62.5-3,4.6.3,16.9,1.2,20,4,4.1,3.7,4.7,17.6,4.5,23h0Z"/>
    <path class="st11" d="M122,109.2h-1c.2-.7-.5-2,.5-2l.5,2Z"/>
    <path class="st11" d="M119,31.2c1,.6,2.8,2.9,3.5,4l3.5-5c.3,1.3.7,2.7,1,4l-2,7c-1.3-2.5-1.2-5-4-5h-2l-1-1v3c-.2.7,0,2.1,0,3,0,6.5,1.8,12,3,18,0,.3,0,.7,0,1,.4,1.9.5,3.9,1,6,2.2,9.5,6.1,19.1,7.5,29l3,1c1.8-.7.5-2.8.6-2.9.6-.4,2.2.2,2.9,0,1.5.7,1,2.7,1,4-3.1-.6-2.4,3.8-3.1,5.4l2,1c-1.9,3.4-.8,5.5.1,8.6,2.3,7.6,3.7,8.8,3,18-.3,3.6-1.6,7.3-2,11-.9.4-3.6.6-4,1l-2-3c.1-.6,0-1.3,0-2,.2-2.3-.1-4.7,0-7h3l-2-4h-1c.4,3.9-2.1.9-3,1-2.5.2-6,1.8-8,2-.3,0-.7,0-1,0-.3,0-.7,0-1,0-1.2-.3-2.4,0-2.9-1.6,3.6-5.2-.7-11.6,3.4-15.5,1.5-1.4,1.2,1.7,2.5-2.9l.5,1c.6,0,.4-.9.5-1,4.2-2.9,2.1-4.8,3-8,0-.1,1.5-.5,1.8-1.7,1.2-4.2-2.6-15.5-3.8-20.3-1-4-3.2-8.5-4-12-.3-1.3-.7-2.7-1-4,0-.3,0-.7,0-1-2.2-10.5-3.2-21.3-3-32,1.6-.3,2.7.3,4,1h0ZM131,99.2c-1.2-1.7-1.8,0-2,1.5-1,7.6-.1,16.6-2,24.5,1.6,0,1.6-3.4,1.8-4.7.5-2.7,2.8-20.5,2.1-21.3h0ZM119.5,113.2v1c.7-.3.7-.7,0-1Z"/>
    <path class="st13" d="M137,141.2c-.2,2.2.3,4.8,0,7-2.2,0-4,1.2-6,2-3.3,1.2-19.7,6.2-20.8,7.2-1.7,1.7-1.2,6.4-1.2,8.8.7.7,14.2-3.1,16-4-.4,4.5-12.4,6.8-15.3,6-1.1-.3-.6-2-.7-2-.6-.3-6.3.1-8-1,1,6.2-4.6,5.7-9,6v-2c7.1-1.1,8.3.2,8-9h-54c.1,1.3-.2,2.8,0,4-3.1-1.3-5.5-2.7-9-2-.6-3.5-1.1-3.5-2-6-.2-.7.2-2.1,0-3,25,6.2,78.8,6.7,98-11,.4-.4,3.1-.6,4-1h0Z"/>
    <path class="st14" d="M25,37.2c1.7,2.2-2,3.4,2.9,3.1,1,1.1-2,19-3.4,20.9-1.3,1.8-3.9,1.2-4.4-.6-1-3.8,3.8-13.9,5-18l-2-1.4c-.4-2,1-2.8,2-4h0Z"/>
    <path class="st11" d="M21,29.2l5,2.5-4.2,6.8c-.9.9.3,2.5.2,2.7-.8,3.5-2.7,4.3-3,5h-2c1.9-5.2,2.5-11.6,4-17h0Z"/>
    <path class="st14" d="M118,41.2c2.3-.5,3.3,3.9,4,5.5,3,6.9,7.2,15,5,22.5l-5-3c-.5-2.1-.6-4.1-1-6l1-.5-1-.5c-1.2-6-3-11.5-3-18Z"/>
    <path class="st9" d="M135,68.2c-2.3.6-2.2-2.1-4-3-.1-1.7-1.6-7-2-10,0-.2.4-.7,0-3-.2-1.2-.7-2-1-3-1-3.3-1.4-4.8-3-8l2-7c2.8,11.3,8.6,22.4,8,34Z"/>
    <path class="st11" d="M131,65.2c1.8.9,1.7,3.6,4,3,0,.3,0,.7,0,1h-3l2,1,2.1,10.3c-5,1.9-3.3,2.2-5.1,6.7-1.2-4.8.5-16,0-22Z"/>
    <path class="st16" d="M121,36.2c2.8,0,2.7,2.5,4,5,1.6,3.2,2,4.7,3,8-5.2,1-1.7-3.5-4.9-4.7l-2.1-8.3Z"/>
    <path class="st16" d="M129,52.2c.4,2.3,0,2.8,0,3l-2-3h2Z"/>
    <path class="st14" d="M119,36.2c.3,1-.9,1.8-1,2v-3l1,1Z"/>
    <path class="st11" d="M29,29.2h2c.1,1-.2,2.1,0,3-4.7-.4-2-2.8-2-3Z"/>
    <path class="st1" d="M9,80.2c.6,0,1.4,0,2,0,.4,0,.7,0,1,0l1,2c0,3.2,1.1,2.8-2,2.5-2.9-.2-5.9-1-9-.6-.7-5,3.4-4,7-4Z"/>
    <path class="st5" d="M14,82.2h-1l-1-2c1.1.4,1.5,1.1,2,2Z"/>
    <path class="st9" d="M135,69.2c0,.4-.6.8-1,1l-2-1h3Z"/>
    <path class="st7" d="M137,97.2c0,4.7.8,10.9-1,15-.9-3-2-5.2-.1-8.6l-2-1c.7-1.7,0-6,3.1-5.4Z"/>
    <path class="st11" d="M110,134.2c0,.2-1.5,1.8,0,3-.3.6-1.9,3.5-2,3.7-.5,2.1.2,5,0,7.3-.3,0-2.9.9-3,1v-3h-3c.5-2.3,1.8-7.3.6-9.1l-57.1-.9-2,1c-.5.6-.3,1.5-.5,2-.2.6-1.5.8,0,2,0,.6-.1,1.6,0,2-.5.5-1.1,1.3-1,2-1.1.1-2.1.4-3,1,.7-2.8-1.8-8.5-4-10,0-.3,0-.7,0-1,3.8.7,2.7-2.6,6-3,5.8,1.7,14.3,1.7,20,0,6.6,0,13.4,0,20,0,6.1,1.7,14.9,1.7,21,0,3.8.1,3.7,2.9,7-2-.4,1.5.9,3,1,4h0Z"/>
    <path class="st9" d="M128,127.2v6l-3-3-1,6c-1.2-.5-7.5-2.4-8-2l5,8c-3.3.9-6.4,2.4-10,2,.9-6.6,2-8.3,6-13,.4-.5.6-1.4,1-2,.3,0,.7,0,1,0l.5,1,.5-1c2-.2,5.5-1.8,8-2Z"/>
    <path class="st12" d="M117,131.2c-4,4.7-5.1,6.4-6,13,3.6.5,6.7-1,10-2s2.8-1,5-2c.6-.3,3.7-1.2,4-1v2c-6.5,2.9-13.5,3.4-20,5-1.1.3-1.1,1-1,2-.3,0-.7,0-1,0,.3-2.3-.5-5.2,0-7.3,0-.2,1.7-3.1,2-3.7.2-.5,1.6-2.6,2-3,1.5-1.8,2.4-2.8,5-3Z"/>
    <path class="st9" d="M102,132.2c-6.1,1.7-14.9,1.7-21,0,7,0,14-.2,21,0Z"/>
    <path class="st9" d="M61,132.2c-5.7,1.7-14.2,1.7-20,0,6-.6,13.7,0,20,0Z"/>
    <path class="st9" d="M112,134.2c-.4.4-1.8,2.5-2,3-1.5-1.2,0-2.8,0-3h2Z"/>
    <circle class="st11" cx="110" cy="128.1" r="1.2"/>
    <path class="st11" d="M27,111.2c-1.8-.5-2.6-4.3-3-6,1.8.5,2.6,4.3,3,6Z"/>
    <path class="st6" d="M46,164.2c-.2-1.2.1-2.7,0-4h54c.3,9.2-.9,7.9-8,9-10.1,1.5-24.7,1.8-35,1-1.7-.1-5.2-2-8-1-1.1-.9-2.7-3.4-3-5h0Z"/>
    <path class="st6" d="M131,150.2c.5,4.9-1.6,9.7-6,12-1.8.9-15.3,4.7-16,4,0-2.3-.4-7.1,1.2-8.8,1.1-1,17.5-6,20.8-7.2Z"/>
    <path class="st8" d="M35,156.2c.9,2.5,1.4,2.5,2,6,.2,1.2-.2,2.8,0,4-6.6-.3-12-3.9-18-6-2.3-3.2-3.9-4.4-3-9l19,5Z"/>
    <path class="st7" d="M37,166.2c0,.1,1.4.7,1,2-3,2.3-15.8-3.4-18.3-5.9-1-1-.5-1.9-.6-2.1,6,2.1,11.4,5.7,18,6h0Z"/>
    <path class="st11" d="M92,169.2v2c-10.3.6-24.8.7-35,0v-1c10.3.8,24.9.5,35-1Z"/>
    <path class="st13" d="M57,170.2v1c-3.3-.2-5.2.2-8-2,2.8-1,6.3.9,8,1Z"/>
    <path class="st6" d="M102,146.2c-.2,1.1-.4,2.1-1,3h-54c-1.1-1.4-3.6-4.6-4-6-.1-.4,0-1.4,0-2v-2c.2-.5,0-1.4.5-2l2-1,57.1.9c1.2,1.7,0,6.8-.6,9.1h0ZM49,139.2v1h51v-1h-51ZM57,143.2v1h28v-1h-28Z"/>
    <path class="st3" d="M101,149.2v1c-1.2.1-3.1,1.5-4.7,1.8-16.1,2.2-32.6,1.7-48.6-.8-1.3-.2-.5-1.8-.7-2h54Z"/>
    <path class="st13" d="M128,127.2c.9,0,3.4,2.9,3-1h1l2,4h-3l-.9.6.9,6.4c0,.7.1,1.4,0,2-.2.8.2,1.7-1,2v-2c-.3-.2-3.4.7-4,1l1-2.5c-2.2.4-2.6-1.3-3-1.5l1-6,3,3v-6h0Z"/>
    <path class="st12" d="M39,146.2c-.6.4-1,2.4-3,2-1.6-.9-1.6-1.8-5-3v-1c6.4.9,5-3.4,4-8,2.2,1.5,4.7,7.2,4,10Z"/>
    <path class="st9" d="M42,145.2c.2,1,1.9,3,1,5-2.9.5-4.7-.7-7-2,2,.4,2.4-1.6,3-2,.9-.6,1.9-.9,3-1Z"/>
    <path class="st9" d="M102,146.2h3v3c-.1,0,.4,1.9-.6,2.1-1.2.3-2.9-1.1-3.4-1.1v-1c.6-.9.8-1.9,1-3Z"/>
    <path class="st9" d="M110,146.2l3,2c-1.3.2-2.8-.2-4,0,0-1-.1-1.7,1-2Z"/>
    <path class="st11" d="M17,140.2c-.7-.3-1.5-.4-2-1l2-1v2h0Z"/>
    <rect class="st9" x="32" y="147.2" width="2" height="1"/>
    <path class="st7" d="M35,136.2c1,4.6,2.4,8.9-4,8l-7-3c3.1-.2,7.4-2.9,8-6,.8.6,2.5.7,3,1Z"/>
    <path class="st11" d="M18,133.2c0-.5.5-.9,1-1-.2.4-.7.7-1,1Z"/>
    <path class="st16" d="M89,59.2c.5,2.6-1.2,2.1-2.8,2.7-17.4,6.4-35.9,11.8-50.7,23.3-4.6,3.6-7.8,10.6-14.5,10,.1-.9-.2-2.1,0-3,3.2-.2,3.3-3.3,4-4,13.6-14.4,27.2-18.2,44.4-26.2,1.5-.7,3.1-.5,2.6-2.8,5.7,0,11.3,0,17,0h0Z"/>
    <path class="st8" d="M125,101.2c-7.6,2-16.5,2.7-24.5,3.1-19.5.8-39.7,0-59.1-1-6.9-.4-14,.8-20.5-2-.9-4-.5-2.5,0-6v3.9c3.6.9,7.5.7,11,1.1s7.2.8,11,1c19.9,1.3,37.6.9,57.5,0,4.3-.2,23,1.1,24.4-2.6s-1.7-3.2-2.7-5.1c-1.8-3.6-1.7-10.8.8-14.3,1.2,4.8,5,16.2,3.8,20.3-.3,1.2-1.8,1.6-1.8,1.7Z"/>
    <path class="st3" d="M33,49.2c-.3,2.7-.9,5.3-1,8,4.8.2,9.8-.3,14.6,0,1.3,0,2.3,1,2.4,1v1c-3.7,0-15.5-.8-17.6.9-2.7,4.8-3,10.9-4.4,16.1-.9,3.5-4.7,8.7-2,12-.7.7-.8,3.8-4,4,1.5-8.3,4.6-16.5,6-25,.2-1.2-.2-2.7,0-4,0-.3,0-.7,0-1,2.8.6,1.9-1.4,2.3-3.2.9-3.7,1.4-7.1,1.7-10.8,0,0,2,1,2,1Z"/>
    <path class="st1" d="M27,67.2h-1c.3-.9-.7-3.3,1-4-.2,1.3.2,2.8,0,4Z"/>
    <path class="st3" d="M89,59.2c7.8,0,19.3-1,26.6,0,2.2.3,1.2,1.9,2.4,3.1,0,.3,0,.7,0,1,1.3,5.6-6.6,2.1-9.5,2-16.7-.6-54.1,12.1-67,23-3.5,3-7.5,7.8-9.5,12-3.5-.4-7.4-.1-11-1.1v-3.9c6.7.7,9.9-6.4,14.5-10,14.8-11.5,33.3-16.9,50.7-23.3,1.6-.6,3.3,0,2.8-2.7h0Z"/>
    <path class="st12" d="M72,59.2c.5,2.3-1.1,2.2-2.6,2.8-17.2,7.9-30.8,11.8-44.4,26.2-2.7-3.3,1.1-8.5,2-12,3.6,0,5.2-3.4,7.6-4.9,5.4-3,11.8-5.1,17.4-8.6,1.5-1,3.1-1.1,3-3.5,5.7,0,11.3,0,17,0h0Z"/>
    <path class="st2" d="M123,79.2c-2.5,3.5-2.6,10.7-.8,14.3.9,1.9,4.1,1.3,2.7,5.1s-20.2,2.4-24.4,2.6c-19.8.9-37.5,1.3-57.5,0,3.3-16.2,23.4-22.3,37.6-25.9,3.9-1,14.7-4.1,17.9-4.1h16c.7,0,2.8,1.8,4.5,1v-5c.8,3.5,3,8,4,12Z"/>
    <path class="st14" d="M119,67.2v5c-1.7.8-3.8-1-4.5-1h-16c-3.3,0-14,3-17.9,4.1-14.2,3.7-34.2,9.7-37.6,25.9-3.8-.2-7.4-.6-11-1,2-4.2,6-9,9.5-12,12.9-10.9,50.4-23.6,67-23,2.8,0,10.7,3.7,9.5-2,.3,1.3.7,2.7,1,4Z"/>
    <path class="st1" d="M33,49.2c.7-7.4,1.5-13.5,0-21,26.4-4.2,53.5-4.3,79.9,0-.5,10.1.8,20,2,30-4.8-2.6-9.8-.1-14.4,0-16.3.5-35.3.7-51.5,0-.1,0-1.1-1-2.4-1-4.8-.3-9.8.3-14.6,0,.1-2.7.7-5.3,1-8h0Z"/>
    <path class="st5" d="M49,59.2c2,0,4,0,6,0,.1,2.4-1.5,2.6-3,3.5-5.6,3.6-12,5.6-17.4,8.6-2.5,1.4-4,4.9-7.6,4.9,1.4-5.2,1.7-11.3,4.4-16.1,2.1-1.7,13.9-.8,17.6-.9h0Z"/>
    <path class="st13" d="M131,99.2c.6.9-1.6,18.7-2.1,21.3-.2,1.2-.2,4.7-1.8,4.7,1.9-7.9,1-16.9,2-24.5.2-1.4.7-3.1,2-1.5h0Z"/>
    <path class="st17" d="M131,137.2l-.9-6.4.9-.6c-.1,2.3.2,4.7,0,7Z"/>
    <path class="st10" d="M121,60.2c0-.3,0-.7,0-1l1,.5-1,.5Z"/>
    <path class="st1" d="M121,109.2h1s.1,1-.5,1l-.5-1Z"/>
    <path class="st1" d="M125,101.2c-.9,3.2,1.2,5.1-3,8l-.5-2c-1,0-.3,1.3-.5,2-1.3,4.6-1,1.5-2.5,2.9-4.1,3.9.2,10.3-3.4,15.5.6,1.5,1.7,1.3,2.9,1.6-.4.6-.6,1.5-1,2-2.6.2-3.5,1.2-5,3h-2c-.1-1-1.4-2.5-1-4-3.3,4.9-3.2,2.1-7,2-7-.2-14,0-21,0s-13.3,0-20,0c-6.3,0-14-.6-20,0-3.3.4-2.2,3.7-6,3-.5-1.9-.8-2.8-2.5-4l-.5,3-1-2c2.2-7.4-4.2-14.7-7-21.5-1.4-3.5-2.2-5.7-3-9.5,6.5,2.9,13.6,1.6,20.5,2,19.4,1.1,39.5,1.8,59.1,1,7.9-.3,16.9-1.1,24.4-3.1h0ZM27,111.2c-.4-1.6-1.2-5.4-3-6,.4,1.6,1.2,5.4,3,6ZM111.2,128.1c0-.7-.6-1.2-1.2-1.2s-1.2.6-1.2,1.2.6,1.2,1.2,1.2,1.2-.6,1.2-1.2Z"/>
    <path class="st1" d="M119.5,113.2c.7.3.7.7,0,1v-1Z"/>
    <path class="st1" d="M119,129.2c.3,0,.7,0,1,0l-.5,1-.5-1Z"/>
    <path class="st1" d="M43,141.2c-1.5-1.2-.2-1.4,0-2v2Z"/>
    <path class="st0" d="M124,136.2c.4.2.8,1.9,3,1.5l-1,2.5c-2.2,1-1.8,1.1-5,2l-5-8c.5-.4,6.8,1.5,8,2Z"/>
    <rect class="st4" x="49" y="139.2" width="51" height="1"/>
    <rect class="st4" x="57" y="143.2" width="28" height="1"/>
  </g>
</svg>