<?xml version="1.0" encoding="UTF-8"?>
<svg id="_图层_2" data-name="图层 2" xmlns="http://www.w3.org/2000/svg" viewBox="0 0 126.39 212.64">
  <defs>
    <style>
      .cls-1 {
        fill: #b42f2c;
      }

      .cls-2 {
        fill: #232222;
      }

      .cls-3 {
        fill: #4d8673;
      }

      .cls-4 {
        fill: #2c2c2c;
      }

      .cls-5 {
        fill: #c9c8c5;
      }

      .cls-6 {
        fill: #535255;
      }

      .cls-7 {
        fill: #d7d6d3;
      }

      .cls-8 {
        fill: #b1b0af;
      }

      .cls-9 {
        fill: #434143;
      }

      .cls-10 {
        fill: #3b3a3d;
      }

      .cls-11 {
        fill: #e6e6e1;
      }

      .cls-12 {
        fill: #d2d2d1;
      }

      .cls-13 {
        fill: #57575b;
      }

      .cls-14 {
        fill: #deddda;
      }

      .cls-15 {
        fill: #969697;
      }

      .cls-16 {
        fill: #47474a;
      }

      .cls-17 {
        fill: #1b1a1a;
      }
    </style>
  </defs>
  <g id="_图层_1-2" data-name="图层 1">
    <path class="cls-5" d="M102.25,14.25c4,1.37,5.98,6.78,8.18,10.37.8,1.3.34,3.2,2.82,2.63.76,5.3,2.44,10.65,3,15h-2c-.89,1.18,1.4,9.41-1,11-.2-1.97-.7-4.68-3-4-.45-3.44-.95-6.7-2.01-10-2.51-.76-2.66,2.21-2.99,4-2.26,12.48-2.31,35.02,1,47,.06.22.69.99,1,2-.58.21-2.04-.52-2.02.51,1.27,5.5,2.27,10.88,3.02,16.49.27,2.02.82,3.71,1,6,.13,1.64-.05,3.35,0,5h-1l-6-29c-.18-2.21-.92-4.62-1-6-1.11-19.48.23-40.55.02-60.51-.02-1.69.64-4.45-1.02-5.49.51-2.68,1.71-3.79,2-5Z"/>
    <path class="cls-12" d="M77.25,1.25c4.91,1.24,10.77,2.21,15.81,2.71,1.93.19,3.67,1.44,3.19-1.71,2.78.52,1.83,1.99,2.6,2l2.37-.98c.24.57-.14,1.8.03,1.97-2.22,2.47.44,4.53,1,7,.02.1.02,1.9,0,2-.29,1.21-1.49,2.32-2,5-1.24,6.48-.9,11.37-1,18l-5.99-2c-.42.46.27,10.34,0,12.51-.19,1.46-.76,3.1-2,1.48l-.87-37.32,1.85-1.67v8s4,0,4,0c-.12-2.59-.2-4.61,1.01-7.01.29-.58,2.75-.87,2-3-14.58-1.54-30.9-4.48-45.61-3.08-2,.19-2.5.85-3.38,1.07-2.7.67-4.74,2.87-8,1.99V2.25c3.27-.37,6.96.83,10-1h25ZM44.75,6.25v1c.65-.33.65-.67,0-1Z"/>
    <path class="cls-7" d="M20.25,24.25c-.02,1.45-.37,10.01.5,10.01,1.91-3.01,1.21-6.73,1.5-10.01.15-1.73.61-3.33,1-5h1c4.06,15.08.49,26.95,1,42h-3c-.23-5.53-.57-11.49-1-17-.14-1.77-.61-3.3-1.01-5-3.97-2.88-4.9,12.16-4.99,14h-1c.15-.92-.09-2.03,0-2.99h-1.99s0,7,0,7h-2c.04-1.34-.07-2.68,0-4.01.23-4.22,1.7-10.39,2-15,.34-5.31-1.05-2.93,1-8,1.61-3.98,3.09-8.55,7-11-.09,1.65.02,3.34,0,5Z"/>
    <path class="cls-4" d="M10.25,57.25c-.06,2,.02,4.01,0,6.01h3c-.14,2.18-.96,4.23-1.04,6.45-.51,13.47.46,27.07.05,40.54,1.23,1.62,1.81-.02,2-1.48.44-3.49-.17-7.84,0-11.52h2c-.68,2.68,1.64,1.7,2,2,.19.16.31,1.63,1,2-.89,4.41-1.34,8.76-3,13-1.42,3.63-2.84,3.76-3,4-1.72-.49-1.7-1.53-2-3-.22-1.08.49-2.84-.17-3.81-1.01-1.48-7.31-2.47-8.71-1.05-.41.92-.03,1.92-.11,2.86s-.16,4.74,0,5c.21.35,6.61,3.91,7,4v1c-1.74-.69-3.72-.89-5.42-2.13-1.55-1.13-1.24-2.46-1.58-2.87-.21-.25-1.77.93-2.09-1.44-1.67-12.38,10.43-6.91,11.09-7.56-.51-10.99.7-22.58.01-33.51-.48-7.62-2.26-13.55-2.01-22.49h1c-.07,1.33.04,2.67,0,4Z"/>
    <path class="cls-2" d="M20.25,128.25v1c-.19-.09-.66,0-1,0-.67-.01-1.33,0-2,0-.19-.85.14-2.05,0-2.99h-1.99c-.24,1.92-.01,3.35,1.99,3.99.23.84.68,2.2,1,3l-1,2c-.95-.94-1.04-2.48-3-2-.1-1.24-.1-4.78-.31-5.39-.44-1.31-1.55-1.37-1.69-1.61-.22-.38-.69-.67-1-1-.78-.81,1.53-.6-2-2v-1c4.62,1.11,3.33-2.97,4-4,.16-.24,1.58-.37,3-4l1.99,7.99c1.7-8.83,1.91-18.63,5.01-26.99-1.09,10.99-3.73,22.55-3,33ZM15.24,124.25v-1.99h-.98v1.99h.98Z"/>
    <path class="cls-8" d="M123.25,110.25c.16.15,1.65-.38,2.33,1.19.54,1.27,1.21,6.05.52,6.72l-2.67.26-.22,2.79c-1.24-1.97-4.15,1.93-4.42,1.93-.55,0-1.72-.97-2.54-.9-.97.08-2.11-.16-3,0-.28-1.32.4-4.07,0-5,1.78-.47,1.63-1.62,2-3,3.35.67,5.95-1.23,9-2.02l-1-1.98Z"/>
    <path class="cls-4" d="M12.25,126.25c-.26,6.29.36,12.72,0,19-.17,3.01-.51,4.28-1,7-1.1,6.05-2.64,8.79-2,16h-1c-.35-8.12,1.53-12.8,2.01-19.49.54-7.63-1.26-16.21.99-23.51.31.33.78.62,1,1Z"/>
    <path class="cls-1" d="M111.25,16.25l-.99,5.99c-1.94-3-4.44-8.94-8.01-9.99-.56-2.47-3.22-4.53-1-7,4.29,4.3,6.91,3.41,10,11Z"/>
    <path class="cls-4" d="M116.25,173.25c-.83,8.13.86,19.38-5,25-6.77,6.5-10.7,8.74-20,11v-1c3.75-.8,10.83-3.39,13.8-5.65,1.62-1.23,1-2.11,1.2-2.35,4.23-5.26,4.2-6.81,6-13,1.65-5.67,2.34-9.03,3-15l1,1Z"/>
    <path class="cls-4" d="M115.25,95.25c.05,4.58,1.02,10.5,1,14,0,.88-.71,3.92-1,5-.37,1.38-.22,2.53-2,3-.09-.21-3.38-2.03-4-2-.18-2.29-.73-3.98-1-6,1.6-.35,2.27.75,3,2,.84,1.44.36,4.01,1.99,3.99.03-6.65-.01-13.34.01-19.99h2Z"/>
    <path class="cls-1" d="M16.25,13.25c.13-.14,1.54.17,1.99-.47,1.59-2.26,3.68-8.1,7.02-6.02.14,1.96-1.11,3.83-2.01,5.49-.34.63-.38,1.09-1,2-.24.35-1.32,1.12-2,2-1.52,1.97-3.22,3.78-4.5,6l-.5-3c.42-1.13.65-5.62,1-6Z"/>
    <path class="cls-4" d="M115.25,126.25c-.65,7.45-.17,16.67,1,24h-1c-.21-3.33-.9-6.93-1-11-.06-2.66.06-5.34-.01-8l-2.99,2c-.07-.47-.52-.88-1-1,0-.4-1.39-1.67-1.01-1.99l4.01-2.01c-2.37.14-4.66.62-7,.99.53-.92.9-1.93,1-3h8Z"/>
    <path class="cls-2" d="M19.25,200.25c-.14-.11-1.94-2.83-2-3-.29-.83-.63-4.88,1.48-3.99l10.51,7.5c.74,4.25-8.71.47-9.99-.52Z"/>
    <path class="cls-2" d="M12.25,183.25c1.35,5.7,2.22,8.86,5,14,.23.42.09,1.31.54,1.99s1.28.79,1.46,1.01c.64.77,1.45,2.6,2,3-2.2-1.65-3.96-4.36-7-4-2.27-6.61-2.82-8.95-4-16h2Z"/>
    <path class="cls-6" d="M116.25,173.25l-1-1c.44-4,1.04-7.95,1-12-.03-3.39-.78-6.61-1-10h1c1.97,12.37,1.18,11.34,0,23Z"/>
    <path class="cls-2" d="M115.25,82.25h-2c0-4.99.08-10.02,0-15-.02-1,.01-2,0-3h2s0-2.49,0-2.49l-2.01-.51c0-.33.01-.67,0-1l3-1c-.25,8.42-1.1,14.85-1,23Z"/>
    <path class="cls-11" d="M116.25,109.25l6.9-.84c.31.53-.06,1.69.1,1.84l1,1.98c-3.05.79-5.66,2.69-9,2.02.29-1.08,1-4.12,1-5Z"/>
    <path class="cls-13" d="M96.25,2.25c.48,3.15-1.27,1.9-3.19,1.71-5.04-.5-10.9-1.47-15.81-2.71V.25c6.29.28,12.83.85,19,2Z"/>
    <path class="cls-6" d="M52.25.25v1c-3.04,1.83-6.73.63-10,1-.94.11-1.72.96-2,1-2.34.34-3.6.5-6,1-.6.13-1.39-.13-2,0-.32.07-.68-.07-1,0v-1c7.74-1.68,12.81-2.66,21-3Z"/>
    <path class="cls-2" d="M116.25,42.25c.55,4.31,0,10.41,0,15h-3c-.07-1.32.13-2.69,0-4,2.4-1.59.11-9.82,1-11.01h2Z"/>
    <path class="cls-17" d="M109.25,120.25c.05,1.66-.05,3.34.01,5,1.45-.64,1.94-2.63,3.99-3,.89-.16,2.03.08,3,0-.2,1.32-.89,2.7-1,4h-8c.13-1.37.18-3.68,0-5l1-1h1Z"/>
    <path class="cls-4" d="M102.25,12.25c3.58,1.05,6.08,6.99,8.01,9.99l.99-5.99c2.06,5.06,1.33,6.32,2,11-2.48.57-2.02-1.33-2.82-2.63-2.21-3.59-4.18-9-8.18-10.37.02-.1.02-1.9,0-2Z"/>
    <path class="cls-13" d="M12.25,182.25c.07.32-.07.68,0,1h-2c-.86-5.11-1.77-9.76-2-15h1c.34,3.79,2.1,9.98,3,14Z"/>
    <path class="cls-6" d="M10.25,53.25h-1c.14-4.89-1.28-11.92,3-15-.3,4.61-1.77,10.78-2,15Z"/>
    <path class="cls-6" d="M115.25,82.25c.05,4.32-.04,8.68,0,13h-2c.01-4.32,0-8.68,0-13h2Z"/>
    <path class="cls-4" d="M77.25.25v1h-25V.25c7.9-.33,17.11-.35,25,0Z"/>
    <path class="cls-4" d="M20.25,19.25c-3.91,2.45-5.39,7.02-7,11-3.01-3.38,1-8.27,2-11l.5,3c1.28-2.21,2.99-4.03,4.5-6-.03.99.05,2.01,0,3Z"/>
    <path class="cls-2" d="M31.25,3.25v1c-8.63,1.85-1.69,6.08-8,8,.9-1.66,2.15-3.53,2.01-5.49-3.34-2.08-5.43,3.75-7.02,6.02-.45.64-1.87.33-1.99.47,2.01-4.13,5.13-8.46,9.74-9.79,1.8-.52,3.83.1,5.26-.21Z"/>
    <path class="cls-6" d="M116.25,57.25c0,.09.69.41.67,1.2,0,.35-.67.6-.67.8l-3,1c-.04-1.06.03-2.37,0-3h3Z"/>
    <path class="cls-16" d="M29.25,85.25c3.2.44,5.23-.13,8,0,1.12,3.39-4.06.85-2.99,3.49.86,2.12,8.39,10.18,10.46,12.57.86,1,.98,2.72,1.84,3.64,9.07,9.62,25.36,11.22,36.19,3.3,5.93-4.34,6.88-9.32,10.09-14.91,1.44-2.51,5.07-4.07,4.42-8.08.33-.03.67,0,1,0,.67-.02,1.33.01,2,0h1c.08,1.38.82,3.79,1,6,.11,1.32-.12,2.69,0,4-4.05.42-4.21,5.71-5.97,8.53-9.9,15.94-29.05,20.08-46,12.94-12.23-5.15-10.61-11.74-18.06-19.94-2.93-3.22-6.16-3.96-7.97-7.53.31-1.29-.54-3.33.94-4.58,1.65-1.23,3.03.44,4.06.58Z"/>
    <path class="cls-17" d="M106.25,44.25c.75,9.32-3.66,19.33,1.01,27.99.66-.13,2.99-2.78,2.99-2.99h1c.45,8.35.88,16.62,1,25h-2c-.1-1.32.1-2.68,0-4-.36-4.79-.58-9.53-2.5-14.01l-2.48,2.62.98,11.39c-3.31-11.98-3.26-34.52-1-47,.38.21.73.9,1,1Z"/>
    <path class="cls-13" d="M101.25,85.25h-1c1.4-1.74.03-3.38,0-4-.04-.66.02-1.34,0-2-.22-8.02-.81-16.06-1-24-.15-5.96-.09-12.04,0-18,.1-6.63-.24-11.52,1-18,1.66,1.04,1,3.8,1.02,5.49.21,19.96-1.13,41.03-.02,60.51Z"/>
    <path class="cls-2" d="M105.25,43.25c.32-1.79.47-4.76,2.99-4,1.07,3.3,1.56,6.56,2.01,10,.75,5.66.66,12.27,1,18,.04.66-.04,1.34,0,2h-1c0-.13-1.06-.93-1.04-2.41.14-7.43-.66-14.59-.91-21.97-.25-1.2-1.51-.43-2.05-.62-.27-.1-.62-.79-1-1Z"/>
    <path class="cls-2" d="M107.25,92.25c.28.93-.1,2.47.44,4.01.89,2.5,3.65,4.23,2.57,7.99h1.98c-.05,2.39.4,4.83-1,7-.73-1.25-1.4-2.35-3-2-.75-5.6-1.75-10.98-3.02-16.49-.02-1.04,1.43-.31,2.02-.51Z"/>
    <path class="cls-10" d="M110.25,90.25c-.82,2.15-1.78,1.56-3,2-.31-1.01-.94-1.78-1-2l-.98-11.39,2.48-2.62c1.92,4.48,2.14,9.22,2.5,14.01Z"/>
    <path class="cls-2" d="M108.25,120.25l-1,1c-1.12-8.15-4.2-17.15-5-26-.12-1.31.11-2.68,0-4l6,29Z"/>
    <path class="cls-8" d="M110.25,49.25c2.3-.68,2.8,2.03,3,4,.13,1.31-.07,2.68,0,4,.03.63-.04,1.94,0,3,.01.33,0,.67,0,1v3c.01,1-.02,2,0,3h-2c-.34-5.73-.25-12.34-1-18Z"/>
    <path class="cls-2" d="M109.25,115.25c.62-.03,3.91,1.79,4,2,.4.93-.28,3.68,0,5-2.05.36-2.54,2.36-3.99,3-.06-1.66.04-3.33-.01-5s.13-3.36,0-5Z"/>
    <path class="cls-10" d="M91.25,208.25v1c-19.11,4.64-53.87,6.08-70-6,1.97,1.43,8.44,3.82,11,4.5,14.65,3.94,44.1,3.69,59,.5Z"/>
    <path class="cls-14" d="M42.25,2.25v5.99c3.26.87,5.3-1.33,8-1.99,1.04,1.66,3.79,1,5.49,1.02,12.45.15,24.93-.52,37.21,1.78,1.7.32,3.7.09,4.3,2.2-1.21,2.4-1.13,4.42-1.01,7.01h-3.99s-.01-8-.01-8l-1.85,1.67.87,37.32c1.23,1.62,1.81-.02,2-1.48.28-2.17-.42-12.05,0-12.51l5.99,2c-.09,5.96-.15,12.04,0,18-.89.45-.76,1.27-1,2-2.04-6.24-11.23-5.64-17-6-.99-.06-2,.04-3,0-.33-.01-.67.01-1,0-9.01-.3-21.86-.88-30.57-.05-.94.09-2.33-.2-2.43,1.05-4.55.1-9.65-.83-13.76,1.24-1.77,1.77-1.42,10.85-1.24,13.76-5-.93-2.28,2.63-3.02,5.32-.21.76-1.8.63-1.97,1.37-.82,3.48,3.64,9.43-2.01,8.31.53-6.91.28-14.08,0-21h3c.05,1.33-.04,2.67,0,4,1.82-.38,1.86-1.97,2.03-3.46.87-7.71.13-19.42-.04-27.54l8-3v15c1.76.22.95-2.26,1-3.49.45-10.85-.24-21.68.99-32.51-3.13-.61-1.08,3.05-4.99,1.99v-7.99c.6-.13,1.39.13,1.99,0,.92,3.76,3.02,4.57,6.44,2.98l-.44-3.98c.28-.04,1.06-.89,2-1Z"/>
    <path class="cls-13" d="M50.25,6.25c.89-.22,1.38-.88,3.38-1.07,14.71-1.41,31.03,1.54,45.61,3.08.75,2.12-1.7,2.41-2,3-.61-2.11-2.6-1.88-4.3-2.2-12.28-2.3-24.76-1.63-37.21-1.78-1.69-.02-4.45.64-5.49-1.02Z"/>
    <path class="cls-14" d="M44.75,6.25c.65.33.65.67,0,1v-1Z"/>
    <path class="cls-17" d="M22.25,61.25c.28,6.92.53,14.09,0,21-.2,2.66-.71,4.62-1,7-.49,3.96-1.21,8.09-2,12-.69-.37-.81-1.84-1-2l2.99-25-3.99,4v-3s-.99,0-.99,0l.99,2.99-1,19h-2c.39-8.67.71-17.31,1-26l1.91.09.1,2.91c1.81-.09,1.51-2.19,1.99-3,.14-.23,1.28-.42,1.48-1.03,2.28-6.84-2.06-18.3-.48-25.97h1c.43,5.51.77,11.47,1,17Z"/>
    <path class="cls-15" d="M15.25,53.25c-.31,5.96.2,12.03,0,18-.29,8.69-.61,17.33-1,26-.17,3.68.45,8.02,0,11.52-.19,1.46-.76,3.1-2,1.48.41-13.47-.56-27.07-.05-40.54.08-2.22.9-4.27,1.04-6.46.26-3.96.36-6.15,1-10h1Z"/>
    <path class="cls-4" d="M15.25,53.25c.09-1.83,1.02-16.87,4.99-14,.4,1.69.87,3.23,1.01,5h-1l-1.92.06c-1.58,8.65-1.73,17.24-1.07,25.95l1.99.99c-.48.81-.18,2.91-1.99,3l-.1-2.91-1.91-.09c.2-5.97-.31-12.04,0-18Z"/>
    <path class="cls-13" d="M27.25,34.25c.17,8.12.9,19.82.04,27.54-.17,1.5-.21,3.08-2.03,3.46-.05-1.33.04-2.67,0-4-.51-15.05,3.06-26.92-1-42-.28-1.04,2.3.55-1-3,6.18,1.54,3.89,12.84,4,18Z"/>
    <path class="cls-6" d="M10.25,57.25h2s0-6.99,0-6.99h1.99c-.08.97.16,2.08,0,2.99-.64,3.85-.74,6.04-1,10h-3c.03-1.99-.05-4,0-6Z"/>
    <path class="cls-13" d="M20.25,16.25l3,3c-.39,1.67-.85,3.27-1,5h-2c.02-1.66-.09-3.35,0-5,.05-.99-.03-2.01,0-3Z"/>
    <path class="cls-3" d="M22.25,24.25c-.29,3.28.41,7-1.5,10.01-.87,0-.52-8.56-.5-10.01h2Z"/>
    <path class="cls-3" d="M23.25,16.25c3.3,3.55.72,1.96,1,3h-1l-3-3c.68-.88,1.76-1.65,2-2,.41.56.6,1.57,1,2Z"/>
    <path class="cls-8" d="M23.25,90.25c-.22,1.58.16,3.39,0,5-3.1,8.36-3.31,18.16-5.01,26.99l-1.99-7.99c1.66-4.24,2.11-8.59,3-13,.79-3.91,1.51-8.04,2-12l2,1Z"/>
    <path class="cls-10" d="M18.25,99.25c-.36-.3-2.68.68-2-2l1-19,3.99-4-2.99,25Z"/>
    <path class="cls-8" d="M11.25,115.25c.3,1.47.28,2.51,2,3-.67,1.03.62,5.11-4,4-.39-.09-6.79-3.65-7-4-.16-.26-.08-4.1,0-5l9,2Z"/>
    <path class="cls-7" d="M2.25,113.25c.08-.94-.3-1.94.11-2.86,1.4-1.42,7.7-.43,8.71,1.05.66.97-.05,2.73.17,3.81l-9-2Z"/>
    <path class="cls-12" d="M111.25,133.25c.44,2.79-1.29,8.65-1,8.99,2.25,2.59,1.32-4.62,4-2.99.1,4.07.79,7.67,1,11s.97,6.61,1,10l-7,1c.81-4.96,1.72-9.96,1.99-15-3.05-.47-1.63.75-1.95,2.52-.49,2.75-.64,5.71-1.05,8.48l-6-1v-3s-1.5.99-1.5.99l-7.5,20c-5.33-.88-9.7,3.24-14.59,3.91-5.41.74-12.22.36-17.95,1.04-2.27.27-3.47.28-3.46,3.04-5.59-.26-16.84-1.02-22-2s-14.44-8-16-13c-.22-.69.46-2.34-.14-2.89l-2.86-.11c-1.14-2.92,1.79-2.87,1.98-3.67.42-1.77.25-5.63-.5-7.33l-1.43-1.48-5.05.48c.49-2.72.83-3.99,1-7,5.08.65,4.12-.5,3.99-5-3.28,2.04-5.01-.27-1.07-1.42-1.22-1.79-.77-3.69-.92-5.58,1.96-.48,2.05,1.06,3,2,4.1,4.08,4.09,2.4,9,4,.3.1.69-.09,1,0,4.77,1.39,6.28,2.25,12,3,2.01.26,3.98.87,6,1,2.64.17,5.35-.09,8,0,6.27.22,12.73.13,19,0,2.19-.05,5.01.31,7,0,1.21-.19,1.17.27,2-1,.67,0,1.33,0,2,0s1.33.01,2,0c5.94-.09,18.71-1.66,23-6,1.27-1.29,1.97-2.03,2-4,.48.12.93.53,1,1ZM22.24,142.25l-1.84,1.33c3.01,6.24,2.95,14.44,7.84,19.67l-6-21ZM17.24,149.25v-2.99h-.98v2.99h.98ZM104.24,149.25v-2.99h-.98v2.99h.98ZM103.24,152.25v-1.99h-.98v1.99h.98ZM30.24,168.25c.23-1.22-1.47-5.12-1.98-3.99-.23,1.22,1.47,5.12,1.98,3.99ZM33.24,174.25c.59-1.4-2.47-5.68-2.99-4.99l1,5h1.98Z"/>
    <path class="cls-10" d="M24.25,89.25c1.81,3.58,5.04,4.32,7.97,7.53,7.45,8.19,5.83,14.79,18.06,19.94,16.95,7.14,36.1,3,46-12.94,1.76-2.82,1.92-8.11,5.97-8.53.8,8.85,3.88,17.85,5,26,.18,1.32.13,3.63,0,5-.1,1.07-.47,2.08-1,3-7.19,1.13-14.29,3.12-21.52,3.98-21.25,2.54-43.93.6-64.48-4.98-.73-10.45,1.91-22.01,3-33,.16-1.61-.22-3.42,0-5,.04-.29.93-.7,1-1Z"/>
    <path class="cls-4" d="M19.25,134.25c.18.34-.21,1.37.02,1.97,1.57.44,2.71-.52,3.98-.97.71-.25,1.55-.11,2-1,.65.04,1.5-.14,2,0v2c1.3.14,2.71-.16,4,0,1.36.69,2.04,1.56,4,1,.33.05.67-.05,1,0,.47,1.78,1.61,1.63,3,2v3c-5.72-.75-7.23-1.61-12-3l-.49-.98-.51.98c-4.91-1.6-4.9.08-9-4l1-2c.13.34.81.64,1,1ZM36.75,140.25v1c.65-.33.65-.67,0-1Z"/>
    <path class="cls-4" d="M21.25,130.25v4s-2,0-2,0v-5c.34,0,.81-.09,1,0,.5.23.98.16,1,1Z"/>
    <path class="cls-5" d="M14.25,133.25c.15,1.89-.3,3.8.92,5.58-3.94,1.15-2.21,3.46,1.07,1.42.13,4.5,1.09,5.65-3.99,5,.36-6.28-.26-12.71,0-19,.14.24,1.25.3,1.69,1.61.21.61.21,4.15.31,5.39Z"/>
    <path class="cls-4" d="M17.25,130.25c-2.01-.64-2.23-2.08-1.99-3.99h1.99c.14.95-.19,2.15,0,2.99.07.32-.08.69,0,1Z"/>
    <path class="cls-10" d="M19.25,129.25v5c-.19-.36-.87-.66-1-1-.32-.8-.77-2.16-1-3-.08-.31.07-.68,0-1,.67,0,1.33-.01,2,0Z"/>
    <path class="cls-10" d="M21.25,130.25c28.27,7.47,58.6,6.65,86.99,0v5.99c-4.28,4.34-17.05,5.91-22.99,6l-1.21-.69-.79.69c-.67,0-1.33,0-2,0,.15-.24-.34-1.44.13-1.83.96-.81,9.12-1.06,10.88-2.67-4.37-.31-13.4-.95-13.01,5.5-1.99.31-4.81-.05-7,0-5.37-1.67-13.55-1.68-19,0-2.65-.09-5.36.17-8,0v-1l1.93-.43-1.09-3.4c-.6-.53-8.12-.91-9.83-1.17-.33-.05-.67.05-1,0-.65-.1-2.15-.77-4-1-1.52-.76-1.6-1.33-4-2-.5-.14-1.35.04-2,0-.1,0-.67-1.31-2,0,.22-.22-.15-1.02-.5-1-1.09.07.03,1.47.5,1v1c-1.27.45-2.41,1.4-3.98.97-.24-.6.16-1.63-.02-1.97h1.99s0-4,0-4ZM102.24,134.26c-2.52.49-7.52.62-8.99,2.98,2.28.2,4.5-.26,6.68-.86,1.71-.47,2.79.73,2.31-2.13Z"/>
    <rect class="cls-4" x="14.26" y="122.26" width=".98" height="1.99"/>
    <path class="cls-17" d="M106.25,129.25c2.34-.37,4.63-.85,7-.99l-4.01,2.01c-.38.32,1.02,1.59,1.01,1.99-.03,1.97-.73,2.71-2,4v-5.99c-28.4,6.64-58.73,7.46-87,0-.02-.84-.5-.77-1-1v-1c20.56,5.58,43.23,7.53,64.48,4.98,7.22-.86,14.33-2.85,21.52-3.98Z"/>
    <path class="cls-5" d="M14.25,169.25c3.86-.65,4.25,2.96,7,5l-4,5c-.22-.15-.73.14-1,0-.56-3.35-2.63-6.33-2-10Z"/>
    <path class="cls-5" d="M11.25,152.25l5.05-.48,1.43,1.48c.75,1.71.91,5.56.5,7.33-.19.8-3.12.74-1.98,3.67l2.86.11c.6.55-.08,2.2.14,2.89l-4.96.04c-.3.61.12,1.55-.04,1.96-.91,2.33-1.55,8.14.14,9.89.43.44,1.55-.05,1.86.11.1.62-.07,1.35,0,2-.21,0-2.64,1.81-4,1-.9-4.02-2.66-10.21-3-14-.64-7.21.9-9.95,2-16ZM17.5,157.23c0-.68-.55-1.23-1.23-1.23s-1.23.55-1.23,1.23.55,1.23,1.23,1.23,1.23-.55,1.23-1.23Z"/>
    <path class="cls-8" d="M93.25,180.25l-2.99,11,16.99-7,5,3c-1.8,6.19-1.77,7.74-6,13,.98-.6,3.79-7.9.53-6.97-1.79.51-12.82,6.71-10.53,8.97,2,.15,8.62-1.15,10-1.99-.19.24.42,1.13-1.2,2.35-2.97,2.25-10.05,4.84-13.8,5.65-14.9,3.19-44.36,3.45-59-.5-2.56-.69-9.02-3.08-11-4.5-.55-.4-1.36-2.23-2-3,1.28.99,10.73,4.77,9.99.52l-10.51-7.5c-2.12-.9-1.77,3.16-1.48,3.99-2.78-5.14-3.65-8.3-5-14-.07-.32.07-.68,0-1,1.36.81,3.79-1.01,4-1,1.24.05,3.59,3.5,5.06,4.44,5.8,3.68,8.8,4.27,14.94,4.56.64.03,1.54-.14,2,0,.35.11,3.09,3.1,5.47,4.02,9.97,3.86,27.45,3.95,37.52.47,8.8-3.05,5.8-9.79,12.01-14.49ZM41.25,206.25c.64.31.79.7,2,1,2.12.53,6.53.75,9,1,.65.07,1.34-.05,2,0,9.73.67,18.26.64,28-1,5.46-.92,9.95-.46,8.99-8-1.43-.54-2.34.92-2.99,1-9.38,1.01-21.25,2.42-30.54,2.04-3.5-.14-22.62-3.87-23.46-3.04-.31,5.1,1.62,7.93,7,6.99Z"/>
    <path class="cls-8" d="M19.25,200.25c-.18-.22-.99-.29-1.46-1.01s-.31-1.57-.54-1.99c.06.17,1.86,2.89,2,3Z"/>
    <path class="cls-5" d="M105.25,174.25c2.42-1.73,2.98-4.99,5.99-4.99-.31,2.45.46,5.73,0,7.99-.04.22-1.35,1.05-1,2-.65-.07-1.38.1-2,0-2.91-.48-3.57-2.19-3-5Z"/>
    <path class="cls-5" d="M116.25,160.25c.04,4.05-.56,8-1,12-.66,5.97-1.35,9.33-3,15l-5-3c.72-1.94,1.95-3.15,3-5,.41-.72.68-1.2,1-2,1.67-4.2,4.5-11.04-3-9,0-2.38.62-4.68,1-7l7-1Z"/>
    <path class="cls-11" d="M113.25,67.25c.08,4.98,0,10.01,0,15,0,4.32.01,8.68,0,13-.02,6.65.02,13.34-.01,19.99-1.63.02-1.15-2.55-1.99-3.99,1.4-2.17.95-4.61,1-7,.07-3.31.05-6.68,0-10-.12-8.38-.55-16.65-1-25-.04-.66.04-1.34,0-2h2Z"/>
    <path class="cls-12" d="M31.25,4.25c.32-.07.68.07,1,0v7.99c3.92,1.06,1.87-2.59,4.99-1.99-1.24,10.82-.54,21.66-.99,32.51-.05,1.23.76,3.71-1,3.49v-15l-8,3c-.11-5.16,2.18-16.46-4-18-.4-.43-.59-1.44-1-2,.62-.91.66-1.37,1-2,6.31-1.92-.63-6.15,8-8Z"/>
    <path class="cls-15" d="M114.25,139.25c-2.67-1.63-1.75,5.58-4,2.99-.3-.34,1.44-6.2,1-8.99l2.99-2c.07,2.66-.05,5.34.01,8Z"/>
    <polygon class="cls-6" points="113.25 61.25 115.25 61.76 115.24 64.25 113.25 64.25 113.25 61.25"/>
    <path class="cls-12" d="M40.25,3.25l.44,3.98c-3.42,1.59-5.52.77-6.44-2.98,2.4-.5,3.66-.66,6-1Z"/>
    <path class="cls-6" d="M37.25,85.25c1.45.07,5.74,2.07,7,3,.37.27,6.16,5.46,6.57,5.93,1.81,2.09,1.59,4.48,4.47,6.53,11.23,7.96,28.39.46,27.96-13.46,4.58-.45,9.35-1.53,14-2,.65,4.02-2.97,5.57-4.42,8.08-3.21,5.59-4.16,10.57-10.09,14.91-10.83,7.92-27.11,6.32-36.19-3.3-.86-.92-.98-2.64-1.84-3.64-2.07-2.39-9.6-10.45-10.46-12.57-1.07-2.64,4.11-.1,2.99-3.49Z"/>
    <path class="cls-14" d="M94.25,77.25c2.13.29,3.65,2.34,6,2,.02.66-.04,1.34,0,2-1.84.52-2.17,2.26-2,4-.33,0-.67-.03-1,0-4.65.47-9.42,1.55-14,2-.66.06-1.34-.06-2,0-1.69.16-3.51-.91-5-1-6.26-.36-20.83-.42-27,0-.99.07-2.01-.08-3,0v2s-2,0-2,0c-1.26-.93-5.55-2.93-7-3-2.77-.13-4.8.44-8,0v-1.99s5.57-.95,5.57-.95l.43-5.06c4.32.52,8.54-1,11.5-1h32c3.11,0,12.26.55,15.5,1Z"/>
    <path class="cls-7" d="M29.25,67.25c.34,5.33-.1,9.27,6,10l-.43,5.06-5.57.95v1.99c-1.02-.14-2.4-1.81-4.05-.58-1.48,1.26-.63,3.3-.94,4.58-.07.3-.96.71-1,1l-2-1c.29-2.38.8-4.34,1-7,5.65,1.11,1.19-4.84,2.01-8.31.17-.74,1.76-.61,1.97-1.37.74-2.69-1.98-6.25,3.02-5.32Z"/>
    <path class="cls-5" d="M100.25,85.25c-.67.01-1.33-.02-2,0-.17-1.74.16-3.48,2-4,.03.62,1.4,2.26,0,4Z"/>
    <path class="cls-10" d="M106.25,44.25c.54.19,1.8-.58,2.05.62.25,7.39,1.06,14.54.91,21.97-.03,1.48,1.04,2.28,1.04,2.41,0,.21-2.32,2.86-2.99,2.99-4.67-8.66-.26-18.68-1.01-27.99Z"/>
    <path class="cls-4" d="M110.25,90.25c.1,1.32-.1,2.68,0,4.01h2c.05,3.31.07,6.68,0,9.99h-1.98c1.08-3.75-1.68-5.49-2.57-7.99-.55-1.54-.16-3.09-.44-4.01,1.22-.44,2.18.15,3-2Z"/>
    <path class="cls-5" d="M100.25,79.25c-2.35.34-3.87-1.71-6-2,5.51-5.52,1.6-12.7,4-20,.24-.73.11-1.55,1-2,.19,7.94.78,15.98,1,24Z"/>
    <path class="cls-13" d="M81.25,51.25v2c-2.11.62-7.02,12.38-9.04,14.46-3.04,3.11-12.49,3.72-16.02,1.11s-7.93-14.28-11.94-15.56v-1c10.53-.24,22.82.98,33,0,.45-.04.9-.53,1-1,1,.04,2.01-.06,3,0Z"/>
    <path class="cls-4" d="M98.25,57.25c-2.4,7.3,1.51,14.48-4,20-3.24-.45-12.39-1-15.5-1h-32c-2.96,0-7.18,1.52-11.5,1-6.1-.73-5.66-4.67-6-10-.19-2.91-.54-11.99,1.24-13.76,4.11-2.07,9.22-1.14,13.76-1.24v1c-.81-.26-4.8-.13-6,0-1.54.16-4.14,1.42-6.05,1.46l-.82,1.18.82,18.73.66.7c3.79-.16,7.61.04,11.38-.06,13.55-.37,24.32-.71,38,0,4.44.23,8.7,1.05,13,0v-19.5c-1.62-1.61-4.82-2.24-7-2.5-1.34-.16-6.03-.29-7,0v-2c5.77.36,14.96-.24,17,6Z"/>
    <path class="cls-2" d="M77.25,51.25v1c-10.18.98-22.47-.24-33,0,.11-1.25,1.5-.96,2.43-1.05,8.71-.83,21.56-.25,30.57.05Z"/>
    <path class="cls-4" d="M77.25,52.25v-1c.33.01.67-.01,1,0-.1.47-.55.96-1,1Z"/>
    <path class="cls-10" d="M20.25,44.25c-1.58,7.67,2.76,19.13.48,25.97-.2.61-1.35.8-1.48,1.03l-1.99-.99c-.66-8.71-.51-17.29,1.07-25.95l1.92-.06Z"/>
    <polygon class="cls-4" points="17.25 78.25 16.26 75.26 17.24 75.26 17.25 78.25"/>
    <path class="cls-2" d="M93.25,179.25v1c-6.2,4.7-3.21,11.45-12.01,14.49-10.07,3.49-27.55,3.4-37.52-.47-2.37-.92-5.11-3.91-5.47-4.02.36-3.15-2.22-5.42-3-8-.16-.52.11-1.37,0-2,5.16.98,16.41,1.74,22,2,9.6.44,26.68-.77,36-3ZM64.25,192.25c-.12-.31.21-.89.03-1.39-.37-1.04-2.45.02-2.03-1.6l5.99,1.99v-1.98c-2.88-.99-4.18-4.47-8.01-2.55l-.97,2.53c3.84-2.29.41,2.21,4.99,3,.18.45-.12,1.37,0,1.99l2.99-1.5c-.26-1.05-2.08-.34-3-.5ZM60.24,190.26h-1.99s1.5,1.99,1.5,1.99l.49-1.99Z"/>
    <path class="cls-5" d="M108.25,157.25c-.48,3.28-.42,8.31-1,11-.73,3.38-10.65,10.2-14,11-9.32,2.23-26.4,3.44-36,3,0-2.77,1.19-2.77,3.46-3.04,5.73-.69,12.54-.3,17.95-1.04,4.89-.67,9.25-4.79,14.59-3.91,5.13-4.82,5.07-12.41,9-18l6,1Z"/>
    <path class="cls-13" d="M22.24,142.25l6,21c-4.88-5.23-4.82-13.44-7.84-19.67l1.84-1.33Z"/>
    <path class="cls-13" d="M108.25,157.25c.41-2.77.56-5.73,1.05-8.48.32-1.77-1.1-2.98,1.95-2.52-.27,5.03-1.19,10.04-1.99,15-.38,2.32-1.01,4.62-1,7h-1c.58-2.69.52-7.72,1-11Z"/>
    <path class="cls-17" d="M79.25,143.25c-.39-6.45,8.64-5.81,13.01-5.5-1.77,1.61-9.92,1.86-10.88,2.67-.47.39.03,1.59-.13,1.83-.83,1.27-.79.81-2,1Z"/>
    <path class="cls-10" d="M25.25,185.25c3.15,1.6,3.2,1.9,7,3,.7.2,3.41,2.76,1-1,.14-.11.06-1.57,1.99-1l1.01,4c-6.14-.29-9.13-.89-14.94-4.56-1.47-.93-3.82-4.39-5.06-4.44-.07-.65.1-1.38,0-2,.27.14.78-.15,1,0,2.94,2.02,1.63,2.77,8,6Z"/>
    <path class="cls-10" d="M16.25,179.25c-.31-.16-1.43.34-1.86-.11-1.69-1.76-1.05-7.57-.14-9.89-.63,3.67,1.44,6.65,2,10Z"/>
    <path class="cls-10" d="M19.25,167.25c1.56,5,11.11,12.07,16,13,.11.63-.16,1.48,0,2l-2.99,2.99,1.99-4.99c-1.58,1.01-4.07-.16-4.99,0-1.27-3.66-5.83-4.39-8-6-2.75-2.04-3.14-5.65-7-5,.16-.42-.25-1.35.04-1.96l4.96-.04Z"/>
    <path class="cls-2" d="M72.25,143.25c-6.27.13-12.73.22-19,0,5.45-1.68,13.63-1.67,19,0Z"/>
    <path class="cls-2" d="M39.25,139.25c1.81.48,4.04.44,5.88,1.15l.12,1.85v1c-2.02-.13-3.99-.74-6-1v-3Z"/>
    <path class="cls-13" d="M102.25,156.25c-3.93,5.59-3.87,13.18-9,18l7.5-20,1.49-.99v3Z"/>
    <path class="cls-13" d="M33.24,174.25h-1.98s-1-4.99-1-4.99c.52-.68,3.58,3.6,2.99,4.99Z"/>
    <rect class="cls-5" x="16.26" y="146.26" width=".98" height="2.99"/>
    <rect class="cls-13" x="103.26" y="146.26" width=".98" height="2.99"/>
    <path class="cls-17" d="M85.25,142.25c-.67.01-1.33,0-2,0l.79-.69,1.21.69Z"/>
    <rect class="cls-13" x="102.26" y="150.26" width=".98" height="1.99"/>
    <path class="cls-13" d="M30.24,168.25c-.52,1.13-2.21-2.76-1.98-3.99.52-1.13,2.21,2.76,1.98,3.99Z"/>
    <path class="cls-2" d="M27.25,139.25c-.31-.09-.7.1-1,0l.51-.98.49.98Z"/>
    <path class="cls-17" d="M36.25,137.25c1.71.26,9.24.63,9.83,1.17l1.09,3.4-1.93.43-.12-1.85c-1.84-.71-4.06-.67-5.88-1.15-1.39-.37-2.53-.22-3-2Z"/>
    <path class="cls-2" d="M31.25,136.25c-1.29-.16-2.7.14-4.01,0v-2c2.41.67,2.49,1.24,4.01,2Z"/>
    <path class="cls-17" d="M35.25,137.25c-1.96.56-2.64-.31-4-1,1.85.23,3.35.9,4,1Z"/>
    <path class="cls-2" d="M25.25,134.25c-.45.89-1.29.75-2,1v-1c1.33-1.31,1.9,0,2,0Z"/>
    <path class="cls-2" d="M36.75,140.25c.65.33.65.67,0,1v-1Z"/>
    <circle class="cls-12" cx="16.27" cy="157.23" r="1.23"/>
    <path class="cls-4" d="M88.25,200.25c.66-.07,1.56-1.54,2.99-1,.96,7.54-3.53,7.08-8.99,8l-7.55-1.04-20.45,2.04c-.66-.05-1.35.07-2,0v-2c-2.82.36-6.95-1.07-9,1-1.21-.3-1.36-.69-2-1-.47-.23-2.07-1.14-2.01-1.5l2-1.49-3.99-2c16.87,3.32,34.36,3.97,51-1.01ZM49.24,204.26h-5.99v.98h5.99v-.98Z"/>
    <path class="cls-17" d="M88.25,200.25c-16.64,4.98-34.13,4.33-51,1.01l3.99,2-2,1.49c-.06.36,1.54,1.27,2.01,1.5-5.37.94-7.31-1.9-7-6.99.84-.83,19.96,2.9,23.46,3.04,9.3.38,21.16-1.03,30.54-2.04Z"/>
    <path class="cls-5" d="M29.25,180.25c.92-.15,3.41,1.01,4.99,0l-1.99,4.99,2.99-2.99c.78,2.58,3.36,4.85,3,8-.46-.14-1.36.03-2,0l-1.01-4c-1.93-.58-1.85.88-1.99,1s-.25,1.03-1,1c-3.8-1.1-3.85-1.4-7-3-.17-3.08,1.01-4.5,4-5Z"/>
    <path class="cls-17" d="M106.25,200.25c-1.38.85-7.99,2.14-10,1.99-2.29-2.26,8.74-8.46,10.53-8.97,3.25-.93.45,6.37-.53,6.97Z"/>
    <path class="cls-17" d="M82.25,207.25c-9.74,1.64-18.27,1.67-28,1l20.45-2.04,7.55,1.04Z"/>
    <path class="cls-10" d="M110.25,179.25c-.35-.95.96-1.78,1-2-.32.8-.59,1.28-1,2Z"/>
    <path class="cls-10" d="M111.25,177.25c.45-2.27-.32-5.55,0-7.99-3.02,0-3.58,3.27-5.99,4.99-3.03,2.17-5.9,2.42-9,6-2.33,2.68-3.44,5.29-3.99,9,3.14-1.06,6.04-2.52,8.99-4,2.75-1.38,6.55-1.6,7-6,.62.1,1.35-.07,2,0-1.05,1.85-2.28,3.06-3,5l-16.99,7,2.99-11v-1c3.35-.8,13.27-7.62,14-11h1c7.5-2.04,4.67,4.8,3,9Z"/>
    <path class="cls-17" d="M43.25,207.25c2.05-2.06,6.18-.64,9.01-1v2c-2.47-.25-6.89-.47-9.01-1Z"/>
    <path class="cls-13" d="M83.25,87.25c.44,13.91-16.73,21.42-27.96,13.46-2.88-2.04-2.67-4.44-4.47-6.53-.41-.48-6.2-5.66-6.57-5.93h5c8.76,0,18.37.54,27,0,2.3-.14,4-.91,5-1,.66-.06,1.34.06,2,0Z"/>
    <path class="cls-2" d="M76.25,86.25v2c-8.63.54-18.24,0-27,0v-2c6.17-.42,20.74-.36,27,0Z"/>
    <path class="cls-6" d="M81.25,87.25c-1,.09-2.7.86-5,1v-2c1.49.09,3.31,1.16,5,1Z"/>
    <path class="cls-6" d="M49.25,86.25v2h-3v-2c.99-.09,2.01.07,3,0Z"/>
    <path class="cls-6" d="M44.25,53.25c4.01,1.29,8.26,12.85,11.94,15.56s12.98,2,16.02-1.11c2.03-2.07,6.93-13.83,9.04-14.46.97-.29,5.66-.16,7,0-1.15,7.57-7.08,13.79-6,22-13.68-.71-24.45-.37-38,0,2.6-8-3.91-14.79-6-22,1.2-.13,5.19-.26,6,0Z"/>
    <path class="cls-9" d="M44.25,75.25c-3.78.1-7.6-.1-11.38.06l-.66-.7-.82-18.73.82-1.18c1.91-.04,4.5-1.29,6.05-1.46,2.09,7.21,8.6,14,6,22Z"/>
    <path class="cls-9" d="M88.25,53.25c2.18.26,5.38.89,7,2.5v19.5c-4.3,1.05-8.56.23-13,0-1.08-8.21,4.85-14.43,6-22Z"/>
    <path class="cls-4" d="M64.25,192.25c-4.58-.79-1.15-5.29-4.99-3l.97-2.53c3.83-1.92,5.13,1.57,8,2.55v1.98s-5.97-1.99-5.97-1.99c-.42,1.62,1.65.56,2.03,1.6.18.5-.15,1.08-.03,1.39.91.16,2.73-.55,3,.5l-2.99,1.5c-.12-.62.17-1.54,0-1.99Z"/>
    <polygon class="cls-4" points="60.24 190.26 59.75 192.25 58.25 190.26 60.24 190.26"/>
    <path class="cls-17" d="M102.24,134.26c.48,2.86-.6,1.66-2.31,2.13-2.18.6-4.4,1.05-6.68.86,1.47-2.36,6.47-2.49,8.99-2.98Z"/>
    <path class="cls-4" d="M23.25,134.25c-.47.47-1.59-.93-.5-1,.35-.02.72.78.5,1Z"/>
    <path class="cls-11" d="M29.25,180.25c-2.99.5-4.17,1.92-4,5-6.37-3.23-5.06-3.98-8-6l4-5c2.17,1.61,6.73,2.34,8,6Z"/>
    <rect class="cls-17" x="43.25" y="204.26" width="5.99" height=".98"/>
    <path class="cls-8" d="M33.25,187.25c2.41,3.76-.3,1.2-1,1,.75.03.86-.89,1-1Z"/>
    <path class="cls-5" d="M96.25,180.25l.05,1.93c2.57.04,5.09-.12,4.95,3.07-2.95,1.48-5.85,2.94-8.99,4,.55-3.71,1.66-6.32,3.99-9Z"/>
    <path class="cls-11" d="M105.25,174.25c-.57,2.81.09,4.52,3,5-.45,4.4-4.25,4.62-7,6,.14-3.19-2.39-3.02-4.95-3.07l-.05-1.93c3.1-3.58,5.97-3.83,9-6Z"/>
  </g>
</svg>