<?xml version="1.0" encoding="UTF-8"?>
<svg id="_图层_2" data-name="图层 2" xmlns="http://www.w3.org/2000/svg" viewBox="0 0 127.74 261.92">
  <defs>
    <style>
      .cls-1 {
        fill: #fdfdfe;
      }

      .cls-2 {
        fill: #e1e1e2;
      }

      .cls-3 {
        fill: #a9a9a9;
      }

      .cls-4 {
        fill: #656566;
      }

      .cls-5 {
        fill: #ebecec;
      }

      .cls-6 {
        fill: #393535;
      }

      .cls-7 {
        fill: #f2f3f3;
      }

      .cls-8 {
        fill: #8c662b;
      }

      .cls-9 {
        fill: #1c1b1e;
      }

      .cls-10 {
        fill: #2b2a2b;
      }

      .cls-11 {
        fill: #565656;
      }

      .cls-12 {
        fill: #8b8d8f;
      }

      .cls-13 {
        fill: #9e9e9e;
      }

      .cls-14 {
        fill: #454445;
      }

      .cls-15 {
        fill: #cecfd0;
      }

      .cls-16 {
        fill: #c3c4c3;
      }

      .cls-17 {
        fill: #d4d5d5;
      }

      .cls-18 {
        fill: #222;
      }

      .cls-19 {
        fill: #b7b7b8;
      }
    </style>
  </defs>
  <g id="_图层_1-2" data-name="图层 1">
    <path class="cls-7" d="M56.71,1.06l-3,85.45c.22,1.54,1.16,2.92,2.69,3.35,2.79.79,18.16,1.14,19.3,2.2.43,5.07-8.25,1.19-8,5.99-5.65-.1-11.35.03-17,0-3.33-.02-5.08-.22-9,0-3.63.2-7.96-.95-11,1-5.7-.25-11.34.29-17-1,.36-2.3,1.46-4.53.99-7l-3.98,5.99c.36-3.33-.51-7.38-.09-10.57.09-.71,1.49-2.8,2.08-6.43,1.24-7.68,2.31-20.99,2-29,3.18.56,1.78-1.6,1.97-3.49.24-2.35-.14-4.69,1.05-7l-2.02.22-1.98,2.26c-.03-1.9.23-4.27.99-5.99.15-.33.92-1.92,1-2,.18-.18,1.43.14,2,0v-2.49s-2-.51-2-.51c0-1.33,0-2.67,0-4h2s.02-6.37.02-6.37l-2.02-.63c.17-6.66-.83-14.86,4-20,12.31.22,24.7-.3,37,0Z"/>
    <path class="cls-19" d="M30.71,99.06c4.5.2,6.47.15,11,0,2.97-.1,6.02-.06,9,0,5.19.1,11.37.91,17,1,.59,2.81-1.39,1.9-3.15,2.31-3.32.78-5.77-.26-4.8,3.63l29.97,3.06-.04,2.94c-2.51.95-5.94-.04-4.96,4.06-18.29.54-36.9-1.17-55,1-.14.02-.73-1.07-1.39-1.06-.79,0,.21,1.7-2.61,2.06-2.18.28-4.75-.2-7,0-.27-1.3-2.99-5.37-5-4-.52-6.47-2.72-4.85-3-9l1.92-.06c.02-2.06.67-3.97,1.08-5.94.07-.32-.05-.67,0-1,5.66,1.29,11.3.75,17,1Z"/>
    <path class="cls-4" d="M119.71,6.06c3.03-.56,1.92,1.53,2,3.45.3,7.49.72,15.4,1,22.55.08,1.99-.05,4,0,6,.08,2.99-.03,6.01,0,9-3.41-.5-1.59,1.49-1.66,3.22-.54,14.01-.53,28.23-.36,42.3.02,1.69-.64,4.45,1.02,5.49-.16,4.31.87,8.3-2,12-1,1.29-4.27,2.16-4,5-.63.11-1.48-.16-2,0-2.2.67-4.02,2.56-6.59,2.96-3.1.49-4.52-.93-5.41-.96-.55-2.49,1.31-2.03,2.64-2.81,3.57-2.07,6.98-4.53,11.12-5.43,1.52-2.71.78-6.13,1.24-8.77.64-3.74.74-4.19,1-8,.24-3.55,1-9.71,1-12.5V27.56c0-6.48,1.72-14.19,1-21.5Z"/>
    <path class="cls-11" d="M125.71,42.06c.09.31-.08.69,0,1,.14.56-.1,1.37,0,2,.23,1.37.97,2.76,1,3,1.73,14.08.22,28.26,0,42-.48-.11-.93-.53-1-1-1.39-9.55.47-23.29.04-33.54-.19-4.61-1.87-9.52-1.04-14.46.16.33.91.67,1,1Z"/>
    <path class="cls-12" d="M19.71,1.06c-4.83,5.14-3.83,13.34-4,20-.06,2.33,0,4.67,0,7,0,1.33,0,2.67,0,4v3c-.08.08-.85,1.67-1,2-1.56-4.57-1.24-10.65-1.05-15.55.15-3.79.97-17.43,2.6-19.42.82-1.01,2.29-1.5,3.45-2.03v1Z"/>
    <path class="cls-12" d="M14.71,51.06c.31,8.01-.76,21.32-2,29-1.68-4.64-1.23-11.47-.99-16.49.15-3.03.65-12.8,1.2-14.8.23-.81.87-1.71,1.78-1.71.06,1.33-.04,2.67,0,4Z"/>
    <path class="cls-4" d="M118.71,2.06l-23,1c-2-.03-4,.04-6,0V.06c7.82.2,19.3-.01,26.61.94,1.6.21,1.79.83,2.39,1.06Z"/>
    <path class="cls-11" d="M69.71.06v1c-4.32-.13-8.68.11-13,0-12.3-.3-24.69.22-37,0V.06C36.36.16,53.06-.07,69.71.06Z"/>
    <path class="cls-13" d="M89.71.06v3c-1.38-.03-2.91.05-4,0-1.66-.07-3.34.06-5,0-.07,0-.29-.98-1-1-2.66-.09-5.34.07-8,0-.9-.03-1.81-.99-2-1V.06c6.65.05,13.36-.17,20,0Z"/>
    <path class="cls-14" d="M118.71,2.06c9.73,3.7,2.57,21.75,4,30-.28-7.15-.7-15.06-1-22.55-.08-1.93,1.03-4.01-2-3.45-.14-1.46-.09-2.72-1-4Z"/>
    <path class="cls-7" d="M13.71,99.06c-.41,1.97-1.06,3.88-1.08,5.94l-1.92.06c-.15-2.31.1-4.68,0-7l2.99,1Z"/>
    <path class="cls-5" d="M69.71,1.06c.19,0,1.1.97,2,1l-1.85,86.35,1.44,1.5c6.61-1.75,14.79,4.01,21.41,1.16.98.11,2.02-.1,3,0l-.05,3.95c-.65.64-6.98-.55-5.95,3.05-7.3-.26-14.69.12-22,0-.25-4.8,8.42-.93,8-5.99-1.14-1.06-16.51-1.41-19.3-2.2-1.53-.43-2.47-1.81-2.69-3.35L56.71,1.06c4.32.11,8.68-.13,13,0Z"/>
    <path class="cls-17" d="M67.71,98.06c7.31.12,14.7-.26,22,0,.91.03,1.8.99,2,1v1c-7.98-.1-16.02.13-24,0-5.63-.09-11.81-.9-17-1v-1c5.65.03,11.35-.1,17,0Z"/>
    <path class="cls-17" d="M41.71,98.06v1c-4.53.15-6.5.2-11,0,3.04-1.95,7.37-.8,11-1Z"/>
    <path class="cls-5" d="M50.71,98.06v1c-2.98-.06-6.03-.1-9,0v-1c3.92-.22,5.67-.02,9,0Z"/>
    <path class="cls-1" d="M15.71,21.06l2.02.63-.02,6.38h-2c0-2.34-.06-4.68,0-7.01Z"/>
    <path class="cls-1" d="M15.71,32.06l2.01.51v2.49c-.58.15-1.82-.18-2.01,0v-3Z"/>
    <path class="cls-3" d="M91.71,100.06c6.48.08,9.68.7,17,0,2.62-.25,5.37.17,8,0-.45,2.64.28,6.05-1.24,8.77-4.14.9-7.55,3.36-11.12,5.43-1.33.77-3.2.31-2.64,2.81-5.31-.18-10.69.13-16,0l-1-1c-.98-4.1,2.45-3.11,4.96-4.06l.04-2.94-29.97-3.06c-.96-3.89,1.49-2.85,4.8-3.63,1.77-.41,3.74.5,3.15-2.31,7.98.13,16.02-.1,24,0Z"/>
    <path class="cls-11" d="M84.71,116.06l1,1v1c-1.33-.05-2.67.04-4,0-7.04-.23-13.93-.94-21-1-6.19-.05-12.06.62-18,1-4.09.26-9.2-.58-13,0v-1c18.1-2.17,36.71-.46,55-1Z"/>
    <path class="cls-18" d="M125.71,89.06c.07.47.52.89,1,1-.16,9.67,1.45,25.33,0,34-.05.31-2.51,2.41-2,4-.14-.15-1.75.56-2.04-.63-.81-3.3-.41-31.62.3-35.66.3-1.67.56-3.2,2.74-2.72Z"/>
    <path class="cls-10" d="M122.71,47.06c.17,16.47-.37,34.2-1,51-1.66-1.04-1-3.79-1.02-5.49-.17-14.07-.18-28.29.36-42.3.07-1.73-1.76-3.72,1.66-3.22Z"/>
    <path class="cls-15" d="M118.71,2.06c.91,1.28.86,2.54,1,4,.72,7.31-1,15.02-1,21.5v52c0,2.79-.76,8.95-1,12.5-1.23-.85-2.56-.91-4-1-1.97-.13-4.02.01-6,0-3.01-1.85-7.07-.43-7.04-5.45.55-13.4,2.33-26.79,2.87-40.12.16-4.01-1.04-9.07-.82-13.92.25-5.78,4.06-20.9-.24-25.28-2.06-2.1-7.26.52-6.77-3.23l23-1Z"/>
    <path class="cls-17" d="M117.71,92.06c-.26,3.81-.36,4.26-1,8-2.63.17-5.38-.25-8,0-3.04-1.98-8.15-.8-12-1-.56-3.03,1.53-1.92,3.45-2,5.5-.22,11.06.16,16.55,0,1.47-6.02-2.95-2.09-3-6,1.44.09,2.77.15,4,1Z"/>
    <path class="cls-17" d="M89.71,3.06c2,.04,4-.03,6,0-.49,3.75,4.71,1.13,6.77,3.23,4.3,4.38.49,19.5.24,25.28-.21,4.85.99,9.91.82,13.92-.54,13.34-2.33,26.72-2.87,40.12-.03,5.02,4.03,3.6,7.04,5.45-3.52-.02-7.97.42-12,0-.98-.1-2.02.11-3,0-1.63-.19-4.78-1.63-7.07-1.43l-.93-2.07c.79-28.08,5.88-56.7,1-84.5,1.09.05,2.62-.03,4,0Z"/>
    <path class="cls-2" d="M79.71,2.06l1,1c1.66.06,3.34-.07,5,0,4.88,27.8-.21,56.42-1,84.5l.93,2.07c2.29-.2,5.44,1.24,7.07,1.43-6.62,2.86-14.8-2.91-21.41-1.16l-1.44-1.5,1.85-86.35c2.66.07,5.34-.09,8,0Z"/>
    <path class="cls-7" d="M80.71,3.06l-1-1c.71.02.93,1,1,1Z"/>
    <path class="cls-2" d="M107.71,91.06c1.98.01,4.03-.13,6,0,.05,3.91,4.47-.02,3,6-5.49.17-11.05-.21-16.55,0-1.92.08-4.01-1.03-3.45,2-1.66-.09-3.34.07-5,0-.2,0-1.09-.97-2-1-1.03-3.6,5.3-2.41,5.95-3.05l.05-3.95c4.03.42,8.48-.02,12,0Z"/>
    <path class="cls-19" d="M96.71,99.06c3.85.2,8.96-.98,12,1-7.32.7-10.52.08-17,0v-1c1.66.07,3.34-.09,5,0Z"/>
    <path class="cls-12" d="M124.71,41.06c-.83,4.94.85,9.85,1.04,14.46.43,10.25-1.43,23.99-.04,33.54-2.18-.49-2.44,1.04-2.74,2.72-.72,4.04-1.12,32.36-.3,35.66.29,1.19,1.9.48,2.04.63,1.24,1.34,3.32,4.51,2.87,6.3-.88,2.06-2.66,3.01-4.87,2.7l-.99-1-1.02,15.99-2.98-7.99,1.99,21c-.56.27-.9,2.76-2.99,1.99-.13-5.16.15-10.37.04-15.54-.05-2.43-1.21-4.77-1.15-7,.05-2.05,2.51-.99,2.15-2.9-.14-.74-1.7-4.75-2.14-5.76-.41-.94-1.87-.86-1.89-1.4-.02-.44.78-4.37,1-5.41.12-.58,1.37-1.71,1-1.99h-3c-.15-.95.19-2.16,0-3.01l1.96-.44c-1.33-2.64-1.21-5.3-4.95-4.55.02.65-.07,1.34,0,1.99,1.96,18.25.69,39.34,3.01,58.49.47,3.85,1.58,7.66,2,11.51,4.61.85-1.63-4.86,2.98-4v13.99c-.25,2.22.18,4.73,0,7l-2.01,24c-.25.38-1.42-.9-1.99-1-.32-.06-.67.03-1,0l-1-3c.52-5.67,1.24-12.96,1-18.55-.08-1.92,1.04-4.01-2-3.45.14-1.31-.12-2.69,0-4,.31-3.31.77-5.17,1-9,0-.16.9-1.41,1-3,.07-1.09.23-2.52-1-3,.83-11.46-2.8-27.08-4-39-.98-9.74-.47-19.52-3-29,3.42-.38,6.96-.63,9-4,.52-.16,1.37.11,2,0l2.99,18.99,1.01-23.99c2.87-3.7,1.84-7.69,2-12,.63-16.8,1.17-34.53,1-51-.03-2.99.08-6.01,0-9,1.87.41,1.5,1.95,2,3Z"/>
    <path class="cls-10" d="M11.71,166.06c0,.33.01.67,0,1-.12,2.74-.41,7.06-.08,9.57.23,1.79,3.04,1.09,2.08,6.43-.46,2.53-1.95,2.83-2,3l-9.33-.96c-.82-.19-1.33-2.16-1.67-3.04h3.99s.01-1.49.01-1.49l-4.01-.51c-.91-4.84-.99-5.07,0-10l2.49,4.99c.87-2.3,5.74-7.02,4.07-9.05l-4.56-1.94c3.21-1.99,6.27.14,9,2Z"/>
    <path class="cls-5" d="M14.71,192.06c.04.66-.07,1.35,0,2,.35,3.43.4,4.32,3,7-.67,0-1.33-.02-2,0-1.07,1.4,1.27,24.4,2,28.01l-2-1c-.05-.38-2.17-6.02-2.5-6.01l-1.49,6.01c.34-11.62-.5-23.38-.01-34.99.08-1.95-.42-5.55,0-7,.05-.17,1.54-.47,2-3h1c-.17,2.81-.15,6.18,0,9Z"/>
    <path class="cls-11" d="M16.71,127.06c-.8,3.41,2.74,2.62,2.01,5.47-.1.39-1.55.37-1.95,1.3-.7,1.66-.28,21.67-1.07,27.22h-3c.04-2.05-.85-3.88-.8-5.49.23-8.19,1.54-16.63.73-24.96l2.9-.68.17-2.87h1Z"/>
    <path class="cls-11" d="M14.71,231.06c.14,3.14-.09,5.88.99,9l-2.98-.99c.04.98-.11,2.02,0,3,.25,2.46,1.39,3.34,2,5,.87,2.34.38,5.22,3.51,7,2.14.48,1.98-2.91,3.14-3.07,2.18-.3,9.22,2.12,12.35,2.08-.4,1.54,1.36,3.78-1.47,4.01-1.31.11-4.63-.88-4.53.98,9.91,1.04,20.05,2.52,29.99,3.01-7.43,1.96-17.31.08-25-1-1.25-.18-2.86.24-4,0-.63-.13-1.35-.83-2-1-1.1-.29-1.96-.6-3-1-.35-.13-.66-.83-1-1h3.99s0-.99,0-.99h-3.49s-.51.99-.51.99c-.87-.42-2.89-.03-4.3-.93-.28-.18-4.52-4.55-4.69-4.84-2.8-4.89-1.39-11.23-2.02-16.22l-1-3c-.06-.66.05-1.34,0-2l4,1Z"/>
    <path class="cls-4" d="M11.71,193.06c-.49,11.61.35,23.37.01,34.99l1.49-6.01c.33,0,2.45,5.63,2.5,6.01.24,1.85-1.01,2.84-1,3l-4-1c-.41-5.31-1.73-10.88-1.04-16.54l2.04-20.46Z"/>
    <path class="cls-4" d="M13.71,114.06c2.01-1.37,4.73,2.7,5,4,.91,4.4-1.36,6.29-2,9h-1c-2.07-3.83-1.67-8.88-2-13Z"/>
    <path class="cls-6" d="M2.71,164.06l4.56,1.94c1.66,2.03-3.2,6.75-4.07,9.05l-2.49-4.99c.52-2.59-1.22-4,2-6Z"/>
    <path class="cls-6" d="M.71,180.06l4.01.51v1.48s-4.01,0-4.01,0c-.17-.46.12-1.37,0-2Z"/>
    <path class="cls-4" d="M11.71,235.06c-.02-.16-.81-1.01-1-3l1,3Z"/>
    <path class="cls-7" d="M25.71,118.06c-.1,2.86-2.74,25.65-1.49,26.01,2.32.66,1.45-2.14,1.49-3.49.24-7,.99-13.88.95-20.88.08-.31,2.79-1.6,3.05-1.64,3.8-.58,8.91.26,13,0-.19,2.99,2.21,4.73,3.06,7.44,2.38,7.49,1.63,14.91,2.94,22.56-2.32-.1-4.68.11-7,0-4.65-.22-9.78-.9-14-1-1.54-.04-7.47.67-8.11,1.61l-2.89,16.39c-.65.07-1.34-.03-2,0-.33-.39.86-3.01,1-3.99.79-5.55.37-25.56,1.07-27.22.4-.94,1.85-.91,1.95-1.3.72-2.85-2.82-2.07-2.01-5.47.64-2.71,2.91-4.6,2-9,2.25-.2,4.82.28,7,0Z"/>
    <path class="cls-3" d="M29.71,117.06v1c-.26.04-2.97,1.32-3.05,1.64.04,7-.71,13.87-.95,20.88-.05,1.35.82,4.15-1.49,3.49-1.25-.36,1.39-23.14,1.49-26.01,2.82-.37,1.82-2.06,2.61-2.06.65,0,1.25,1.08,1.39,1.06Z"/>
    <path class="cls-10" d="M58.71,149.06c.12.09-.49,2.42,1.43,2.09l20.87-.1c1.82,2.55,4.8,5.24,4.77,8.52-.02,2.4-1.76,3.97-2.01,6.05-.83,6.98.92,10.83,1.84,17.05.85,5.73-1.78,10.58,5.1,13.91.99,1.84-4.28,1.63-1.99,3.48,1.48,1.2,5.12-4.29,8.43-.96l1.19-2.09c5.55,2.17,4.71-.29,6.12-.88,2.34-.98,5.18-.96,7.25-3.06-.23,3.83-.69,5.69-1,9h-1l-3-.99v1.99c-2.77.3-5.27.59-8,1l-.51-.99-1.49.99c-.33.05-.67-.04-1,0-.81-1.63-3.4-.92-5.01-1v2c-3.75.55-3.99-.03-5.99,0-1.79-2.78-.97-1.69,1.34-2.14,3.25-.63,6.42-.85,9.65-1.35l-12.49-1.53-.51,3.01-5,2.01c-2.5.1-5.61.95-9,1-4.64.06-9.37.14-14,0-3.3-.1-6.72.25-10,0-5.53-.41-11.49-2.1-17-3,5.38-3.45,12.51-.55,18-3,.33.02.67-.02,1,0l1.61,4.07c2.62-.22,5.32.14,7.94-.06,3.07-.24,2.57.48,2.45-3,1.96.08,5.89,1.04,4.99-1.99-5.64-.15-11.35.18-16.99,0-.13-5.37-4.73-8.48-2.93-14.44,1.96-7.09,14.71-26.79,13.95-32.86-.09-.73-1.48-1.22-2.02-1.7v-1c.81.19,2.67-.25,3,0Z"/>
    <path class="cls-14" d="M27.71,147.06v2c4.75-.06,9.21.89,14,1,1,.02,2-.03,3,0,.89.99-7.42,18.24-8.84,20.65-4.05,6.86-11.1,16.68-19.15,18.34l1.97-24.51c-.57-.97-1.22.43-1.98.51l2.89-16.39c.64-.93,6.57-1.64,8.11-1.61Z"/>
    <path class="cls-7" d="M27.71,203.06c5.51.9,11.47,2.59,17,3-.63,3.78-3.05,9.25-5.17,12.33-1.43,2.08-6.35,5.94-6.68,7.36-.55,2.37.82,6.53,3.84,5.31l-3,3c-1.16-.33-3.05.78-4.1-.62-3.6-4.79-4.7-15.37-8.9-20.38-.08-.31.07-.68,0-1-.54-2.28-1.6-5.05-2-7-.24-1.15.16-2.74,0-4,2.98.57,5.48,1.43,9,2Z"/>
    <path class="cls-5" d="M60.71,117.06c-.17,10.09-8.55,22.72,0,31-.85.06-1.73.03-2,1-.33-.25-2.19.19-3,0-2.19-.51-3.7-.85-6-1-.33-.02-.67.02-1,0-1.31-7.65-.55-15.08-2.94-22.56-.86-2.7-3.26-4.44-3.06-7.44,5.94-.38,11.81-1.05,18-1Z"/>
    <path class="cls-18" d="M46.71,199.06c5.64.19,11.35-.14,16.99,0,.9,3.03-3.03,2.07-4.99,1.99-3.84-.15-8.04-.71-12-1-.33-.02-.67.02-1,0-2.08-.16-4.17.12-6.36-.12-1.18-.13-5.49-.44-5.64-1.86,4.42-.49,8.63.84,12.99.99Z"/>
    <path class="cls-19" d="M13.71,168.06c-.17,1.92-.24,4.34,2,5-.18,3.53-.82,7.05-1,10h-1c.97-5.34-1.85-4.64-2.08-6.43-.33-2.51-.04-6.83.08-9.57.6.18,1.54,1,2,1Z"/>
    <path class="cls-12" d="M17.71,201.06c.32,0,.7-.06,1,0,.16,1.26-.24,2.85,0,4h-1l-.99-1.99c-.28,9.39,1.33,18.78,2.99,27.99-.51-.16-1.38.11-2,0-.05-.09.25-.75,0-2-.72-3.6-3.07-26.6-2-28.01.66-.02,1.33,0,2,0Z"/>
    <path class="cls-18" d="M41.71,148.06v2c-4.79-.11-9.25-1.06-14.01-1v-2c4.23.1,9.36.78,14.01,1Z"/>
    <path class="cls-11" d="M13.71,168.06c.38,0,1.06-.72,1.52-.97-.7,2.24,1.36,1.95,1.51,2.63.44,1.92-1.02,3.02-1.03,3.35-2.24-.66-2.17-3.08-2-5Z"/>
    <path class="cls-18" d="M55.71,149.06v1h-6.01s0-2,0-2c2.3.15,3.81.49,6,1Z"/>
    <path class="cls-18" d="M14.71,192.06c1.29.1,2.78.5,3,1.99h-3c-.07-.64.04-1.33,0-1.99Z"/>
    <path class="cls-18" d="M27.71,196.07c-.97,2.35-8.14-.25-8.99-2l8.99,2Z"/>
    <path class="cls-18" d="M60.71,148.06c2.74-.21,6.23-.15,9,0,10.08.56,16,.58,26,0,1.66-.1,3.34.06,5,0,2.33-.08,4.67.06,7,0,1.2,11.92,4.83,27.54,4,39-.02.27-1.63,1.58-.99,2.99h1.99c-.1,1.59-.99,2.85-1,3.01-2.06,2.11-4.91,2.08-7.25,3.06-1.41.59-.57,3.05-6.12.88l-1.19,2.09c-3.31-3.33-6.95,2.15-8.43.96-2.29-1.86,2.99-1.64,1.99-3.48-6.88-3.33-4.24-8.18-5.1-13.91-.92-6.21-2.67-10.07-1.84-17.05.25-2.08,1.99-3.64,2.01-6.05.03-3.28-2.95-5.97-4.77-8.52l-20.87.1c-1.92.34-1.3-1.99-1.43-2.09.27-.97,1.15-.94,2-1Z"/>
    <path class="cls-18" d="M109.71,121.06c1.54-.79,2.72,1.73,3,3,.19.85-.15,2.06,0,3,.1.62-.11,1.35,0,2h2c-.22,1.04-1.02,4.97-1,5.41.02.54,1.48.46,1.89,1.4.44,1.01,2,5.02,2.14,5.76.36,1.91-2.09.84-2.15,2.9-.06,2.23,1.1,4.57,1.15,7,.11,5.17-.17,10.37-.04,15.54,2.1.76,2.44-1.73,2.99-1.99.23-.11,1.53-.06,2,0,.94.12,3.06,1.93,5,1,.17,1.95.95,3.64,1,6,.09,4.32-.07,8.68,0,13l-8,2c1.13,4.83-1.52,9.82-2,14v-13.99c-4.62-.86,1.62,4.84-2.99,4-.42-3.85-1.53-7.67-2-11.51-2.32-19.15-1.05-40.24-3.01-58.49Z"/>
    <path class="cls-18" d="M110.71,255.06c1.73-5.29,2.87-10.55,4-16,.11-.54,1.66-1.41.99-3l-1.99,1c.05-2-.03-4,0-6,.57.1,1.74,1.38,1.99,1l2.01-24c2.1,1.72,2.05,7.75,2.02,10.45-.06,7.26-.31,17.93-1.13,24.94-.89,7.55-2.63,7.98-7.89,11.61Z"/>
    <path class="cls-3" d="M104.71,119.06c2.53,9.48,2.02,19.26,3,29-2.33.06-4.67-.08-7,0,.05-.99-.07-2.01,0-3,2.92.58,2.05-1.58,2.03-3.49-.06-7.26-1.95-14.99-1.03-22.51.99-.04,2.03.11,3,0Z"/>
    <path class="cls-9" d="M119.71,110.06l-1.01,23.99-2.99-18.99c-.27-2.84,3-3.71,4-5Z"/>
    <path class="cls-3" d="M110.71,206.06c3.04-.56,1.91,1.53,2,3.45.24,5.59-.48,12.88-1,18.55-.01.16-.82.96-1,3-.95.01-2.16-.15-3,0,2.07-8.28,2.09-16.7,3-25Z"/>
    <path class="cls-14" d="M122.71,137.06c-.19,5.64.26,11.37,0,17-.06,1.32.13,2.69,0,4-.14,1.43-1.99,4.46-1,7-.47-.06-1.77-.11-2,0l-1.99-21,2.98,7.99,1.02-15.99.99,1Z"/>
    <path class="cls-4" d="M110.71,206.06c-.91,8.3-.93,16.72-3,25-.36.07-1.23,1.07-2,1,1.66-9.99,4.84-19.75,4-30h1c-.12,1.31.14,2.69,0,4Z"/>
    <path class="cls-8" d="M112.71,231.06c.33.03.68-.06,1,0-.03,2,.05,4,0,6-.02.66.08,1.36,0,2-.04.33.07.69,0,1l-3.99,1.99c1.09-3.64.68-7.34.99-10.99.65,0,1.35-.06,2,0Z"/>
    <path class="cls-14" d="M104.71,119.06c-.97.11-2.01-.04-3,0-.33.01-.67,0-1,0-2-.01-4,.04-6,0-2.47-.06-5.81-.88-9-1v-1c5.31.13,10.69-.18,16,0,.9.03,2.31,1.45,5.41.96,2.57-.4,4.39-2.29,6.59-2.96-2.04,3.37-5.58,3.62-9,4Z"/>
    <path class="cls-14" d="M109.71,121.06c-.07-.65.03-1.34,0-1.99,3.74-.75,3.62,1.91,4.95,4.55l-1.96.44c-.28-1.27-1.46-3.79-3-3Z"/>
    <path class="cls-14" d="M112.71,231.06c-.65-.06-1.35,0-2,0-.32,3.66.09,7.35-.99,10.99l3.99-1.99c-1.54,6.97-13.98,8.18-20,8.99l2-12.99c1.38-.31,2.24-.81,3-1,2.23-.56,4.69-.87,7-1-2.02.9-4.91,3.27-7.5,4l-2.5,8.99,12.85-3.14,1.14-10.85c-.19-.21-3.26.67-3.99,1,.07-.65-.1-1.38,0-2,.77.07,1.64-.93,2-1,.84-.15,2.05.01,3,0,.18-2.04.99-2.84,1-3l1,3Z"/>
    <path class="cls-10" d="M112.71,190.06h-1.99c-.64-1.42.97-2.73.99-3,1.23.48,1.07,1.91,1,3Z"/>
    <path class="cls-14" d="M112.71,127.06h3c.38.29-.88,1.42-1,2h-2c-.11-.65.09-1.38,0-2Z"/>
    <path class="cls-17" d="M17.71,229.06c.25,1.25-.05,1.91,0,2,1.43,2.48,7.19,4.47,10,5.01,1.16,4.24-3.59,2.68-3,5.97l4.13,1.45-.13,4.56c-.33,0-.67.02-1,0-.65-.04-1.37.09-2,0v-3.99s-.99,0-.99,0l-1.01,2.99c-1.27-.13-2.74-.99-4-1l-1.04-4h-5.96c-.1-.98.05-2.01,0-3l2.98.99c-1.08-3.12-.85-5.85-.99-9,0-.16,1.24-1.15,1-3l2,1Z"/>
    <path class="cls-12" d="M95.71,236.06l-2,12.99c6.02-.81,18.46-2.03,20-8.99.07-.31-.04-.67,0-1h1c-1.13,5.45-2.27,10.71-4,16-1.93,1.03-4.09,1.37-6,2v-5s-11.94,2.06-11.94,2.06l-.06,3.93,11.99-1c-.09.03-.21.67-1.54,1.01-6.65,1.7-13.87,1.25-20.46,2.99-8.07.16-16.99.39-25,0-9.95-.49-20.09-1.97-29.99-3.01-.11-1.86,3.21-.87,4.53-.98,2.83-.23,1.07-2.47,1.47-4.01,1.64-.02,2.34-.09,2-2,13.26,2.16,30.92,1.54,44.55,1,1.92-.08,4.01,1.03,3.45-2,7.67-.77,8.19-6.27,9-13,.34-.06,1.8-.73,3-1ZM78.71,255.06h-31c-.4,1.16.44,4,1.5,4h29.5v-4Z"/>
    <path class="cls-3" d="M23.71,247.06c.12.01.97.85,2,1,.63.09,1.35-.04,2,0v2c3.32-1.92,5.84.65,8,1,.34,1.91-.36,1.98-2,2-3.13.05-10.17-2.38-12.35-2.08-1.15.16-.99,3.55-3.14,3.07-3.13-1.78-2.65-4.65-3.51-7,1.65.97,4.56-1,5-1,1.26,0,2.73.87,4,1Z"/>
    <polygon class="cls-12" points="22.71 257.06 23.22 256.07 26.71 256.07 26.71 257.05 22.71 257.06"/>
    <path class="cls-19" d="M12.71,242.06h5.96s1.04,4,1.04,4c-.44,0-3.35,1.97-5,1-.61-1.66-1.75-2.54-2-5Z"/>
    <path class="cls-15" d="M85.71,118.06c3.19.12,6.53.94,9,1-.87,4.87,2.98,6.68,3.09,11.5.11,5.08-1.76,12.22-2.09,17.5-10,.58-15.92.56-26,0-.9-3.25-1.75-8.07-.79-11.3.55-1.85,3.24-3.06,4.25-4.74,1.27-2.1,1.54-4.46,2.69-6.31,2.04-3.3,6.37-3.81,5.85-7.65,1.33.04,2.67-.05,4,0Z"/>
    <path class="cls-17" d="M81.71,118.06c.51,3.84-3.81,4.34-5.85,7.65-1.15,1.86-1.42,4.21-2.69,6.31-1.01,1.68-3.7,2.9-4.25,4.74-.96,3.23-.11,8.05.79,11.3-2.77-.15-6.26-.21-9,0-8.55-8.28-.17-20.91,0-31,7.07.06,13.96.77,21,1Z"/>
    <path class="cls-16" d="M84.71,205.06c2.01-.03,2.24.55,6,0,.33-.05.67.04,1,0-1.65,6.02-2.48,11.14-1.99,17.49.42,5.35.78,12.29,7.79,10.31l5.19-9.79c-1.38,3.97-3.04,7.88-4,12-.76.19-1.62.69-3,1-1.2.27-2.66.94-3,1-9.17,1.55-18.68,1.09-28,1-.29-3.33,2.62-5.07,3.7-7.8,3.41-8.65,2.63-15.47.3-24.2,3.39-.05,6.5-.9,9-1,2.32-.09,4.67.04,7,0Z"/>
    <path class="cls-5" d="M54.71,206.06c1.07,7.36,4.07,13.17-.15,20.35-1.79,3.05-6.25,4.5-5.85,8.65-2.76-.16-6.26-.21-9,0-.85.06-1.73.03-2,1-.49-.06-1.71-.12-2,0-.59-.43-1.53-1.87-2-2l3-3c-3.02,1.22-4.39-2.94-3.84-5.31.33-1.42,5.24-5.28,6.68-7.36,2.12-3.08,4.54-8.55,5.17-12.33,3.28.25,6.7-.1,10,0Z"/>
    <path class="cls-17" d="M68.71,206.06c2.33,8.73,3.11,15.55-.3,24.2-1.08,2.73-3.99,4.47-3.7,7.8-.67,0-1.33.01-2,0v-2c-3.81-.24-7.77.31-11.58.04-1.29-.09-2.28-1.03-2.42-1.04-.4-4.15,4.06-5.6,5.85-8.65,4.22-7.18,1.22-12.99.15-20.35,4.63.14,9.36.06,14,0Z"/>
    <path class="cls-19" d="M106.71,203.06c.33-.04.67.05,1,0,.03,7.08-2.77,13.58-5,20l-5.19,9.79c-7.01,1.98-7.37-4.96-7.79-10.31-.5-6.35.34-11.46,1.99-17.49.96-.12,2.36-.8,4-1,.33-.04.67.05,1,0,.64-.09,1.36.09,2,0,2.74-.41,5.24-.7,8-1Z"/>
    <path class="cls-18" d="M77.71,205.06l5-2.01.51-3.01,12.49,1.53c-3.23.5-6.41.73-9.65,1.35-2.32.45-3.13-.63-1.34,2.14-2.33.04-4.68-.09-7,0Z"/>
    <path class="cls-6" d="M58.71,201.06c.12,3.49.62,2.76-2.45,3-2.61.2-5.32-.15-7.94.06l-1.61-4.07c3.96.29,8.16.85,12,1Z"/>
    <path class="cls-18" d="M95.71,204.06c-1.64.2-3.04.88-4,1-.33.04-.67-.05-1,0v-2c1.6.08,4.19-.63,5,1Z"/>
    <path class="cls-18" d="M109.71,202.06c-.25-.4-1.45.92-2,1-.33.05-.67-.04-1,0v-1.99s3,.99,3,.99Z"/>
    <path class="cls-18" d="M98.71,204.06c-.64.09-1.36-.09-2,0l1.49-.99.51.99Z"/>
    <path class="cls-6" d="M48.71,148.06c.33.02.67-.02,1,0v2s6,0,6,0c.54.48,1.93.98,2.02,1.7.75,6.07-11.99,25.77-13.95,32.86-1.79,5.95,2.8,9.06,2.93,14.44-4.37-.15-8.57-1.48-12.99-.99.14,1.43,4.46,1.73,5.64,1.86,2.19.25,4.28-.03,6.36.12-5.49,2.45-12.62-.45-18,3-3.52-.57-6.02-1.43-9-2-.3-.06-.68,0-1,0-2.6-2.68-2.65-3.57-3-7h3c-.21-1.5-1.71-1.9-3-2-.15-2.82-.17-6.19,0-9s.82-6.47,1-10c.02-.32,1.48-1.42,1.03-3.35-.16-.68-2.21-.39-1.51-2.63-.46.25-1.14.97-1.52.97-.46,0-1.4-.82-2-1,.01-.33,0-.67,0-1,.01-.49.95-2.73,1-5h3c-.14.99-1.32,3.6-1,3.99.65-.02,1.34.08,2,0,.76-.09,1.41-1.48,1.98-.51l-1.97,24.51c8.05-1.66,15.1-11.47,19.15-18.34,1.42-2.41,9.73-19.66,8.84-20.65-.99-.03-2,.02-3,0v-2c2.32.11,4.68-.1,7,0ZM27.71,196.07l-8.99-2c.84,1.75,8.02,4.35,8.99,2Z"/>
    <path class="cls-5" d="M17.71,205.06l3,7c.07.32-.08.69,0,1,.88,3.55,1.97,7.9,3.21,11.29s5.38,5.94,2.79,9.71c-1.21-.63-5.78-2.62-7-3-1.66-9.22-3.27-18.61-2.99-27.99l.99,1.99Z"/>
    <path class="cls-13" d="M20.71,213.06c4.2,5.01,5.3,15.59,8.9,20.38,1.05,1.4,2.94.29,4.1.62.47.13,1.41,1.57,2,2-.14.06-.73,1.51-2,2-.65.25-2.13-.17-3,0-.95-2.89-1.24-2.56-4-4,2.59-3.77-1.57-6.38-2.79-9.71s-2.33-7.74-3.21-11.29Z"/>
    <path class="cls-13" d="M20.71,212.06l-3-7h1c.4,1.95,1.46,4.72,2,7Z"/>
    <path class="cls-14" d="M104.71,257.06l-11.99,1,.06-3.93,11.93-2.06v5c1.92-.63,4.08-.97,6.01-2-10.51,7.26-16.21,5.77-28,6,6.6-1.75,13.82-1.29,20.46-2.99,1.32-.34,1.45-.98,1.54-1.01Z"/>
    <path class="cls-16" d="M100.71,119.06c-.43,8.64.63,17.41,0,26-.07.99.05,2.01,0,3-1.66.06-3.34-.1-5,0,.34-5.29,2.21-12.43,2.09-17.5s-3.96-6.63-3.09-11.5c2,.04,4-.01,6,0Z"/>
    <path class="cls-13" d="M126.71,166.06c-1.94.93-4.06-.88-5-1-.99-2.54.86-5.57,1-7,3.22,1.73,4.79,2.37,4.96,6.39.03.74-.98,1.46-.96,1.61Z"/>
    <path class="cls-14" d="M114.71,239.06h-1c.08-.64-.02-1.34,0-2l1.99-1c.67,1.59-.88,2.46-.99,3Z"/>
    <path class="cls-12" d="M101.71,119.06c-.92,7.53.97,15.25,1.03,22.51.02,1.91.89,4.07-2.03,3.49.63-8.59-.43-17.36,0-26,.33,0,.67.01,1,0Z"/>
    <path class="cls-3" d="M105.71,232.06c-.1.62.07,1.35,0,2-2.31.13-4.77.44-7,1,.96-4.12,2.62-8.03,4-12,2.23-6.42,5.03-12.92,5-20,.55-.08,1.75-1.4,2-1,.84,10.25-2.34,20.01-4,30Z"/>
    <path class="cls-19" d="M33.71,238.06c.42,15.77,14.53,10.31,25.46,13.04,7.87-.45,16.79-.26,24.54-1.04.56,3.03-1.53,1.92-3.45,2-13.62.54-31.29,1.16-44.55-1-2.16-.35-4.68-2.92-8-1v-2c.32.02.67,0,1,0,1.33-.03,2.67.03,4,0,.36-.36-1.59-8.76-2-9.99.87-.17,2.35.25,3,0Z"/>
    <path class="cls-11" d="M19.71,231.06c1.22.38,5.79,2.37,7,3,2.76,1.44,3.05,1.11,4,4,.41,1.23,2.36,9.64,2,9.99-1.33.04-2.67-.02-4,0l.13-4.56-4.13-1.45c-.59-3.3,4.16-1.74,3-5.97-2.81-.54-8.57-2.53-10-5.01.62.11,1.49-.16,2,0Z"/>
    <path class="cls-19" d="M25.71,248.06c-1.03-.15-1.88-.99-2-1l1.01-2.99h.98s.01,3.99.01,3.99Z"/>
    <path class="cls-18" d="M37.71,236.06c.3.03,1.33.87,3,1,7.51.6,14.46.86,22,1,.67.01,1.33,0,2,0,9.32.09,18.83.55,28-1-.81,6.73-1.33,12.23-9,13s-16.67.59-24.54,1.04c-10.93-2.74-25.04,2.73-25.46-13.04,1.27-.49,1.86-1.94,2-2,.29-.12,1.51-.06,2,0Z"/>
    <path class="cls-9" d="M78.71,255.06v4h-29.5c-1.06,0-1.9-2.84-1.5-4h31Z"/>
    <path class="cls-16" d="M48.71,235.06c.14,0,1.13.95,2.42,1.04,3.81.27,7.77-.28,11.59-.04v2c-7.55-.14-14.5-.4-22.01-1l-1-2c2.74-.21,6.24-.16,9,0Z"/>
    <path class="cls-13" d="M39.71,235.06l1,2c-1.67-.13-2.7-.97-3-1,.27-.97,1.15-.94,2-1Z"/>
    <path class="cls-19" d="M105.71,234.06c.74-.33,3.8-1.21,3.99-1l-1.14,10.85-12.85,3.14,2.5-8.99c2.59-.74,5.47-3.11,7.5-4Z"/>
  </g>
</svg>