<?xml version="1.0" encoding="UTF-8"?>
<svg id="_图层_2" data-name="图层 2" xmlns="http://www.w3.org/2000/svg" viewBox="0 0 128.86 182.66">
  <defs>
    <style>
      .cls-1 {
        fill: #e1b43d;
      }

      .cls-2 {
        fill: #d9a248;
      }

      .cls-3 {
        fill: #ebc54f;
      }

      .cls-4 {
        fill: #232222;
      }

      .cls-5 {
        fill: #2c2c2c;
      }

      .cls-6 {
        fill: #c9c8c5;
      }

      .cls-7 {
        fill: #d1a435;
      }

      .cls-8 {
        fill: #e5b944;
      }

      .cls-9 {
        fill: #535255;
      }

      .cls-10 {
        fill: #434143;
      }

      .cls-11 {
        fill: #3b3a3d;
      }

      .cls-12 {
        fill: #5267a4;
      }

      .cls-13 {
        fill: #e6e6e1;
      }

      .cls-14 {
        fill: #d2d2d1;
      }

      .cls-15 {
        fill: #57575b;
      }

      .cls-16 {
        fill: #deddda;
      }

      .cls-17 {
        fill: #47474a;
      }

      .cls-18 {
        fill: #1b1a1a;
      }

      .cls-19 {
        fill: #3e5494;
      }
    </style>
  </defs>
  <g id="_图层_1-2" data-name="图层 1">
    <path class="cls-5" d="M80.71,1.19c-1,0-2,0-3,0-8.65-.04-17.35-.09-26,0-1,.01-2-.03-3,0-.66.02-1.35-.07-2,0V.19c9.38-.36,19.1-.12,28.51-.02,1.69.02,4.45-.64,5.49,1.02Z"/>
    <path class="cls-8" d="M85.71,1.19c-.32,1.5-3.59,1.56-4,0,1.33,0,2.67,0,4,0Z"/>
    <path class="cls-8" d="M46.71,1.19c.65-.07,1.34.02,2,0-1.16,1.3-2.55.88-4,1,.29-.98,1.15-.91,2-1Z"/>
    <path class="cls-7" d="M11.71,151.19l2.99-1,.02,4c1.46.47,1.77-.91,1.99-1,.47-.17,1.39.12,2,0,.85,1.09,1.24,1.25,2,2,.17.17.81-.16,1,0,3.13,2.67,1.15,2.24,6,4-.77,2.44,7.99,4.06,8.45,3.97,5.1-1.02-8.83-12.66,1.55-10.97,1.88,7.17,2.37,10.65,10,13l-1,5c-2.97-.19-6.03.13-9,0-.42,2.99.53,4.99,3.26,6.24,15.62,2.63,34.1,4.56,48.79-1.7l1.95-4.54c1.16-.15,4.66-3.71,7-1,.52.61-.46,2.52,2.51,3.04,3.59.63,5.39-1.59,8.49-2.04,1.73,1.85-4.61,6.38-5.99,7-9.61,4.26-41.19,4.63-52.49,3.99-6.12-.35-19.06-1.5-24.52-3.48-1.31-.48-4.54-2.54-5.54-3.5-1.27-1.22-1.07-2.5-1.45-3.01.64.48,7.1,1.25,8.34.86,6.02-1.91-3.61-8.29-8.68-6.74l-1.53,2.24c1.07.56,1.71,3.52,1.88,3.65-4.54-6.09-4.63-10.44-8-17-.05-1,.05-2,0-3Z"/>
    <path class="cls-5" d="M11.71,60.19c.07.47.52.89,1,1v40c-3.04-2.56-7.83-3.34-10.52,0-3.34,6.59,9.48,7.43,11.1,5.03l-.59-3.02,2.92-.06c1.4-7.67-1.62-16.12-.93-23.48.25-2.66,1.79-5.33,2.03-8.47h1c-1.52,6.74-1.12,15.2.01,21.99l4.99-15.99h1c-2.91,12.03-6.06,24.24-9,36-.08.31.08.69,0,1-2.95.69-2.97-.74-4-3-.15-.33.37-1.47-.13-1.84l-9.63-2.4c-3.28-7.66,2.3-11.2,9.76-9.76-.92-8.08.96-17.56.62-25.34-.18-4.09-2.16-7.84-2.54-11.25-1.13-10.2.4-20.6,2.92-30.42h1c-1.87,7.93-2.17,21.98-1,30Z"/>
    <path class="cls-4" d="M112.71,53.19l1.01,50c2.26-.81,2.77-3.4,3.01-5.48,1.43-12.16.02-27.36.98-40.52l2-1c1.01,5.16-1.55,9.75-1.99,14.51-.78,8.48,2.69,17.13.07,25.85l1.55,1.57c5.22-2.04,9.99.63,9.49,6.61-.2,2.33-1.91,1.24-2.11,1.46.27-.28,1.03-3.56.86-4.29-1.16-4.99-12.76-3.42-12.9,2.78-.09,4.04,10.93,2.63,12.04,1.51-.13.14.36,1.32-.72,1.98-1.89,1.15-6,.96-8.28,1.02-.05,6.32.08,12.68,0,19-3.24-5.5-1.57-9.12-3.06-14.26-1.81-6.25-3.4-12.57-4.94-19.74,3.47.12,2.78.62,3.01-2.46.5-6.63-1.26-16.93-4.15-22.9-.79-1.62-2.25-4.84-3.85-5.64l3.99,24c-.7-3.38-3.31-8.63-4-12-2.28-11.14-2.71-23.73-.99-35,5.76,1.22,6.7,8.65,8.99,13ZM111.7,69.18c-.99-5.14-.43-11.12-1.43-16.05-.29-1.43-3.54-9.77-5.55-7.94-1.01,4.62-1.66,8.85.04,13.44l6.94,10.55Z"/>
    <path class="cls-1" d="M14.71,115.19c3.9-.22,2.58-.35,2.96,2.49,1.08,7.92,3.61,15.34,3.04,23.51-5.38-.76-5.31,4.26-4,8,.23.66.67,1.36,1,2l-1,2c-.22.08-.54,1.46-1.99,1l-.02-4-2.99,1c-.03-.66.03-1.34,0-2-.3-6.97-.9-13.98-1-21,0-.33,0-.67,0-1,3.48-2.52,2.9-7.82,4-12Z"/>
    <path class="cls-11" d="M46.71.19v1c-.85.09-1.71.02-2,1-1.26.1-2.59-.33-3.82.15l-1.18,4.85h50l-1.86-2.52,1.86-1.48,1.98,4.58,18.01,3.42c-1.39-8.58-5.68-7.05-11.89-8.65-1.09-.28-1.92-1.3-2.1-1.34,5.42-.47,10.94-.29,14.01,4.76,3.58,5.87,9.37,27.09,9.99,34.24h-2c-.58-3.81-1.2-5.63-2-9-1.21-5.09-1.81-14.52-6.61-17.89-5.23-3.66-20.73-4.79-27.39-5.11-15.73-.77-31.75-.16-47,2-.95.13-2.08-.16-3,0-.32.06-.68-.06-1,0-13.09,2.33-14.96,7.15-18,20h-1c1.34-5.23,6.66-23.76,9.94-26.56,1.62-1.38,3.58-2.06,5.66-2.34,5.22-.73,13.8-.88,19.41-1.09ZM38.72,2.19c-7.67.05-17.34-.28-19,9l18.41-3.88.58-5.11Z"/>
    <path class="cls-3" d="M51.71,1.19c-.12.61.17,1.53,0,2-.08.22-1.46.52-1,1.99,6.15-1.06,12.3-1.17,18.54-1.04,3.44.07,7.28,2.37,9.4-.46.02-.21-.93-.35-.95-.49-.09-.64.06-1.35,0-2,1,0,2,0,3,0,.33,0,.67,0,1,0,.41,1.56,3.68,1.5,4,0,1.46,0,3.8,1.06,4,1v1l-1.86,1.48,1.86,2.52h-50l1.18-4.85c1.24-.48,2.56-.05,3.82-.15,1.45-.12,2.84.3,4-1,1-.03,2,.01,3,0Z"/>
    <path class="cls-4" d="M116.71,157.19c-1.08,6.41,2.16,9.7-4,15-1.62,1.39-6.81,3.91-9,5,1.39-.61,7.73-5.14,5.99-7-3.1.45-4.9,2.67-8.49,2.04-2.97-.52-1.98-2.44-2.51-3.04.2-.53,1.09-1.7,1-2l11-2.01.98,4c.95-4.09,2.91-7.96,4.01-11.99h1Z"/>
    <path class="cls-12" d="M95.71,1.19c.18.04,1.01,1.06,2.1,1.34,6.21,1.6,10.51.07,11.89,8.65l-18.01-3.42-1.98-4.58v-1c1.52-.43.23-2.4,6-1Z"/>
    <path class="cls-5" d="M19.71,171.19c.38.51.17,1.79,1.45,3.01,1.01.96,4.23,3.02,5.54,3.5,5.46,1.98,18.4,3.14,24.52,3.48,11.3.64,42.88.27,52.49-3.99-13.29,6.6-61.3,7.16-75.56,2.06-4.89-1.75-7.51-5.91-12.44-7.06-.96-2.17-3.24-4.1-3.78-6.73-.74-3.62-.06-8.05-.22-11.27,3.37,6.56,3.46,10.91,8,17Z"/>
    <path class="cls-10" d="M116.71,157.19h-1c.45-1.64,1.14-3.24.99-5-3.02.91-3.54,1.94-6.99,2,.71-1.2-1.28-1.2,2-2,1.18-.29,2.18.23,3.56-.91,3.72-3.06,2.38-17.94,2.44-23.09,5.3,9,.52,19.94-1,29Z"/>
    <path class="cls-9" d="M10.71,111.19c1.03,2.26,1.05,3.69,4,3-.08.31.08.69,0,1-1.1,4.18-.52,9.48-4,12-.02-5.32.01-10.68,0-16Z"/>
    <path class="cls-11" d="M11.71,149.19c-3.17.56-1.78-1.59-1.97-3.49-.57-5.79-2.4-12.16.97-17.51.1,7.02.7,14.03,1,21Z"/>
    <path class="cls-4" d="M119.71,40.19c.39,4.5-.28,9.44,0,14h-2c.03-1.33,0-2.67,0-4,1.48-.77,1.12-3.46,1-5-.14-1.84-.75-3.34-1-5h2Z"/>
    <path class="cls-11" d="M119.71,54.19v2l-2,1c.07-.99-.03-2.01,0-3h2Z"/>
    <path class="cls-4" d="M101.71,148.19c-3.38,1.75-4.52,5.43-7,8,.32-1.33,1-2.59,1-3.99-4.84-1.2-7.23,4.93-8,8.99-11.43,6.59-27.3,7.92-40,4-7.63-2.35-8.12-5.83-10-13v-1c1.63.19,3.36-.15,5,0l1,1c2.64.18,5.35-.09,8,0,7.75.28,16.24.23,24,0h1c1-.04,2,.05,3,0,3.54-.17,15.07-.52,17.3-1.2,1.42-.43,2.97-2.74,4.7-3.8,0,.34-.09.79,0,1ZM69.21,157.19c4.16,1.13,12.75-.83,17.5,0v-1h-17l20-2.01c.26-1.67-2.41-1.07-3.53-1.04-7.78.24-15.37,2.32-23.46.06-.43,1.63,1.4.6,1.75,1.17.67,1.09.17,2.6.25,3.82l2.01-3.01c.53-.52,1.97,1.86,2.49,2.01ZM62.71,160.19l-.93-5.57-10.06-.43,9.99,1-1.99,4.99h2.99Z"/>
    <path class="cls-1" d="M92.71,158.19l-.97,3.45.96,1.07c.76.5,4.03-.2,5.01-.52-.28,2.31,1.77,4.24,2,5,.09.3-.8,1.47-1,2-2.34-2.71-5.84.85-7,1-2.17.28-4.75-.19-7,0l-.5-.98-.5.98c-13.51,1.02-23.55.86-37,0l1-5c12.7,3.92,28.57,2.59,40-4,.98-.57,4.35-2.44,5-3Z"/>
    <path class="cls-4" d="M46.71,170.19c13.45.86,23.49,1.02,37,0,.33-.02.67.03,1,0,2.25-.19,4.83.28,7,0l-1.95,4.54c-14.69,6.26-33.17,4.33-48.79,1.7-2.73-1.25-3.68-3.25-3.26-6.24,2.98.12,6.03-.19,9,0ZM80.71,174.19c-6.12-.28-12.37.37-18.48-.02-4.27-.27-11.19-2.44-15.05-2.11-1.85.16-1.4,1.76-1.68,1.9-1.51.76-4.43-2.79-3.78,1.2,12.3,2.58,25.04,2.49,37.52,1.02,1.5-.18,3.04-.81,1.47-2Z"/>
    <path class="cls-13" d="M25.71,147.19v2.99s1.49,0,1.49,0l.51-.99c3.67,3.55,6.68,5.98,8.01,11.49-2.11.85-5.9-.73-8.01-1.49-4.85-1.76-2.87-1.33-6-4,3.92.47,2.57-5.23,2-8,.67,0,1.33,0,2,0Z"/>
    <path class="cls-18" d="M19.71,171.19c-.16-.12-.8-3.09-1.88-3.65l1.53-2.24c5.08-1.55,14.7,4.83,8.68,6.74-1.23.39-7.69-.37-8.34-.86Z"/>
    <path class="cls-16" d="M23.71,147.19c.57,2.77,1.92,8.47-2,8-.19-.16-.83.17-1,0-3.8-4.45,3.31-1.92,1.99-4.49l-4.99-4.51c1.42-6.62,4.91-4.32,6,1Z"/>
    <path class="cls-11" d="M20.71,141.19c2.04.29,9.72,8.42,12.04,9.48,1.92.87,3.27.32,4.96.52v1c-10.38-1.69,3.56,9.95-1.55,10.97-.47.09-9.23-1.53-8.45-3.97,2.11.76,5.9,2.34,8.01,1.49-1.33-5.51-4.34-7.94-8.01-11.49-.44-.42,1.3-1.95-2-2-.67,0-1.33,0-2,0-1.09-5.32-4.58-7.62-6-1-.21.97.43,2.54-1,3-1.31-3.74-1.38-8.76,4-8Z"/>
    <path class="cls-13" d="M17.71,146.19l4.99,4.51c1.32,2.57-5.79.04-1.99,4.49-.76-.75-1.15-.91-2-2-.15-.19-.73-1.47-1-2-.33-.64-.77-1.34-1-2,1.43-.46.79-2.03,1-3Z"/>
    <path class="cls-16" d="M18.71,153.19c-.61.12-1.53-.17-2,0l1-2c.27.53.85,1.81,1,2Z"/>
    <path class="cls-1" d="M30.71,10.19l.5.98.5-.98c.92-.16,2.05.13,3,0,.26,9.65-5.97,17.63-7,27-.75.61-1.13,2.21-2,3-.29.27-1.87.17-3.01,1.45-8.03,9.06-5.19,18.86-5.99,29.55-.24,3.13-1.78,5.81-2.03,8.47-.69,7.36,2.33,15.8.93,23.48l-2.92.06.59,3.02c-1.62,2.4-14.44,1.56-11.1-5.03,2.69-3.33,7.48-2.55,10.51,0v-40c7.11-14,8.56-30.34,8-45.99l-3.29,27.2-5.7,17.8c-1.17-8.02-.87-22.07,1-30,3.04-12.85,4.91-17.67,18-20Z"/>
    <path class="cls-8" d="M19.71,113.19c9.68,1.58,15.13,3.59,26,4,.13.73-1,1.85-1,2l-19-1.99.98,3.51c2.99.54,6.02,1.07,9.02,1.48.24,1.99-.26,3.62-1.1,5.39-2.03,4.28-5.87,4.44-5.9,8.61-2.12-4.1-5.52-7.84-5.01-12.99-1.95.15-.28,6.18.01,6.99.36,1.01.76,1.45,1,2,.94,2.18,3.73,5.74,5,8,.33.58.53,1.23,1,2,.3.5-.03,1.77.98,2.6.72.67.96-.6,1.02-.6,6.32-.06,11.95.38,17.17,4.36,1.59,1.21,2.4.87,1.83,3.64-2.65-.09-5.36.18-8,0-.07,0-.25-.93-1-1-1.64-.15-3.37.19-5,0s-3.04.35-4.96-.52c-2.32-1.06-10-9.19-12.04-9.48.58-8.17-1.96-15.59-3.04-23.51-.39-2.84.94-2.71-2.96-2.49.08-.31-.08-.69,0-1s-.08-.69,0-1c1.53,1.46,4.6-.06,5,0Z"/>
    <path class="cls-8" d="M31.71,142.19h-1c.06-.81-.87-1.54-1-2-.15-.54.1-1.37,0-2,.93,1.66,1.29,1.68,2,4Z"/>
    <path class="cls-4" d="M25.71,68.19c.46.71,1.56.7,2,1,4.79,3.32,8.04,3.34,14,4,19.61,2.16,40.6,1.21,60-2h1c.22,1.35.77,2.66,1,4,1.03,5.9,8.44,34,6.54,37.07-.63.97-1.64.73-2.54.93,2.57-9.15-1.95-19.14-4-28-.43-1.85-1.16-11.11-2.09-11.9-2.37-1.1-5.26.8-6.91.9-3.05.2-8.37,1-10.5,1h-40c-1.02,0-5.51-.81-7.5-1-2.76-.27-5.8-1.84-8.9-.89-.67.57-.78,5.59-1.1,6.89-1.22,4.94-8.51,29.88-5.02,32.52,3.31,2.5,26.12,2.24,31.56,2.44,16.45.59,38.4,1.72,54.46-1.96v1c-1.01.19-1.84.98-2,1-1.63.24-3.36.92-4,1-6.65.79-14.26.8-21,1-.67.02-1.33-.02-2,0-6.62.17-13.37.1-20,0-4.32-.06-8.69.16-13,0-10.87-.41-16.32-2.42-26-4-1.29-1.99-1.11-4.13-.9-6.36,1.04-11.01,6.93-24.05,7.82-34.24.18-2.11.67-2.75-1.91-2.41.27,2.46-.44,4.68-1,7h-1c-.55-3.09,1.58-6.51,2-9h1Z"/>
    <path class="cls-10" d="M24.71,68.19c-.42,2.49-2.55,5.91-2,9l-4.99,15.99c-1.13-6.79-1.53-15.25-.01-21.99l1-2,5.51-5.99c.82.9.69,3.84.49,4.99Z"/>
    <path class="cls-18" d="M25.71,40.19c1.38,9.32,1.38,18.66,0,28h-1c.19-1.15.32-4.09-.49-4.99l-5.51,5.99c4.9-9.16,9.53-13.61,5.99-25-2.31-.57-1.65.46-2.28,1.27-3.53,4.46-4.42,12.57-4.75,18.2-.09,1.47-.62,4.92,1.04,5.54l-1,2h-1c.8-10.69-2.04-20.49,5.99-29.55,1.14-1.28,2.72-1.18,3.01-1.45Z"/>
    <path class="cls-1" d="M23.71,77.19c.56-2.32,1.27-4.54,1-7,2.58-.35,2.1.29,1.91,2.41-.89,10.19-6.78,23.23-7.82,34.24-.21,2.23-.39,4.37.9,6.36-.4-.06-3.47,1.46-5,0,2.94-11.76,6.09-23.97,9-36Z"/>
    <path class="cls-9" d="M12.71,61.19c-.48-.11-.93-.53-1-1l5.7-17.8,3.29-27.2c.56,15.65-.89,31.99-7.99,45.99Z"/>
    <path class="cls-8" d="M115.71,31.19h-5l-2-1.99c.42,8.79,2.77,15.77,5,23.99h-1c-2.3-4.34-3.23-11.77-8.99-13-1.72,11.27-1.29,23.85.99,35h-1c-.23-1.34-.78-2.65-1-4-1.67-10.41-3.26-21.4-.07-31.64-.02-1.26-.62-1.02-.93-1.36-.7-.76-1.32-.67-2-1-1.07-.92-1.41-2.72-4-2-2.32-2.33-1.15-2.69-5-5-2.26-1.36-1.74-1.65-5-2,1.73-8.24-2.38-12.72-4-20,6.66.32,22.16,1.45,27.39,5.11,4.8,3.37,5.4,12.8,6.61,17.89Z"/>
    <path class="cls-8" d="M99.71,37.19c.35.31.64.7,1,1-1.4,9.22-1.62,18.79,0,28-3.02.15-4.73-2.66-8-2,.1-2.01-.86-5.49-3-6-1.37-.33-4.29,0-6,0-.08,0-.29-.75-.55-.71l-.91.64c-1.68,2.39-2.88,6.71.46,8.07-.09.06.4,1.73-.65,2.01-1.85.5-10.92-.01-13.85-.01h-23c-.52,0-2.28,1.22-3.34,1.17l-.16,3.83c-5.96-.66-9.21-.68-14-4v-1c3.2-8.43,2.47-19.26,1-28,1.21-3.25,2.5-3.01,6-4-.32,1.55-2.52,3.45-1.99,5.45l1.58,1.47c1.16-.21,2.29-.58,3.41-.92-.28,3.05,3.13,3.2,3.98,4.77,1.27,2.33.73,8.72,1.15,9.15.3.31,2.03-.19,2.62.3.62.51.13,1.65.25,1.78-2.72.06-4.74-.7-7,1-1.2.9-1.91,1.97-1.98,3.51.11,3.89,5.61,3.89,8.46,3.44,2.08-.33,3.32-1.92,3.52-1.95,6.55-1.06,13.93.94,19.45-.06,4-.73,21.1-13.34,23.22-16.78,1.06-1.73,1.68-3.05,1.34-5.16,1.49.24,2.3,2.14,3.99-.53l-1.91-5.08.92-1.39c1.82,1.83,2.44,1.25,4,2Z"/>
    <path class="cls-1" d="M108.71,87.19c.47,2.25.55,4.9,1,7,1.54,7.17,3.13,13.49,4.94,19.74,1.49,5.14-.18,8.75,3.06,14.26-.06,5.15,1.28,20.03-2.44,23.09-1.38,1.13-2.38.62-3.56.91.16-.62.99-1.54,1-2,2.36-4.64.74-9.37-5-9,.14-.2.77-1.52,1-2,3.57-7.48,2.87-17.23,3-25.5-.49-1.43-.95.48-1,.5-1.79.73-2.85-.03-3,0v-1c.9-.21,1.9.04,2.54-.93,1.91-3.07-5.51-31.16-6.54-37.07h1c.69,3.37,3.3,8.62,4,12Z"/>
    <path class="cls-2" d="M117.71,50.19c0,1.33.03,2.67,0,4-.03.99.07,2.01,0,3-.96,13.16.45,28.36-.98,40.52-.24,2.08-.75,4.67-3.01,5.48l-1.01-50h1c.63,2.31,1.23,4.55,1.01,7h.98c.26-1.88-.32-4.24.01-6,.3-1.59,1.54-4.33,2-6v2Z"/>
    <path class="cls-10" d="M111.7,69.18l-6.94-10.55c-1.7-4.6-1.06-8.82-.04-13.44,2.01-1.83,5.26,6.51,5.55,7.94,1,4.94.44,10.91,1.43,16.05Z"/>
    <path class="cls-10" d="M108.71,87.19l-3.99-24c1.6.79,3.06,4.02,3.85,5.64,2.89,5.96,4.65,16.26,4.15,22.9-.23,3.08.45,2.58-3.01,2.46-.45-2.1-.53-4.75-1-7Z"/>
    <path class="cls-1" d="M126.71,106.19c-1.11,1.12-12.14,2.53-12.04-1.51.14-6.2,11.74-7.77,12.9-2.78.17.73-.58,4.01-.86,4.29Z"/>
    <path class="cls-3" d="M81.71,8.19c1.62,7.28,5.73,11.76,4,20-6.65-.71-42.93-.77-47.32,1.22-1.11.5-1.3,1.5-1.68,1.78-1.45,1.06-2.39,2.56-3,3-1.62,1.16-4.59,1.85-6,3,1.03-9.37,7.26-17.35,7-27,15.25-2.16,31.27-2.77,47-2Z"/>
    <path class="cls-12" d="M38.72,2.19l-.58,5.11-18.41,3.88C21.38,1.91,31.04,2.24,38.72,2.19Z"/>
    <path class="cls-3" d="M30.71,10.19c.32-.06.68.06,1,0l-.5.98-.5-.98Z"/>
    <path class="cls-8" d="M77.71,1.19c.06.65-.09,1.36,0,2h-26c.17-.47-.12-1.39,0-2,8.65-.09,17.35-.04,26,0Z"/>
    <path class="cls-5" d="M77.71,3.19c.02.14.97.28.95.49-2.12,2.83-5.97.53-9.4.46-6.24-.13-12.39-.02-18.54,1.04-.47-1.47.91-1.77,1-1.99h26Z"/>
    <path class="cls-7" d="M109.71,154.19c3.45-.05,3.98-1.08,6.99-2,.15,1.75-.55,3.36-.99,5-1.1,4.03-3.06,7.9-4.01,11.99l-.98-4-11,2.01c-.23-.76-2.28-2.69-2-5,.88-.29,9.01-3.81,9.45-4.09,1.63-1.05,1.11-2.19,1.55-2.91.22-.35.78-.63,1-1Z"/>
    <path class="cls-1" d="M115.71,31.19c.8,3.37,1.42,5.19,2,9,.25,1.66.86,3.16,1,5-1.34.69-.74,2.08-1,3-.46,1.67-1.7,4.41-2,6-2.83-7.31-4.47-15.17-5-23h5Z"/>
    <path class="cls-11" d="M117.71,50.19v-2c.26-.92-.34-2.31,1-3,.12,1.54.48,4.23-1,5Z"/>
    <path class="cls-3" d="M58.71,117.19c5.81,1.68,14.27,1.67,20,0,.67-.02,1.33.02,2,0,.85.52,3.33,1.93,4,2-3.09,6.19,5.22,3.49,9,3,2.87,3.44,5.81,5.32,10,7-1.84,4.38-4.29,8.14-6,12-6.31,2.63-16.68,2.74-18,11-1,.05-2-.04-3,0-.27,0-.63-.01-1,0-7.76.23-16.25.28-24,0,.57-2.77-.24-2.43-1.83-3.64-5.22-3.97-10.85-4.41-17.17-4.36-1-.35-.77-1.25-1-2-.71-2.32-1.07-2.34-2-4-.39-.69-.65-1.33-1-2,.03-4.17,3.87-4.33,5.9-8.61.84-1.77,1.34-3.41,1.1-5.39,2.7.37,5.37,1.78,8.35.85,2.9-.94.67-3,.65-3.85,0-.15,1.13-1.27,1-2,4.31.16,8.68-.06,13,0Z"/>
    <path class="cls-8" d="M107.71,114.19c.15-.03,1.21.73,3,0,.48,8.4-1.46,16.65-2,25-.23.48-.86,1.8-1,2-1.86,2.6-6.06,3.59-6,6-1.74,1.06-3.29,3.37-4.7,3.8-2.23.68-13.76,1.03-17.3,1.2,1.32-8.26,11.69-8.37,18-11-.3.68-2.03,5.16-.01,4.99l9.86-22.67-1.84-1.33c0,2.53-1.06,4.75-2.01,7-4.19-1.68-7.13-3.56-10-7,5.36-.7,8.76.4,11-5,.28-.68.7-1.32,1-2,.16-.02.99-.81,2-1Z"/>
    <path class="cls-13" d="M101.71,148.19c.76,1.86,5.76,6.03,8,6-.22.37-.78.65-1,1-4.35.83-9.1,5.7-13.47,6.04-2.96.23-.93-3.35-.53-5.04,2.48-2.57,3.62-6.25,7-8Z"/>
    <path class="cls-11" d="M69.21,157.19c-.52-.14-1.96-2.53-2.49-2.01l-2.01,3.01c-.08-1.22.42-2.73-.25-3.82-.35-.57-2.18.46-1.75-1.17,8.09,2.27,15.68.18,23.46-.06,1.12-.03,3.8-.63,3.53,1.04l-20,2.01h17v1c-4.75-.83-13.34,1.13-17.5,0Z"/>
    <path class="cls-7" d="M87.71,161.19c.77-4.06,3.15-10.19,8-8.99,0,1.41-.68,2.66-1,3.99-.66.68-1.29,1.38-2,2-.65.56-4.02,2.43-5,3Z"/>
    <polygon class="cls-11" points="62.71 160.19 59.72 160.18 61.71 155.19 51.72 154.2 61.78 154.62 62.71 160.19"/>
    <path class="cls-11" d="M43.71,152.19l-1-1c.75.07.93,1,1,1Z"/>
    <path class="cls-8" d="M76.71,152.19h-1c.37-.01.73,0,1,0Z"/>
    <path class="cls-10" d="M108.71,155.19c-.44.72.08,1.86-1.55,2.91-.43.28-8.56,3.8-9.45,4.09-.97.32-4.24,1.01-5.01.52l-.96-1.07.97-3.45c.71-.62,1.34-1.32,2-2-.4,1.69-2.43,5.27.53,5.04,4.37-.34,9.12-5.21,13.47-6.04Z"/>
    <path class="cls-7" d="M84.71,170.19c-.33.03-.67-.02-1,0l.5-.98.5.98Z"/>
    <path class="cls-11" d="M80.71,174.19c1.57,1.2.02,1.82-1.47,2-12.48,1.47-25.22,1.56-37.52-1.02-.65-4,2.27-.44,3.78-1.2.28-.14-.17-1.74,1.68-1.9,3.86-.33,10.78,1.84,15.05,2.11,6.12.39,12.36-.27,18.48.02Z"/>
    <path class="cls-16" d="M25.71,147.19c3.3.05,1.56,1.58,2,2l-.51.99h-1.48s0-2.99,0-2.99Z"/>
    <path class="cls-7" d="M34.71,36.19c-3.5.99-4.79.75-6,4-1.62,4.35.06,5.21.05,9.45-.01,6.27-.41,12.34-1.05,18.55v1c-.44-.3-1.54-.29-2-1,1.38-9.34,1.38-18.68,0-28,.87-.79,1.25-2.39,2-3,1.41-1.15,4.38-1.84,6-3,.18.55,1.07,1.67,1,2Z"/>
    <path class="cls-5" d="M44.71,119.19c.01.85,2.25,2.91-.65,3.85-2.98.93-5.65-.48-8.35-.85-3-.42-6.03-.94-9.02-1.48l-.98-3.51,19,1.99Z"/>
    <path class="cls-9" d="M32.71,144.19c-.06,0-.29,1.27-1.02.6-1.01-.83-.68-2.11-.98-2.6h1c.23.75,0,1.65,1,2Z"/>
    <path class="cls-9" d="M28.71,136.19c.35.67.61,1.31,1,2,.1.63-.15,1.46,0,2-1.27-2.26-4.06-5.82-5-8l-1-2c-.29-.82-1.96-6.85-.01-6.99-.51,5.15,2.89,8.9,5.01,12.99Z"/>
    <path class="cls-9" d="M30.71,142.19c-.47-.77-.67-1.42-1-2,.13.46,1.06,1.19,1,2Z"/>
    <path class="cls-1" d="M24.71,132.19c-.24-.55-.64-.99-1-2l1,2Z"/>
    <path class="cls-11" d="M26.71,80.19c5.86,3.12,8.62,12.81,13.04,16.46,7.16,5.93,26.37,8.84,35.4,7.47,5.09-.77,12.23-5.48,16.09-8.91s6.9-10.62,12.47-10.03c2.05,8.86,6.57,18.85,4,28-16.06,3.68-38.01,2.55-54.46,1.96-5.44-.19-28.26.06-31.56-2.44-3.49-2.64,3.8-27.58,5.02-32.52Z"/>
    <path class="cls-17" d="M36.71,74.19l14.66,16.84c9.72,5.41,21.05,5.14,29.81-1.87,2.76-2.21,3.9-4.95,6.01-6.99,2.49-2.41,7.49-2.62,7.52-7.98,1.65-.11,4.54-2.01,6.91-.9.93.79,1.66,10.05,2.09,11.9-5.58-.59-8.72,6.71-12.47,10.03s-11,8.13-16.09,8.91c-9.03,1.37-28.24-1.55-35.4-7.47-4.42-3.66-7.18-13.35-13.04-16.46.32-1.3.44-6.32,1.1-6.89,3.09-.95,6.13.62,8.9.89Z"/>
    <path class="cls-9" d="M94.71,74.19c-.03,5.36-5.03,5.57-7.52,7.98-2.11,2.04-3.25,4.78-6.01,6.99-8.76,7-20.09,7.27-29.81,1.87l-14.66-16.84c1.99.19,6.48,1,7.5,1h40c2.13,0,7.45-.8,10.5-1Z"/>
    <path class="cls-1" d="M100.71,66.19c.3,1.68.39,3.38,1,5-19.4,3.21-40.39,4.16-60,2l.16-3.83c1.06.05,2.83-1.17,3.34-1.17h23c2.93,0,12,.51,13.85.01,1.05-.28.57-1.96.65-2.01.55-.36,4.81.31,6.47-.05s2.86-1.82,3.53-1.95c3.27-.66,4.98,2.15,8,2Z"/>
    <path class="cls-10" d="M102.71,71.19h-1c-.61-1.62-.7-3.32-1-5-1.62-9.21-1.4-18.78,0-28h1c.31.34.91.1.93,1.36-3.2,10.24-1.6,21.23.07,31.64Z"/>
    <path class="cls-11" d="M18.71,69.19c-1.66-.62-1.13-4.07-1.04-5.54.33-5.63,1.22-13.74,4.75-18.2.64-.81-.03-1.83,2.28-1.27,3.54,11.39-1.09,15.84-5.99,25Z"/>
    <path class="cls-5" d="M99.71,37.19c-1.56-.75-2.18-.17-4-2,2.59-.72,2.93,1.08,4,2Z"/>
    <path class="cls-5" d="M101.71,38.19h-1c-.36-.3-.65-.69-1-1,.68.33,1.3.24,2,1Z"/>
    <path class="cls-5" d="M85.71,28.19c3.26.35,2.74.64,5,2h-16s.44,7.06.44,7.06c1.42,2.06,15.01.07,18.56,1.93l-2.99-9c3.85,2.31,2.68,2.67,5,5l-.92,1.39,1.91,5.08c-1.69,2.67-2.51.78-3.99.53-18.35-3.02-36.82-5.6-55,0-1.12.34-2.25.71-3.41.92l-1.58-1.47c-.53-2,1.67-3.9,1.99-5.45.07-.33-.82-1.45-1-2,.61-.44,1.55-1.94,3-3-.14,1.63.21,3.38,0,5-.05.36-1.66,1.49-1,2.99l18-.99c.04-1-.04-2,0-3,.05-1.66-.02-3.35,0-5.01l-17.01,1.01c.38-.28.57-1.27,1.68-1.78,4.39-1.99,40.67-1.93,47.32-1.22ZM73.71,38.19c-.28-3.02,1.11-6.87-1.5-9h-16.5v9h18Z"/>
    <path class="cls-10" d="M113.71,53.19c-2.23-8.23-4.58-15.2-5-23.99l2,1.99c.53,7.83,2.17,15.69,5,23-.33,1.76.25,4.12-.01,6h-.98c.22-2.45-.38-4.68-1.01-7Z"/>
    <path class="cls-6" d="M112.71,150.19c-.01.46-.84,1.38-1,2-3.28.8-1.29.8-2,2-2.24.03-7.24-4.14-8-6-.09-.21,0-.66,0-1,.2-.12.97.16,1.67-.31,2.95-1.96,6.72-8.65,8.7-1.47.11.4.64,4.54.63,4.78Z"/>
    <path class="cls-15" d="M108.71,139.19c.54-8.35,2.48-16.6,2-25,.05-.02.51-1.93,1-.5-.14,8.26.57,18.02-3,25.5Z"/>
    <path class="cls-17" d="M107.71,141.19c5.74-.37,7.36,4.36,5,9,0-.24-.52-4.38-.63-4.78-1.97-7.18-5.75-.49-8.7,1.47-.7.47-1.47.19-1.67.31-.06-2.41,4.14-3.4,6-6Z"/>
    <path class="cls-11" d="M101.71,117.19c1-.04,2,.03,3,0-2.24,5.4-5.64,4.3-11,5-3.78.49-12.09,3.19-9-3,4.1.45,12.2-1.82,17-2Z"/>
    <path class="cls-8" d="M101.71,116.19v1c-4.8.18-12.9,2.45-17,2-.67-.07-3.15-1.48-4-2,6.74-.2,14.35-.21,21-1Z"/>
    <path class="cls-8" d="M78.71,117.19c-5.73,1.67-14.19,1.68-20,0,6.63.1,13.38.17,20,0Z"/>
    <path class="cls-15" d="M103.71,129.19c.95-2.26,2-4.47,2.01-7l1.84,1.33-9.86,22.67c-2.02.16-.29-4.31.01-4.99,1.71-3.86,4.16-7.62,6-12Z"/>
    <path class="cls-1" d="M105.71,115.19c-.3.68-.72,1.32-1,2-1,.03-2-.04-3,0v-1c.64-.08,2.37-.76,4-1Z"/>
    <path class="cls-10" d="M27.71,68.19c.64-6.2,1.03-12.28,1.05-18.55,0-4.24-1.67-5.1-.05-9.45,1.47,8.74,2.2,19.57-1,28Z"/>
    <path class="cls-3" d="M92.71,42.19c.35,2.11-.27,3.43-1.34,5.16-2.11,3.44-19.22,16.05-23.22,16.78-5.51,1-12.89-1-19.45.06.49-1.92-.22-2.59-1-4-.68-1.22-1.35-1.33-2-2-.12-.13.37-1.27-.25-1.78s-2.32.01-2.62-.3c-.42-.43.12-6.82-1.15-9.15-.86-1.58-4.27-1.73-3.98-4.77,18.18-5.6,36.65-3.02,55,0Z"/>
    <path class="cls-19" d="M45.71,58.19c.65.67,1.32.78,2,2,.25,4.67-4.75,5.6-8.41,4.11l-.59-5.11c2.26-1.7,4.28-.94,7-1Z"/>
    <path class="cls-12" d="M89.71,58.19l1,6c-5.96.16-11.73,1.07-7-6,1.71,0,4.63-.33,6,0Z"/>
    <path class="cls-11" d="M83.71,58.19c-4.73,7.07,1.04,6.16,7,6l-1-6c2.14.51,3.1,3.99,3,6-.67.13-1.88,1.6-3.53,1.95s-5.93-.31-6.47.05c-3.34-1.36-2.14-5.68-.46-8.07l.91-.64c.26-.04.47.71.55.71Z"/>
    <path class="cls-11" d="M38.71,59.19l.59,5.11c3.66,1.49,8.65.56,8.41-4.11.78,1.41,1.49,2.08,1,4-.2.03-1.44,1.63-3.52,1.95-2.85.45-8.36.44-8.46-3.44.08-1.54.78-2.61,1.98-3.51Z"/>
    <path class="cls-14" d="M73.71,38.19h-18v-9h16.5c2.61,2.13,1.22,5.98,1.5,9Z"/>
    <path class="cls-12" d="M90.71,30.19l2.99,9c-3.55-1.86-17.13.13-18.56-1.93l-.44-7.07h16Z"/>
    <path class="cls-12" d="M36.71,31.19l17.01-1.01c-.03,1.66.05,3.34,0,5.01l-17,1c.21-1.62-.14-3.37,0-5Z"/>
    <path class="cls-19" d="M53.71,35.19c-.03,1,.05,2.01,0,3l-18,.99c-.66-1.5.95-2.64,1-2.99l17-1Z"/>
  </g>
</svg>